<svg xmlns="http://www.w3.org/2000/svg" width="857.461" height="1107.29" viewBox="0 0 857.461 1107.29">
  <defs>
    <style>
      .cls-1 {
        fill: #FDDE2E;
        opacity: 0.2;
      }

      .cls-2, .cls-5, .cls-6, .cls-7 {
        fill: none;
        stroke-miterlimit: 10;
      }

      .cls-2 {
        stroke: #708fa0;
        stroke-linecap: round;
      }

      .cls-2, .cls-7 {
        stroke-width: 8px;
      }

      .cls-3 {
        fill: #fff;
      }

      .cls-4 {
        fill: #1de8f7;
      }

      .cls-5 {
        stroke: #ef4230;
      }

      .cls-5, .cls-6 {
        stroke-width: 7px;
        opacity: 0.1;
      }

      .cls-6 {
        stroke: #26a6e0;
      }

      .cls-7 {
        stroke: #b3b3b3;
      }
    </style>
  </defs>
  <g id="Group_303" data-name="Group 303" transform="translate(2490.614 1165.507)">
    <rect id="Rectangle_52" data-name="Rectangle 52" class="cls-1" width="857.461" height="1077.331" rx="37.326" transform="translate(-2490.614 -1135.548)"/>
    <line id="Line_103" data-name="Line 103" class="cls-2" x2="8.214" y2="32.815" transform="translate(-2317.035 -1120.707)"/>
    <path id="Path_459" data-name="Path 459" class="cls-2" d="M-2318.532-1096.451l1.945,7.769a10.123,10.123,0,0,1-7.361,12.277h0a10.122,10.122,0,0,1-12.277-7.361l-1.944-7.768-9.6-38.343" transform="translate(8.655 4.344)"/>
    <rect id="Rectangle_27" data-name="Rectangle 27" class="cls-3" width="815.461" height="1025.331" rx="37.326" transform="translate(-2469.614 -1109.548)"/>
    <path id="Rectangle_28" data-name="Rectangle 28" class="cls-4" d="M37.326,0h7.259a0,0,0,0,1,0,0V1025.331a0,0,0,0,1,0,0H37.326A37.326,37.326,0,0,1,0,988V37.326A37.326,37.326,0,0,1,37.326,0Z" transform="translate(-2469.614 -1109.548)"/>
    <g id="Group_301" data-name="Group 301" transform="translate(-2425.028 -1021.965)">
      <line id="Line_104" data-name="Line 104" class="cls-5" x2="770.875"/>
      <line id="Line_105" data-name="Line 105" class="cls-6" x2="770.875" transform="translate(0 79.065)"/>
      <line id="Line_106" data-name="Line 106" class="cls-6" x2="770.875" transform="translate(0 158.13)"/>
      <line id="Line_107" data-name="Line 107" class="cls-6" x2="770.875" transform="translate(0 237.196)"/>
      <line id="Line_108" data-name="Line 108" class="cls-6" x2="770.875" transform="translate(0 316.261)"/>
      <line id="Line_109" data-name="Line 109" class="cls-6" x2="770.875" transform="translate(0 395.326)"/>
      <line id="Line_110" data-name="Line 110" class="cls-6" x2="770.875" transform="translate(0 474.391)"/>
      <line id="Line_111" data-name="Line 111" class="cls-6" x2="770.875" transform="translate(0 553.457)"/>
      <line id="Line_112" data-name="Line 112" class="cls-6" x2="770.875" transform="translate(0 632.522)"/>
      <line id="Line_113" data-name="Line 113" class="cls-6" x2="770.875" transform="translate(0 711.587)"/>
      <line id="Line_114" data-name="Line 114" class="cls-6" x2="770.875" transform="translate(0 790.652)"/>
      <line id="Line_115" data-name="Line 115" class="cls-6" x2="770.875" transform="translate(0 869.718)"/>
    </g>
    <path id="Path_460" data-name="Path 460" class="cls-7" d="M-2328.244-1161.541" transform="translate(27.494)"/>
    <g id="Group_302" data-name="Group 302" transform="translate(-2359.531 -1161.46)">
      <path id="Path_461" data-name="Path 461" class="cls-2" d="M-2354.91-1086.605l-15.326-61.223a18.136,18.136,0,0,1,13.189-22h0a18.136,18.136,0,0,1,22,13.189l6.762,27.016" transform="translate(2370.782 1170.371)"/>
      <path id="Path_462" data-name="Path 462" class="cls-2" d="M-2363.374-1117.828l14.4,57.519a25.514,25.514,0,0,0,30.945,18.554h0a25.513,25.513,0,0,0,18.553-30.945l-6.674-25.844" transform="translate(2369.947 1164.445)"/>
    </g>
  </g>
</svg>
