<?xml version="1.0" encoding="utf-8"?>
<!-- Generator: Adobe Illustrator 23.0.0, SVG Export Plug-In . SVG Version: 6.00 Build 0)  -->
<svg version="1.1" id="Layer_1" xmlns="http://www.w3.org/2000/svg" xmlns:xlink="http://www.w3.org/1999/xlink" x="0px" y="0px"
	 viewBox="0 0 183.9 92.8" style="enable-background:new 0 0 183.9 92.8;" xml:space="preserve">
<style type="text/css">
	.st0{fill:#FFFFFF;stroke:#DBDBDB;stroke-width:6;stroke-linecap:round;stroke-linejoin:round;}
	.st1{enable-background:new    ;}
	.st2{fill:#1C3F55;}
</style>
<path id="Rectangle_47" class="st0" d="M30,3h123.9c14.9,0,27,12.1,27,27v32.8c0,14.9-12.1,27-27,27H30c-14.9,0-27-12.1-27-27V30
	C3,15.1,15.1,3,30,3z"/>
<g class="st1">
	<path class="st2" d="M40.9,50.5c-0.2-0.2-0.3-0.4-0.3-0.7V39.3c0-0.3,0.1-0.5,0.3-0.7c0.2-0.2,0.4-0.3,0.7-0.3h4.6
		c0.3,0,0.5,0.1,0.7,0.3c0.2,0.2,0.3,0.4,0.3,0.7v10.5c0,0.2-0.1,0.5-0.3,0.6c-0.2,0.2-0.4,0.3-0.7,0.3h-4.6
		C41.3,50.8,41.1,50.7,40.9,50.5z"/>
	<path class="st2" d="M70.5,40.6c1.7,1.5,2.6,3.8,2.6,6.9v11.1c0,0.2-0.1,0.5-0.3,0.6c-0.2,0.2-0.4,0.3-0.7,0.3h-4.4
		c-0.3,0-0.5-0.1-0.7-0.3s-0.3-0.4-0.3-0.7v-11c0-2.8-1.4-4.2-4.2-4.2h-2.4c-0.4,1.7-0.6,3.5-0.6,5.4l0.3,9.7c0,0.3-0.1,0.5-0.3,0.7
		s-0.4,0.3-0.7,0.3l-7.8,0c-0.3,0-0.5-0.1-0.7-0.3s-0.3-0.4-0.3-0.7v-2.9c0-0.3,0.1-0.5,0.3-0.7s0.4-0.3,0.7-0.3h3v-5.8
		c0-2,0.1-3.8,0.6-5.5h-2.2c-0.3,0-0.5-0.1-0.7-0.3s-0.3-0.4-0.3-0.7v-3.2c0-0.3,0.1-0.5,0.3-0.7c0.2-0.2,0.4-0.3,0.7-0.3h10.3
		C66.2,38.4,68.8,39.1,70.5,40.6z"/>
	<path class="st2" d="M95.9,40.7c1.6,1.5,2.4,3.8,2.4,6.8v11.2c0,0.2-0.1,0.5-0.3,0.6c-0.2,0.2-0.4,0.3-0.7,0.3H87.2
		c-0.2,0-0.5-0.1-0.6-0.3c-0.2-0.2-0.3-0.4-0.3-0.6v-3.2c0-0.3,0.1-0.5,0.3-0.7c0.2-0.2,0.4-0.3,0.6-0.3H92v-6.8
		c0-1.3-0.3-2.3-0.9-3c-0.6-0.7-1.4-1.1-2.4-1.1h-2.9l-3.1,14.9c0,0.3-0.1,0.5-0.3,0.7c-0.2,0.2-0.4,0.3-0.7,0.3h-4.3
		c-0.3,0-0.5-0.1-0.7-0.3c-0.2-0.2-0.3-0.4-0.2-0.7l3.6-14.9h-2.4c-0.3,0-0.5-0.1-0.7-0.3c-0.2-0.2-0.3-0.4-0.3-0.7v-3.4
		c0-0.3,0.1-0.5,0.3-0.7c0.2-0.2,0.4-0.3,0.6-0.3h11.9C92.2,38.4,94.3,39.2,95.9,40.7z"/>
	<path class="st2" d="M102.5,50.5c-0.2-0.2-0.3-0.4-0.3-0.7V39.3c0-0.3,0.1-0.5,0.3-0.7c0.2-0.2,0.4-0.3,0.7-0.3h4.6
		c0.3,0,0.5,0.1,0.7,0.3c0.2,0.2,0.3,0.4,0.3,0.7v10.5c0,0.2-0.1,0.5-0.3,0.6c-0.2,0.2-0.4,0.3-0.7,0.3h-4.6
		C103,50.8,102.7,50.7,102.5,50.5z"/>
	<path class="st2" d="M113.1,50.5c-0.2-0.2-0.3-0.4-0.3-0.7V39.3c0-0.3,0.1-0.5,0.3-0.7c0.2-0.2,0.4-0.3,0.7-0.3h4.6
		c0.3,0,0.5,0.1,0.7,0.3c0.2,0.2,0.3,0.4,0.3,0.7v10.5c0,0.2-0.1,0.5-0.3,0.6c-0.2,0.2-0.4,0.3-0.7,0.3h-4.6
		C113.5,50.8,113.3,50.7,113.1,50.5z"/>
	<path class="st2" d="M125.9,57.5c-1.7-1.6-2.5-3.9-2.5-6.9V39.3c0-0.3,0.1-0.5,0.3-0.7c0.2-0.2,0.4-0.3,0.7-0.3h9.4
		c3.5,0,6.1,0.8,7.6,2.3c1.6,1.5,2.4,3.7,2.6,6.7c0,0.2,0,0.8,0,1.7c0,0.9,0,1.5,0,1.8c-0.1,3-1,5.2-2.6,6.8
		c-1.6,1.5-4.2,2.3-7.9,2.3C130.1,59.9,127.5,59.1,125.9,57.5z M136.9,53.7c0.7-0.6,1-1.6,1.1-3.1c0-0.2,0-0.8,0-1.6
		c0-0.8,0-1.3,0-1.6c0-1.4-0.4-2.4-1.1-3.1c-0.7-0.7-1.8-1-3.3-1h-4.5v7.1c0,1.4,0.4,2.4,1.1,3.1c0.7,0.7,1.8,1,3.2,1
		C135.1,54.6,136.2,54.3,136.9,53.7z"/>
</g>
</svg>
