<svg id="b02c3c29-a6b0-4c66-8b17-cf5f0479bd73" data-name="Layer 1" xmlns="http://www.w3.org/2000/svg" viewBox="0 0 767.27399 1483.16225" preserveAspectRatio="none"><defs><style>.a6fbb8c7-acc3-4d42-8f12-63189f34b70f{fill:none;stroke:#708fa0;stroke-linecap:round;stroke-miterlimit:10;stroke-width:8px;}.a6a4a6f7-a208-4410-b516-bae7f7ed4eaf{fill:#fff;}</style></defs><title>finishPractice_popup</title><g id="a1c167d5-d224-4f94-9f1f-2ae3914a6a0f" data-name="practiceFinish popup"><g id="ab521887-3409-4e27-a507-f0ea41b383ef" data-name="Group 321"><g id="e3411879-90ee-45bf-be7c-64e9c98e51e9" data-name="Group 303"><line id="fc2907e9-c790-4b01-a70b-8edb34b24b2b" data-name="Line 103" class="a6fbb8c7-acc3-4d42-8f12-63189f34b70f" x1="143.563" y1="42.34926" x2="151.292" y2="73.22526"/><path id="e73e7d4c-ca9c-4507-bec8-b9bd7f4bf6f0" data-name="Path 459" class="a6fbb8c7-acc3-4d42-8f12-63189f34b70f" d="M150.29907,69.25919l1.83008,7.309A9.52384,9.52384,0,0,1,145.20337,88.12l-.00024.00012h0a9.524,9.524,0,0,1-11.551-6.926l-1.83008-7.309-9.031-36.077"/><path id="a439055e-cc9b-4cee-b3d8-9ca01fbcb798" data-name="Rectangle 27" class="a6a4a6f7-a208-4410-b516-bae7f7ed4eaf" d="M37.326,52.84926H729.948a37.326,37.326,0,0,1,37.326,37.326v1355.661a37.326,37.326,0,0,1-37.326,37.326H37.326A37.326,37.326,0,0,1,0,1445.83625V90.17526a37.326,37.326,0,0,1,37.326-37.326Z"/><g id="b593e7fc-f7a1-475f-95e0-d7d7a176aba3" data-name="Group 302"><path id="b88932d1-cfd3-4a04-804e-7abf0e08f659" data-name="Path 461" class="a6fbb8c7-acc3-4d42-8f12-63189f34b70f" d="M118.51306,82.82018l-14.41992-57.605a17.065,17.065,0,0,1,12.408-20.69947l.002-.00048h0a17.06508,17.06508,0,0,1,20.69946,12.40808l.00049.002,6.363,25.42"/><path id="a6310f25-749c-4587-901e-f1194f57ae75" data-name="Path 462" class="a6fbb8c7-acc3-4d42-8f12-63189f34b70f" d="M109.76306,47.8662l13.5481,54.12a24.006,24.006,0,0,0,29.116,17.458h0a24.00606,24.00606,0,0,0,17.457-29.116l-6.28-24.317"/></g></g></g></g></svg>