<svg id="b40d6e17-514f-46de-ad69-ab017af0398a" data-name="Layer 1" xmlns="http://www.w3.org/2000/svg" viewBox="0 0 335.74701 110.901"><defs><style>.f9e22e4a-1634-4640-9717-a0f164177c4b{fill:#d09422;opacity:0.2;}.b8dc6f49-cd12-4804-8c7e-8117b407551a,.f9e22e4a-1634-4640-9717-a0f164177c4b{isolation:isolate;}.f86ceee4-d524-427c-933d-ea0cc608549f{fill:#fff;}.acff9d2b-7ac8-4499-9915-ca3c3a026221{fill:#1c3f55;}</style></defs><title>halfhalf_btn</title><g id="b739f35b-7d46-4d34-a43b-58db552b9ae3" data-name="Group 341"><rect id="bb872f0e-0977-4f3c-9f34-4652392b413d" data-name="Rectangle 25" class="f9e22e4a-1634-4640-9717-a0f164177c4b" y="13" width="335.74701" height="97.901" rx="23"/><rect id="e1acf7b0-8bf1-41dc-ae15-fbffb99d17d9" data-name="Rectangle 24" class="f86ceee4-d524-427c-933d-ea0cc608549f" width="335.74701" height="97.901" rx="23"/><g id="b8cf3ab3-f609-46bb-a006-6abbd4ed1f67" data-name="Group 340"><g id="a72e54f7-3714-4367-8248-5ce74f22b2c9" data-name="Group 336"><g id="ed9c7888-07f7-480b-bed0-b514498cb52a" data-name="Group 338"><path id="b44fef80-a2e3-4255-a503-50c90d2a455a" data-name="Path 465" class="acff9d2b-7ac8-4499-9915-ca3c3a026221" d="M291.47247,49.4794a27.056,27.056,0,1,1-27.057-27.055h.001a27.055,27.055,0,0,1,27.056,27.054v.001"/></g></g><g id="e2bf7a4f-1d14-4863-815a-dae7727a9d46" data-name="Group 339"><g id="f722762c-a3ae-4ab8-a546-4a07b192fd68" data-name=" 2" class="b8dc6f49-cd12-4804-8c7e-8117b407551a"><g class="b8dc6f49-cd12-4804-8c7e-8117b407551a"><path class="f86ceee4-d524-427c-933d-ea0cc608549f" d="M250.21094,49.86761a.45649.45649,0,0,1-.14258-.332V48.1098a1.16823,1.16823,0,0,1,.47461-.94922l1.76758-1.72949q1.80468-1.36816,2.72656-2.12793a9.36112,9.36112,0,0,0,1.40527-1.37793,1.92908,1.92908,0,0,0,.48535-1.168,1.243,1.243,0,0,0-1.40625-1.40625,1.45375,1.45375,0,0,0-1.14062.44629,2.30962,2.30962,0,0,0-.53125,1.1123.5838.5838,0,0,1-.64648.43653h-2.50782a.40441.40441,0,0,1-.29492-.123.38476.38476,0,0,1-.123-.27637,4.36016,4.36016,0,0,1,.69336-2.27051,4.60962,4.60962,0,0,1,1.834-1.61425,5.91065,5.91065,0,0,1,2.71679-.59864,6.77326,6.77326,0,0,1,2.75489.5127,3.74239,3.74239,0,0,1,2.35547,3.61035,3.95553,3.95553,0,0,1-.84473,2.46973,13.2477,13.2477,0,0,1-2.5752,2.39453l-1.57617,1.57617h4.80664a.45647.45647,0,0,1,.47461.47559v2.0332a.47053.47053,0,0,1-.13281.332.44872.44872,0,0,1-.3418.14258H250.543A.45647.45647,0,0,1,250.21094,49.86761Z"/></g></g><g id="b75dce5c-79b9-4447-9a3a-41987b518fe1" data-name=" 2-2" class="b8dc6f49-cd12-4804-8c7e-8117b407551a"><g class="b8dc6f49-cd12-4804-8c7e-8117b407551a"><path class="f86ceee4-d524-427c-933d-ea0cc608549f" d="M268.126,62.226a.4565.4565,0,0,1-.14258-.332V60.4682a1.16822,1.16822,0,0,1,.47461-.94922l1.76758-1.72949q1.80468-1.36816,2.72656-2.12793a9.36112,9.36112,0,0,0,1.40527-1.37793,1.92917,1.92917,0,0,0,.48535-1.168,1.243,1.243,0,0,0-1.40625-1.40625,1.45375,1.45375,0,0,0-1.14062.44629,2.30962,2.30962,0,0,0-.53125,1.1123.5838.5838,0,0,1-.64649.43652h-2.50781a.4044.4044,0,0,1-.29492-.123.38476.38476,0,0,1-.123-.27637,4.36013,4.36013,0,0,1,.69336-2.27051,4.60962,4.60962,0,0,1,1.834-1.61425,5.91065,5.91065,0,0,1,2.71679-.59864,6.77326,6.77326,0,0,1,2.75489.5127,3.74237,3.74237,0,0,1,2.35547,3.61035,3.95553,3.95553,0,0,1-.84473,2.46973A13.2477,13.2477,0,0,1,275.127,57.809l-1.57617,1.57617h4.80664a.45647.45647,0,0,1,.47461.47558V61.894a.47054.47054,0,0,1-.13281.332.44872.44872,0,0,1-.3418.14258H268.458A.45647.45647,0,0,1,268.126,62.226Z"/></g></g><g id="b40a2bd7-d7ce-4ae1-a038-956aeb54244f" data-name=" " class="b8dc6f49-cd12-4804-8c7e-8117b407551a"><g class="b8dc6f49-cd12-4804-8c7e-8117b407551a"><path class="f86ceee4-d524-427c-933d-ea0cc608549f" d="M260.14551,58.41742a.388.388,0,0,1-.11426-.28516.553.553,0,0,1,.03809-.209l6.46-15.52343a.84638.84638,0,0,1,.22851-.27539.58207.58207,0,0,1,.37989-.12305h1.23437a.38887.38887,0,0,1,.39941.39844.55654.55654,0,0,1-.03808.209l-6.49805,15.52344a.69456.69456,0,0,1-.19922.27539.57887.57887,0,0,1-.38965.12305h-1.23535A.366.366,0,0,1,260.14551,58.41742Z"/></g></g></g></g></g><g class="b8dc6f49-cd12-4804-8c7e-8117b407551a"><path class="acff9d2b-7ac8-4499-9915-ca3c3a026221" d="M51.53955,53.8471a1.24577,1.24577,0,0,1-.39746-.9541V37.84027a1.24511,1.24511,0,0,1,.39746-.95313,1.38333,1.38333,0,0,1,.98047-.37109h6.625a1.271,1.271,0,0,1,1.32519,1.32422V52.893a1.31725,1.31725,0,0,1-.37109.92676,1.24634,1.24634,0,0,1-.9541.39844H52.52A1.38334,1.38334,0,0,1,51.53955,53.8471Z"/><path class="acff9d2b-7ac8-4499-9915-ca3c3a026221" d="M90.521,48.94378a13.01121,13.01121,0,0,1-4.66407,4.79688l4.13379,5.6709a5.41281,5.41281,0,0,1,.50342.79492,2.13776,2.13776,0,0,1,.18555.9541v4.293a1.31743,1.31743,0,0,1-.3711.92773,1.24786,1.24786,0,0,1-.95361.39746H67.83691a1.35836,1.35836,0,0,1-1.32519-1.32519v-4.7168a1.24722,1.24722,0,0,1,.39746-.9541,1.31826,1.31826,0,0,1,.92773-.37109H80.292L64.86865,38.42327a1.8091,1.8091,0,0,1-.31787-.84765.95473.95473,0,0,1,.34473-.76856,1.2335,1.2335,0,0,1,.82129-.291h6.57177a1.95,1.95,0,0,1,1.69629.9541l7.41993,10.17578q2.4375-2.06689,2.438-6.73144V37.94671a1.39656,1.39656,0,0,1,.39746-1.0332,1.32916,1.32916,0,0,1,.98047-.39746h5.56494a1.23678,1.23678,0,0,1,.92774.42383,1.42433,1.42433,0,0,1,.39746,1.00683v4.55762A13.12881,13.12881,0,0,1,90.521,48.94378Z"/><path class="acff9d2b-7ac8-4499-9915-ca3c3a026221" d="M98.1792,66.40765a1.24431,1.24431,0,0,1-.39746-.9541V37.84027a1.24511,1.24511,0,0,1,.39746-.95313,1.38333,1.38333,0,0,1,.98047-.37109H111.668q7.5249,0,11.10351,3.10058,3.57716,3.09962,3.57715,10.20215V65.45355a1.31906,1.31906,0,0,1-.3706.92773,1.24967,1.24967,0,0,1-.9541.39746H118.77a1.37945,1.37945,0,0,1-.981-.37109,1.246,1.246,0,0,1-.39746-.9541V49.76605q0-6.04248-5.98877-6.042h-4.66406V65.45355a1.31742,1.31742,0,0,1-.37109.92773,1.24821,1.24821,0,0,1-.95411.39746h-6.2539A1.37909,1.37909,0,0,1,98.1792,66.40765Z"/><path class="acff9d2b-7ac8-4499-9915-ca3c3a026221" d="M143.65234,53.8471a1.2458,1.2458,0,0,1-.39746-.9541V37.84027a1.24515,1.24515,0,0,1,.39746-.95313,1.38333,1.38333,0,0,1,.98047-.37109h6.625a1.271,1.271,0,0,1,1.3252,1.32422V52.893a1.31722,1.31722,0,0,1-.3711.92676,1.24631,1.24631,0,0,1-.9541.39844h-6.625A1.38334,1.38334,0,0,1,143.65234,53.8471Z"/><path class="acff9d2b-7ac8-4499-9915-ca3c3a026221" d="M182.63379,48.94378a13.01507,13.01507,0,0,1-4.66406,4.79688l4.13379,5.6709a5.40807,5.40807,0,0,1,.50293.79492,2.13119,2.13119,0,0,1,.18554.9541v4.293a1.31742,1.31742,0,0,1-.37109.92773,1.24682,1.24682,0,0,1-.95313.39746H159.94971a1.35836,1.35836,0,0,1-1.3252-1.32519v-4.7168a1.24726,1.24726,0,0,1,.39746-.9541,1.31827,1.31827,0,0,1,.92774-.37109H172.4043L156.98145,38.42327a1.809,1.809,0,0,1-.31788-.84765.95473.95473,0,0,1,.34473-.76856,1.2335,1.2335,0,0,1,.82129-.291h6.57178a1.95,1.95,0,0,1,1.69629.9541l7.41992,10.17578q2.4375-2.06689,2.4375-6.73144V37.94671a1.39844,1.39844,0,0,1,.39746-1.0332,1.33069,1.33069,0,0,1,.98047-.39746h5.56543a1.23827,1.23827,0,0,1,.92773.42383,1.42433,1.42433,0,0,1,.39746,1.00683v4.55762A13.12881,13.12881,0,0,1,182.63379,48.94378Z"/><path class="acff9d2b-7ac8-4499-9915-ca3c3a026221" d="M190.292,66.40765a1.24265,1.24265,0,0,1-.39746-.9541V37.84027a1.24344,1.24344,0,0,1,.39746-.95313,1.38168,1.38168,0,0,1,.98047-.37109h12.50781q7.52491,0,11.10352,3.10058,3.57714,3.09962,3.57715,10.20215V65.45355a1.32072,1.32072,0,0,1-.37012.92773,1.25041,1.25041,0,0,1-.9541.39746h-6.25391a1.38141,1.38141,0,0,1-.98144-.37109,1.246,1.246,0,0,1-.39746-.9541V49.76605q0-6.04248-5.98828-6.042h-4.66407V65.45355a1.31742,1.31742,0,0,1-.37109.92773,1.24894,1.24894,0,0,1-.9541.39746h-6.25391A1.37745,1.37745,0,0,1,190.292,66.40765Z"/></g></svg>