<?xml version="1.0" encoding="utf-8"?>
<!-- Generator: Adobe Illustrator 23.0.0, SVG Export Plug-In . SVG Version: 6.00 Build 0)  -->
<svg version="1.1" id="Layer_1" xmlns="http://www.w3.org/2000/svg" xmlns:xlink="http://www.w3.org/1999/xlink" x="0px" y="0px"
	 viewBox="0 0 377.3 166.7" style="enable-background:new 0 0 377.3 166.7;" xml:space="preserve">
<style type="text/css">
	.st0{fill:none;stroke:#708FA0;stroke-width:7;stroke-linecap:round;stroke-miterlimit:10;}
	.st1{fill:#FFFFFF;}
	.st2{enable-background:new    ;}
	.st3{fill:#1C3F55;}
</style>
<g id="Group_303" transform="translate(2276.096 1133.878)">
	<g id="Group_330" transform="translate(234.518)">
		<path id="Path_459" class="st0" d="M-2184.1-1081l1.4,5.5c1,3.9-1.4,7.8-5.2,8.7l0,0c-3.9,1-7.8-1.4-8.7-5.2l0,0l-1.4-5.5
			l-6.8-27.3"/>
		<line id="Line_118" class="st0" x1="-2189.3" y1="-1101.3" x2="-2183.4" y2="-1078"/>
		<path id="Rectangle_27" class="st1" d="M-2483.6-1096.6h323.3c14.9,0,27,12.1,27,27v75.5c0,14.9-12.1,27-27,27h-323.3
			c-14.9,0-27-12.1-27-27v-75.5C-2510.6-1084.5-2498.5-1096.6-2483.6-1096.6z"/>
		<g id="Group_331" transform="translate(-2219.463 -1130.343)">
			<path id="Path_461" class="st0" d="M11.3,59.7L0.4,16.1c-1.7-7,2.5-14,9.4-15.7l0,0c6.9-1.7,13.9,2.5,15.7,9.4l0,0L30.3,29"/>
			<path id="Path_462" class="st0" d="M4.7,33.2l10.3,41c2.4,9.7,12.3,15.6,22,13.2l0,0c9.7-2.4,15.6-12.3,13.2-22L45.4,47"/>
		</g>
	</g>
	<g class="st2">
		<path class="st3" d="M-2141.2-1042.5c2.5,2.7,3.7,6.8,3.7,12.3s-1.6,10-4.9,13.5c-3.2,3.5-7.3,6-12.2,7.3l-2.7,0.8
			c-0.4,0.1-0.8-0.1-1.2-0.5s-0.6-0.8-0.6-1.3v-6.6c0-0.4,0.2-0.8,0.5-1.2s0.7-0.7,1.2-0.9l2.1-0.8c2-0.8,3.6-1.9,4.7-3.5
			c1.1-1.5,1.7-3.7,1.7-6.6c0-2.7-0.5-4.6-1.4-5.7c-1-1.1-2.7-1.6-5.3-1.6h-1.5h-0.2l-8.7-0.1c-0.5,0-0.9-0.2-1.2-0.5
			s-0.5-0.7-0.5-1.2v-15c0-0.5,0.2-0.9,0.5-1.2c0.3-0.3,0.7-0.5,1.1-0.5h7c0.5,0,0.9,0.2,1.2,0.5s0.5,0.7,0.5,1.2v7.4h4
			C-2147.7-1046.6-2143.6-1045.3-2141.2-1042.5z"/>
		<path class="st3" d="M-2130.7-1010c-0.3-0.3-0.5-0.7-0.5-1.2v-33.9c0-0.5,0.2-0.9,0.5-1.2c0.3-0.3,0.7-0.5,1.2-0.5h8.1
			c0.5,0,0.9,0.2,1.2,0.5s0.5,0.7,0.5,1.2v33.9c0,0.4-0.2,0.8-0.5,1.1s-0.7,0.5-1.2,0.5h-8.1
			C-2130-1009.5-2130.4-1009.6-2130.7-1010z"/>
		<path class="st3" d="M-2086.4-1010c-0.3,0.3-0.8,0.5-1.2,0.5h-8.1c-0.4,0-0.8-0.2-1.1-0.5s-0.5-0.7-0.5-1.2l-1-4.8
			c-1.1,1.3-2.3,2.4-3.8,3.2c-1.7,1-3.3,1.9-4.7,2.4c-1.4,0.6-2.9,1-4.4,1.3l-0.5,0.1c-0.7,0-1.1-0.3-1.1-1v-7
			c0-0.7,0.5-1.3,1.4-1.6c0.3-0.1,1.3-0.4,3-0.9s3-1,4.1-1.5c1.7-0.9,3.1-2,4.3-3.5l-1.2-6c-0.5-2.6-1.2-4.4-2-5.5s-2.2-1.6-4-1.6
			h-2.3c-0.4,0-0.8-0.2-1.1-0.5s-0.5-0.7-0.5-1.1v-6c0-0.5,0.2-0.9,0.5-1.2c0.3-0.3,0.7-0.5,1.2-0.5h2.5c3.7,0,6.6,0.6,8.9,1.7
			c2.2,1.1,4,2.8,5.3,5.1c1.3,2.3,2.3,5.4,3.1,9.4l3.9,19.8C-2086-1010.7-2086.1-1010.3-2086.4-1010z"/>
		<path class="st3" d="M-2066.1-1010c-0.3-0.3-0.5-0.7-0.5-1.2v-19.2c0-4.9-2.4-7.4-7.3-7.4h-9.9c-0.4,0-0.8-0.2-1.1-0.5
			s-0.5-0.7-0.5-1.1v-5.6c0-0.5,0.2-0.9,0.5-1.2c0.3-0.3,0.7-0.5,1.1-0.5h10.3c6,0,10.5,1.2,13.5,3.7s4.5,6.5,4.5,12.2v19.6
			c0,0.4-0.2,0.8-0.5,1.1s-0.7,0.5-1.2,0.5h-7.7C-2065.4-1009.5-2065.8-1009.6-2066.1-1010z"/>
		<path class="st3" d="M-2013.7-1042.7c3,2.6,4.5,6.6,4.5,12.1v19.6c0,0.4-0.2,0.8-0.5,1.1s-0.7,0.5-1.2,0.5h-7.7
			c-0.5,0-0.9-0.2-1.2-0.5c-0.3-0.3-0.5-0.7-0.5-1.2v-19.2c0-4.9-2.4-7.4-7.3-7.4h-4.2c-0.7,2.9-1,6.1-1,9.6l0.5,17.1
			c0,0.5-0.2,0.9-0.5,1.2s-0.7,0.5-1.2,0.5l-13.8-0.1c-0.5,0-0.9-0.2-1.2-0.5s-0.5-0.7-0.5-1.2v-5.1c0-0.5,0.2-0.9,0.5-1.2
			s0.7-0.5,1.2-0.5h5.3v-10.2c-0.1-3.6,0.2-6.8,1-9.6h-3.8c-0.5,0-0.9-0.2-1.2-0.5c-0.3-0.3-0.5-0.7-0.5-1.2v-5.6
			c0-0.5,0.2-0.9,0.5-1.2c0.3-0.3,0.7-0.5,1.2-0.5h18.1C-2021.2-1046.6-2016.8-1045.3-2013.7-1042.7z"/>
	</g>
</g>
</svg>
