<?xml version="1.0" encoding="utf-8"?>
<!-- Generator: Adobe Illustrator 23.0.0, SVG Export Plug-In . SVG Version: 6.00 Build 0)  -->
<svg version="1.1" id="Layer_1" xmlns="http://www.w3.org/2000/svg" xmlns:xlink="http://www.w3.org/1999/xlink" x="0px" y="0px"
	 viewBox="0 0 335.7 110.9" style="enable-background:new 0 0 335.7 110.9;" xml:space="preserve">
<style type="text/css">
	.st0{opacity:0.2;fill:#d09422;enable-background:new    ;}
	.st1{fill:#FFFFFF;}
	.st2{enable-background:new    ;}
	.st3{fill:#1C3F55;}
</style>
<g id="Group_341_1_" transform="translate(474.239)">
	<path id="Rectangle_25_1_" class="st0" d="M-572.4,516.8h289.7c12.7,0,23,10.3,23,23v51.9c0,12.7-10.3,23-23,23h-289.7
		c-12.7,0-23-10.3-23-23v-51.9C-595.4,527.1-585.1,516.8-572.4,516.8z"/>
	<path id="Rectangle_24_1_" class="st1" d="M-572.4,503.8h289.7c12.7,0,23,10.3,23,23v51.9c0,12.7-10.3,23-23,23h-289.7
		c-12.7,0-23-10.3-23-23v-51.9C-595.4,514.1-585.1,503.8-572.4,503.8z"/>
</g>
<g id="Group_341" transform="translate(474.239)">
	<path id="Rectangle_25" class="st0" d="M-451.2,13h289.7c12.7,0,23,10.3,23,23v51.9c0,12.7-10.3,23-23,23h-289.7
		c-12.7,0-23-10.3-23-23V36C-474.2,23.3-463.9,13-451.2,13z"/>
	<path id="Rectangle_24" class="st1" d="M-451.2,0h289.7c12.7,0,23,10.3,23,23v51.9c0,12.7-10.3,23-23,23h-289.7
		c-12.7,0-23-10.3-23-23V23C-474.2,10.3-463.9,0-451.2,0z"/>
</g>
<g id="Group_340" transform="translate(-493.314)">
	<g class="st2">
		<path class="st3" d="M555.7,55.2c-0.3-0.2-0.4-0.6-0.4-1V39.1c0-0.4,0.1-0.7,0.4-1s0.6-0.4,1-0.4h6.6c0.4,0,0.7,0.1,1,0.4
			c0.2,0.2,0.4,0.6,0.4,1v15.1c0,0.4-0.1,0.7-0.4,0.9c-0.2,0.3-0.6,0.4-1,0.4h-6.6C556.3,55.5,555.9,55.4,555.7,55.2z"/>
		<path class="st3" d="M590.9,41.2c2,2.2,3,5.5,3,10s-1.3,8.2-4,11c-2.6,2.9-6,4.9-10,6l-2.2,0.6c-0.4,0.1-0.7-0.1-1-0.4
			c-0.3-0.3-0.5-0.7-0.5-1.1v-5.4c0-0.4,0.1-0.7,0.4-1c0.2-0.3,0.6-0.5,1-0.7l1.7-0.7c1.6-0.6,2.9-1.6,3.8-2.8
			c0.9-1.3,1.4-3,1.4-5.4c0-2.2-0.4-3.8-1.2-4.7c-0.8-0.9-2.2-1.3-4.3-1.3h-1.2h-0.2l-7.1-0.1c-0.4,0-0.7-0.1-1-0.4
			c-0.2-0.2-0.4-0.6-0.4-1v-12c0-0.4,0.1-0.7,0.4-1c0.3-0.2,0.6-0.4,0.9-0.4h5.7c0.4,0,0.7,0.1,1,0.4c0.2,0.2,0.4,0.6,0.4,1v6h3.3
			C585.6,37.8,588.9,39,590.9,41.2z"/>
		<path class="st3" d="M630,67.7c-0.2-0.2-0.4-0.6-0.4-1V51c0-4-2-6-6-6h-12.1c-0.4,0-0.7-0.1-1-0.4s-0.4-0.6-0.4-1V39
			c0-0.4,0.1-0.7,0.4-1s0.6-0.4,1-0.4h12.3c4.9,0,8.5,1.1,11,3.2c2.5,2.2,3.7,5.5,3.7,10.1v15.9c0,0.4-0.1,0.7-0.4,1
			c-0.3,0.2-0.6,0.4-1,0.4H631C630.6,68.1,630.3,68,630,67.7z M610.6,67.7c-0.3-0.2-0.4-0.6-0.4-1V51.2c0-0.4,0.1-0.7,0.4-1
			s0.6-0.4,1-0.4h6.3c0.4,0,0.7,0.1,1,0.4c0.2,0.2,0.4,0.6,0.4,1v15.6c0,0.4-0.1,0.7-0.4,0.9c-0.2,0.3-0.6,0.4-1,0.4h-6.3
			C611.2,68.1,610.8,68,610.6,67.7z"/>
		<path class="st3" d="M664.1,41.2c2,2.2,3,5.5,3,10s-1.3,8.2-4,11c-2.6,2.9-6,4.9-10,6l-2.1,0.6c-0.4,0.1-0.7-0.1-1-0.4
			c-0.3-0.3-0.5-0.7-0.5-1.1v-5.4c0-0.4,0.1-0.7,0.4-1c0.2-0.3,0.6-0.5,1-0.7l1.7-0.7c1.6-0.6,2.9-1.6,3.8-2.8
			c0.9-1.3,1.4-3,1.4-5.4c0-2.2-0.4-3.8-1.2-4.7c-0.8-0.9-2.2-1.3-4.3-1.3h-1.2H651l-7.1-0.1c-0.4,0-0.7-0.1-1-0.4
			c-0.2-0.2-0.4-0.6-0.4-1v-12c0-0.4,0.1-0.7,0.4-1c0.3-0.2,0.6-0.4,0.9-0.4h5.7c0.4,0,0.7,0.1,1,0.4c0.2,0.2,0.4,0.6,0.4,1v6h3.3
			C658.8,37.8,662.1,39,664.1,41.2z"/>
		<path class="st3" d="M693,67.7c-0.3,0.3-0.6,0.4-1,0.4h-6.6c-0.4,0-0.7-0.1-0.9-0.4c-0.2-0.2-0.4-0.6-0.4-1l-0.8-3.9
			c-0.9,1.1-1.9,1.9-3.1,2.6c-1.4,0.8-2.7,1.5-3.8,2s-2.3,0.8-3.6,1.1l-0.4,0.1c-0.6,0-0.9-0.3-0.9-0.8v-5.7c0-0.6,0.4-1,1.1-1.3
			c0.2-0.1,1.1-0.4,2.4-0.8c1.4-0.4,2.5-0.8,3.3-1.2c1.4-0.7,2.5-1.7,3.5-2.9l-1-4.9c-0.4-2.1-1-3.6-1.6-4.5
			c-0.7-0.9-1.8-1.3-3.3-1.3H674c-0.4,0-0.7-0.1-0.9-0.4c-0.3-0.3-0.4-0.6-0.4-0.9V39c0-0.4,0.1-0.7,0.4-1c0.2-0.3,0.6-0.4,1-0.4h2
			c3,0,5.4,0.5,7.2,1.4s3.3,2.3,4.3,4.2c1.1,1.9,1.9,4.4,2.5,7.6l3.2,16.2C693.4,67.1,693.3,67.4,693,67.7z"/>
	</g>
	<g id="Group_340-2" transform="translate(240.616 22.863)">
		<g id="Group_338">
			<path id="Path_465" class="st3" d="M526.5,26.1c0,14.9-12.1,27.1-27.1,27.1c-14.9,0-27.1-12.1-27.1-27.1
				c0-14.9,12.1-27.1,27.1-27.1l0,0C514.4-0.9,526.5,11.2,526.5,26.1L526.5,26.1"/>
		</g>
		<g class="st2">
			<path class="st1" d="M496.1,30.2c-0.1-0.1-0.2-0.3-0.2-0.5c0-0.3,0-0.5,0-0.7c0.2-0.9,0.5-1.7,1-2.4c0.5-0.7,1.3-1.5,2.2-2.4
				c0.7-0.7,1.2-1.2,1.6-1.7s0.5-0.9,0.6-1.3c0.1-0.6-0.1-1.2-0.6-1.6s-1.1-0.6-1.8-0.6c-1.6,0-2.6,0.8-3,2.3
				c-0.1,0.3-0.2,0.5-0.4,0.6c-0.2,0.1-0.4,0.2-0.7,0.2h-4.3c-0.2,0-0.4-0.1-0.5-0.2c-0.1-0.2-0.2-0.4-0.2-0.6
				c0-1.2,0.4-2.3,1.2-3.4c0.7-1.1,1.8-2,3.2-2.7c1.4-0.7,3.1-1,5.1-1s3.7,0.3,4.9,0.9c1.3,0.6,2.2,1.4,2.7,2.3s0.8,1.8,0.8,2.7
				c0,1.1-0.3,2.1-0.8,2.9s-1.2,1.8-2.2,2.8c-0.6,0.7-1,1.2-1.4,1.6c-0.3,0.4-0.6,0.8-0.8,1.3c-0.1,0.2-0.2,0.5-0.2,0.8
				c-0.2,0.3-0.3,0.6-0.5,0.7c-0.1,0.1-0.3,0.2-0.6,0.2h-4.9C496.3,30.4,496.2,30.3,496.1,30.2z M496,37.3c-0.2-0.2-0.2-0.4-0.2-0.6
				v-3.9c0-0.2,0.1-0.4,0.2-0.6s0.4-0.2,0.6-0.2h4.4c0.2,0,0.4,0.1,0.6,0.2s0.2,0.4,0.2,0.6v3.9c0,0.2-0.1,0.4-0.2,0.6
				c-0.2,0.2-0.4,0.2-0.6,0.2h-4.4C496.4,37.5,496.2,37.4,496,37.3z"/>
		</g>
	</g>
</g>
<g>
	<g class="st2">
		<path class="st3" d="M-73.5,559c-0.3-0.2-0.4-0.6-0.4-1v-15c0-0.4,0.1-0.7,0.4-1s0.6-0.4,1-0.4h6.6c0.4,0,0.7,0.1,1,0.4
			c0.2,0.2,0.4,0.6,0.4,1v15.1c0,0.4-0.1,0.7-0.4,0.9c-0.2,0.3-0.6,0.4-1,0.4h-6.6C-72.9,559.3-73.2,559.2-73.5,559z"/>
		<path class="st3" d="M-34.5,554.1c-1.1,1.9-2.6,3.5-4.7,4.8l4.1,5.7c0.2,0.3,0.4,0.5,0.5,0.8c0.1,0.2,0.2,0.6,0.2,1v4.3
			c0,0.4-0.1,0.7-0.4,0.9c-0.2,0.3-0.6,0.4-1,0.4h-21.4c-0.4,0-0.7-0.1-0.9-0.4c-0.2-0.3-0.4-0.6-0.4-0.9v-4.9c0-0.4,0.1-0.7,0.4-1
			c0.3-0.2,0.6-0.4,0.9-0.4h12.5l-15.5-20.9c-0.2-0.4-0.3-0.6-0.3-0.8c0-0.3,0.1-0.6,0.3-0.8c0.2-0.2,0.5-0.3,0.8-0.3h6.6
			c0.7,0,1.3,0.3,1.7,1l7.5,10.2c1.6-1.4,2.4-3.6,2.4-6.7v-3c0-0.4,0.1-0.8,0.4-1c0.3-0.3,0.6-0.4,1-0.4h5.6c0.4,0,0.7,0.1,0.9,0.4
			c0.3,0.3,0.4,0.6,0.4,1v4.6C-32.9,550-33.4,552.1-34.5,554.1z"/>
		<path class="st3" d="M-26.8,571.5c-0.3-0.2-0.4-0.6-0.4-1V543c0-0.4,0.1-0.7,0.4-1s0.6-0.4,1-0.4h12.5c5,0,8.7,1,11.1,3.1
			c2.4,2.1,3.6,5.5,3.6,10.2v15.6c0,0.4-0.1,0.7-0.4,0.9c-0.2,0.3-0.6,0.4-1,0.4h-6.3c-0.4,0-0.7-0.1-1-0.4c-0.3-0.2-0.4-0.6-0.4-1
			v-15.5c0-4-2-6-6-6h-4.7v21.7c0,0.4-0.1,0.7-0.4,0.9c-0.2,0.3-0.6,0.4-1,0.4h-6.3C-26.3,571.9-26.6,571.8-26.8,571.5z"/>
		<path class="st3" d="M18.6,559c-0.3-0.2-0.4-0.6-0.4-1v-15c0-0.4,0.1-0.7,0.4-1s0.6-0.4,1-0.4h6.6c0.4,0,0.7,0.1,1,0.4
			c0.2,0.2,0.4,0.6,0.4,1v15.1c0,0.4-0.1,0.7-0.4,0.9c-0.2,0.3-0.6,0.4-1,0.4h-6.6C19.2,559.3,18.9,559.2,18.6,559z"/>
		<path class="st3" d="M57.6,554.1c-1.1,1.9-2.6,3.5-4.7,4.8l4.1,5.7c0.2,0.3,0.4,0.5,0.5,0.8c0.1,0.2,0.2,0.6,0.2,1v4.3
			c0,0.4-0.1,0.7-0.4,0.9c-0.3,0.2-0.6,0.4-1,0.4H34.8c-0.4,0-0.7-0.1-0.9-0.4c-0.2-0.3-0.4-0.6-0.4-0.9v-4.9c0-0.4,0.1-0.7,0.4-1
			c0.3-0.2,0.6-0.4,0.9-0.4h12.5l-15.4-21c-0.2-0.4-0.3-0.6-0.3-0.8c0-0.3,0.1-0.6,0.3-0.8s0.5-0.3,0.8-0.3h6.6c0.7,0,1.3,0.3,1.7,1
			l7.4,10.2c1.6-1.4,2.4-3.6,2.4-6.7v-3c0-0.4,0.1-0.8,0.4-1c0.3-0.3,0.6-0.4,1-0.4h5.6c0.4,0,0.7,0.1,0.9,0.4
			c0.3,0.3,0.4,0.6,0.4,1v4.6C59.2,550,58.7,552.1,57.6,554.1z"/>
		<path class="st3" d="M65.3,571.5c-0.3-0.2-0.4-0.6-0.4-1V543c0-0.4,0.1-0.7,0.4-1c0.3-0.2,0.6-0.4,1-0.4h12.5c5,0,8.7,1,11.1,3.1
			c2.4,2.1,3.6,5.5,3.6,10.2v15.6c0,0.4-0.1,0.7-0.4,0.9c-0.2,0.3-0.6,0.4-1,0.4h-6.3c-0.4,0-0.7-0.1-1-0.4c-0.3-0.2-0.4-0.6-0.4-1
			v-15.5c0-4-2-6-6-6h-4.6v21.7c0,0.4-0.1,0.7-0.4,0.9c-0.2,0.3-0.6,0.4-1,0.4h-6.3C65.9,571.9,65.5,571.8,65.3,571.5z"/>
	</g>
	<g id="Group_340_1_" transform="translate(-493.314)">
		<g>
			<g id="Group_336">
				<g id="Group_338_1_">
					<path id="Path_465_1_" class="st3" d="M660.5,552.7c0,14.9-12.1,27.1-27.1,27.1c-14.9,0-27.1-12.1-27.1-27.1
						s12.1-27.1,27.1-27.1l0,0C648.4,525.7,660.5,537.8,660.5,552.7L660.5,552.7"/>
				</g>
			</g>
			<g id="Group_339" transform="translate(0 2)">
				<g class="st2">
					<path class="st1" d="M619.3,551.1c-0.1-0.1-0.1-0.2-0.1-0.3v-1.4c0-0.4,0.2-0.7,0.5-0.9l1.8-1.7c1.2-0.9,2.1-1.6,2.7-2.1
						c0.6-0.5,1.1-1,1.4-1.4c0.3-0.4,0.5-0.8,0.5-1.2c0-0.9-0.5-1.4-1.4-1.4c-0.5,0-0.9,0.1-1.1,0.4c-0.3,0.3-0.4,0.7-0.5,1.1
						c-0.1,0.3-0.3,0.4-0.6,0.4h-2.7c-0.1,0-0.2,0-0.3-0.1s-0.1-0.2-0.1-0.3c0-0.8,0.3-1.6,0.7-2.3c0.4-0.7,1-1.2,1.8-1.6
						c0.8-0.4,1.7-0.6,2.7-0.6c1.1,0,2,0.2,2.8,0.5s1.4,0.8,1.8,1.4c0.4,0.6,0.6,1.3,0.6,2.2c0,0.9-0.3,1.7-0.8,2.5
						c-0.6,0.7-1.4,1.5-2.6,2.4l-1.6,1.6h4.8c0.1,0,0.3,0,0.3,0.1c0.1,0.1,0.1,0.2,0.1,0.3v2c0,0.1,0,0.2-0.1,0.3s-0.2,0.1-0.3,0.1
						h-9.9C619.5,551.3,619.4,551.2,619.3,551.1z"/>
				</g>
				<g class="st2">
					<path class="st1" d="M637.2,563.5c-0.1-0.1-0.1-0.2-0.1-0.3v-1.4c0-0.4,0.2-0.7,0.5-0.9l1.8-1.7c1.2-0.9,2.1-1.6,2.7-2.1
						c0.6-0.5,1.1-1,1.4-1.4c0.3-0.4,0.5-0.8,0.5-1.2c0-0.9-0.5-1.4-1.4-1.4c-0.5,0-0.9,0.1-1.1,0.4c-0.3,0.3-0.4,0.7-0.5,1.1
						c-0.1,0.3-0.3,0.4-0.6,0.4h-2.5c-0.1,0-0.2,0-0.3-0.1c-0.1-0.1-0.1-0.2-0.1-0.3c0-0.8,0.3-1.6,0.7-2.3s1-1.2,1.8-1.6
						c0.8-0.4,1.7-0.6,2.7-0.6c1.1,0,2,0.2,2.8,0.5c0.8,0.3,1.4,0.8,1.8,1.4c0.4,0.6,0.6,1.3,0.6,2.2s-0.3,1.7-0.8,2.5
						c-0.6,0.7-1.4,1.5-2.6,2.4l-1.6,1.6h4.8c0.1,0,0.3,0,0.3,0.1c0.1,0.1,0.1,0.2,0.1,0.3v2c0,0.1,0,0.2-0.1,0.3
						c-0.1,0.1-0.2,0.1-0.3,0.1h-9.9C637.4,563.6,637.3,563.6,637.2,563.5z"/>
				</g>
				<g class="st2">
					<path class="st1" d="M629.2,559.7c-0.1-0.1-0.1-0.2-0.1-0.3c0-0.1,0-0.1,0-0.2l6.5-15.5c0.1-0.1,0.1-0.2,0.2-0.3
						c0.1-0.1,0.2-0.1,0.4-0.1h1.2c0.1,0,0.2,0,0.3,0.1c0.1,0.1,0.1,0.2,0.1,0.3c0,0.1,0,0.1,0,0.2l-6.5,15.5c0,0.1-0.1,0.2-0.2,0.3
						c-0.1,0.1-0.2,0.1-0.4,0.1h-1.2C629.4,559.8,629.3,559.8,629.2,559.7z"/>
				</g>
			</g>
		</g>
	</g>
</g>
</svg>
