<?xml version="1.0" encoding="utf-8"?>
<!-- Generator: Adobe Illustrator 23.0.0, SVG Export Plug-In . SVG Version: 6.00 Build 0)  -->
<svg version="1.1" id="Layer_1" xmlns="http://www.w3.org/2000/svg" xmlns:xlink="http://www.w3.org/1999/xlink" x="0px" y="0px"
	 viewBox="0 0 779.6 1033.9" style="enable-background:new 0 0 779.6 1033.9;" xml:space="preserve">
<style type="text/css">
	.st0{fill:none;stroke:#708FA0;stroke-width:8;stroke-linecap:round;stroke-miterlimit:10;}
	.st1{fill:#FFFFFF;}
	.st2{fill:#1DE8F7;}
	.st3{opacity:0.1;fill:none;stroke:#EF4230;stroke-width:7;stroke-miterlimit:10;enable-background:new    ;}
	.st4{opacity:0.1;fill:none;stroke:#26A6E0;stroke-width:7;stroke-miterlimit:10;enable-background:new    ;}
</style>
<g id="Group_303" transform="translate(0 3.968)">
	<line id="Line_103" class="st0" x1="145.9" y1="39" x2="153.7" y2="70.4"/>
	<path id="Path_459" class="st0" d="M152.7,66.4l1.9,7.4c1.3,5.2-1.9,10.4-7,11.7l0,0c-5.2,1.3-10.4-1.9-11.7-7l-1.9-7.4l-9.2-36.7"
		/>
	<path id="Rectangle_27" class="st1" d="M37.3,49.7h704.9c20.6,0,37.3,16.7,37.3,37.3v905.6c0,20.6-16.7,37.3-37.3,37.3H37.3
		c-20.6,0-37.3-16.7-37.3-37.3V87C0,66.4,16.7,49.7,37.3,49.7z"/>
	<path id="Rectangle_28" class="st2" d="M37.3,49.7h5.3l0,0v980.2l0,0h-5.3c-20.6,0-37.3-16.7-37.3-37.3V87
		C0,66.4,16.7,49.7,37.3,49.7z"/>
	<g id="Group_301" transform="translate(42.624 133.435)">
		<line id="Line_104" class="st3" x1="0" y1="0" x2="737" y2="0"/>
		<line id="Line_105" class="st4" x1="0" y1="75.6" x2="737" y2="75.6"/>
		<line id="Line_106" class="st4" x1="0" y1="151.2" x2="737" y2="151.2"/>
		<line id="Line_107" class="st4" x1="0" y1="226.8" x2="737" y2="226.8"/>
		<line id="Line_108" class="st4" x1="0" y1="302.3" x2="737" y2="302.3"/>
		<line id="Line_109" class="st4" x1="0" y1="377.9" x2="737" y2="377.9"/>
		<line id="Line_110" class="st4" x1="0" y1="453.5" x2="737" y2="453.5"/>
		<line id="Line_111" class="st4" x1="0" y1="529.1" x2="737" y2="529.1"/>
		<line id="Line_112" class="st4" x1="0" y1="604.7" x2="737" y2="604.7"/>
		<line id="Line_113" class="st4" x1="0" y1="680.3" x2="737" y2="680.3"/>
		<line id="Line_114" class="st4" x1="0" y1="755.9" x2="737" y2="755.9"/>
		<line id="Line_115" class="st4" x1="0" y1="831.5" x2="737" y2="831.5"/>
	</g>
	<g id="Group_302" transform="translate(105.24 0.078)">
		<path id="Path_461" class="st0" d="M15.2,80.1L0.5,21.6c-2.3-9.3,3.3-18.7,12.6-21l0,0c9.3-2.3,18.7,3.3,21,12.6L40.6,39"/>
		<path id="Path_462" class="st0" d="M6.3,44.6l13.8,55c3.3,13.1,16.5,21,29.6,17.7l0,0c13.1-3.3,21-16.5,17.7-29.6L61,63"/>
	</g>
</g>
</svg>
