<?xml version="1.0" encoding="utf-8"?>
<!-- Generator: Adobe Illustrator 25.0.1, SVG Export Plug-In . SVG Version: 6.00 Build 0)  -->
<svg version="1.1" id="Layer_1" xmlns="http://www.w3.org/2000/svg" xmlns:xlink="http://www.w3.org/1999/xlink" x="0px" y="0px"
	 viewBox="0 0 812.9 529.1" style="enable-background:new 0 0 812.9 529.1;" xml:space="preserve">
<style type="text/css">
	.st0{opacity:0.2;fill:#F29C2D;enable-background:new    ;}
	.st1{fill:none;stroke:#B3B3B3;stroke-width:7;stroke-miterlimit:10;}
	.st2{fill:none;stroke:#708FA0;stroke-width:7;stroke-linecap:round;stroke-linejoin:round;}
	.st3{fill:#FFFFFF;}
	.st4{fill:#FDDE2E;}
	.st5{opacity:0.1;fill:none;stroke:#EF4230;stroke-width:7;stroke-miterlimit:10;enable-background:new    ;}
	.st6{opacity:0.1;fill:none;stroke:#26A6E0;stroke-width:7;stroke-miterlimit:10;enable-background:new    ;}
	.st7{fill:none;stroke:#708FA0;stroke-width:7;stroke-miterlimit:10;}
</style>
<g id="Component_4_22" transform="translate(0 3.524)">
	<g id="Group_37" transform="translate(0 11.525)">
		<path id="Rectangle_8" class="st0" d="M659.1,36.9l53.6,342.6c3.2,20.4-10.7,39.5-31.1,42.6L96.7,513.6
			c-20.4,3.2-39.5-10.7-42.6-31.1L0.5,139.9c-3.2-20.4,10.7-39.5,31.1-42.6L616.5,5.8C636.9,2.6,655.9,16.5,659.1,36.9z"/>
		<line id="Line_77" class="st1" x1="94.1" y1="82.2" x2="105.6" y2="109.4"/>
		<path id="Path_81" class="st2" d="M105.4,108.9l2.7,6.4c1.9,4.5-0.2,9.7-4.7,11.6l0,0c-4.5,1.9-9.7-0.2-11.6-4.7l0,0l-2.7-6.4
			L75.7,84"/>
		<path id="Rectangle_9" class="st3" d="M648.2,46.5l51.2,327.2c3.2,20.4-10.7,39.5-31.1,42.6L107.6,504
			c-20.4,3.2-39.5-10.7-42.6-31.1L13.8,145.7c-3.2-20.4,10.7-39.5,31.1-42.6l560.6-87.7C625.9,12.2,645,26.1,648.2,46.5z"/>
		<path id="Rectangle_10" class="st4" d="M648.2,46.5l0.3,2.1l0,0L14.1,147.8l0,0l-0.3-2.1c-3.2-20.4,10.7-39.5,31.1-42.6l0,0
			l560.6-87.7C625.9,12.2,645,26.1,648.2,46.5z"/>
		<g id="Group_35" transform="translate(25.993 90.182)">
			<line id="Line_78" class="st5" x1="-5.3" y1="99.2" x2="629" y2="0"/>
			<line id="Line_79" class="st6" x1="3.1" y1="153.1" x2="637.5" y2="53.9"/>
			<line id="Line_80" class="st6" x1="11.6" y1="207.1" x2="645.9" y2="107.9"/>
			<line id="Line_81" class="st6" x1="20" y1="261" x2="654.3" y2="161.8"/>
			<line id="Line_82" class="st6" x1="28.4" y1="315" x2="662.8" y2="215.8"/>
			<line id="Line_83" class="st6" x1="36.9" y1="368.9" x2="671.2" y2="269.7"/>
		</g>
		<g id="Group_36" transform="translate(59.504 50.17)">
			<path id="Path_83" class="st2" d="M17.4,72.7L-4.1,22C-7.5,14-3.7,4.7,4.4,1.3l0,0c8.1-3.4,17.3,0.4,20.7,8.4l0,0l9.5,22.4"/>
			<path id="Path_84" class="st2" d="M4.4,42l20.2,47.7c4.8,11.3,17.9,16.6,29.2,11.8l0,0l0,0c11.3-4.8,16.6-17.9,11.8-29.2l0,0
				l-8.4-19.8"/>
		</g>
	</g>
	<g id="Group_40" transform="translate(122.242)">
		<path id="Rectangle_11" class="st0" d="M690.5,125.8l-28.3,345.6c-1.7,20.5-19.7,35.8-40.3,34.2l-590-48.3
			C11.4,455.6-3.9,437.6-2.3,417L26.1,71.3c1.7-20.5,19.7-35.8,40.3-34.2l590,48.3C676.9,87.2,692.2,105.2,690.5,125.8z"/>
		<line id="Line_84" class="st7" x1="130.6" y1="37.2" x2="135.4" y2="66.4"/>
		<path id="Path_85" class="st2" d="M135.3,65.8l1.1,6.9c0.8,4.8-2.5,9.4-7.3,10.2l0,0l0,0c-4.8,0.8-9.4-2.5-10.2-7.3l0,0l-1.1-6.9
			l-5.6-34"/>
		<path id="Rectangle_12" class="st3" d="M677.6,132.5l-27,330.1c-1.7,20.5-19.7,35.8-40.3,34.2L44.8,450.4
			c-20.5-1.7-35.8-19.7-34.2-40.3L37.6,80c1.7-20.5,19.7-35.8,40.3-34.2l565.6,46.3C664,93.9,679.3,111.9,677.6,132.5z"/>
		<path id="Rectangle_13" class="st4" d="M677.6,132.5l-0.2,2.1l0,0l-640-52.4l0,0l0.2-2.1c1.7-20.5,19.7-35.8,40.3-34.2l0,0
			l565.6,46.3C664,93.9,679.3,111.9,677.6,132.5z"/>
		<g id="Group_38" transform="translate(17.116 124.182)">
			<line id="Line_85" class="st5" x1="17" y1="0" x2="656.9" y2="52.4"/>
			<line id="Line_86" class="st6" x1="12.5" y1="54.4" x2="652.4" y2="106.8"/>
			<line id="Line_87" class="st6" x1="8.1" y1="108.8" x2="648" y2="161.3"/>
			<line id="Line_88" class="st6" x1="3.6" y1="163.3" x2="643.5" y2="215.7"/>
			<line id="Line_89" class="st6" x1="-0.9" y1="217.7" x2="639.1" y2="270.1"/>
			<line id="Line_90" class="st6" x1="-5.3" y1="272.1" x2="634.6" y2="324.5"/>
		</g>
		<g id="Group_39" transform="translate(100.493)">
			<path id="Path_87" class="st2" d="M3.9,72.8l-9-54.4C-6.5,9.8-0.7,1.6,7.9,0.2l0,0c8.6-1.4,16.8,4.4,18.2,13l0,0l4,24"/>
			<path id="Path_88" class="st2" d="M-1.6,39.8l8.4,51.1c2,12.1,13.5,20.4,25.6,18.3l0,0c12.1-2,20.4-13.5,18.3-25.6l-3.5-21.2"/>
		</g>
	</g>
	<g id="Group_43" transform="translate(88.958 3.112)">
		<path id="Rectangle_14" class="st0" d="M661.4,78.1v346.8c0,20.6-16.7,37.3-37.3,37.3H32c-20.6,0-37.3-16.7-37.3-37.3V78.1
			c0-20.6,16.7-37.3,37.3-37.3h592C644.7,40.7,661.4,57.5,661.4,78.1z"/>
		<line id="Line_91" class="st7" x1="96.1" y1="35.6" x2="103.3" y2="64.2"/>
		<path id="Path_89" class="st2" d="M103.1,63.7l1.7,6.8c1.2,4.7-1.7,9.5-6.4,10.7l0,0l0,0c-4.7,1.2-9.5-1.7-10.7-6.4L86,68
			l-8.4-33.5"/>
		<path id="Rectangle_15" class="st3" d="M649.1,85.8V417c0,20.6-16.7,37.3-37.3,37.3H44.3C23.7,454.4,7,437.7,7,417.1V85.8
			c0-20.6,16.7-37.3,37.3-37.3h567.4C632.4,48.5,649.1,65.2,649.1,85.8z"/>
		<g id="Group_41" transform="translate(12.336 130.102)">
			<line id="Line_92" class="st5" x1="-5.3" y1="0" x2="636.7" y2="0"/>
			<line id="Line_93" class="st6" x1="-5.3" y1="54.6" x2="636.7" y2="54.6"/>
			<line id="Line_94" class="st6" x1="-5.3" y1="109.2" x2="636.7" y2="109.2"/>
			<line id="Line_95" class="st6" x1="-5.3" y1="163.8" x2="636.7" y2="163.8"/>
			<line id="Line_96" class="st6" x1="-5.3" y1="218.4" x2="636.7" y2="218.4"/>
			<line id="Line_97" class="st6" x1="-5.3" y1="273" x2="636.7" y2="273"/>
		</g>
		<g id="Group_299" transform="translate(4032.606 -991.82)">
			<path id="Rectangle_16" class="st4" d="M-3383.5,1078v2.2h-642.1v-2.2c-0.1-20.7,16.6-37.6,37.3-37.7h567.4
				C-3400.1,1040.4-3383.4,1057.3-3383.5,1078z"/>
		</g>
		<g id="Group_42" transform="translate(64.315)">
			<path id="Path_91" class="st2" d="M8.5,73.1L-4.8,19.7C-7,11.2-1.8,2.6,6.7,0.5l0,0c8.5-2.1,17.1,3,19.2,11.5l5.9,23.6"/>
			<path id="Path_92" class="st2" d="M0.4,40.7L13,90.9c3,11.9,15.1,19.2,27,16.2l0,0l0,0c11.9-3,19.2-15.1,16.2-27l0,0L51,59.2"/>
		</g>
	</g>
</g>
</svg>
