<?xml version="1.0" encoding="utf-8"?>
<!-- Generator: Adobe Illustrator 25.0.1, SVG Export Plug-In . SVG Version: 6.00 Build 0)  -->
<svg version="1.1" id="Layer_1" xmlns="http://www.w3.org/2000/svg" xmlns:xlink="http://www.w3.org/1999/xlink" x="0px" y="0px"
	 viewBox="0 0 132 75.4" style="enable-background:new 0 0 132 75.4;" xml:space="preserve">
<style type="text/css">
	.st0{enable-background:new    ;}
	.st1{fill:#FFFFFF;}
	.st2{fill:none;stroke:#FFFFFF;stroke-width:4;stroke-linecap:round;stroke-linejoin:round;}
</style>
<g id="Group_544" transform="translate(-473.999 -175.541)">
	<g class="st0">
		<path class="st1" d="M480.7,218.9c-2-2.1-3-5.1-3-9.1v-15.1c0-0.4,0.1-0.6,0.3-0.8c0.2-0.2,0.5-0.3,0.8-0.3h11.8
			c4.2,0,7.2,0.9,9.1,2.8c1.8,1.9,2.8,4.8,3,8.7c0,0.3,0,1.2,0,2.6s0,2.3,0,2.6c-0.1,3.9-1.2,6.8-3.2,8.7c-2,1.9-5.3,2.9-9.7,2.9
			C485.7,222,482.7,221,480.7,218.9z M496.3,216.2c1.3-1.3,2-3.3,2.1-6.1c0-0.3,0-1.1,0-2.4c0-1.3,0-2.1,0-2.4
			c-0.1-2.6-0.8-4.6-2.2-6c-1.4-1.4-3.4-2.1-5.9-2.1h-8.5v12.4c0,2.7,0.7,4.8,2,6.2c1.3,1.4,3.3,2.2,5.9,2.2
			C492.7,218.2,494.9,217.5,496.3,216.2z"/>
		<path class="st1" d="M508.3,201.1c-0.1-0.2-0.2-0.4-0.1-0.7l1.1-6.9c0.1-0.9,0.6-1.4,1.4-1.4h3.1c0.2,0,0.4,0.1,0.6,0.2
			c0.1,0.2,0.2,0.4,0.2,0.6c0,0.3,0,0.6-0.1,0.8l-2.5,6.6c-0.2,0.4-0.3,0.6-0.5,0.8s-0.5,0.3-0.9,0.3h-1.5
			C508.6,201.4,508.4,201.3,508.3,201.1z M516,201.1c-0.1-0.2-0.2-0.4-0.1-0.7l1.1-6.9c0.1-0.9,0.6-1.4,1.4-1.4h3.1
			c0.2,0,0.4,0.1,0.6,0.2c0.1,0.2,0.2,0.4,0.2,0.6c0,0.3,0,0.6-0.1,0.8l-2.5,6.6c-0.2,0.4-0.3,0.6-0.5,0.8c-0.2,0.2-0.5,0.3-0.9,0.3
			h-1.5C516.3,201.4,516.1,201.3,516,201.1z"/>
		<path class="st1" d="M546,195c1.6,1,2.8,2.3,3.7,4.1s1.3,3.9,1.3,6.4v14.9c0,0.3-0.1,0.6-0.3,0.8c-0.2,0.2-0.5,0.3-0.8,0.3h-12.6
			c-0.3,0-0.6-0.1-0.8-0.3c-0.2-0.2-0.3-0.5-0.3-0.8v-1.6c0-0.3,0.1-0.6,0.3-0.8c0.2-0.2,0.5-0.3,0.8-0.3h9.5v-11.9
			c0-2.5-0.6-4.5-1.9-6.1c-1.3-1.6-2.9-2.3-4.8-2.3h-5.2l-3.8,22.9c0,0.3-0.2,0.6-0.4,0.8s-0.5,0.3-0.8,0.3h-2.1
			c-0.3,0-0.6-0.1-0.8-0.3c-0.2-0.2-0.3-0.5-0.2-0.8l3.9-22.9h-2.5c-0.3,0-0.6-0.1-0.8-0.3c-0.2-0.2-0.3-0.5-0.3-0.8v-1.6
			c0-0.3,0.1-0.6,0.3-0.8c0.2-0.2,0.5-0.3,0.8-0.3h12.3C542.6,193.6,544.4,194,546,195z"/>
		<path class="st1" d="M571.7,194.8c1.7,0.8,3,2.2,3.8,4.1c0.8,1.9,1.2,4.3,1.2,7.4c0,4.2-1,7.4-3.1,9.8c-2.1,2.3-4.7,4.1-8,5.2
			l-2.1,0.7c-0.1,0-0.2,0-0.3,0c-0.2,0-0.4-0.1-0.6-0.2c-0.2-0.2-0.3-0.4-0.3-0.7v-2.2c0-0.6,0.4-1,1.1-1.3l1.9-0.7
			c2.3-0.8,4-2.1,5.2-3.7c1.2-1.6,1.8-4,1.8-7.1c0-2.2-0.3-3.9-0.8-5.2c-0.5-1.3-1.4-2.2-2.6-2.7c-1.2-0.6-2.8-0.8-4.9-0.8h-1.5
			h-0.1l-4.5,0c-0.3,0-0.6-0.1-0.8-0.3c-0.2-0.2-0.3-0.5-0.3-0.8v-8.4c0-0.3,0.1-0.6,0.3-0.8c0.2-0.2,0.5-0.3,0.8-0.3h2
			c0.3,0,0.6,0.1,0.8,0.3c0.2,0.2,0.3,0.5,0.3,0.8v5.7h3.8C567.5,193.6,569.9,194,571.7,194.8z"/>
		<path class="st1" d="M582.2,221.2c-0.2-0.2-0.3-0.5-0.3-0.8v-1.6c0-0.3,0.1-0.6,0.3-0.8c0.2-0.2,0.5-0.3,0.8-0.3h14.2v-12
			c0-5.6-2.8-8.4-8.4-8.4h-5.2c-0.3,0-0.6-0.1-0.8-0.3c-0.2-0.2-0.3-0.5-0.3-0.8v-1.6c0-0.3,0.1-0.6,0.3-0.8s0.5-0.3,0.8-0.3h5.5
			c8.4,0,12.5,4,12.5,12v12.2h1.9c0.3,0,0.6,0.1,0.8,0.3c0.2,0.2,0.3,0.5,0.3,0.8v1.6c0,0.3-0.1,0.6-0.3,0.8
			c-0.2,0.2-0.5,0.3-0.8,0.3H583C582.7,221.5,582.4,221.4,582.2,221.2z"/>
	</g>
	<line id="Line_1" class="st2" x1="512.4" y1="248.9" x2="567.6" y2="248.9"/>
</g>
</svg>
