<svg id="bbb1abe5-85e8-48df-9e10-22f194e59370" data-name="Layer 1" xmlns="http://www.w3.org/2000/svg" xmlns:xlink="http://www.w3.org/1999/xlink" viewBox="0 0 940.80003 885.98358"><defs><style>.a37436d7-ce19-4230-ae81-e7f9ade6becb,.b928c6c8-8370-4493-8a27-e5e86c7e0748{fill:none;}.bcc00a24-9076-4608-b402-e584ebf0e7b3{fill:#f29c2d;}.ab6ac3b6-2c17-459d-a703-618a1f657497{fill:#4d2a0b;}.b2eb070e-355b-4c77-a0a2-1e1dc4bf0269{fill:#fff;}.bd17c6e0-9725-49fe-a728-0a249b729906{fill:#fdde2e;}.f2afd032-dc34-4c5e-b765-99d2bb71b96f{opacity:0.1;}.b2699d50-7263-44cf-b628-dc8e665d96ed,.f2afd032-dc34-4c5e-b765-99d2bb71b96f,.ffb1cc5a-c477-4e3f-a6ec-20bf6c67ab9b{isolation:isolate;}.a5ed5cbc-37e2-473f-8e1d-765415731d61{fill:#ef4230;}.b2699d50-7263-44cf-b628-dc8e665d96ed,.f36b11ba-325e-4163-a54c-7535644ccfc7,.ffb1cc5a-c477-4e3f-a6ec-20bf6c67ab9b{fill:#fcb328;}.f99b1403-9f45-45f4-a398-a3f2f01352f1{fill:#f0972e;}.ffb1cc5a-c477-4e3f-a6ec-20bf6c67ab9b{opacity:0.15;}.a4619565-e7d3-4833-959d-825f53add328{fill:#ddd;}.b2699d50-7263-44cf-b628-dc8e665d96ed{opacity:0.2;}.fbaf9015-e7fa-420c-91e6-8e576b84e640{fill:#ffde17;}.f79e60c9-f415-451b-98a2-3ee0c5a91175{fill:#ffb31a;}.a34f0f1f-48ca-4907-a00c-47a01cb84391{fill:#ffce00;}.a37436d7-ce19-4230-ae81-e7f9ade6becb{stroke:#ffb31a;stroke-linecap:round;stroke-linejoin:round;stroke-width:8px;}.a75f483a-05af-45c4-b695-9ae2231fb841{fill:#fff87b;}.b077eb6b-f1ba-416b-9bbd-5926b96beaf4{clip-path:url(#fb0698dd-9ac8-4aa8-96ff-4cb5cc0d5e6d);}.a07dd4a2-5766-4e52-a92b-37f8569578c4{fill:#414042;}.eb6415e6-97c1-4e58-9f00-339e10445eb9{fill:#5183ff;}.e4a451f4-1883-4ab9-aed6-03dd79420fb0{clip-path:url(#b548a279-7ec8-4f49-b0c1-ea6b54b5a72d);}.b090ae81-c77e-4696-822a-eb2b0caa3b09{fill:#2f51ff;}.e947c01d-a88a-4ba9-b5f8-2b222864264f{fill:#939598;}.ae4dedfe-e6c0-422b-a5aa-ce8e68f3d79e{clip-path:url(#b80bd734-60fe-44e3-803f-64c0d9279c7f);}.bc543aea-e1ed-475b-8ca3-54d9a4854433{fill:#a7a9ac;}.ad10c06d-5f62-43d3-8a13-f4e43bb8e58c{fill:#e6e7e8;}.bb103c0b-bbe4-407a-8dee-1cf59eee5c53{clip-path:url(#b78ea2ae-543d-4813-95fb-2efddc6287c5);}.a66cedb6-370c-468f-86cc-51e934996c39{fill:#f1f2f2;}.b62cac3f-f5d1-490a-b757-6e19d19e682a{clip-path:url(#e35a40a9-ee2b-42ed-a739-87345d1cee64);}.b393dee5-da8d-4251-9852-7a832fb64830{fill:#d1d3d4;}.b4b3092e-9929-49b7-9b7a-3087035a44d6{clip-path:url(#eb52c8ef-22f6-4d66-8ebc-948798b2793f);}.a34d987c-d971-49e5-9cdc-0ec39b670131{clip-path:url(#b7bb0f50-9047-429a-bce5-ccb8cffa4b38);}.bc216385-2d2b-4976-bfde-7e3b3782685f{clip-path:url(#aef00c10-2e7b-4ddf-82e3-8b38da66d8d8);}.b8cebd81-625a-4005-a7c9-abf490ab39ff{fill:#fbb23e;}</style><clipPath id="fb0698dd-9ac8-4aa8-96ff-4cb5cc0d5e6d"><path class="b928c6c8-8370-4493-8a27-e5e86c7e0748" d="M739.124,357.354v32.6a.09793.09793,0,0,1-.1.1l-.1.1h-.2l-27.9-.5c-.1,0-.2,0-.2-.1-.1-.1-.1-.1-.1-.2v-.3a.34914.34914,0,0,1,.1-.2l28.5-31.5m-7.4-8.1-29,32.3-16.2,18c0,.1-.1.1-.1.2v.3c0,.1.1.1.1.2.1.1.1.1.2.1l23,.6,29.3.8,10.1.3h.2a.09794.09794,0,0,0,.1-.1l.1-.1v-71.2a.36737.36737,0,0,0-.1-.3c0-.1-.1-.1-.2-.2h-.2a.34914.34914,0,0,0-.2.1Z"/></clipPath><clipPath id="b548a279-7ec8-4f49-b0c1-ea6b54b5a72d"><path class="b928c6c8-8370-4493-8a27-e5e86c7e0748" d="M717.309,333.919l-28.7,32.5-16.6,18.7a.09794.09794,0,0,1-.1.1v.2a.09794.09794,0,0,0,.1.1l6.5,7.6.1.1h.2a.09794.09794,0,0,0,.1-.1l63.6-71.3.1-.1v-.2a.09794.09794,0,0,0-.1-.1l-7-7.5-.1-.1h-.2a.09794.09794,0,0,0-.1.1Z"/></clipPath><clipPath id="b80bd734-60fe-44e3-803f-64c0d9279c7f"><polygon class="b928c6c8-8370-4493-8a27-e5e86c7e0748" points="249.778 643.732 240.078 643.532 240.078 712.532 261.678 720.632 268.578 684.832 249.778 643.732"/></clipPath><clipPath id="b78ea2ae-543d-4813-95fb-2efddc6287c5"><path class="b928c6c8-8370-4493-8a27-e5e86c7e0748" d="M246.176,672.54c-.2,0-.5.1-.7.1h-.6c-.2,0-.5.1-.7.1a1.854,1.854,0,0,0-.7.2,5.09927,5.09927,0,0,0-2.6,1.4,4.95321,4.95321,0,0,0-1.3,2.6,9.82019,9.82019,0,0,0-.3,3.4,27.608,27.608,0,0,0,.6,4,23.76074,23.76074,0,0,0,1.1,3.8,11.81483,11.81483,0,0,0,1.6,2.9,6.20061,6.20061,0,0,0,2.2,1.7,5.14514,5.14514,0,0,0,3,.2c.5-.1.9-.2,1.3-.3a6.9434,6.9434,0,0,0,1.3-.5,8.2649,8.2649,0,0,0,1.3-.7c.4-.3.9-.5,1.4-.8.8-.5,1.3-2,1.5-3.8a20.428,20.428,0,0,0-.5-6.5,12.88786,12.88786,0,0,0-2.7-5.8A5.43526,5.43526,0,0,0,246.176,672.54Z"/></clipPath><clipPath id="e35a40a9-ee2b-42ed-a739-87345d1cee64"><path class="b928c6c8-8370-4493-8a27-e5e86c7e0748" d="M215.157,728.473c-1.7-2.1-3-3.8-4.1-5.3a39.91884,39.91884,0,0,1-2.7-4.4,22.05324,22.05324,0,0,1-1.8-5.1c-.5-2-.9-4.4-1.4-7.4a10.73049,10.73049,0,0,0-1.3-3.8,9.52039,9.52039,0,0,0-2.5-2.8,8.44659,8.44659,0,0,0-3.3-1.6,8.0975,8.0975,0,0,0-3.8-.2,10.43437,10.43437,0,0,0-2.5.8,8.008,8.008,0,0,0-2.1,1.5,16.31944,16.31944,0,0,0-1.7,2,8.98906,8.98906,0,0,0-1.2,2.4l-7.4,1.6c-.2.1-.5.2-.7.3a2.65132,2.65132,0,0,0-.5.6,1.61176,1.61176,0,0,0-.4.7,1.94945,1.94945,0,0,0-.1.8c0,.7.1,1.5.1,2.4a15.505,15.505,0,0,0,.4,2.9c.2,1,.4,2,.7,3a15.32624,15.32624,0,0,0,1.1,2.7,3.04351,3.04351,0,0,0,.8.8,1.6895,1.6895,0,0,0,.5.2,1.26834,1.26834,0,0,0,.6.1,6.15092,6.15092,0,0,0,1.3-.1c.5-.1,1-.1,1.6-.2s1.2-.1,1.8-.2a12.85967,12.85967,0,0,0,1.9-.4c.6,2.2,1.3,4.3,2.1,6.4a52.7848,52.7848,0,0,0,2.7,5.3,55.03074,55.03074,0,0,0,3.4,5c1.3,1.7,2.6,3.4,4.2,5.3a10.60673,10.60673,0,0,0,1.5,1.5,7.84453,7.84453,0,0,0,1.8,1.1,8.70173,8.70173,0,0,0,5.5.6,9.82855,9.82855,0,0,0,1.6-.5,10.92963,10.92963,0,0,0,1.5-.8,7.55127,7.55127,0,0,0,1.4-1.1,10.44928,10.44928,0,0,0,2.3-3.2,11.9557,11.9557,0,0,0,1-3.7,9.67968,9.67968,0,0,0-.4-3.8A14.13488,14.13488,0,0,0,215.157,728.473Z"/></clipPath><clipPath id="eb52c8ef-22f6-4d66-8ebc-948798b2793f"><path class="b928c6c8-8370-4493-8a27-e5e86c7e0748" d="M254.025,714.094a26.99387,26.99387,0,0,1-3-5.2,60.729,60.729,0,0,1-2.9-7q-1.35-3.9-2.7-8.4a84.71366,84.71366,0,0,1-2.2-9.6c-.6-3.4-1.2-6.6-1.6-9.8s-.6-6.1-.7-8.9a65.66535,65.66535,0,0,1,.1-7.7,43.83564,43.83564,0,0,1,.8-6.2l-1.7-8.7s-.6,1.2-1.7,3.2a57.05644,57.05644,0,0,1-5.1,7.7,69.54237,69.54237,0,0,1-8.5,9.5,53.03859,53.03859,0,0,1-12.1,8.3c-1.1.6-2.3,1.1-3.4,1.6s-2.3,1.1-3.5,1.6-2.3,1-3.5,1.6c-1.2.5-2.3,1-3.5,1.5-1.8.8-3.7,1.5-5.5,2.3-1.9.7-3.7,1.4-5.6,2.1s-3.8,1.3-5.7,2c-1.9.6-3.8,1.2-5.8,1.8a6.46821,6.46821,0,0,0-1.3.4c-.4.2-.9.2-1.3.4s-.9.1-1.3.3-.9.3-1.3.5a.99837.99837,0,0,0-.4.5,3.55208,3.55208,0,0,0-.4.9l-.3.9c-.1.3-.2.3-.2.3a21.09858,21.09858,0,0,0-2.3,1.9,13.113,13.113,0,0,0-3.2,5.2,8.02838,8.02838,0,0,0-.4,3.1,16.26368,16.26368,0,0,0,.9,4.1,9.90783,9.90783,0,0,0,1.1,1.7,19.19778,19.19778,0,0,0,1.4,1.5,6.10033,6.10033,0,0,0,1.6,1.2,6.69993,6.69993,0,0,0,1.8.7c.6.2,1.2.3,1.9.5a14.16035,14.16035,0,0,0,2,.4l.3.1c.1.1.1.2.2.3s.1.2.2.3.1.2.2.3l.3.3h0c.2,0,2.3-.3,5.4-.8s7.5-1,12.2-1.6c4.7-.5,9.7-1,14.5-1.2a75.75977,75.75977,0,0,1,12.6.2,66.0422,66.0422,0,0,1,13.8,3.3,91.432,91.432,0,0,1,11.2,4.7,70.31,70.31,0,0,1,7.5,4.3l2.7,1.8Z"/></clipPath><clipPath id="b7bb0f50-9047-429a-bce5-ccb8cffa4b38"><path class="b928c6c8-8370-4493-8a27-e5e86c7e0748" d="M203.286,674.611a22.75448,22.75448,0,0,0-.2,2.6,57.72286,57.72286,0,0,0,.2,7.2,68.61693,68.61693,0,0,0,2.1,10.8,69.6123,69.6123,0,0,0,5.3,13.3l-34.6,3.5c-.5-.6-1-1.3-1.5-1.9a28.55327,28.55327,0,0,1-3-5.4,29.11788,29.11788,0,0,1-2.1-8.2,27.42756,27.42756,0,0,1,1-10.3Z"/></clipPath><clipPath id="aef00c10-2e7b-4ddf-82e3-8b38da66d8d8"><path class="b928c6c8-8370-4493-8a27-e5e86c7e0748" d="M259.413,723.766a9.60139,9.60139,0,0,1-6.7-3.2,32.74564,32.74564,0,0,1-6.1-8.6,78.83443,78.83443,0,0,1-5.1-12.4,101.71389,101.71389,0,0,1-3.8-14.4c-.5-2.7-1-5.4-1.3-8s-.6-5.2-.8-7.8-.2-5-.2-7.3.2-4.5.4-6.6a49.78605,49.78605,0,0,1,1.5-7.5,17.37885,17.37885,0,0,1,2.2-4.8,10.30309,10.30309,0,0,1,2.5-2.6,7.956,7.956,0,0,1,2.5-1.1c2.5-.5,4.9.4,7.2,2.3a27.541,27.541,0,0,1,6.5,8.6,75.51711,75.51711,0,0,1,5.4,12.8,128.61166,128.61166,0,0,1,3.9,15.1h0a115.28371,115.28371,0,0,1,2,15.5,81.84162,81.84162,0,0,1-.2,14,32.62671,32.62671,0,0,1-2.8,10.6c-1.4,2.7-3.3,4.6-5.7,5.2-.1,0-.3.1-.4.1a.60123.60123,0,0,0-.4.1c-.1.1-.3,0-.4,0Zm-13.3-78.3h-.4a4.18405,4.18405,0,0,0-1.2.8,7.607,7.607,0,0,0-1.2,1.9,21.28917,21.28917,0,0,0-1.1,3.3,38.52176,38.52176,0,0,0-.8,4.9c-.2,1.9-.3,3.9-.4,6.1a50.4946,50.4946,0,0,0,.2,6.7c.2,2.3.4,4.8.7,7.2s.7,5,1.2,7.5a122.26156,122.26156,0,0,0,3.9,14.7,72.98274,72.98274,0,0,0,4.6,10.8,26.35667,26.35667,0,0,0,4.5,6.4c1.4,1.4,2.6,2,3.6,1.7s1.9-1.4,2.6-3.3a30.99,30.99,0,0,0,1.7-7.9,77.50139,77.50139,0,0,0,.2-11.8,127.14242,127.14242,0,0,0-1.9-15.1,98.75623,98.75623,0,0,0-3.7-14.2,82.95587,82.95587,0,0,0-4.4-10.7,33.71294,33.71294,0,0,0-4.4-6.7C248.413,646.266,247.213,645.466,246.113,645.466Z"/></clipPath></defs><title>homeGraphic_icon</title><g id="aaef24e6-e269-44ab-9ad4-50876ada0f31" data-name="Group 10"><g id="a20bfd9d-5e61-4378-9180-25381b5425ee" data-name="Group 6"><path id="fe05b925-58ff-422d-83fd-fc00da2132a1" data-name="Path 33" class="bcc00a24-9076-4608-b402-e584ebf0e7b3" d="M782.7,727.83806l146.6-67.6c6.3-2.9,11.5-12,11.5-20.3v-319.8c-.7-15.4-14.3-24.1-23-19.3l-135.1,77.3c-6.3,2.9-11.5,12-11.5,20.3l-10.2,311.3C761,718.538,775.2,731.138,782.7,727.83806Z"/><g id="b4be3cf6-cc8c-4c84-be8a-79b8a617e242" data-name="Line 2"><rect class="ab6ac3b6-2c17-459d-a703-618a1f657497" x="883.8587" y="314.34814" width="15.19977" height="3.99994" transform="translate(425.15429 1139.35166) rotate(-80.00264)"/></g><g id="aceaa36f-1e34-4206-a94b-dad5158db274" data-name="Path 34"><path class="ab6ac3b6-2c17-459d-a703-618a1f657497" d="M891,331.938a3.78406,3.78406,0,0,1-2.8-1.2,5.6948,5.6948,0,0,1-1.2-5.2l.6-3.5a1.98114,1.98114,0,1,1,3.9.7l-.6,3.5a2.35625,2.35625,0,0,0,.2,1.8c.6-.1,1.9-1.5,2.2-3.3l3.7-21.1a1.98115,1.98115,0,1,1,3.9.7l-3.7,21.1c-.6,3.4-3,6.2-5.7,6.5Z"/></g><path id="a79a1f19-a0fb-4cd9-a177-6300a1c5e75b" data-name="Path 35" class="b2eb070e-355b-4c77-a0a2-1e1dc4bf0269" d="M772.5,717.638l146.6-67.6c6.3-2.9,11.5-12,11.5-20.3V309.938c0-8.3-5.1-12.6-11.5-9.7l-146.6,67.6c-6.3,2.9-11.5,12-11.5,20.3V707.93791C761,716.238,766.1,720.538,772.5,717.638Z"/><path id="be07520a-8450-49ff-9144-bc18be8727ee" data-name="Path 36" class="bd17c6e0-9725-49fe-a728-0a249b729906" d="M919,650.038h0c6.3-2.9,11.5-12,11.5-20.3V309.938c0-8.3-5.1-12.6-11.5-9.7h0Z"/><g id="b2850cda-4876-4f43-b1cc-ad49a73c053f" data-name="Group 4"><g id="e4540030-447b-4037-866e-2e12ff6b1544" data-name="Line 3" class="f2afd032-dc34-4c5e-b765-99d2bb71b96f"><rect class="a5ed5cbc-37e2-473f-8e1d-765415731d61" x="752.95473" y="357.91912" width="173.99366" height="4.99982" transform="translate(-73.72533 385.21919) rotate(-24.77874)"/></g><g id="e320e687-9b63-4a2e-8934-a74b46660b18" data-name="Line 4" class="f2afd032-dc34-4c5e-b765-99d2bb71b96f"><rect class="f36b11ba-325e-4163-a54c-7535644ccfc7" x="752.97134" y="385.31444" width="173.99366" height="4.99982" transform="translate(-85.20559 387.74836) rotate(-24.77874)"/></g><g id="aecf2341-7108-408d-a747-80500e4606b2" data-name="Line 5" class="f2afd032-dc34-4c5e-b765-99d2bb71b96f"><rect class="f36b11ba-325e-4163-a54c-7535644ccfc7" x="752.94097" y="412.59807" width="174.09364" height="4.99982" transform="translate(-96.63877 390.2685) rotate(-24.77874)"/></g><g id="f2c9590e-b032-4a70-ba8a-c933aec1f749" data-name="Line 6" class="f2afd032-dc34-4c5e-b765-99d2bb71b96f"><rect class="f36b11ba-325e-4163-a54c-7535644ccfc7" x="752.96161" y="440.01448" width="173.99366" height="4.99982" transform="translate(-108.13211 392.78035) rotate(-24.77874)"/></g><g id="f07d0aa3-157d-435e-b64d-d7ebd7afdbef" data-name="Line 7" class="f2afd032-dc34-4c5e-b765-99d2bb71b96f"><rect class="f36b11ba-325e-4163-a54c-7535644ccfc7" x="752.97825" y="467.40976" width="173.99366" height="4.99982" transform="translate(-119.61236 395.30952) rotate(-24.77874)"/></g><g id="b4faf763-c03a-45b1-8e5e-d78e45d0ec40" data-name="Line 8" class="f2afd032-dc34-4c5e-b765-99d2bb71b96f"><rect class="f36b11ba-325e-4163-a54c-7535644ccfc7" x="753.00617" y="494.72565" width="174.00096" height="5.00003" transform="translate(-131.06702 397.92583) rotate(-24.78395)"/></g><g id="f406ee8a-86be-4677-a773-954cdf5268f8" data-name="Line 9" class="f2afd032-dc34-4c5e-b765-99d2bb71b96f"><rect class="f36b11ba-325e-4163-a54c-7535644ccfc7" x="753.02284" y="522.12197" width="174.00096" height="5.00003" transform="translate(-142.54996 400.45616) rotate(-24.78395)"/></g><g id="b52fe1a0-b1f0-4e70-8270-1b596948cd99" data-name="Line 10" class="f2afd032-dc34-4c5e-b765-99d2bb71b96f"><rect class="f36b11ba-325e-4163-a54c-7535644ccfc7" x="752.99361" y="549.40654" width="174.10093" height="5.00003" transform="translate(-153.98568 402.9779) rotate(-24.78395)"/></g><g id="bbe409d3-437f-4641-9eb0-60e58ca88b92" data-name="Line 11" class="f2afd032-dc34-4c5e-b765-99d2bb71b96f"><rect class="f36b11ba-325e-4163-a54c-7535644ccfc7" x="753.01512" y="576.82387" width="174.00096" height="5.00003" transform="translate(-165.48158 405.49124) rotate(-24.78395)"/></g><g id="e283fbd3-9c8a-47df-977d-47d90e23c16a" data-name="Line 12" class="f2afd032-dc34-4c5e-b765-99d2bb71b96f"><rect class="f36b11ba-325e-4163-a54c-7535644ccfc7" x="753.03183" y="604.22014" width="174.00096" height="5.00003" transform="translate(-176.9645 408.02158) rotate(-24.78395)"/></g><g id="afad8cca-98b8-478d-8374-4401dd824106" data-name="Line 13" class="f2afd032-dc34-4c5e-b765-99d2bb71b96f"><rect class="f36b11ba-325e-4163-a54c-7535644ccfc7" x="753.00263" y="631.5047" width="174.10093" height="5.00003" transform="translate(-188.40021 410.54334) rotate(-24.78395)"/></g><g id="a068f0b9-f006-46af-ad56-17c554c17294" data-name="Line 14" class="f2afd032-dc34-4c5e-b765-99d2bb71b96f"><rect class="f36b11ba-325e-4163-a54c-7535644ccfc7" x="753.02412" y="658.92204" width="174.00096" height="5.00003" transform="translate(-199.89612 413.05667) rotate(-24.78395)"/></g></g><g id="a0bca932-73dc-4e2f-88ae-30fb3677a3f0" data-name="Group 5"><g id="f5006bde-bbc7-4dbe-9bb9-a1772502c543" data-name="Path 38"><path class="ab6ac3b6-2c17-459d-a703-618a1f657497" d="M903.3,323.338l-3.9-.7,4.9-28c.4-2.3-.1-3.9-.7-4.5a1.19013,1.19013,0,0,0-1.3-.4c-2,.3-4.7,3.3-5.4,7.2l-2.2,12.3-3.9-.7,2.2-12.3c.9-5.3,4.8-9.9,8.8-10.4a5.39473,5.39473,0,0,1,4.7,1.6c1.7,1.8,2.4,4.7,1.8,8Z"/></g><g id="b17cd0b0-6ac3-4f80-8ae3-e41e294c12a3" data-name="Path 39"><path class="ab6ac3b6-2c17-459d-a703-618a1f657497" d="M889,346.638a6.50535,6.50535,0,0,1-4.9-2.1c-2.2-2.3-3.1-6.2-2.3-10.5l2.8-15.8a1.98114,1.98114,0,0,1,3.9.7l-2.8,15.8c-.5,3-.1,5.7,1.2,7.1a2.59887,2.59887,0,0,0,2.5.8c3.1-.4,7.2-4.8,8.3-10.7l4.6-26.3a1.98114,1.98114,0,1,1,3.9.7l-4.6,26.3c-1.3,7.1-6.4,13.3-11.7,14Z"/></g></g></g><g id="baef8248-4909-41ca-9c57-cee69cdc0b82" data-name="Group 9"><path id="befd7440-4cb7-41ee-804d-743516675b9c" data-name="Path 40" class="f99b1403-9f45-45f4-a398-a3f2f01352f1" d="M158.1,583.938l-146.6-67.6c-6.3-2.9-11.5-12-11.5-20.3v-319.8c0-10.9,13.2-24.9,23-19.3l135.1,77.3c6.3,2.9,11.5,12,11.5,20.3l5.8,314.9C175.4,577.638,165.6,587.238,158.1,583.938Z"/><g id="f51a69b0-943b-4c25-a4c2-7445a5a62d58" data-name="Line 15"><path class="ab6ac3b6-2c17-459d-a703-618a1f657497" d="M50.7,181.938a2.034,2.034,0,0,1-2-1.7l-2.6-15a1.98117,1.98117,0,0,1,3.9-.7l2.6,15a1.9514,1.9514,0,0,1-1.6,2.3A.36733.36733,0,0,1,50.7,181.938Z"/></g><g id="b957b666-2fd9-4508-915c-430409081f7f" data-name="Path 41"><path class="ab6ac3b6-2c17-459d-a703-618a1f657497" d="M49.8,188.038h-.6c-2.6-.4-5.1-3.2-5.7-6.5l-3.7-21.1a1.98116,1.98116,0,0,1,3.9-.7l3.7,21.1c.3,1.8,1.6,3.2,2.2,3.3a2.41943,2.41943,0,0,0,.1-1.7l-.6-3.5a1.98117,1.98117,0,0,1,3.9-.7l.6,3.5a5.98787,5.98787,0,0,1-1.2,5.2A3.46676,3.46676,0,0,1,49.8,188.038Z"/></g><path id="b5e62e9c-ee6b-44e5-a277-267bf0c1a199" data-name="Path 42" class="b2eb070e-355b-4c77-a0a2-1e1dc4bf0269" d="M168.3,573.738l-146.6-67.6c-6.3-2.9-11.5-12-11.5-20.3v-319.8c0-8.3,5.1-12.6,11.5-9.7l146.6,67.7c6.3,2.9,11.5,12,11.5,20.3v319.7C179.8,572.33806,174.7,576.638,168.3,573.738Z"/><path id="f526d086-d697-4cf4-a9e6-b9d8cc79a9ae" data-name="Path 43" class="bd17c6e0-9725-49fe-a728-0a249b729906" d="M21.8,506.138h0c-6.3-2.9-11.5-12-11.5-20.3v-319.8c0-8.3,5.1-12.6,11.5-9.7h0Z"/><g id="b1fa8d92-0e69-40f9-a745-b7162ac1dc59" data-name="Group 7"><g id="f0a567ca-38b9-4faa-9f27-ef39cd86ebfc" data-name="Line 16" class="f2afd032-dc34-4c5e-b765-99d2bb71b96f"><rect class="a5ed5cbc-37e2-473f-8e1d-765415731d61" x="98.26749" y="129.5787" width="5.00006" height="174.00217" transform="translate(-138.10553 217.32976) rotate(-65.22886)"/></g><g id="e74f4342-06cd-483e-ae4f-b94a1a3055ef" data-name="Line 17" class="f2afd032-dc34-4c5e-b765-99d2bb71b96f"><rect class="f36b11ba-325e-4163-a54c-7535644ccfc7" x="98.34939" y="156.92572" width="5.00006" height="174.10215" transform="translate(-162.93411 233.32193) rotate(-65.22886)"/></g><g id="b6370726-0c11-4515-a972-accedb63d54b" data-name="Line 18" class="f2afd032-dc34-4c5e-b765-99d2bb71b96f"><rect class="f36b11ba-325e-4163-a54c-7535644ccfc7" x="98.24791" y="184.29324" width="5.00006" height="174.00217" transform="translate(-187.79708 249.10141) rotate(-65.22886)"/></g><g id="b1fd3014-c4f0-4125-b81d-45de5c462a3e" data-name="Line 19" class="f2afd032-dc34-4c5e-b765-99d2bb71b96f"><rect class="f36b11ba-325e-4163-a54c-7535644ccfc7" x="98.28333" y="211.67165" width="5.00006" height="174.00217" transform="translate(-212.63579 265.04057) rotate(-65.22886)"/></g><g id="ac7585e7-6659-42aa-9a14-3ac9bc01996c" data-name="Line 20" class="f2afd032-dc34-4c5e-b765-99d2bb71b96f"><rect class="f36b11ba-325e-4163-a54c-7535644ccfc7" x="98.36535" y="239.01842" width="5.00006" height="174.10215" transform="translate(-237.46408 281.0327) rotate(-65.22886)"/></g><g id="ec008ae1-23bb-4254-ab99-e9aa667f229a" data-name="Line 21" class="f2afd032-dc34-4c5e-b765-99d2bb71b96f"><rect class="f36b11ba-325e-4163-a54c-7535644ccfc7" x="98.26374" y="266.386" width="5.00006" height="174.00217" transform="translate(-262.32718 296.81211) rotate(-65.22886)"/></g><g id="a8abe00b-8246-4e29-9744-e5704c1a2e40" data-name="Line 22" class="f2afd032-dc34-4c5e-b765-99d2bb71b96f"><rect class="f36b11ba-325e-4163-a54c-7535644ccfc7" x="98.29928" y="293.76443" width="5.00006" height="174.00217" transform="translate(-287.16585 312.75139) rotate(-65.22886)"/></g><g id="a3afd5df-bd5f-429c-b8d5-79365a15704b" data-name="Line 23" class="f2afd032-dc34-4c5e-b765-99d2bb71b96f"><rect class="f36b11ba-325e-4163-a54c-7535644ccfc7" x="98.29058" y="321.0691" width="5.00006" height="174.10215" transform="translate(-312.00862 328.6367) rotate(-65.22886)"/></g><g id="a4b9fcdd-22d9-47c4-b99b-58943cc23b96" data-name="Line 24" class="f2afd032-dc34-4c5e-b765-99d2bb71b96f"><rect class="f36b11ba-325e-4163-a54c-7535644ccfc7" x="98.27981" y="348.47897" width="5.00006" height="174.00217" transform="translate(-336.85733 344.52315) rotate(-65.22886)"/></g><g id="ba1b741c-4fc2-4781-8ebc-9d4ff522201a" data-name="Line 25" class="f2afd032-dc34-4c5e-b765-99d2bb71b96f"><rect class="f36b11ba-325e-4163-a54c-7535644ccfc7" x="98.3152" y="375.85718" width="5.00006" height="174.00223" transform="translate(-361.6959 360.46217) rotate(-65.22886)"/></g><g id="eaacefca-c20b-4f51-8d78-c86e0a486385" data-name="Line 26" class="f2afd032-dc34-4c5e-b765-99d2bb71b96f"><rect class="f36b11ba-325e-4163-a54c-7535644ccfc7" x="98.25993" y="403.19561" width="5.00006" height="174.00217" transform="translate(-386.55097 376.29575) rotate(-65.22886)"/></g><g id="b7b865fa-664a-4620-9035-3c55b46ce0c7" data-name="Line 27" class="f2afd032-dc34-4c5e-b765-99d2bb71b96f"><rect class="f36b11ba-325e-4163-a54c-7535644ccfc7" x="98.29497" y="430.57435" width="5.00006" height="174.00217" transform="translate(-411.3902 392.23476) rotate(-65.22886)"/></g></g><g id="baf3324a-1a8e-4cab-8562-00361c153a5f" data-name="Group 8"><g id="bd10396f-6006-41c5-ae78-8120abfebc08" data-name="Path 45"><path class="ab6ac3b6-2c17-459d-a703-618a1f657497" d="M39.5,181.038a2.034,2.034,0,0,1-2-1.7l-4.9-28c-.6-3.3.1-6.2,1.8-8a5.39473,5.39473,0,0,1,4.7-1.6c4,.5,7.8,5.1,8.8,10.4l2.2,12.3a1.98117,1.98117,0,0,1-3.9.7l-2.2-12.3c-.7-3.9-3.4-6.9-5.4-7.2a1.57471,1.57471,0,0,0-1.3.4c-.6.6-1.1,2.2-.7,4.5l4.9,28a1.9514,1.9514,0,0,1-1.6,2.3C39.7,181.038,39.6,181.038,39.5,181.038Z"/></g><g id="fe6234d6-1ec4-4164-8dc9-5d466b3a882a" data-name="Path 46"><path class="ab6ac3b6-2c17-459d-a703-618a1f657497" d="M51.8,202.838a3.40258,3.40258,0,0,1-1-.1c-5.3-.7-10.4-6.9-11.7-14l-4.6-26.3a1.98116,1.98116,0,0,1,3.9-.7l4.6,26.3c1,5.9,5.1,10.3,8.3,10.7a2.85094,2.85094,0,0,0,2.5-.8c1.3-1.3,1.8-4.1,1.2-7.1l-2.8-15.8a1.98116,1.98116,0,0,1,3.9-.7l2.8,15.8c.8,4.4-.1,8.2-2.3,10.5A6.2338,6.2338,0,0,1,51.8,202.838Z"/></g></g></g></g><g id="b0a4796b-a532-49b9-9576-6b71add1bf67" data-name="Group 17"><g id="e63b0855-5084-4687-8afa-3c0333f51c5d" data-name="Group 13"><path id="badc471b-3471-4111-bdb8-25d296c76b74" data-name="Path 47" class="f99b1403-9f45-45f4-a398-a3f2f01352f1" d="M606.8,485.638l205.1-37c8.9-1.6,16.1-10.9,16.1-20.8V46.338c0-12.9-13.7-27.1-25.9-24.1l-195.3,46.2c-8.9,1.6-16.1,10.9-16.1,20.8l-8.7,373.3C582,472.438,596.3,487.338,606.8,485.638Z"/><path id="ac748a26-547f-409b-bac2-66bc898af18d" data-name="Path 48" class="ffb1cc5a-c477-4e3f-a6ec-20bf6c67ab9b" d="M609.6,497.138l210.2-38c9.1-1.6,16.5-11.2,16.5-21.3V47.038c0-13.3-14-27.8-26.5-24.7l-200.2,47.3c-9.1,1.6-16.5,11.2-16.5,21.3l-9,382.6C584.2,483.538,598.9,498.838,609.6,497.138Z"/><g id="b0fd3703-76bf-4610-98d3-60c2d7b09151" data-name="Line 28"><rect class="ab6ac3b6-2c17-459d-a703-618a1f657497" x="755.89748" y="31.08556" width="17.50001" height="4" transform="translate(570.66324 773.45746) rotate(-77.7956)"/></g><g id="fc77c4c7-aef8-4201-9fbb-afda91620139" data-name="Path 49"><path class="ab6ac3b6-2c17-459d-a703-618a1f657497" d="M764.8,51.338h-.6a5.90006,5.90006,0,0,1-4-2.3,7.36787,7.36787,0,0,1-1.1-5.7l.9-4a2.00126,2.00126,0,0,1,3.9.9l-.9,4a3.08972,3.08972,0,0,0,.4,2.5,1.85476,1.85476,0,0,0,1.2.7c1.4.2,3-1.3,3.4-3.1l5.2-24a2.00126,2.00126,0,1,1,3.9.9l-5.2,24C771.1,48.638,768.1,51.338,764.8,51.338Z"/></g><path id="eaddc88a-d88c-4951-839d-8475c7deefc6" data-name="Path 50" class="b2eb070e-355b-4c77-a0a2-1e1dc4bf0269" d="M598.1,476.338l205.1-37c8.9-1.6,16.1-10.9,16.1-20.8V37.038c0-9.9-7.2-16.6-16.1-15l-205.1,37c-8.9,1.6-16.1,10.9-16.1,20.8v381.5C582,471.238,589.2,477.938,598.1,476.338Z"/><path id="afaf1a47-8b6a-4796-b89e-9c3de1bcc106" data-name="Path 51" class="bd17c6e0-9725-49fe-a728-0a249b729906" d="M803.2,439.338h0c8.9-1.6,16.1-10.9,16.1-20.8V37.038c0-9.9-7.2-16.6-16.1-15h0Z"/><g id="b8df2f9d-e2c7-4e60-93d8-91aec0bb498a" data-name="Group 11"><g id="ff8289b9-de3d-4ac9-8095-b705e70d58ca" data-name="Line 29" class="f2afd032-dc34-4c5e-b765-99d2bb71b96f"><rect class="a5ed5cbc-37e2-473f-8e1d-765415731d61" x="580.2072" y="67.96219" width="224.80337" height="5.00008" transform="translate(-1.49821 124.19614) rotate(-10.23566)"/></g><g id="add58e23-c00f-4eb5-801d-9d4d122e9921" data-name="Line 30" class="f2afd032-dc34-4c5e-b765-99d2bb71b96f"><rect class="f36b11ba-325e-4163-a54c-7535644ccfc7" x="580.20022" y="100.56332" width="224.80337" height="5.00008" transform="translate(-7.29146 124.71374) rotate(-10.23566)"/></g><g id="e56c1ae1-8e69-49c0-968c-60338b373e38" data-name="Line 31" class="f2afd032-dc34-4c5e-b765-99d2bb71b96f"><rect class="f36b11ba-325e-4163-a54c-7535644ccfc7" x="580.19333" y="133.16446" width="224.80337" height="5.00008" transform="translate(-13.0847 125.23136) rotate(-10.23566)"/></g><g id="f54bed6b-7f73-438f-9bb4-3cf48b2222e8" data-name="Line 32" class="f2afd032-dc34-4c5e-b765-99d2bb71b96f"><rect class="f36b11ba-325e-4163-a54c-7535644ccfc7" x="580.20412" y="165.86404" width="224.80337" height="5.00008" transform="translate(-18.89516 125.75368) rotate(-10.23566)"/></g><g id="a97e5cdf-061f-4584-b297-e9d075058036" data-name="Line 33" class="f2afd032-dc34-4c5e-b765-99d2bb71b96f"><rect class="f36b11ba-325e-4163-a54c-7535644ccfc7" x="580.19725" y="198.46524" width="224.80337" height="5.00008" transform="translate(-24.68841 126.2713) rotate(-10.23566)"/></g><g id="b63b84b9-f971-44a0-9a8d-335b7cf63878" data-name="Line 34" class="f2afd032-dc34-4c5e-b765-99d2bb71b96f"><rect class="f36b11ba-325e-4163-a54c-7535644ccfc7" x="580.20803" y="231.16487" width="224.80337" height="5.00008" transform="translate(-30.49888 126.79363) rotate(-10.23566)"/></g><g id="ac7eb82e-c3a7-4f59-84b7-8c98b510fde4" data-name="Line 35" class="f2afd032-dc34-4c5e-b765-99d2bb71b96f"><rect class="f36b11ba-325e-4163-a54c-7535644ccfc7" x="580.20106" y="263.76606" width="224.80337" height="5.00008" transform="translate(-36.29213 127.31123) rotate(-10.23566)"/></g><g id="bd74e83c-291b-423a-b17d-2a7a8215cb39" data-name="Line 36" class="f2afd032-dc34-4c5e-b765-99d2bb71b96f"><rect class="f36b11ba-325e-4163-a54c-7535644ccfc7" x="580.19407" y="296.3672" width="224.80337" height="5.00008" transform="translate(-42.08538 127.82883) rotate(-10.23566)"/></g><g id="b4ce329d-6d5b-4617-bbd4-c2019a9a94c4" data-name="Line 37" class="f2afd032-dc34-4c5e-b765-99d2bb71b96f"><rect class="f36b11ba-325e-4163-a54c-7535644ccfc7" x="580.20497" y="329.06678" width="224.80337" height="5.00008" transform="translate(-47.89583 128.35117) rotate(-10.23566)"/></g><g id="e3a64242-7198-4d5d-aca3-576c6ae76f0b" data-name="Line 38" class="f2afd032-dc34-4c5e-b765-99d2bb71b96f"><rect class="f36b11ba-325e-4163-a54c-7535644ccfc7" x="580.19798" y="361.66792" width="224.80337" height="5.00008" transform="translate(-53.68908 128.86877) rotate(-10.23566)"/></g><g id="ad3be9ec-2936-46be-b674-8efee896b7c6" data-name="Line 39" class="f2afd032-dc34-4c5e-b765-99d2bb71b96f"><rect class="f36b11ba-325e-4163-a54c-7535644ccfc7" x="580.19111" y="394.2691" width="224.80337" height="5.00008" transform="translate(-59.48233 129.38639) rotate(-10.23566)"/></g><g id="ed0e7f8e-1c91-4b00-af8f-b7dd535e8349" data-name="Line 40" class="f2afd032-dc34-4c5e-b765-99d2bb71b96f"><rect class="f36b11ba-325e-4163-a54c-7535644ccfc7" x="580.2017" y="426.96868" width="224.80337" height="5.00008" transform="translate(-65.29279 129.90868) rotate(-10.23566)"/></g></g><g id="ad9da579-09c2-477b-b7f4-c50a02bcf2d7" data-name="Group 12"><g id="a453da15-8f5f-4edc-915a-48a47b86d2d8" data-name="Path 53"><path class="ab6ac3b6-2c17-459d-a703-618a1f657497" d="M780.4,44.338l-3.9-.8,6.9-31.9a7.328,7.328,0,0,0-.9-5.7,4.67894,4.67894,0,0,0-3.2-1.9c-3.3-.3-6.9,2.8-7.8,6.8l-3,14.1-3.9-.8,3-14.1c1.3-6,6.7-10.5,12-10a8.39337,8.39337,0,0,1,6.1,3.5,11.26844,11.26844,0,0,1,1.6,8.9Z"/></g><g id="abf5dddc-21f8-4c66-8fce-ab2fa89a1f7e" data-name="Path 54"><path class="ab6ac3b6-2c17-459d-a703-618a1f657497" d="M763.2,68.338a3.75,3.75,0,0,1-1.1-.1,11.09781,11.09781,0,0,1-8-4.6,14.54545,14.54545,0,0,1-2.1-11.8l3.9-18a2.00126,2.00126,0,1,1,3.9.9l-3.9,18a10.46988,10.46988,0,0,0,1.5,8.6,7.06992,7.06992,0,0,0,5.1,2.9c5.2.5,10.5-4.1,11.8-10.2l6.5-30a2.00127,2.00127,0,0,1,3.9.9l-6.5,30C776.5,62.638,769.9,68.338,763.2,68.338Z"/></g></g></g><g id="aafa1468-ce44-4888-bbec-4be6684f4b69" data-name="Group 16"><path id="be502cfe-e2fb-4689-8737-6204a8e6846c" data-name="Path 55" class="bcc00a24-9076-4608-b402-e584ebf0e7b3" d="M323.7,885.83806l-205.1-37c-8.9-1.6-16.1-10.9-16.1-20.80005v-381.4c0-13,13.7-27.1,25.9-24.1l195.3,46.2c8.9,1.6,16.1,10.9,16.1,20.8l8.7,373.30005C348.5,872.638,334.2,887.538,323.7,885.83806Z"/><path id="b1759743-664f-4769-8a00-d9f0bc0e7fc4" data-name="Path 56" class="ffb1cc5a-c477-4e3f-a6ec-20bf6c67ab9b" d="M321.3,885.83806l-209.8-37.9c-9.1-1.6-16.4-11.1-16.4-21.2V436.538c0-13.2,14-27.8,26.5-24.6l199.8,47.2c9.1,1.6,16.4,11.1,16.4,21.2l8.9,381.9C346.7,872.33806,332,887.638,321.3,885.83806Z"/><g id="a8b863e1-ae3c-4d03-a602-c497cef5c605" data-name="Line 41"><rect class="ab6ac3b6-2c17-459d-a703-618a1f657497" x="163.89814" y="424.55533" width="4.00009" height="17.50038" transform="translate(-87.88936 44.88852) rotate(-12.21)"/></g><g id="acbe460e-b4e1-487a-8c3e-424bb5794301" data-name="Path 57"><path class="ab6ac3b6-2c17-459d-a703-618a1f657497" d="M165.7,451.538c-3.3,0-6.3-2.6-7.1-6.3l-5.2-24a2.00125,2.00125,0,1,1,3.9-.9l5.2,24c.4,1.8,2,3.3,3.4,3.1a1.52483,1.52483,0,0,0,1.2-.7,3.18743,3.18743,0,0,0,.4-2.4l-.9-4a2.00125,2.00125,0,1,1,3.9-.9l.9,4a7.05246,7.05246,0,0,1-1.1,5.7,5.9,5.9,0,0,1-4,2.3A1.267,1.267,0,0,1,165.7,451.538Z"/></g><path id="aa59318e-a466-4bbe-a5f7-b2d7d4f32c61" data-name="Path 58" class="b2eb070e-355b-4c77-a0a2-1e1dc4bf0269" d="M332.4,876.538l-205.1-37c-8.9-1.6-16.1-10.9-16.1-20.8V437.238c0-9.9,7.2-16.6,16.1-15l205.1,37c8.9,1.6,16.1,10.9,16.1,20.8v381.5C348.5,871.438,341.3,878.138,332.4,876.538Z"/><path id="ad9e78e2-f340-4954-9589-bb9cef7ae25f" data-name="Path 59" class="bd17c6e0-9725-49fe-a728-0a249b729906" d="M127.3,839.538h0c-8.9-1.6-16.1-10.9-16.1-20.8V437.238c0-9.9,7.2-16.6,16.1-15h0Z"/><g id="be92e167-bf76-4ba1-a267-6d40918d39da" data-name="Group 14"><g id="bc2ce0ff-66dc-489c-86dc-49ca4e8a3338" data-name="Line 42" class="f2afd032-dc34-4c5e-b765-99d2bb71b96f"><rect class="a5ed5cbc-37e2-473f-8e1d-765415731d61" x="235.4219" y="358.20817" width="5.00008" height="224.80337" transform="translate(-267.47634 621.11919) rotate(-79.76434)"/></g><g id="a2e1bde4-5854-46c0-9291-08dea7be46f5" data-name="Line 43" class="f2afd032-dc34-4c5e-b765-99d2bb71b96f"><rect class="f36b11ba-325e-4163-a54c-7535644ccfc7" x="235.38738" y="390.84213" width="5.00008" height="224.80337" transform="translate(-299.61932 647.92022) rotate(-79.76434)"/></g><g id="a6259cae-6ba2-45bf-978b-9acb4a304e4d" data-name="Line 44" class="f2afd032-dc34-4c5e-b765-99d2bb71b96f"><rect class="f36b11ba-325e-4163-a54c-7535644ccfc7" x="235.45" y="423.48285" width="5.00008" height="224.80343" transform="translate(-331.68911 674.82242) rotate(-79.76434)"/></g><g id="b8903ac5-fed9-440a-b6ce-5880dd84d191" data-name="Line 45" class="f2afd032-dc34-4c5e-b765-99d2bb71b96f"><rect class="f36b11ba-325e-4163-a54c-7535644ccfc7" x="235.41433" y="456.1129" width="5.00008" height="224.80343" transform="translate(-363.8292 701.61909) rotate(-79.76434)"/></g><g id="a4c57f56-4fa5-4573-908b-f118c768861d" data-name="Line 46" class="f2afd032-dc34-4c5e-b765-99d2bb71b96f"><rect class="f36b11ba-325e-4163-a54c-7535644ccfc7" x="235.47798" y="488.76527" width="5.00008" height="224.80337" transform="translate(-395.90953 728.53184) rotate(-79.76434)"/></g><g id="f7cfa35f-1d6a-4cdf-a892-8d07d8a24113" data-name="Line 47" class="f2afd032-dc34-4c5e-b765-99d2bb71b96f"><rect class="f36b11ba-325e-4163-a54c-7535644ccfc7" x="235.44344" y="521.3947" width="5.00008" height="224.80343" transform="translate(-428.04811 755.32914) rotate(-79.76434)"/></g><g id="f078f4d8-9e38-4627-83bd-396dfbcb35af" data-name="Line 48" class="f2afd032-dc34-4c5e-b765-99d2bb71b96f"><rect class="f36b11ba-325e-4163-a54c-7535644ccfc7" x="235.40789" y="554.01926" width="5.00008" height="224.80343" transform="translate(-460.18269 782.12141) rotate(-79.76434)"/></g><g id="b4659bd0-7020-4f89-98f2-471f1efc9570" data-name="Line 49" class="f2afd032-dc34-4c5e-b765-99d2bb71b96f"><rect class="f36b11ba-325e-4163-a54c-7535644ccfc7" x="235.47157" y="586.66622" width="5.00008" height="224.80343" transform="translate(-492.25771 809.02977) rotate(-79.76434)"/></g><g id="bc55d085-558b-4376-aaf0-8f97c1c6e6f8" data-name="Line 50" class="f2afd032-dc34-4c5e-b765-99d2bb71b96f"><rect class="f36b11ba-325e-4163-a54c-7535644ccfc7" x="235.43681" y="619.30142" width="5.00008" height="224.80343" transform="translate(-524.40211 835.83158) rotate(-79.76434)"/></g><g id="b1430b89-8e6f-4475-8f7a-e3c84289614d" data-name="Line 51" class="f2afd032-dc34-4c5e-b765-99d2bb71b96f"><rect class="f36b11ba-325e-4163-a54c-7535644ccfc7" x="235.40218" y="651.93086" width="5.00008" height="224.80343" transform="translate(-556.54074 862.62877) rotate(-79.76434)"/></g><g id="a12fd5f0-86b8-4cad-a982-ec65d12af1a3" data-name="Line 52" class="f2afd032-dc34-4c5e-b765-99d2bb71b96f"><rect class="f36b11ba-325e-4163-a54c-7535644ccfc7" x="235.46507" y="684.5727" width="5.00008" height="224.80343" transform="translate(-588.61137 889.53213) rotate(-79.76434)"/></g><g id="a859a81d-b295-4a20-a744-8b64dea9aa5f" data-name="Line 53" class="f2afd032-dc34-4c5e-b765-99d2bb71b96f"><rect class="f36b11ba-325e-4163-a54c-7535644ccfc7" x="235.43025" y="717.20824" width="5.00008" height="224.80343" transform="translate(-620.75616 916.33416) rotate(-79.76434)"/></g></g><g id="fa955dc0-9bcc-44a5-8a10-ac0dfd953e5c" data-name="Group 15"><g id="a063a8a8-910e-4733-81e2-9cf42ba86f1d" data-name="Path 61"><path class="ab6ac3b6-2c17-459d-a703-618a1f657497" d="M152,446.138a2.02272,2.02272,0,0,1-2-1.6l-6.9-31.9a11.34707,11.34707,0,0,1,1.6-8.9,8.39341,8.39341,0,0,1,6.1-3.5c5.3-.5,10.8,3.9,12,10l3,14.1a2.00125,2.00125,0,1,1-3.9.9l-3-14.1c-.9-4-4.4-7.1-7.8-6.8a4.348,4.348,0,0,0-3.2,1.9,6.86673,6.86673,0,0,0-.9,5.7l6.9,31.9a2.12231,2.12231,0,0,1-1.5,2.4C152.3,446.138,152.2,446.138,152,446.138Z"/></g><g id="b3780473-782f-4200-8c01-e903900e60a8" data-name="Path 62"><path class="ab6ac3b6-2c17-459d-a703-618a1f657497" d="M167.3,468.638c-6.7,0-13.3-5.8-15-13.4l-6.5-30a2.00125,2.00125,0,1,1,3.9-.9l6.5,30c1.3,6.1,6.6,10.7,11.8,10.2a6.88844,6.88844,0,0,0,5.1-2.9,10.85393,10.85393,0,0,0,1.5-8.6l-3.9-18a2.00125,2.00125,0,1,1,3.9-.9l3.9,18c.9,4.4.2,8.7-2.1,11.8a11.24013,11.24013,0,0,1-8,4.6C168.1,468.538,167.7,468.638,167.3,468.638Z"/></g></g></g><g id="ba980884-8690-4952-816f-609063c6086c" data-name="Path 569"><path class="a4619565-e7d3-4833-959d-825f53add328" d="M184.7,626.738a2.69647,2.69647,0,0,1-2.4-1.7c-1.5-4.4-2.7-8.6-3.8-12.6a2.47386,2.47386,0,1,1,4.8-1.2c1,3.9,2.2,8,3.7,12.30005a2.62351,2.62351,0,0,1-1.6,3.19995C185.2,626.638,184.9,626.738,184.7,626.738Zm-7-31.2a2.506,2.506,0,0,1-2.5-2.3c-.2-2.1-.2-4.1-.2-6a57.992,57.992,0,0,1,.4-7.4,2.51794,2.51794,0,0,1,5,.60009c-.2,2.2-.4,4.5-.4,6.9,0,1.8.1,3.69995.2,5.6a2.48471,2.48471,0,0,1-2.3,2.7C177.9,595.538,177.8,595.538,177.7,595.538Zm6-30.8a2.1993,2.1993,0,0,1-1.3-.4,2.37691,2.37691,0,0,1-.8-3.4,42.41709,42.41709,0,0,1,9-10.4,2.484,2.484,0,0,1,3.2,3.80005,34.099,34.099,0,0,0-7.9,9.1A2.60618,2.60618,0,0,1,183.7,564.738ZM208.8,545.938a2.54764,2.54764,0,0,1-2.4-1.7,2.48313,2.48313,0,0,1,1.5-3.19995,99.97034,99.97034,0,0,1,12.9-3.5,2.491,2.491,0,0,1,.9,4.9,93.58566,93.58566,0,0,0-12.2,3.3A1.16645,1.16645,0,0,1,208.8,545.938Zm97.7-5.4h-2.3a2.5,2.5,0,1,1,0-5h2.3q6,0,10.5-.3a2.502,2.502,0,0,1,.2,5C314.2,540.438,310.6,540.538,306.5,540.538Zm-66.3-.4a2.50383,2.50383,0,0,1-.2-5c4.1-.3,8.4-.5,13.1-.6a2.5,2.5,0,0,1,0,5c-4.6.1-8.8.30005-12.9.5C240.3,540.138,240.3,540.138,240.2,540.138Zm45-.1h0c-4.3-.1-8.7-.3-13.1-.4a2.502,2.502,0,0,1,.2-5c4.4.1,8.8.2,13,.4a2.41866,2.41866,0,0,1,2.4,2.6A2.45382,2.45382,0,0,1,285.2,540.038Zm50.5-3.6a2.50176,2.50176,0,0,1-1.2-4.70007c3.1-1.7,4.5-3.9,4.5-6.9a4.86772,4.86772,0,0,0-.1-1.2,2.51794,2.51794,0,0,1,5-.6001,10.86852,10.86852,0,0,1,.1,1.80005c0,5-2.4,8.8-7.2,11.3A2.015,2.015,0,0,1,335.7,536.438Z"/></g><g id="eb6633be-4a46-43ac-b390-704fb8aaabc7" data-name="Path 570"><path class="a4619565-e7d3-4833-959d-825f53add328" d="M299.3,757.83806a2.46282,2.46282,0,0,1-1.9-.9,2.50993,2.50993,0,0,1,.2-3.5,45.99845,45.99845,0,0,0,8.2-9.2,2.52391,2.52391,0,0,1,4.2,2.80005,53.00108,53.00108,0,0,1-9.1,10.19995A2.2715,2.2715,0,0,1,299.3,757.83806Zm14-27.6001a2.52251,2.52251,0,0,1-2.5-2.4,32.44806,32.44806,0,0,0-2.7-11.7,2.508,2.508,0,1,1,4.6-2,39.93491,39.93491,0,0,1,3.1,13.5,2.43957,2.43957,0,0,1-2.5,2.6Zm-12.8-28.7a2.66507,2.66507,0,0,1-2-.9c-1.5-1.9-3-3.7-4.4-5.2l-1-1.2a2.48393,2.48393,0,1,1,3.8-3.19995l1,1.19995c1.3,1.6,2.9,3.4,4.5,5.4a2.42537,2.42537,0,0,1-.4,3.5A3.70805,3.70805,0,0,1,300.5,701.538Z"/></g></g><g id="e1daca19-53e5-4053-915d-0dce8d336fe9" data-name="Group 595"><path id="e190a52c-39e0-4ea3-b2a6-23093988a336" data-name="Rectangle 3" class="b2699d50-7263-44cf-b628-dc8e665d96ed" d="M308.4,90.338h324a14.97992,14.97992,0,0,1,15,15V622.43791a14.97988,14.97988,0,0,1-15,15h-324a14.97988,14.97988,0,0,1-15-15V105.338A14.97992,14.97992,0,0,1,308.4,90.338Z"/><path id="b5fc90f9-5ffd-4c7d-864a-b2dfe71f5f41" data-name="Rectangle 4" class="bcc00a24-9076-4608-b402-e584ebf0e7b3" d="M323.2,110.338H617.7a14.97993,14.97993,0,0,1,15,15V611.33806a14.97989,14.97989,0,0,1-15,15H323.2a14.97988,14.97988,0,0,1-15-15v-486A14.97993,14.97993,0,0,1,323.2,110.338Z"/><g id="b309f989-5b97-4350-9071-e49307bb0037" data-name="Line 54"><rect class="ab6ac3b6-2c17-459d-a703-618a1f657497" x="380.38231" y="93.09271" width="4.00009" height="20.9005" transform="translate(-13.69792 95.93855) rotate(-14.05153)"/></g><g id="a4adc76b-22fc-4994-9646-c102e4469d3d" data-name="Path 63"><path class="ab6ac3b6-2c17-459d-a703-618a1f657497" d="M381.2,125.638a8.21008,8.21008,0,0,1-8-6.3l-7.1-28.5a2.00125,2.00125,0,1,1,3.9-.9l7.1,28.5a4.26456,4.26456,0,0,0,5.2,3.1h0a4.58027,4.58027,0,0,0,2.6-1.9,4.03454,4.03454,0,0,0,.5-3.2l-1.2-4.8a2.00125,2.00125,0,1,1,3.9-.9l1.2,4.8a8.67576,8.67576,0,0,1-.9,6.3,8.25022,8.25022,0,0,1-5.1,3.8h0A14.66409,14.66409,0,0,0,381.2,125.638Z"/></g><path id="aa281521-05bb-4ca4-957d-93b7c7e0df3d" data-name="Rectangle 5" class="b2eb070e-355b-4c77-a0a2-1e1dc4bf0269" d="M322.3,98.538H618.5a14.97992,14.97992,0,0,1,15,15v486a14.97988,14.97988,0,0,1-15,15H322.3a14.97989,14.97989,0,0,1-15-15v-486A14.97993,14.97993,0,0,1,322.3,98.538Z"/><path id="b15eebf4-a52d-4c04-ad0c-51a7bb33107d" data-name="Rectangle 6" class="bd17c6e0-9725-49fe-a728-0a249b729906" d="M322.3,98.538h7.1v516h-7.1a14.97989,14.97989,0,0,1-15-15v-486A14.97993,14.97993,0,0,1,322.3,98.538Z"/><g id="fa5b4393-234f-4bfd-8fb6-7fe4fa67e72f" data-name="Group 18"><g id="baa9f71d-f43b-434a-a363-9235143e900c" data-name="Line 55" class="f2afd032-dc34-4c5e-b765-99d2bb71b96f"><rect class="a5ed5cbc-37e2-473f-8e1d-765415731d61" x="329.40001" y="131.03801" width="304.09998" height="5"/></g><g id="e892c7f8-1827-4056-88e2-1f554ce9db10" data-name="Line 56" class="f2afd032-dc34-4c5e-b765-99d2bb71b96f"><rect class="f36b11ba-325e-4163-a54c-7535644ccfc7" x="329.40001" y="171.43803" width="304.09998" height="5"/></g><g id="a6579809-9bc7-416a-886a-415d0a0d9de7" data-name="Line 57" class="f2afd032-dc34-4c5e-b765-99d2bb71b96f"><rect class="f36b11ba-325e-4163-a54c-7535644ccfc7" x="329.40001" y="211.838" width="304.09998" height="5"/></g><g id="b0a8f117-954a-4e45-9d24-3bdd2099b41a" data-name="Line 58" class="f2afd032-dc34-4c5e-b765-99d2bb71b96f"><rect class="f36b11ba-325e-4163-a54c-7535644ccfc7" x="329.40001" y="252.13799" width="304.09998" height="5"/></g><g id="b3fe00e8-71db-44c8-bbbb-e719701c4771" data-name="Line 59" class="f2afd032-dc34-4c5e-b765-99d2bb71b96f"><rect class="f36b11ba-325e-4163-a54c-7535644ccfc7" x="329.40001" y="292.53801" width="304.09998" height="5"/></g><g id="e13a0436-b867-4b72-b1e7-afff4bc44d43" data-name="Line 60" class="f2afd032-dc34-4c5e-b765-99d2bb71b96f"><rect class="f36b11ba-325e-4163-a54c-7535644ccfc7" x="329.40001" y="332.93803" width="304.09998" height="5"/></g><g id="b3f5b7cf-92d4-4964-a6c7-b6e5b47d9b89" data-name="Line 61" class="f2afd032-dc34-4c5e-b765-99d2bb71b96f"><rect class="f36b11ba-325e-4163-a54c-7535644ccfc7" x="329.40001" y="373.23802" width="304.09998" height="5"/></g><g id="fde644a1-79d1-460b-b0dc-2791d8da1922" data-name="Line 62" class="f2afd032-dc34-4c5e-b765-99d2bb71b96f"><rect class="f36b11ba-325e-4163-a54c-7535644ccfc7" x="329.40001" y="413.63799" width="304.09998" height="5"/></g><g id="a67b36d7-a432-4848-beb9-74329e7eac2e" data-name="Line 63" class="f2afd032-dc34-4c5e-b765-99d2bb71b96f"><rect class="f36b11ba-325e-4163-a54c-7535644ccfc7" x="329.40001" y="454.03801" width="304.09998" height="5"/></g><g id="b5230301-e945-4af2-8850-1deb7a9ab7e4" data-name="Line 64" class="f2afd032-dc34-4c5e-b765-99d2bb71b96f"><rect class="f36b11ba-325e-4163-a54c-7535644ccfc7" x="329.40001" y="494.338" width="304.09998" height="5"/></g><g id="ab20511f-19ac-4cce-bacc-0d8f09c048de" data-name="Line 65" class="f2afd032-dc34-4c5e-b765-99d2bb71b96f"><rect class="f36b11ba-325e-4163-a54c-7535644ccfc7" x="329.40001" y="534.73796" width="304.09998" height="5"/></g><g id="fa4fabb9-6669-4981-824b-a769b4582754" data-name="Line 66" class="f2afd032-dc34-4c5e-b765-99d2bb71b96f"><rect class="f36b11ba-325e-4163-a54c-7535644ccfc7" x="329.40001" y="575.13799" width="304.09998" height="5"/></g></g><g id="a3a90d9f-af27-4690-998d-5add12fe78d1" data-name="Group 19"><g id="a5b754e4-35d0-4d11-877d-2a0e67b2c6b4" data-name="Path 65"><path class="ab6ac3b6-2c17-459d-a703-618a1f657497" d="M363.4,121.938a1.927,1.927,0,0,1-1.9-1.5l-9.5-37.9a13.19394,13.19394,0,0,1,25.6-6.4l4.2,16.7a2.00125,2.00125,0,1,1-3.9.9l-4.2-16.7a9.261,9.261,0,0,0-16.9-2.5,9.02614,9.02614,0,0,0-1,7l9.5,37.9a1.91642,1.91642,0,0,1-1.5,2.4C363.7,121.938,363.6,121.938,363.4,121.938Z"/></g><g id="a99d3dcd-8b55-4f4f-b7cd-8ea1589e5103" data-name="Path 66"><path class="ab6ac3b6-2c17-459d-a703-618a1f657497" d="M381.9,146.538a17.90279,17.90279,0,0,1-17.3-13.5l-8.9-35.6a2.00125,2.00125,0,1,1,3.9-.9l8.9,35.6a13.76391,13.76391,0,1,0,26.7-6.7l-5.4-21.4a2.00125,2.00125,0,1,1,3.9-.9l5.4,21.4a17.82425,17.82425,0,0,1-12.9,21.6A31.24313,31.24313,0,0,1,381.9,146.538Z"/></g></g></g><g id="bc6d1dc1-85bf-4306-8cb5-4a5c60dbfbe5" data-name="Group 596"><path id="f84161a1-c348-425d-84bc-ed1d417f6671" data-name="Rectangle 90" class="fbaf9015-e7fa-420c-91e6-8e576b84e640" d="M470.88414,302.915h0a77.39593,77.39593,0,0,1,77.3999,77.39991h0v20.5h-154.8v-20.5A77.39583,77.39583,0,0,1,470.88414,302.915Z"/><path id="aca3e827-a601-48cf-b37c-014cc1345f2f" data-name="Path 537" class="f79e60c9-f415-451b-98a2-3ee0c5a91175" d="M445.68394,302.71477l-13.3,4.3999a3.57523,3.57523,0,0,0-2.5,4.1001l18.8999,79.1001a4.005,4.005,0,0,0,4.1001,2.8999h4c2.5,0,4.3999-1.8999,4.10009-4.1001l-9.60009-83.5C450.984,303.31487,448.18394,301.81487,445.68394,302.71477Z"/><path id="b10793f2-ab06-4e88-944e-50f0015623fb" data-name="Path 538" class="f79e60c9-f415-451b-98a2-3ee0c5a91175" d="M490.58409,302.71477l13.6001,4.3999a3.57523,3.57523,0,0,1,2.5,4.1001l-18.8999,79.1001a4.005,4.005,0,0,1-4.1001,2.8999h-4c-2.5,0-4.3999-1.8999-4.1001-4.1001l9.3-83.5C485.18394,303.31487,487.984,301.81487,490.58409,302.71477Z"/><path id="f0113d80-52b7-4b00-b365-91385d600936" data-name="Path 539" class="a34f0f1f-48ca-4907-a00c-47a01cb84391" d="M455.18394,300.81487l25.80005.2998a3.79838,3.79838,0,0,1,3.8,3.79981v.3999l-9.1001,83.2998a3.80294,3.80294,0,0,1-3.8,3.3999h-8.3a3.81108,3.81108,0,0,1-3.8-3.5l-8.3999-83.5a3.82237,3.82237,0,0,1,3.3999-4.20019C454.984,300.915,455.08409,300.81487,455.18394,300.81487Z"/><line id="b13f4ef1-fd61-4394-ae4d-afed45b6faaa" data-name="Line 128" class="a37436d7-ce19-4230-ae81-e7f9ade6becb" x1="389.58409" y1="394.61467" x2="550.58409" y2="394.61467"/><path id="a1025ad4-3d73-45dc-9d48-0441d634b5dc" data-name="Path 540" class="a75f483a-05af-45c4-b695-9ae2231fb841" d="M512.18394,321.01506l-5.3999,16.29981,31.19995,22.2998C537.88414,359.61467,535.38414,342.71477,512.18394,321.01506Z"/><path id="a2ca43d3-32b2-4c9c-91ba-2729d243211f" data-name="Path 541" class="fbaf9015-e7fa-420c-91e6-8e576b84e640" d="M494.08409,307.01506l9.3999,2.79981-2.10009,8.5Z"/></g><path class="a4619565-e7d3-4833-959d-825f53add328" d="M748.848,292.677a1.94982,1.94982,0,0,1-.8-.1,2.48321,2.48321,0,0,1-1.5-3.2c1.4-4.1,2.8-8.2,4.1-12.3a2.46676,2.46676,0,0,1,4.7,1.5c-1.3,4.1-2.7,8.2-4.1,12.4A2.6964,2.6964,0,0,1,748.848,292.677Zm9.3-30.6a1.26844,1.26844,0,0,1-.6-.1,2.43849,2.43849,0,0,1-1.8-3c1.1-4.2,2-8.5,2.9-12.6a2.491,2.491,0,1,1,4.9.9c-.8,4.2-1.8,8.5-2.9,12.8A2.73926,2.73926,0,0,1,758.148,262.077Zm6-31.5h-.3a2.56057,2.56057,0,0,1-2.2-2.8c.5-4.3.9-8.6,1.2-12.8a2.39573,2.39573,0,0,1,2.6-2.3,2.45258,2.45258,0,0,1,2.3,2.6c-.2,4.3-.7,8.7-1.2,13.1A2.39508,2.39508,0,0,1,764.148,230.577Zm1.30005-31.9a2.519,2.519,0,0,1-2.5-2.4c-.2-4.3-.6-8.6-1.2-12.7a2.47485,2.47485,0,1,1,4.9-.7c.6,4.3,1,8.7,1.3,13.2a2.41868,2.41868,0,0,1-2.4,2.6Zm-5.30005-31.5a2.46094,2.46094,0,0,1-2.4-1.8,111.70481,111.70481,0,0,0-4.3-11.9,2.508,2.508,0,0,1,4.6-2,102.94847,102.94847,0,0,1,4.5,12.5,2.52691,2.52691,0,0,1-1.7,3.1A1.70083,1.70083,0,0,1,760.148,167.177Zm-13.5-28.9a2.60891,2.60891,0,0,1-2.1-1.1,122.59172,122.59172,0,0,0-7.6-10.2,2.484,2.484,0,0,1,3.8-3.2c2.9,3.4,5.5,7,8,10.6a2.55124,2.55124,0,0,1-.7,3.5A2.29615,2.29615,0,0,1,746.648,138.277Zm-21.19995-23.8a2.27107,2.27107,0,0,1-1.6-.6c-3.2-2.7-6.5-5.3-10.1-7.8a2.511,2.511,0,0,1,2.9-4.1q5.55,3.9,10.5,8.1a2.51934,2.51934,0,0,1,.3,3.5A2.82976,2.82976,0,0,1,725.448,114.477Z"/><path class="a4619565-e7d3-4833-959d-825f53add328" d="M429.348,549.177h-.3a2.39762,2.39762,0,0,1-2.2-2.7,91.841,91.841,0,0,1,2.3-13.1,2.47386,2.47386,0,1,1,4.8,1.2,97.13927,97.13927,0,0,0-2.2,12.4A2.47564,2.47564,0,0,1,429.348,549.177Zm8.8-30.5a2.01583,2.01583,0,0,1-1.1-.3,2.56837,2.56837,0,0,1-1.1-3.4,96.951,96.951,0,0,1,7-11.4,2.511,2.511,0,0,1,4.1,2.9,78.97317,78.97317,0,0,0-6.6,10.7A2.57109,2.57109,0,0,1,438.148,518.677Zm19.4-25.2a2.49928,2.49928,0,0,1-1.7-4.3c3-2.8,6.2-5.6,10-8.6a2.491,2.491,0,1,1,3.1,3.9c-3.6,2.9-6.8,5.6-9.7,8.4A2.71582,2.71582,0,0,1,457.548,493.477Zm25-19.9a2.61038,2.61038,0,0,1-2-1,2.527,2.527,0,0,1,.5-3.5c3.9-2.9,7.2-5.4,10.2-7.8a2.48395,2.48395,0,1,1,3.2,3.8c-3.1,2.6-6.4,5-10.4,8A2.45649,2.45649,0,0,1,482.548,473.577Zm23.5-21.6a2.29576,2.29576,0,0,1-1.4-.4,2.55131,2.55131,0,0,1-.7-3.5,26.93675,26.93675,0,0,0,4.5-10.9,2.491,2.491,0,0,1,4.9.9,32.33487,32.33487,0,0,1-5.3,12.8A2.30553,2.30553,0,0,1,506.048,451.977Z"/><path class="a4619565-e7d3-4833-959d-825f53add328" d="M563.148,335.077a2.69468,2.69468,0,0,1-1.5-.5,2.527,2.527,0,0,1-.5-3.5,73.805,73.805,0,0,0,6.8-10.5,2.52687,2.52687,0,0,1,4.5,2.3,71.3545,71.3545,0,0,1-7.3,11.3A2.665,2.665,0,0,1,563.148,335.077Zm11.1-29.2a2.49035,2.49035,0,0,1-2.5-2.2,21.355,21.355,0,0,0-4.4-10.6,2.5,2.5,0,1,1,4-3,27.44783,27.44783,0,0,1,5.4,13,2.48861,2.48861,0,0,1-2.2,2.8Zm-19.3-24a2.19915,2.19915,0,0,1-1.3-.4c-3.2-1.9-6.9-3.9-11.3-6a2.48294,2.48294,0,0,1,2.1-4.5,123.0193,123.0193,0,0,1,11.7,6.2,2.35928,2.35928,0,0,1,.8,3.4A1.95638,1.95638,0,0,1,554.948,281.877Zm-28.9-13.6a4.39919,4.39919,0,0,1-1-.2l-.4-.2c-3.9-1.6-7.9-3.3-11.6-4.9a2.508,2.508,0,1,1,2-4.6c3.7,1.6,7.7,3.3,11.5,4.9l.4.2a2.42087,2.42087,0,0,1,1.3,3.3A2.38783,2.38783,0,0,1,526.048,268.277Zm-28.9-13.7a2.00945,2.00945,0,0,1-1.3-.4,43.171,43.171,0,0,1-8.1-6.4,13.85956,13.85956,0,0,1-2.3-3.1,2.506,2.506,0,1,1,4.4-2.4,6.1841,6.1841,0,0,0,1.5,2,41.09624,41.09624,0,0,0,7.2,5.7,2.556,2.556,0,0,1,.8,3.5A3.33623,3.33623,0,0,1,497.148,254.577Zm-11.6-27.3h-.2a2.48471,2.48471,0,0,1-2.3-2.7c.4-4.3,1.1-8.9,1.6-13a2.47486,2.47486,0,0,1,4.9.7c-.6,4-1.2,8.6-1.6,12.8A2.333,2.333,0,0,1,485.548,227.277Zm3.8-31.8h-.1a2.54264,2.54264,0,0,1-2.4-2.6c.1-1.2.1-2.4.1-3.5a45.55262,45.55262,0,0,0-.8-8.8,2.52978,2.52978,0,0,1,1.9-3,2.58156,2.58156,0,0,1,3,1.9,48.11224,48.11224,0,0,1,.9,9.8c0,1.2,0,2.5-.1,3.8A2.519,2.519,0,0,1,489.348,195.477Zm-11.7-27.5a3.55168,3.55168,0,0,1-1-.2,28.47889,28.47889,0,0,0-11.7-2.1,2.5,2.5,0,1,1,0-5h0a33.48216,33.48216,0,0,1,13.7,2.6,2.53335,2.53335,0,0,1,1.3,3.3A2.65453,2.65453,0,0,1,477.648,167.977Z"/><path class="a4619565-e7d3-4833-959d-825f53add328" d="M449.548,568.877a.73472.73472,0,0,1-.2-.6v-4.3a1.42039,1.42039,0,0,1,.2-.6c.1-.2.4-.2.6-.2h4.3a1.42043,1.42043,0,0,1,.6.2.73473.73473,0,0,1,.2.6v4.3a1.42053,1.42053,0,0,1-.2.6c-.1.2-.4.2-.6.2h-4.3A1.42093,1.42093,0,0,1,449.548,568.877Zm.1-7.5a.73472.73472,0,0,1-.2-.6v-14a1.42053,1.42053,0,0,1,.2-.6.73474.73474,0,0,1,.6-.2h4a1.42048,1.42048,0,0,1,.6.2.73471.73471,0,0,1,.2.6v14a1.42053,1.42053,0,0,1-.2.6c-.1.2-.4.2-.6.2h-4A.73474.73474,0,0,1,449.648,561.377Z"/><path class="a4619565-e7d3-4833-959d-825f53add328" d="M476.648,552.177c1.5,1.3,2.3,3.3,2.3,6.1v9.9a1.42039,1.42039,0,0,1-.2.6c-.1.19995-.4.2-.6.2h-3.9a1.4205,1.4205,0,0,1-.6-.2.73471.73471,0,0,1-.2-.6v-9.8c0-2.5-1.2-3.8-3.7-3.8h-2.1a18.92758,18.92758,0,0,0-.5,4.9l.3,8.7a1.42039,1.42039,0,0,1-.2.6.7347.7347,0,0,1-.6.2h-7a1.42041,1.42041,0,0,1-.6-.2c-.2-.1-.2-.4-.2-.6v-2.6a1.42039,1.42039,0,0,1,.2-.6.73471.73471,0,0,1,.6-.2h2.7v-5.2a18.92739,18.92739,0,0,1,.5-4.9h-1.9a1.42053,1.42053,0,0,1-.6-.2.73472.73472,0,0,1-.2-.6V551.077a1.42041,1.42041,0,0,1,.2-.6.73469.73469,0,0,1,.6-.2h9.2C472.848,550.277,475.148,550.877,476.648,552.177Z"/><path class="a4619565-e7d3-4833-959d-825f53add328" d="M482.948,568.877a.73472.73472,0,0,1-.2-.6v-17.2a1.42053,1.42053,0,0,1,.2-.6.73472.73472,0,0,1,.6-.2h4.1a1.42041,1.42041,0,0,1,.6.2.73471.73471,0,0,1,.2.6v17.2a1.42039,1.42039,0,0,1-.2.6c-.1.2-.4.2-.6.2h-4.1A.84509.84509,0,0,1,482.948,568.877Z"/><path class="a4619565-e7d3-4833-959d-825f53add328" d="M501.548,568.877a.73472.73472,0,0,1-.2-.6v-9.8c0-2.5-1.2-3.8-3.7-3.8h-5a1.42053,1.42053,0,0,1-.6-.2c-.2-.1-.2-.4-.2-.6V551.077a1.42039,1.42039,0,0,1,.2-.6.73469.73469,0,0,1,.6-.2h5.2c3.1,0,5.3.6,6.8,1.9s2.3,3.3,2.3,6.2v10a1.42043,1.42043,0,0,1-.2.6.73472.73472,0,0,1-.6.2h-3.9A4.87788,4.87788,0,0,1,501.548,568.877Z"/><path class="a4619565-e7d3-4833-959d-825f53add328" d="M510.748,560.977a.73474.73474,0,0,1-.2-.6V551.077a1.42039,1.42039,0,0,1,.2-.6.73471.73471,0,0,1,.6-.2h4.1a1.42045,1.42045,0,0,1,.6.2.73471.73471,0,0,1,.2.6v9.4a1.42053,1.42053,0,0,1-.2.6.73473.73473,0,0,1-.6.2h-4.1A.86444.86444,0,0,1,510.748,560.977Z"/><path class="a4619565-e7d3-4833-959d-825f53add328" d="M532.448,568.877a.73472.73472,0,0,1-.2-.6v-9.8c0-2.5-1.2-3.8-3.7-3.8h-7.5a1.42057,1.42057,0,0,1-.6-.2.73474.73474,0,0,1-.2-.6V551.077a1.42053,1.42053,0,0,1,.2-.6.73472.73472,0,0,1,.6-.2h7.7c3,0,5.3.7,6.8,2s2.3,3.4,2.3,6.3v9.7a1.42041,1.42041,0,0,1-.2.6.73471.73471,0,0,1-.6.2h-4A.84509.84509,0,0,1,532.448,568.877Zm-12.1,0a.7347.7347,0,0,1-.2-.6v-9.6a1.42045,1.42045,0,0,1,.2-.6c.1-.2.4-.2.6-.2h3.9a1.42053,1.42053,0,0,1,.6.2c.19995.1.2.4.2.6v9.6a1.42039,1.42039,0,0,1-.2.6c-.1.2-.4.2-.6.2h-3.9A.84516.84516,0,0,1,520.348,568.877Z"/><path class="a4619565-e7d3-4833-959d-825f53add328" d="M551.348,550.477a.73471.73471,0,0,1,.2.6v2.8a1.42062,1.42062,0,0,1-.2.6c-.1.19995-.4.2-.6.2h-1.5a3.78017,3.78017,0,0,0-.6,1.7,16.41607,16.41607,0,0,0-.2,2.3v9.6a.54984.54984,0,0,1-.3.5,1.42187,1.42187,0,0,1-.6.2h-3.9a.6836.6836,0,0,1-.7-.7v-10a6.6713,6.6713,0,0,1,.7-3.7h-2.5a1.42039,1.42039,0,0,1-.6-.2.73473.73473,0,0,1-.2-.6v-2.7a1.42039,1.42039,0,0,1,.2-.6.7347.7347,0,0,1,.6-.2h9.7C551.048,550.277,551.248,550.277,551.348,550.477Z"/><path id="a8b1ad4d-dc8d-4ed9-8f08-7ea0835f06dd" data-name="מדוע אסור " class="a4619565-e7d3-4833-959d-825f53add328" d="M700.548,179.577a.51953.51953,0,0,1,.4.2c.1.1.1.2.1.4v6.5a5.06334,5.06334,0,0,1-1.4,3.6,7.16291,7.16291,0,0,1-4,1.9l-5.3,1.2c-.2,0-.3,0-.4-.1a.51965.51965,0,0,1-.2-.4v-1.9a.60148.60148,0,0,1,.1-.4c.1-.1.2-.2.3-.2l2.3-.6-2.4-9.2a.99676.99676,0,0,1-.1-.4.3535.3535,0,0,1,.4-.4h2.7a.36737.36737,0,0,1,.3.1l.2.2,2.1,8.9a2.68675,2.68675,0,0,0,1.5-1.2,5.57953,5.57953,0,0,0,.4-2.1v-5.6c0-.2,0-.3.1-.4a.51942.51942,0,0,1,.4-.2Zm3.4,12.5a.70714.70714,0,0,1-.6-.6v-11.4a.70714.70714,0,0,1,.6-.6h2.6a.5195.5195,0,0,1,.4.2c.1.1.1.2.1.4v11.5a.60148.60148,0,0,1-.1.4.51943.51943,0,0,1-.4.2Zm14.9-12.7a.51954.51954,0,0,1,.4.2c.1.1.1.2.1.4v1.9a.60148.60148,0,0,1-.1.4.51961.51961,0,0,1-.4.2h-1a3.58294,3.58294,0,0,0-.4,1.1,8.08524,8.08524,0,0,0-.1,1.6v6.4c0,.1-.1.2-.2.3a.60136.60136,0,0,1-.4.1h-2.5c-.1,0-.3,0-.3-.1-.1-.1-.1-.2-.1-.4v-6.7a5.14229,5.14229,0,0,1,.4-2.5h-4.8a.75814.75814,0,0,1-.4-.2.51958.51958,0,0,1-.2-.4v-1.6a.70714.70714,0,0,1,.6-.6Zm9.6,0a4.83549,4.83549,0,0,1,3.6,1.3,5.64251,5.64251,0,0,1,1.4,4.1v6.7a.39931.39931,0,0,1-.2.4.51958.51958,0,0,1-.4.2h-5.8a.75813.75813,0,0,1-.4-.2.51954.51954,0,0,1-.2-.4v-1.9a.70716.70716,0,0,1,.6-.6h2.7v-4.1a2.96925,2.96925,0,0,0-.5-1.8,1.81559,1.81559,0,0,0-1.4-.6h-1.7l-1.8,8.9a.70719.70719,0,0,1-.6.6h-2.4a.51952.51952,0,0,1-.4-.2c-.1-.1-.1-.2-.1-.4l2.1-8.9h-1.4a.51952.51952,0,0,1-.4-.2c-.1-.1-.1-.2-.1-.4v-2a.70714.70714,0,0,1,.6-.6Zm-46.30005,34.8a.3535.3535,0,0,1-.4-.4v-.5a4.418,4.418,0,0,1,.6-1.6,9.3613,9.3613,0,0,1,1.4-1.6c.4-.4.7-.8,1-1.1a1.61279,1.61279,0,0,0,.3-.9,1.15937,1.15937,0,0,0-.4-1,1.50393,1.50393,0,0,0-1.1-.4,1.83088,1.83088,0,0,0-1.9,1.5c-.1.2-.1.3-.2.4s-.2.1-.4.1h-2.7c-.1,0-.2-.1-.3-.2a.60132.60132,0,0,1-.1-.4,5.09983,5.09983,0,0,1,.7-2.3,4.42436,4.42436,0,0,1,2-1.8,6.31425,6.31425,0,0,1,3.2-.7,6.84147,6.84147,0,0,1,3.1.6,3.63219,3.63219,0,0,1,1.7,1.5,4.07482,4.07482,0,0,1,.5,1.8,3.82979,3.82979,0,0,1-.5,1.9,9.83775,9.83775,0,0,1-1.4,1.8,4.819,4.819,0,0,0-.8,1,2.6212,2.6212,0,0,0-.5.9.7495.7495,0,0,0-.1.5,2.18515,2.18515,0,0,1-.3.5c-.1.1-.2.1-.4.1Zm.1,4.7a.70716.70716,0,0,1-.6-.6v-2.6a.70716.70716,0,0,1,.6-.6h2.8a.70716.70716,0,0,1,.6.6v2.6a.51952.51952,0,0,1-.2.4c-.1.1-.2.2-.4.1Zm14.9.1a.70717.70717,0,0,1-.6-.6v-6.5c0-1.7-.8-2.5-2.3-2.5h-3.1a.75822.75822,0,0,1-.4-.2.51952.51952,0,0,1-.2-.4v-1.9a.70714.70714,0,0,1,.6-.6h3.3a5.98725,5.98725,0,0,1,4.3,1.3,5.48278,5.48278,0,0,1,1.4,4.1v6.6a.60153.60153,0,0,1-.1.4.51963.51963,0,0,1-.4.2Zm5.9.1a.70714.70714,0,0,1-.6-.6v-11.4a.70714.70714,0,0,1,.6-.6h2.6a.51952.51952,0,0,1,.4.2c.1.1.1.2.1.4v11.5a.60153.60153,0,0,1-.1.4.51963.51963,0,0,1-.4.2Zm11.2.3a5.76735,5.76735,0,0,1-4.3-1.5,5.39188,5.39188,0,0,1-1.4-4.1v-6.7a.70714.70714,0,0,1,.6-.6h5.4c2,0,3.5.5,4.3,1.4a6.37949,6.37949,0,0,1,1.5,4v2.1a5.85949,5.85949,0,0,1-1.5,4,6.50553,6.50553,0,0,1-4.6,1.4Zm-.1-3.2a3.22125,3.22125,0,0,0,2-.5,2.44461,2.44461,0,0,0,.6-1.8v-1.8a2.44476,2.44476,0,0,0-.6-1.8,2.5461,2.5461,0,0,0-1.9-.6h-2.5v4.2a2.44476,2.44476,0,0,0,.6,1.8,2.57324,2.57324,0,0,0,1.8.5Zm19.4,2.4a.40135.40135,0,0,1-.3.7h-2.6a.84509.84509,0,0,1-.6-.2l-.2-.2-3.7-5.6a2.51551,2.51551,0,0,0-.7,1.2,6.05127,6.05127,0,0,0-.2,1.5v2.8a.70714.70714,0,0,1-.6.6h-2.1a.70714.70714,0,0,1-.6-.6v-2.7a8.71894,8.71894,0,0,1,.5-3.1,5.172,5.172,0,0,1,1.8-2.2l-2.2-3.3a.40136.40136,0,0,1,.3-.7h2.5a.74944.74944,0,0,1,.5.1,1.38017,1.38017,0,0,1,.3.4l3.4,5.1a1.89051,1.89051,0,0,0,.8-1,5.06791,5.06791,0,0,0,.2-1.3v-2.7c0-.2,0-.3.1-.4a.51963.51963,0,0,1,.4-.2h2.2a.5195.5195,0,0,1,.4.2.75812.75812,0,0,1,.2.4v2.8a7.51168,7.51168,0,0,1-.5,2.6,4.4368,4.4368,0,0,1-2,2.1Z"/><path class="a4619565-e7d3-4833-959d-825f53add328" d="M74.448,437.977a2.54762,2.54762,0,0,1-2.4-1.7c-.6-1.8-1.6-4.3-2.7-7.1-.6-1.5-1.2-3.2-1.9-5a2.46981,2.46981,0,1,1,4.6-1.8c.7,1.8,1.3,3.4,1.9,4.9,1.1,2.9,2.1,5.4,2.8,7.3a2.48322,2.48322,0,0,1-1.5,3.2A1.07769,1.07769,0,0,1,74.448,437.977Zm-11.1-30a2.69654,2.69654,0,0,1-2.4-1.7c-1.4-4.3-2.7-8.6-3.8-12.6a2.5,2.5,0,1,1,4.8-1.4c1.1,3.9,2.4,8.1,3.8,12.3a2.62362,2.62362,0,0,1-1.6,3.2A1.88531,1.88531,0,0,1,63.348,407.977Zm-7.9-31a2.56772,2.56772,0,0,1-2.5-2.1,108.99259,108.99259,0,0,1-1.5-13.2,2.502,2.502,0,1,1,5-.2,121.23306,121.23306,0,0,0,1.4,12.6,2.56536,2.56536,0,0,1-2.1,2.9Zm-.2-31.8a1.26855,1.26855,0,0,1-.6-.1,2.52977,2.52977,0,0,1-1.9-3,43.49032,43.49032,0,0,1,4.6-12.1q.3-.45.6-.9a2.5,2.5,0,1,1,4,3c-.1.1-.2.3-.3.4a37.8254,37.8254,0,0,0-4.1,10.7A2.34921,2.34921,0,0,1,55.248,345.177Zm64.1-8.2a64.0501,64.0501,0,0,1-10.4-1,2.5318,2.5318,0,1,1,.8-5,47.51187,47.51187,0,0,0,12.3.8,2.48863,2.48863,0,0,1,2.8,2.2,2.56051,2.56051,0,0,1-2.2,2.8A17.21434,17.21434,0,0,1,119.348,336.977Zm-28.6-4.6a.90165.90165,0,0,1-.5-.1c-3.9-.8-8.4-1.7-12.6-2.3a2.51794,2.51794,0,1,1,.6-5c4.3.6,9,1.5,13,2.3a2.593,2.593,0,0,1-.5,5.1Zm39.5-9.4a2.37561,2.37561,0,0,1-2.4-2,68.95332,68.95332,0,0,0-4-11.9,2.508,2.508,0,0,1,4.6-2,67.20189,67.20189,0,0,1,4.2,12.8,2.52979,2.52979,0,0,1-1.9,3A.74916.74916,0,0,1,130.248,322.977Zm-12.3-29.5a2.48471,2.48471,0,0,1-2.2-1.3c-2-3.9-4.1-7.7-6-11.3l-.1-.1a2.506,2.506,0,1,1,4.4-2.4l.1.1c1.9,3.5,4,7.4,6.1,11.4a2.537,2.537,0,0,1-1.1,3.4A5.02359,5.02359,0,0,1,117.948,293.477Zm-14.5-28.5a2.441,2.441,0,0,1-2.4-1.9,1.70167,1.70167,0,0,1-.1-.7,2.491,2.491,0,1,1,4.9-.9.36733.36733,0,0,0,.1.3,2.50809,2.50809,0,0,1-1.8,3.1A1.95038,1.95038,0,0,1,103.448,264.977Z"/><path class="a4619565-e7d3-4833-959d-825f53add328" d="M832.448,611.477a2.69422,2.69422,0,0,1-1.5-.5c-3.8-2.9-7.2-5.69995-10.2-8.3a2.47889,2.47889,0,1,1,3.3-3.7q4.35,3.9,9.9,8.1a2.41921,2.41921,0,0,1-1.5,4.4Zm-22.80005-22.1a2.60891,2.60891,0,0,1-2.1-1.1,32.07853,32.07853,0,0,1-5.5-12.8,2.491,2.491,0,1,1,4.9-.9,27.54151,27.54151,0,0,0,4.7,10.9,2.48046,2.48046,0,0,1-.7,3.5A3.25952,3.25952,0,0,1,809.648,589.37706Zm-.9-29.9a2.19914,2.19914,0,0,1-1.3-.4,2.37691,2.37691,0,0,1-.8-3.4,79.56161,79.56161,0,0,1,8-10.7,2.48394,2.48394,0,1,1,3.8,3.2,63.16672,63.16672,0,0,0-7.5,10.1A2.63029,2.63029,0,0,1,808.748,559.477Zm20.5-24.5a2.71582,2.71582,0,0,1-1.7-.6,2.51,2.51,0,0,1-.2-3.5c3.3-3.7,6-6.8,8.4-9.7a2.491,2.491,0,1,1,3.9,3.1c-2.5,3-5.2,6.2-8.6,9.9A2.05564,2.05564,0,0,1,829.248,534.977Zm19.5-25.3a2.19914,2.19914,0,0,1-1.3-.4,2.46716,2.46716,0,0,1-.9-3.4,99.59335,99.59335,0,0,0,5.8-11.2,2.508,2.508,0,1,1,4.6,2,101.69615,101.69615,0,0,1-6.1,11.8A2.245,2.245,0,0,1,848.748,509.677Zm11.9-29.5a.74944.74944,0,0,1-.5-.1,2.52981,2.52981,0,0,1-1.9-3,101.71168,101.71168,0,0,0,1.9-12.5,2.508,2.508,0,1,1,5,.4,95.45366,95.45366,0,0,1-2,13.2A2.55975,2.55975,0,0,1,860.648,480.177Zm1.9-31.8a2.506,2.506,0,0,1-2.5-2.3q-.45-4.95-1.2-10.2a2.5318,2.5318,0,0,1,5-.8c.6,3.6,1,7.1,1.3,10.6a2.48484,2.48484,0,0,1-2.3,2.7Z"/><path id="a3b41d27-9d47-4463-b0cb-7d7d92c5f4a5" data-name="Path 561" class="fbaf9015-e7fa-420c-91e6-8e576b84e640" d="M739.124,357.354v32.6a.09793.09793,0,0,1-.1.1l-.1.1h-.2l-27.9-.5c-.1,0-.2,0-.2-.1-.1-.1-.1-.1-.1-.2v-.3a.34914.34914,0,0,1,.1-.2l28.5-31.5m-7.4-8.1-29,32.3-16.2,18c0,.1-.1.1-.1.2v.3c0,.1.1.1.1.2.1.1.1.1.2.1l23,.6,29.3.8,10.1.3h.2a.09794.09794,0,0,0,.1-.1l.1-.1v-71.2a.36737.36737,0,0,0-.1-.3c0-.1-.1-.1-.2-.2h-.2a.34914.34914,0,0,0-.2.1Z"/><g class="b077eb6b-f1ba-416b-9bbd-5926b96beaf4"><g id="bc81b179-d5e4-4793-ab84-97a5ab50e85d" data-name="Group 591"><g id="bd55f4c2-5b10-46db-9e1c-3f7a0c5e84a9" data-name="Line 129"><path class="b928c6c8-8370-4493-8a27-e5e86c7e0748" d="M734.924,327.249l10.5,11.3"/><path class="a07dd4a2-5766-4e52-a92b-37f8569578c4" d="M745.424,339.149h-.3a.09794.09794,0,0,1-.1-.1l-10.5-11.4c0-.1-.1-.1-.1-.2v-.4c0-.1.1-.1.1-.2l.1-.1a.09794.09794,0,0,0,.1-.1h.5a.09794.09794,0,0,1,.1.1l10.5,11.3c0,.1.1.1.1.2v.4c0,.1-.1.1-.1.2l-.1.1a.09794.09794,0,0,0-.1.1c-.1,0-.1,0-.2.1Z"/></g><g id="beb5cf28-5162-44dc-ae79-09286d8718ab" data-name="Line 130"><path class="b928c6c8-8370-4493-8a27-e5e86c7e0748" d="M729.738,333.022l10.4,11.3"/><path class="a07dd4a2-5766-4e52-a92b-37f8569578c4" d="M740.138,344.922h-.3a.09794.09794,0,0,1-.1-.1l-10.4-11.4c0-.1-.1-.1-.1-.2v-.4c0-.1.1-.1.1-.2l.1-.1h.6a.09794.09794,0,0,1,.1.1l10.4,11.3c0,.1.1.1.1.2v.4c0,.1-.1.1-.1.2l-.1.1h-.1c-.1.1-.1.1-.2.1Z"/></g><g id="fc47db94-fc38-4ee1-90ce-962c782a0f60" data-name="Line 131"><path class="b928c6c8-8370-4493-8a27-e5e86c7e0748" d="M724.59,338.857l10.3,11.3"/><path class="a07dd4a2-5766-4e52-a92b-37f8569578c4" d="M734.89,350.757h-.3a.09794.09794,0,0,1-.1-.1l-10.3-11.4c0-.1-.1-.1-.1-.2v-.4c0-.1.1-.1.1-.2l.1-.1h.6a.09794.09794,0,0,1,.1.1l10.3,11.3c0,.1.1.1.1.2v.4c0,.1-.1.1-.1.2l-.1.1h-.1a.34914.34914,0,0,1-.2.1Z"/></g><g id="b7060432-159a-4954-a23c-b255dc328c33" data-name="Line 132"><path class="b928c6c8-8370-4493-8a27-e5e86c7e0748" d="M719.474,344.655l10.3,11.3"/><path class="a07dd4a2-5766-4e52-a92b-37f8569578c4" d="M729.674,356.455h-.3a.09794.09794,0,0,1-.1-.1l-10.2-11.4c0-.1-.1-.1-.1-.2v-.4c0-.1.1-.1.1-.2l.1-.1h.6a.09794.09794,0,0,1,.1.1l10.3,11.3c0,.1.1.1.1.2v.4c0,.1-.1.1-.1.2l-.1.1h-.1c-.1.1-.1.1-.3.1Z"/></g><g id="a2adba38-3993-443e-8ae9-34d21c2160cf" data-name="Line 133"><path class="b928c6c8-8370-4493-8a27-e5e86c7e0748" d="M714.39,350.314l10.2,11.3"/><path class="a07dd4a2-5766-4e52-a92b-37f8569578c4" d="M724.59,362.214h-.3a.09794.09794,0,0,1-.1-.1l-10.2-11.4c0-.1-.1-.1-.1-.2v-.4c0-.1.1-.1.1-.2l.1-.1h.6a.09794.09794,0,0,1,.1.1l10.2,11.3c0,.1.1.1.1.2v.4c0,.1-.1.1-.1.2l-.1.1h-.1c-.1.1-.1.1-.2.1Z"/></g><g id="f5bac24d-14c9-4de1-8479-3abbc5ed2889" data-name="Line 134"><path class="b928c6c8-8370-4493-8a27-e5e86c7e0748" d="M709.34,356.036l10.1,11.3"/><path class="a07dd4a2-5766-4e52-a92b-37f8569578c4" d="M719.44,367.836h-.3a.09794.09794,0,0,1-.1-.1l-10.1-11.4a.09794.09794,0,0,0-.1-.1v-.4c0-.1.1-.1.1-.2l.1-.1h.6a.09794.09794,0,0,1,.1.1l10.1,11.3c0,.1.1.1.1.2v.4c0,.1-.1.1-.1.2l-.1.1h-.3Z"/></g><g id="ae711e06-6ce4-44d4-ae67-d098420f87fc" data-name="Line 135"><path class="b928c6c8-8370-4493-8a27-e5e86c7e0748" d="M704.32,361.615l10.1,11.3"/><path class="a07dd4a2-5766-4e52-a92b-37f8569578c4" d="M714.32,373.515h-.3a.09794.09794,0,0,1-.1-.1l-10-11.4c0-.1-.1-.1-.1-.2v-.4c0-.1.1-.1.1-.2l.1-.1h.6a.09794.09794,0,0,1,.1.1l10.1,11.3c0,.1.1.1.1.2v.4c0,.1-.1.1-.1.2l-.1.1h-.1c-.1.1-.1.1-.3.1Z"/></g><g id="aedf7abb-ec17-4c3f-aa12-5bc437427b2a" data-name="Line 136"><path class="b928c6c8-8370-4493-8a27-e5e86c7e0748" d="M699.335,367.223l10,11.3"/><path class="a07dd4a2-5766-4e52-a92b-37f8569578c4" d="M709.335,379.123h-.3a.09794.09794,0,0,1-.1-.1l-10-11.4c0-.1-.1-.1-.1-.2v-.4c0-.1.1-.1.1-.2l.1-.1h.6l.1.1,10,11.3c0,.1.1.1.1.2v.4c0,.1-.1.1-.1.2l-.1.1h-.1c-.1.1-.1.1-.2.1Z"/></g><g id="b55b0944-3b90-4296-985f-1f5ff4dc856d" data-name="Line 137"><path class="b928c6c8-8370-4493-8a27-e5e86c7e0748" d="M694.278,372.796l10,11.3"/><path class="a07dd4a2-5766-4e52-a92b-37f8569578c4" d="M704.278,384.696h-.3l-.1-.1-9.9-11.4c0-.1-.1-.1-.1-.2v-.4c0-.1.1-.1.1-.2l.1-.1h.6l.1.1,10,11.3c0,.1.1.1.1.2v.4c0,.1-.1.1-.1.2l-.1.1h-.1c-.2.1-.2.1-.3.1Z"/></g><g id="a91d2905-dee5-48b6-aa16-ab8aaf64e2a8" data-name="Line 138"><path class="b928c6c8-8370-4493-8a27-e5e86c7e0748" d="M689.355,378.334l9.9,11.3"/><path class="a07dd4a2-5766-4e52-a92b-37f8569578c4" d="M699.255,390.234h-.3l-.1-.1-9.8-11.4c0-.1-.1-.1-.1-.2v-.4c0-.1.1-.1.1-.2l.1-.1h.6l.1.1,9.9,11.3c0,.1.1.1.1.2v.4c0,.1-.1.1-.1.2l-.1.1h-.1a.36737.36737,0,0,1-.3.1Z"/></g><g id="e58d3f3a-a981-472f-bda2-60f6c1a5a17f" data-name="Line 139"><path class="b928c6c8-8370-4493-8a27-e5e86c7e0748" d="M684.463,383.837l9.8,11.3"/><path class="a07dd4a2-5766-4e52-a92b-37f8569578c4" d="M694.363,395.737h-.3l-.1-.1-9.8-11.4c0-.1-.1-.1-.1-.2v-.4c0-.1.1-.1.1-.2l.1-.1h.6l.1.1,9.8,11.3c0,.1.1.1.1.2v.4c0,.1-.1.1-.1.2l-.1.1h-.1c-.1.1-.1.1-.2.1Z"/></g></g></g><path id="f89ffe3b-4ec8-4e59-b77d-43b827a7ed58" data-name="Path 563" class="eb6415e6-97c1-4e58-9f00-339e10445eb9" d="M717.309,333.919l-28.7,32.5-16.6,18.7a.09794.09794,0,0,1-.1.1v.2a.09794.09794,0,0,0,.1.1l6.5,7.6.1.1h.2a.09794.09794,0,0,0,.1-.1l63.6-71.3.1-.1v-.2a.09794.09794,0,0,0-.1-.1l-7-7.5-.1-.1h-.2a.09794.09794,0,0,0-.1.1Z"/><g class="e4a451f4-1883-4ab9-aed6-03dd79420fb0"><g id="fa268fc8-0c95-4f3f-8ed5-3b8ac4372db5" data-name="Group 593"><g id="b2be4919-5c5b-447d-b267-13d100c2b043" data-name="Line 140"><path class="b928c6c8-8370-4493-8a27-e5e86c7e0748" d="M720.506,311.876l10.3,11.2"/><path class="a07dd4a2-5766-4e52-a92b-37f8569578c4" d="M730.806,323.576h-.3a.09794.09794,0,0,1-.1-.1l-10.3-11.2c0-.1-.1-.1-.1-.2v-.4c0-.1.1-.1.1-.2l.1-.1a.09794.09794,0,0,0,.1-.1h.5a.09794.09794,0,0,1,.1.1l10.4,11.2c0,.1.1.1.1.2v.4c0,.1-.1.1-.1.2l-.1.1a.09794.09794,0,0,0-.1.1Z"/></g><g id="bc968782-c424-4742-bea3-8b8276407152" data-name="Line 141"><path class="b928c6c8-8370-4493-8a27-e5e86c7e0748" d="M715.38,317.69l10.3,11.3"/><path class="a07dd4a2-5766-4e52-a92b-37f8569578c4" d="M725.68,329.49h-.3a.09794.09794,0,0,1-.1-.1l-10.3-11.3c0-.1-.1-.1-.1-.2v-.4c0-.1.1-.1.1-.2l.1-.1a.09794.09794,0,0,0,.1-.1h.5a.09794.09794,0,0,1,.1.1l10.3,11.2c0,.1.1.1.1.2v.4c0,.1-.1.1-.1.2l-.1.1a.09794.09794,0,0,0-.1.1c-.1.1-.1.1-.2.1Z"/></g><g id="fe2b63ed-ea8e-42b9-a750-4521820db8bc" data-name="Line 142"><path class="b928c6c8-8370-4493-8a27-e5e86c7e0748" d="M710.286,323.565l10.2,11.2"/><path class="a07dd4a2-5766-4e52-a92b-37f8569578c4" d="M720.486,335.365h-.3a.09794.09794,0,0,1-.1-.1l-10.2-11.3c0-.1-.1-.1-.1-.2v-.4c0-.1.1-.1.1-.2l.1-.1a.09794.09794,0,0,0,.1-.1h.5a.09794.09794,0,0,1,.1.1l10.2,11.2c0,.1.1.1.1.2v.4c0,.1-.1.1-.1.2l-.1.1h-.1l-.2.2Z"/></g><g id="fe1adde8-dfd4-468b-a774-cc034a1d79e5" data-name="Line 143"><path class="b928c6c8-8370-4493-8a27-e5e86c7e0748" d="M705.224,329.402l10.2,11.2"/><path class="a07dd4a2-5766-4e52-a92b-37f8569578c4" d="M715.324,341.102h-.3a.09794.09794,0,0,1-.1-.1l-10.1-11.3c0-.1-.1-.1-.1-.2v-.4c0-.1.1-.1.1-.2l.1-.1h.6a.09794.09794,0,0,1,.1.1l10.2,11.2c0,.1.1.1.1.2v.4c0,.1-.1.1-.1.2l-.1.1h-.1a.36737.36737,0,0,1-.3.1Z"/></g><g id="b7c8f72c-5a7f-452f-9c4f-ba3dabfc71f8" data-name="Line 144"><path class="b928c6c8-8370-4493-8a27-e5e86c7e0748" d="M700.196,335.101l10.1,11.2"/><path class="a07dd4a2-5766-4e52-a92b-37f8569578c4" d="M710.296,346.901h-.3a.09794.09794,0,0,1-.1-.1l-10.1-11.3c0-.1-.1-.1-.1-.2v-.4c0-.1.1-.1.1-.2l.1-.1h.6a.09794.09794,0,0,1,.1.1l10.1,11.2c0,.1.1.1.1.2v.4c0,.1-.1.1-.1.2l-.1.1h-.1c-.1,0-.1.1-.2.1Z"/></g><g id="a46aa0f9-3da8-4954-ad16-eae4caee933b" data-name="Line 145"><path class="b928c6c8-8370-4493-8a27-e5e86c7e0748" d="M695.199,340.863l10,11.2"/><path class="a07dd4a2-5766-4e52-a92b-37f8569578c4" d="M705.199,352.563h-.3a.09794.09794,0,0,1-.1-.1l-10-11.3c0-.1-.1-.1-.1-.2v-.4c0-.1.1-.1.1-.2l.1-.1h.6l.1.1,10,11.2c0,.1.1.1.1.2v.4c0,.1-.1.1-.1.2l-.1.1h-.1c-.1.1-.1.1-.2.1Z"/></g><g id="b00ed6f5-1969-47df-9786-40d78e8c7863" data-name="Line 146"><path class="b928c6c8-8370-4493-8a27-e5e86c7e0748" d="M690.135,346.487l10,11.2"/><path class="a07dd4a2-5766-4e52-a92b-37f8569578c4" d="M700.135,358.287h-.3a.09794.09794,0,0,1-.1-.1l-9.9-11.3c0-.1-.1-.1-.1-.2v-.4c0-.1.1-.1.1-.2l.1-.1h.6l.1.1,10,11.2c0,.1.1.1.1.2v.4c0,.1-.1.1-.1.2l-.1.1h-.1a.36734.36734,0,0,1-.3.1Z"/></g><g id="be8635f5-7673-4009-9efb-7762616d61ed" data-name="Line 147"><path class="b928c6c8-8370-4493-8a27-e5e86c7e0748" d="M685.2,352.175l9.9,11.2"/><path class="a07dd4a2-5766-4e52-a92b-37f8569578c4" d="M695.1,363.875h-.3l-.1-.1-9.8-11.2c0-.1-.1-.1-.1-.2v-.4c0-.1.1-.1.1-.2l.1-.1h.6l.1.1,9.9,11.2c0,.1.1.1.1.2v.4c0,.1-.1.1-.1.2l-.1.1h-.4Z"/></g><g id="bd3b280d-9fb1-4450-ba29-92fd62981e04" data-name="Line 148"><path class="b928c6c8-8370-4493-8a27-e5e86c7e0748" d="M680.297,357.827l9.9,11.2"/><path class="a07dd4a2-5766-4e52-a92b-37f8569578c4" d="M690.197,369.527h-.3l-.1-.1-9.8-11.3c0-.1-.1-.1-.1-.2v-.4c0-.1.1-.1.1-.2l.1-.1h.6l.1.1,9.8,11.2c0,.1.1.1.1.2v.4c0,.1-.1.1-.1.2l-.1.1h-.1c-.1.1-.1.1-.2.1Z"/></g><g id="a5da7338-d5f0-4e3a-b0e0-6870ab63d66d" data-name="Line 149"><path class="b928c6c8-8370-4493-8a27-e5e86c7e0748" d="M675.426,363.324l9.8,11.3"/><path class="a07dd4a2-5766-4e52-a92b-37f8569578c4" d="M685.226,375.124h-.3l-.1-.1-9.7-11.3c0-.1-.1-.1-.1-.2v-.4c0-.1.1-.1.1-.2l.1-.1h.6l.1.1,9.8,11.2c0,.1.1.1.1.2v.4c0,.1-.1.1-.1.2l-.1.1h-.1a.36734.36734,0,0,1-.3.1Z"/></g><g id="ad6db480-614c-4f04-9b51-19442ef15dad" data-name="Line 150"><path class="b928c6c8-8370-4493-8a27-e5e86c7e0748" d="M670.586,368.865l9.8,11.3"/><path class="a07dd4a2-5766-4e52-a92b-37f8569578c4" d="M680.386,380.665h-.3l-.1-.1-9.7-11.3c0-.1-.1-.1-.1-.2v-.4c0-.1.1-.1.1-.2l.1-.1h.6l.1.1,9.7,11.2c0,.1.1.1.1.2v.4c0,.1-.1.1-.1.2l-.1.1h-.1c-.1.1-.1.1-.2.1Z"/></g><g id="bca18137-7608-430f-9728-f0f3074c762c" data-name="Line 151"><path class="b928c6c8-8370-4493-8a27-e5e86c7e0748" d="M741.986,320.84l-64,71.8"/><path class="b090ae81-c77e-4696-822a-eb2b0caa3b09" d="M678.986,393.74l-1.9-2.2,63.9-71.8,2.1,2.2Z"/></g></g></g><path class="b928c6c8-8370-4493-8a27-e5e86c7e0748" d="M739.116,390.358l-30.9-.6,30.1-33.2h.8"/><path class="a75f483a-05af-45c4-b695-9ae2231fb841" d="M739.116,391.958l-30.9-.6a.60123.60123,0,0,1-.4-.1.75812.75812,0,0,1-.4-.2l-.3-.3a.75812.75812,0,0,1-.2-.4c0-.1-.1-.3-.1-.4v-.5c0-.1.1-.3.1-.4.1-.1.1-.3.2-.4l30.2-33.2.2-.2a.30971.30971,0,0,1,.2-.1c.1,0,.2-.1.3-.1h1.1v2.4l.3.3-.3.2v.2h-.2l-27.3,30.1,27.5.5Z"/><path id="a9f81ecb-3768-4c6e-9167-268e5751dc8e" data-name="Path 542" class="e947c01d-a88a-4ba9-b5f8-2b222864264f" d="M249.778,643.732l-9.7-.2v69l21.6,8.2,6.9-35.8Z"/><g class="ae4dedfe-e6c0-422b-a5aa-ce8e68f3d79e"><g id="ba962de4-4634-4e5a-985f-c9b105850426" data-name="Group 576"><path id="b295f006-9227-4115-a8ca-435a9515075d" data-name="Path 543" class="bc543aea-e1ed-475b-8ca3-54d9a4854433" d="M241.578,654.632a52.9647,52.9647,0,0,1,3.8,4.3,76.00238,76.00238,0,0,1,7.8,12.4,72.37324,72.37324,0,0,1,6.5,19.7,78.59193,78.59193,0,0,1,.1,26.5c-1.6,10-2.4,15-2.7,16.9s-.1.6.3-1.9,1-6.2,1.5-9.3l.9-5.6,6.2-.1-1-100.4-24.9,8.4,1.5,29.3"/></g></g><path id="ab0b529c-aaf3-485f-8f5f-866dbd3dcd1f" data-name="Path 545" class="ad10c06d-5f62-43d3-8a13-f4e43bb8e58c" d="M246.176,672.54c-.2,0-.5.1-.7.1h-.6c-.2,0-.5.1-.7.1a1.854,1.854,0,0,0-.7.2,5.09927,5.09927,0,0,0-2.6,1.4,4.95321,4.95321,0,0,0-1.3,2.6,9.82019,9.82019,0,0,0-.3,3.4,27.608,27.608,0,0,0,.6,4,23.76074,23.76074,0,0,0,1.1,3.8,11.81483,11.81483,0,0,0,1.6,2.9,6.20061,6.20061,0,0,0,2.2,1.7,5.14514,5.14514,0,0,0,3,.2c.5-.1.9-.2,1.3-.3a6.9434,6.9434,0,0,0,1.3-.5,8.2649,8.2649,0,0,0,1.3-.7c.4-.3.9-.5,1.4-.8.8-.5,1.3-2,1.5-3.8a20.428,20.428,0,0,0-.5-6.5,12.88786,12.88786,0,0,0-2.7-5.8A5.43526,5.43526,0,0,0,246.176,672.54Z"/><g class="bb103c0b-bbe4-407a-8dee-1cf59eee5c53"><g id="a60142d5-f216-4807-a584-eda2a69473fc" data-name="Group 578"><path id="af559cb7-8f08-4cef-81ce-2e5ad10ae91e" data-name="Path 546" class="a66cedb6-370c-468f-86cc-51e934996c39" d="M255.376,680.54a19.67723,19.67723,0,0,1,.5,3.5,10.8836,10.8836,0,0,1-.3,3.1,9.88972,9.88972,0,0,1-.9,2.4,2.76041,2.76041,0,0,1-1.6,1.2,1.7884,1.7884,0,0,1-1.7-.4,6.69026,6.69026,0,0,1-1.4-1.9,24.88571,24.88571,0,0,1-1.1-2.9c-.3-1.1-.6-2.3-.8-3.4a22.14112,22.14112,0,0,1-.6-3.4,9.51793,9.51793,0,0,1-.1-2.9,5.67812,5.67812,0,0,1,.7-2.2,2.23267,2.23267,0,0,1,3.2-.8,4.36333,4.36333,0,0,1,1.6,1.7,11.4816,11.4816,0,0,1,1.4,2.7A21.28917,21.28917,0,0,1,255.376,680.54Z"/><path id="bd32ccff-0917-4a1b-baf2-ae07ff18871b" data-name="Ellipse 21" class="fbaf9015-e7fa-420c-91e6-8e576b84e640" d="M249.776,675.14a.7231.7231,0,0,1,.6.4,5.38769,5.38769,0,0,1,.7,1.3,15.87243,15.87243,0,0,1,.7,2,18.243,18.243,0,0,1,.7,2.5c.2.9.3,1.8.5,2.6a14.97886,14.97886,0,0,1,.2,2.2,7.56868,7.56868,0,0,1-.1,1.5c-.1.4-.2.6-.4.6a.7231.7231,0,0,1-.6-.4,5.38769,5.38769,0,0,1-.7-1.3,15.87243,15.87243,0,0,1-.7-2c-.2-.8-.5-1.6-.7-2.5s-.4-1.8-.5-2.6a14.97886,14.97886,0,0,1-.2-2.2,7.56868,7.56868,0,0,1,.1-1.5C249.476,675.44,249.576,675.14,249.776,675.14Z"/></g></g><path id="bfd9fb54-92f1-4847-b958-6603b8848fa1" data-name="Path 548" class="ad10c06d-5f62-43d3-8a13-f4e43bb8e58c" d="M215.157,728.473c-1.7-2.1-3-3.8-4.1-5.3a39.91884,39.91884,0,0,1-2.7-4.4,22.05324,22.05324,0,0,1-1.8-5.1c-.5-2-.9-4.4-1.4-7.4a10.73049,10.73049,0,0,0-1.3-3.8,9.52039,9.52039,0,0,0-2.5-2.8,8.44659,8.44659,0,0,0-3.3-1.6,8.0975,8.0975,0,0,0-3.8-.2,10.43437,10.43437,0,0,0-2.5.8,8.008,8.008,0,0,0-2.1,1.5,16.31944,16.31944,0,0,0-1.7,2,8.98906,8.98906,0,0,0-1.2,2.4l-7.4,1.6c-.2.1-.5.2-.7.3a2.65132,2.65132,0,0,0-.5.6,1.61176,1.61176,0,0,0-.4.7,1.94945,1.94945,0,0,0-.1.8c0,.7.1,1.5.1,2.4a15.505,15.505,0,0,0,.4,2.9c.2,1,.4,2,.7,3a15.32624,15.32624,0,0,0,1.1,2.7,3.04351,3.04351,0,0,0,.8.8,1.6895,1.6895,0,0,0,.5.2,1.26834,1.26834,0,0,0,.6.1,6.15092,6.15092,0,0,0,1.3-.1c.5-.1,1-.1,1.6-.2s1.2-.1,1.8-.2a12.85967,12.85967,0,0,0,1.9-.4c.6,2.2,1.3,4.3,2.1,6.4a52.7848,52.7848,0,0,0,2.7,5.3,55.03074,55.03074,0,0,0,3.4,5c1.3,1.7,2.6,3.4,4.2,5.3a10.60673,10.60673,0,0,0,1.5,1.5,7.84453,7.84453,0,0,0,1.8,1.1,8.70173,8.70173,0,0,0,5.5.6,9.82855,9.82855,0,0,0,1.6-.5,10.92963,10.92963,0,0,0,1.5-.8,7.55127,7.55127,0,0,0,1.4-1.1,10.44928,10.44928,0,0,0,2.3-3.2,11.9557,11.9557,0,0,0,1-3.7,9.67968,9.67968,0,0,0-.4-3.8A14.13488,14.13488,0,0,0,215.157,728.473Z"/><g class="b62cac3f-f5d1-490a-b757-6e19d19e682a"><g id="b5d421c9-aa6f-417f-b405-83b2682e4c1f" data-name="Group 581"><g id="ae880cc7-39ee-4c68-98ed-9b84746fb5c3" data-name="Group 580"><path id="ebd10695-4e26-411f-8bba-f816211f42c8" data-name="Path 549" class="b393dee5-da8d-4251-9852-7a832fb64830" d="M218.731,734.017a2.3535,2.3535,0,0,0,.2-.8,2.3535,2.3535,0,0,1,.2-.8c.1-.3.1-.6.2-.9s.1-.6.2-.9Z"/><path id="be9d5ee3-3d35-4e60-81a2-ff52872cd976" data-name="Path 550" class="b393dee5-da8d-4251-9852-7a832fb64830" d="M206.131,744.217a27.16546,27.16546,0,0,1-6.8-5.8,42.7381,42.7381,0,0,1-4.9-7.1,57.86586,57.86586,0,0,1-3.1-6.7,43.9999,43.9999,0,0,1-1.6-4.8v-.4l1.8-.4a5.06656,5.06656,0,0,1,1.3-.2c.5,0,.9-.1,1.3-.1s.9-.1,1.3-.1a5.702,5.702,0,0,1,1.3.1,20.47626,20.47626,0,0,1,4.2.7,17.35476,17.35476,0,0,1,3.8,1.4,18.59754,18.59754,0,0,1,3.5,2.2,23.44941,23.44941,0,0,1,3.2,3.1l6.7,7.7,1.4-28.8-45,1.1,3.7,14.3-1.1.2v25.1l38.5,1.2,3.1-12.9a16.38138,16.38138,0,0,1-3.4,6.2,11.43439,11.43439,0,0,1-4.1,3.1,10.79512,10.79512,0,0,1-3.5,1A2.91706,2.91706,0,0,1,206.131,744.217Z"/></g></g></g><g id="a9451580-af83-4733-97a6-9d8d7976149b" data-name="Group 586"><path id="b68d078c-0616-428d-892c-7d34daa6ef71" data-name="Path 552" class="ad10c06d-5f62-43d3-8a13-f4e43bb8e58c" d="M254.025,714.094a26.99387,26.99387,0,0,1-3-5.2,60.729,60.729,0,0,1-2.9-7q-1.35-3.9-2.7-8.4a84.71366,84.71366,0,0,1-2.2-9.6c-.6-3.4-1.2-6.6-1.6-9.8s-.6-6.1-.7-8.9a65.66535,65.66535,0,0,1,.1-7.7,43.83564,43.83564,0,0,1,.8-6.2l-1.7-8.7s-.6,1.2-1.7,3.2a57.05644,57.05644,0,0,1-5.1,7.7,69.54237,69.54237,0,0,1-8.5,9.5,53.03859,53.03859,0,0,1-12.1,8.3c-1.1.6-2.3,1.1-3.4,1.6s-2.3,1.1-3.5,1.6-2.3,1-3.5,1.6c-1.2.5-2.3,1-3.5,1.5-1.8.8-3.7,1.5-5.5,2.3-1.9.7-3.7,1.4-5.6,2.1s-3.8,1.3-5.7,2c-1.9.6-3.8,1.2-5.8,1.8a6.46821,6.46821,0,0,0-1.3.4c-.4.2-.9.2-1.3.4s-.9.1-1.3.3-.9.3-1.3.5a.99837.99837,0,0,0-.4.5,3.55208,3.55208,0,0,0-.4.9l-.3.9c-.1.3-.2.3-.2.3a21.09858,21.09858,0,0,0-2.3,1.9,13.113,13.113,0,0,0-3.2,5.2,8.02838,8.02838,0,0,0-.4,3.1,16.26368,16.26368,0,0,0,.9,4.1,9.90783,9.90783,0,0,0,1.1,1.7,19.19778,19.19778,0,0,0,1.4,1.5,6.10033,6.10033,0,0,0,1.6,1.2,6.69993,6.69993,0,0,0,1.8.7c.6.2,1.2.3,1.9.5a14.16035,14.16035,0,0,0,2,.4l.3.1c.1.1.1.2.2.3s.1.2.2.3.1.2.2.3l.3.3h0c.2,0,2.3-.3,5.4-.8s7.5-1,12.2-1.6c4.7-.5,9.7-1,14.5-1.2a75.75977,75.75977,0,0,1,12.6.2,66.0422,66.0422,0,0,1,13.8,3.3,91.432,91.432,0,0,1,11.2,4.7,70.31,70.31,0,0,1,7.5,4.3l2.7,1.8Z"/><g class="b4b3092e-9929-49b7-9b7a-3087035a44d6"><g id="b867fa51-f42c-4449-89ad-d80d5fd823e2" data-name="Group 585"><path id="ad489e5b-719c-462a-88d4-8e0a263fac0d" data-name="Path 553" class="b393dee5-da8d-4251-9852-7a832fb64830" d="M175.825,710.594a60.07718,60.07718,0,0,1,7-2.8,86.70787,86.70787,0,0,1,18.3-4.1,82.7052,82.7052,0,0,1,25.3.9,77.4871,77.4871,0,0,1,28.3,11.8l3,10.7-83.6-10.1Z"/><path id="a3625ccf-1bbe-45f5-9a42-31dbf1f9c2ff" data-name="Rectangle 91" class="f79e60c9-f415-451b-98a2-3ee0c5a91175" d="M160.425,688.994h15.4v21.6l-15.4.1Z"/><g id="ba1320c8-7ede-488c-a5af-cd949c8d36e4" data-name="Group 584"><path id="a4891624-6586-4f14-bdb2-a6f0acd95908" data-name="Path 554" class="fbaf9015-e7fa-420c-91e6-8e576b84e640" d="M203.286,674.611a22.75448,22.75448,0,0,0-.2,2.6,57.72286,57.72286,0,0,0,.2,7.2,68.61693,68.61693,0,0,0,2.1,10.8,69.6123,69.6123,0,0,0,5.3,13.3l-34.6,3.5c-.5-.6-1-1.3-1.5-1.9a28.55327,28.55327,0,0,1-3-5.4,29.11788,29.11788,0,0,1-2.1-8.2,27.42756,27.42756,0,0,1,1-10.3Z"/><g class="a34d987c-d971-49e5-9cdc-0ec39b670131"><g id="ece5ed5f-525f-458d-be36-e40460edf55b" data-name="Group 583"><path id="b45ad333-d999-48cd-99f5-c74b343efdaa" data-name="Path 555" class="f79e60c9-f415-451b-98a2-3ee0c5a91175" d="M175.786,710.611a60.07718,60.07718,0,0,1,7-2.8,86.70787,86.70787,0,0,1,18.3-4.1,82.70522,82.70522,0,0,1,25.3.9,77.48729,77.48729,0,0,1,28.3,11.8l3,10.7-83.6-10.1.6-5.7Z"/></g></g></g><path id="ac4baa8b-87e5-4bee-accd-35e2adaefdc2" data-name="Ellipse 22" class="fbaf9015-e7fa-420c-91e6-8e576b84e640" d="M165.725,695.794a1.61176,1.61176,0,0,1,.4-.7,2.18112,2.18112,0,0,1,.4-.5c.1-.1.3-.2.4-.3a.30417.30417,0,0,1,.4,0l.3.3a1.0873,1.0873,0,0,1,.1.5,1.70178,1.70178,0,0,1-.1.7c-.1.3-.1.5-.2.8a1.61176,1.61176,0,0,1-.4.7,2.18134,2.18134,0,0,1-.4.5c-.1.1-.3.2-.4.3a.30419.30419,0,0,1-.4,0l-.3-.3a1.0873,1.0873,0,0,1-.1-.5,1.70178,1.70178,0,0,1,.1-.7A1.34465,1.34465,0,0,1,165.725,695.794Z"/></g></g></g><g id="e41ba1ed-ca5c-40df-847b-12fe1460936c" data-name="Group 588"><path id="b248e52a-beb8-4f67-a884-97634c776b51" data-name="Path 558" class="fbaf9015-e7fa-420c-91e6-8e576b84e640" d="M259.413,723.766a9.60139,9.60139,0,0,1-6.7-3.2,32.74564,32.74564,0,0,1-6.1-8.6,78.83443,78.83443,0,0,1-5.1-12.4,101.71389,101.71389,0,0,1-3.8-14.4c-.5-2.7-1-5.4-1.3-8s-.6-5.2-.8-7.8-.2-5-.2-7.3.2-4.5.4-6.6a49.78605,49.78605,0,0,1,1.5-7.5,17.37885,17.37885,0,0,1,2.2-4.8,10.30309,10.30309,0,0,1,2.5-2.6,7.956,7.956,0,0,1,2.5-1.1c2.5-.5,4.9.4,7.2,2.3a27.541,27.541,0,0,1,6.5,8.6,75.51711,75.51711,0,0,1,5.4,12.8,128.61166,128.61166,0,0,1,3.9,15.1h0a115.28371,115.28371,0,0,1,2,15.5,81.84162,81.84162,0,0,1-.2,14,32.62671,32.62671,0,0,1-2.8,10.6c-1.4,2.7-3.3,4.6-5.7,5.2-.1,0-.3.1-.4.1a.60123.60123,0,0,0-.4.1c-.1.1-.3,0-.4,0Zm-13.3-78.3h-.4a4.18405,4.18405,0,0,0-1.2.8,7.607,7.607,0,0,0-1.2,1.9,21.28917,21.28917,0,0,0-1.1,3.3,38.52176,38.52176,0,0,0-.8,4.9c-.2,1.9-.3,3.9-.4,6.1a50.4946,50.4946,0,0,0,.2,6.7c.2,2.3.4,4.8.7,7.2s.7,5,1.2,7.5a122.26156,122.26156,0,0,0,3.9,14.7,72.98274,72.98274,0,0,0,4.6,10.8,26.35667,26.35667,0,0,0,4.5,6.4c1.4,1.4,2.6,2,3.6,1.7s1.9-1.4,2.6-3.3a30.99,30.99,0,0,0,1.7-7.9,77.50139,77.50139,0,0,0,.2-11.8,127.14242,127.14242,0,0,0-1.9-15.1,98.75623,98.75623,0,0,0-3.7-14.2,82.95587,82.95587,0,0,0-4.4-10.7,33.71294,33.71294,0,0,0-4.4-6.7C248.413,646.266,247.213,645.466,246.113,645.466Z"/><g class="bc216385-2d2b-4976-bfde-7e3b3782685f"><g id="f48dc963-df03-481f-9331-d70178c59bcc" data-name="Group 587"><path id="b452528a-c489-4bdb-92b6-4976b9bdccf5" data-name="Path 559" class="b8cebd81-625a-4005-a7c9-abf490ab39ff" d="M242.513,641.066a9.36276,9.36276,0,0,1,1.6-.4,8.602,8.602,0,0,1,1.6-.1,4.52922,4.52922,0,0,1,1.6.3,10.09221,10.09221,0,0,1,1.5.7,14.78981,14.78981,0,0,1,3.1,2.5,25.11987,25.11987,0,0,1,2.5,3.2,25.99017,25.99017,0,0,1,2.1,3.6c.6,1.2,1.3,2.5,1.8,3.7.7,1.4,1.4,2.9,2,4.4l1.8,4.5c.5,1.5,1.1,3,1.5,4.6.5,1.5.9,3.1,1.3,4.6.3,1.3.7,2.7,1,4,.3,1.4.6,2.7.8,4.1s.5,2.7.6,4.1.4,2.8.5,4.1c.1.9.2,1.9.3,2.8s.1,1.9.2,2.8a26.20206,26.20206,0,0,1,.1,2.8c0,.9.1,1.9.1,2.8q0,3.15-.3,6.3a59.68763,59.68763,0,0,1-.9,6.1,34.36985,34.36985,0,0,1-1.5,5.5,24.818,24.818,0,0,1-2,4.4h3.1c1.9,0,4.4-.1,6.8-.1s5-.1,6.8-.1,3.1-.1,3.1-.1c0-4.1,0-11.9-.1-21.2s-.1-20.2-.1-30.6.1-20.3.1-27.5v-12l-48-1.5v12.5h4.5a1.95227,1.95227,0,0,0,.7-.1c.2-.1.4-.1.6-.2l.6-.3A1.42131,1.42131,0,0,0,242.513,641.066Z"/></g></g></g><path id="e9e516c6-8fb4-478b-a6ca-71850b867552" data-name="שימו לב" class="a4619565-e7d3-4833-959d-825f53add328" d="M225.848,791.87706a.36738.36738,0,0,1-.3-.1l-7.9-5.7c-.2-.2-.4-.3-.5-.5a.61376.61376,0,0,1-.1-.6v-.7a.74933.74933,0,0,1,.1-.5c.1-.1.3-.3.5-.5l7.9-5.6a.49385.49385,0,0,1,.3-.1.36737.36737,0,0,1,.3.1c.1.1.1.19995.1.4v2.6a.7639.7639,0,0,1-.2.5l-.4.4-4.6,3.1,4.6,3.19995c.2.2.4.30005.5.4a.76385.76385,0,0,1,.2.5v2.6a.36756.36756,0,0,1-.1.30005C226.048,791.777,225.948,791.87706,225.848,791.87706Zm8.7,1.1a7.28074,7.28074,0,0,1-3.5-.69995,6.03828,6.03828,0,0,1-2.1-1.7,4.38187,4.38187,0,0,1-.7-2,.35354.35354,0,0,1,.4-.4h2.9c.2,0,.3,0,.4.1s.2.19995.3.3c.3.7,1,1.1,2.2,1.1a2.5442,2.5442,0,0,0,1.6-.5,1.67823,1.67823,0,0,0,.6-1.4c0-1.1-.7-1.7-2.1-1.7h-2.4a.51954.51954,0,0,1-.4-.2.75812.75812,0,0,1-.2-.4v-1.30005a.90961.90961,0,0,1,.4-.8l3.4-3-5.9-.1a.75815.75815,0,0,1-.4-.2.51939.51939,0,0,1-.2-.4v-2.19995c0-.2.1-.30005.1-.4a.51963.51963,0,0,1,.4-.2l9.9.1a.51952.51952,0,0,1,.4.19995.60125.60125,0,0,1,.1.4v2a.77844.77844,0,0,1-.3.7l-3.1,3h.1a5.2727,5.2727,0,0,1,3,1.4,4.93161,4.93161,0,0,1,.3,5.79993,4.69467,4.69467,0,0,1-2.2,1.7,4.64092,4.64092,0,0,1-3,.8Zm12.9-.20008a.75816.75816,0,0,1-.4-.2.51939.51939,0,0,1-.2-.4v-1.9a.707.707,0,0,1,.6-.6h5.2v-4.1a2.26933,2.26933,0,0,0-2.4-2.6h-2.7a.51955.51955,0,0,1-.4-.19995.60126.60126,0,0,1-.1-.4v-1.9a.707.707,0,0,1,.6-.6h2.8a6.44506,6.44506,0,0,1,4.4,1.4,5.47082,5.47082,0,0,1,1.5,4.3v4.1h.7a.51955.51955,0,0,1,.4.2c.1.1.1.19995.1.4v1.9a.60122.60122,0,0,1-.1.4.51958.51958,0,0,1-.4.2Zm15.3-12.7a4.62122,4.62122,0,0,1,3.8,1.4,6.77738,6.77738,0,0,1,1.2,4.2,6.88214,6.88214,0,0,1-1.5,4.6,8.00233,8.00233,0,0,1-3.9,2.5l-.8.3a.39926.39926,0,0,1-.4-.19995c-.1-.2-.2-.30005-.2-.4v-2.3a.60126.60126,0,0,1,.1-.4,1.38316,1.38316,0,0,1,.4-.30005l.7-.3a4.428,4.428,0,0,0,1.5-1.2,3.75,3.75,0,0,0,.5-2.3,3.43953,3.43953,0,0,0-.5-2,2.05912,2.05912,0,0,0-1.7-.6h-3.4a.51955.51955,0,0,1-.4-.2c-.1-.1-.1-.19995-.1-.4V777.277a.707.707,0,0,1,.6-.6h2.2a.51952.51952,0,0,1,.4.19995c.1.1.1.2.1.4v2.5Zm11.9,12.80005a.75816.75816,0,0,1-.4-.2.51944.51944,0,0,1-.2-.4v-11.5a.707.707,0,0,1,.6-.6h2.5a.75824.75824,0,0,1,.4.2c.1.1.1.19995.1.4v11.5a.60125.60125,0,0,1-.1.4.51959.51959,0,0,1-.4.2Zm12.1-12.5a4.44046,4.44046,0,0,1,3.4,1.4,5.80779,5.80779,0,0,1,1.3,4v6.6a.60131.60131,0,0,1-.1.4.51964.51964,0,0,1-.4.19995h-5.5a.75824.75824,0,0,1-.4-.19995.51943.51943,0,0,1-.2-.4v-1.9a.707.707,0,0,1,.6-.6h2.6v-4a2.96947,2.96947,0,0,0-.5-1.80005,1.61235,1.61235,0,0,0-1.3-.6h-1.6l-1.7,8.9a.707.707,0,0,1-.6.6h-2.3a.75817.75817,0,0,1-.4-.19995c-.1-.1-.1-.2-.1-.4l2-8.9h-1.3a.7582.7582,0,0,1-.4-.19995c-.1-.1-.1-.2-.1-.4v-2a.707.707,0,0,1,.6-.6Zm7.4,7.3999a.75816.75816,0,0,1-.4-.2c-.1-.1-.1-.19995-.1-.4v-6.2c0-.19995,0-.3.1-.4a.51963.51963,0,0,1,.4-.19995h2.5a.75824.75824,0,0,1,.4.19995c.1.1.1.2.1.4v6.2a.60124.60124,0,0,1-.1.4.51959.51959,0,0,1-.4.2Zm17.6-7.2a.75823.75823,0,0,1,.4.2c.1.1.1.19995.1.4v5.69995a6.71052,6.71052,0,0,1-.8,3.30005,4.97571,4.97571,0,0,1-2.1,2.19995,6.109,6.109,0,0,1-3,.80005h-1.9a5.07278,5.07278,0,0,1-2.8-.7,5.16166,5.16166,0,0,1-1.8-1.8,5.53632,5.53632,0,0,1-.6-2.6v-7c0-.19995,0-.3.1-.4s.2-.2.4-.1h2.1a.7582.7582,0,0,1,.4.2c.1.1.1.19995.1.4v5.19995a1.9557,1.9557,0,0,0,1.5-.9,4.74416,4.74416,0,0,0,.4-2.3v-2c0-.2,0-.30005.1-.4a.5196.5196,0,0,1,.4-.19995h2c.1,0,.2.1.3.19995a.60143.60143,0,0,1,.1.4v2a5.68908,5.68908,0,0,1-1.2,3.9,4.83842,4.83842,0,0,1-3.3,1.69995,2.65991,2.65991,0,0,0,1,1.1,3.2558,3.2558,0,0,0,1.4.4h.5a3.424,3.424,0,0,0,1.8-.4,2.54047,2.54047,0,0,0,1.2-1.3,3.45342,3.45342,0,0,0,.5-1.80005v-5.6c0-.19995,0-.3.1-.4s.2-.19995.4-.1Z"/></svg>