<svg xmlns="http://www.w3.org/2000/svg" width="181.357" height="124.786" viewBox="0 0 181.357 124.786">
  <defs>
    <style>
      .cls-1 {
        fill: #fff;
      }

      .cls-2 {
        fill: #1c3f55;
      }
    </style>
  </defs>
  <g id="Group_415" data-name="Group 415" transform="translate(-447.167 -124.527)">
    <g id="Group_33" data-name="Group 33" transform="translate(-9.095 46.473)">
      <rect id="Rectangle_7" data-name="Rectangle 7" class="cls-1" width="181.357" height="124.787" rx="25" transform="translate(456.262 78.055)"/>
      <g id="Group_416" data-name="Group 416" transform="translate(-2326.773 83.24)">
        <path id="Path_6" data-name="Path 6" class="cls-2" d="M2812,66.249c.278-1.363.51-2.738.842-4.088a20.322,20.322,0,0,1,4.366-8.407,26.88,26.88,0,0,1,12.487-8.239.9.9,0,0,1,1.084.274c2.5,2.6,4.978,5.221,7.535,7.764a52.666,52.666,0,0,0,9.291,7.694,44.886,44.886,0,0,0,9.51,4.523c.1-.435.206-.84.29-1.251a13.828,13.828,0,0,1,22.414-7.983,14.772,14.772,0,0,1,5.221,8.812,2.219,2.219,0,0,0,.084.217,47.823,47.823,0,0,0,8.485-4.032,38.115,38.115,0,0,0,7.869-6.35c3.559-3.635,7.156-7.236,10.708-10.884,3.175-3.264,6.313-6.567,9.457-9.861q3.877-4.063,7.731-8.147c.139-.148.262-.312.47-.557l-1.933-.645c2.2-.707,4.255-1.368,6.308-2.02.5-.159,1.012-.289,1.518-.433a2,2,0,0,1-.018.347q-.656,3.049-1.323,6.1c-.1.466-.215.928-.358,1.549l-.749-1.737-16.912,18.158c.2.1.422.214.643.331a26.913,26.913,0,0,1,7.731,6.052,21.653,21.653,0,0,1,5.314,12.064,23.942,23.942,0,0,1-.818,9.685,22.591,22.591,0,0,1-8.531,11.949,23.974,23.974,0,0,1-11.426,4.541c-.63.075-1.257.179-1.887.27h-2.36c-.2-.044-.393-.1-.594-.133-1.178-.179-2.373-.272-3.53-.537a24.213,24.213,0,0,1-13.395-8.038,21.782,21.782,0,0,1-4.834-9.833c-.156-.753-.291-1.511-.439-2.274a45.051,45.051,0,0,1-22.29.128c-.029.331-.042.6-.078.868a8.106,8.106,0,0,1-.137.811,23.3,23.3,0,0,1-9.106,14.166,24.017,24.017,0,0,1-11.417,4.572c-.605.075-1.209.179-1.812.27h-2.5a4.4,4.4,0,0,0-.521-.13c-1.136-.155-2.3-.2-3.4-.466A24.062,24.062,0,0,1,2814.6,78.978a17.116,17.116,0,0,1-2.2-7.1c-.057-.955-.261-1.9-.4-2.848Zm20.215-13.005c-1.14-1.2-2.192-2.333-3.276-3.427-.111-.11-.464-.077-.652.007a21.869,21.869,0,0,0-9.335,7.415,18.938,18.938,0,0,0-3.08,14.669,18.738,18.738,0,0,0,7.557,12.164,20.923,20.923,0,0,0,29.5-4.183,19.805,19.805,0,0,0,3.617-9.243.526.526,0,0,0-.186-.449c-1.4-.546-2.808-1.061-4.264-1.6-.082.74-.133,1.445-.241,2.141a14.9,14.9,0,0,1-5.6,9.645,15.674,15.674,0,0,1-13.646,3.2,15.368,15.368,0,0,1-9.408-6.05,15.066,15.066,0,0,1-2.866-11.437,14.694,14.694,0,0,1,3.425-7.612A15.773,15.773,0,0,1,2832.217,53.243ZM2885.6,70.177c.364,1.54.63,3.149,1.133,4.675a18.554,18.554,0,0,0,5.879,8.5A20.976,20.976,0,0,0,2904.4,88.3a20.185,20.185,0,0,0,10.639-1.9,19.627,19.627,0,0,0,11.56-20.368,17.987,17.987,0,0,0-1.6-5.864,21.53,21.53,0,0,0-10.025-9.879c-1.273-.661-1.28-.643-2.313.384-.813.8-1.631,1.6-2.514,2.468.309.1.479.155.654.2a15.328,15.328,0,0,1,6.445,3.544,15.082,15.082,0,0,1,5.029,13.176,14.614,14.614,0,0,1-4.417,9.185,15.57,15.57,0,0,1-14.941,4.311,15.159,15.159,0,0,1-11.62-10.345,38.077,38.077,0,0,1-1.034-4.936Zm-14.719-2.07c.921-.06,1.849-.064,2.76-.192q3.6-.5,7.188-1.094c.82-.135.9-.314.707-1.1a11.205,11.205,0,0,0-4.143-6.633,10.112,10.112,0,0,0-8.281-2.039c-4.8,1.005-7.758,4.3-8.493,9.183a.543.543,0,0,0,.5.716A48.877,48.877,0,0,0,2870.88,68.107Z" transform="translate(-0.002 2.636)"/>
        <path id="Path_7" data-name="Path 7" class="cls-2" d="M2823.563,40.238l-3.049-3.056c21.159-21.5,57.871-23.063,80.839-.086l-3.036,3.038c-10.332-9.932-22.768-15.248-37.3-15.253S2834.054,30.173,2823.563,40.238Z" transform="translate(10.294 0)"/>
        <path id="Path_8" data-name="Path 8" class="cls-2" d="M2827.042,42.012l-3.071-3.074a46.637,46.637,0,0,1,65.668-.049l-3.106,3.067a42.345,42.345,0,0,0-59.49.055Z" transform="translate(14.476 5.979)"/>
        <path id="Path_9" data-name="Path 9" class="cls-2" d="M2830.814,44.015l-3.077-3.067c12.76-13.213,35.335-13.942,49.059-.022l-3.082,3.085A30.391,30.391,0,0,0,2830.814,44.015Z" transform="translate(19.031 12.465)"/>
        <path id="Path_10" data-name="Path 10" class="cls-2" d="M2842.467,60.254l-6.492-11.24a45.094,45.094,0,0,0,13.1-.21Z" transform="translate(28.998 34.29)"/>
      </g>
    </g>
  </g>
</svg>
