<svg id="b383bdef-2d7c-45c0-afde-a221f907d46d" data-name="Layer 1" xmlns="http://www.w3.org/2000/svg" viewBox="0 0 182.95826 183.90002"><defs><style>.f7715501-f80f-4fee-b232-51ef79959617{fill:none;stroke:#fff;stroke-linecap:round;stroke-linejoin:round;stroke-width:5px;}.b7167101-390b-4b55-8094-df00185ff42d{fill:#f6f6f6;}</style></defs><title>scrolling_icon</title><g id="a910b7d2-d7d2-4304-a06a-af3be1f57ba3" data-name="גלילה"><g id="afeaa980-a0ca-467b-918d-f3073912cc15" data-name="Group 31"><g id="fc5a60f1-00cc-42c7-89cc-fb39c35a3e5f" data-name="Group 30"><g id="a6422f4a-5d62-4e91-87db-d05ea7dd2829" data-name="Group 29"><line id="baf513ce-22be-4dfa-a25d-5b6d4bc69648" data-name="Line 74" class="f7715501-f80f-4fee-b232-51ef79959617" x1="90.59628" y1="91.84091" x2="90.59628" y2="99.28978"/><path id="a757e640-48cc-4333-8834-ba8b21ad4820" data-name="Path 74" class="f7715501-f80f-4fee-b232-51ef79959617" d="M78.741,106.73865V70.12379a5.95577,5.95577,0,0,1,5.98008-5.87517,6.23827,6.23827,0,0,1,4.19654,1.67862,5.64739,5.64739,0,0,1,1.78353,4.09163V84.91661"/><line id="e820408f-da63-4ec7-8d3e-09be99fd4e1c" data-name="Line 75" class="f7715501-f80f-4fee-b232-51ef79959617" x1="114.41168" y1="95.93254" x2="114.41168" y2="103.48633"/><path id="b691c85a-3c05-4cc0-95a3-83ec313166d0" data-name="Path 75" class="f7715501-f80f-4fee-b232-51ef79959617" d="M78.741,106.73865l-9.12749-9.12748a5.95224,5.95224,0,0,0-8.39309,0,5.79375,5.79375,0,0,0-.10492,8.18326l.10492.10491,15.00265,14.68792,8.498,7.65869h41.5458V94.88341a5.95577,5.95577,0,0,0-5.98008-5.87517h0a6.23832,6.23832,0,0,0-4.19654,1.67862,5.6474,5.6474,0,0,0-1.78354,4.09163"/><path id="e3606510-6f64-4776-9080-f9912b450898" data-name="Path 76" class="f7715501-f80f-4fee-b232-51ef79959617" d="M102.45152,90.16229V84.91661a5.95577,5.95577,0,0,0-5.98008-5.87516,6.23827,6.23827,0,0,0-4.19654,1.67862,5.64738,5.64738,0,0,0-1.78353,4.09163V91.736"/><path id="b6a62250-b1c5-448a-a271-0cc0df1ee8ee" data-name="Path 77" class="f7715501-f80f-4fee-b232-51ef79959617" d="M102.45152,102.01754V90.16229a5.95577,5.95577,0,0,1,5.98008-5.87516h0a6.23828,6.23828,0,0,1,4.19655,1.67862,5.64739,5.64739,0,0,1,1.78353,4.09163v5.77025"/></g></g></g><line class="f7715501-f80f-4fee-b232-51ef79959617" x1="62.98615" y1="54.56509" x2="70.85468" y2="60.23043"/><line class="f7715501-f80f-4fee-b232-51ef79959617" x1="74.73648" y1="43.65407" x2="77.56915" y2="52.15208"/><line class="f7715501-f80f-4fee-b232-51ef79959617" x1="56.69133" y1="68.72843" x2="65.609" y2="68.72843"/></g><g id="a473603b-787a-402c-ab75-da22f2822ca9" data-name="Ellipse 23"><path class="b7167101-390b-4b55-8094-df00185ff42d" d="M95.9,183.9a4.50217,4.50217,0,0,1-.2-9,81.212,81.212,0,0,0,19.6-3.3,4.526,4.526,0,0,1,2.5,8.7,87.93889,87.93889,0,0,1-21.7,3.6Zm-28.7-3.4a6.88366,6.88366,0,0,1-1.3-.2,90.61971,90.61971,0,0,1-20.2-8.7,4.52766,4.52766,0,1,1,4.6-7.79993,80.04482,80.04482,0,0,0,18.3,7.8,4.52552,4.52552,0,0,1,3.1,5.6A4.804,4.804,0,0,1,67.2,180.5Zm75.3-12.6a4.69142,4.69142,0,0,1-3.7-1.9,4.52014,4.52014,0,0,1,1.1-6.3,77.81768,77.81768,0,0,0,14.7-13.4,4.46879,4.46879,0,1,1,6.8,5.8,91.66537,91.66537,0,0,1-16.3,14.8A3.87581,3.87581,0,0,1,142.5,167.9Zm-116.7-14.1a4.25488,4.25488,0,0,1-3.4-1.6,92.407,92.407,0,0,1-12.3-18.19995,4.51773,4.51773,0,1,1,8-4.2,86.71181,86.71181,0,0,0,11.1,16.5,4.44867,4.44867,0,0,1-.5,6.3A4.17584,4.17584,0,0,1,25.8,153.80005ZM173.1,129.2a5.07765,5.07765,0,0,1-1.7-.3,4.57356,4.57356,0,0,1-2.5-5.9,80.07906,80.07906,0,0,0,5.1-19.19995,4.4972,4.4972,0,1,1,8.9,1.29992,91.81524,91.81524,0,0,1-5.7,21.30005A4.33894,4.33894,0,0,1,173.1,129.2ZM5.3,109a4.42346,4.42346,0,0,1-4.4-3.9A95.04021,95.04021,0,0,1,0,92a87.03373,87.03373,0,0,1,.4-8.9,4.36,4.36,0,0,1,4.9-4,4.36,4.36,0,0,1,4,4.9,73.22483,73.22483,0,0,0-.4,8.1,92.31107,92.31107,0,0,0,.8,11.8A4.50863,4.50863,0,0,1,5.9,109C5.7,108.9,5.5,109,5.3,109ZM177.9,80.1a4.486,4.486,0,0,1-4.4-3.7,83.201,83.201,0,0,0-6-18.9,4.51886,4.51886,0,0,1,8.2-3.8,91.75891,91.75891,0,0,1,6.7,21,4.52031,4.52031,0,0,1-3.6,5.3A3.44542,3.44542,0,0,1,177.9,80.1ZM12.3,60.1a4.33271,4.33271,0,0,1-1.9-.4,4.42261,4.42261,0,0,1-2.2-6,92.88507,92.88507,0,0,1,11.5-18.8,4.48222,4.48222,0,0,1,7,5.6001A86.27346,86.27346,0,0,0,16.3,57.4,4.16671,4.16671,0,0,1,12.3,60.1Zm143-23.9a4.70543,4.70543,0,0,1-3.3-1.4,84.66143,84.66143,0,0,0-15.3-12.7,4.47941,4.47941,0,0,1,4.9-7.5,95.25839,95.25839,0,0,1,17,14,4.55972,4.55972,0,0,1-.2,6.4A4.302,4.302,0,0,1,155.3,36.2ZM44.6,22.9a4.42748,4.42748,0,0,1-3.8-2.1,4.57719,4.57719,0,0,1,1.3-6.19995,92.81622,92.81622,0,0,1,19.8-9.6,4.42838,4.42838,0,0,1,5.7,2.8,4.42835,4.42835,0,0,1-2.8,5.7,84.65108,84.65108,0,0,0-17.9,8.7A4.45118,4.45118,0,0,1,44.6,22.9Zm68.1-11.4a4.10231,4.10231,0,0,1-1.1-.1A81.72281,81.72281,0,0,0,91.9,9a4.5,4.5,0,0,1,0-9,95.03676,95.03676,0,0,1,21.9,2.6A4.47185,4.47185,0,0,1,117.1,8,4.57061,4.57061,0,0,1,112.7,11.5Z"/></g></svg>
