<?xml version="1.0" encoding="utf-8"?>
<!-- Generator: Adobe Illustrator 23.0.0, SVG Export Plug-In . SVG Version: 6.00 Build 0)  -->
<svg version="1.1" id="Layer_1" xmlns="http://www.w3.org/2000/svg" xmlns:xlink="http://www.w3.org/1999/xlink" x="0px" y="0px"
	 viewBox="0 0 34 34" style="enable-background:new 0 0 34 34;" xml:space="preserve">
<style type="text/css">
	.st0{fill:#FFFFFF;stroke:#DBDBDB;stroke-width:4;}
	.st1{fill:#1C3F55;stroke:#1C3F55;stroke-width:4;}
</style>
<path id="Rectangle_65" class="st0" d="M17,2L17,2c8.3,0,15,6.7,15,15l0,0c0,8.3-6.7,15-15,15l0,0C8.7,32,2,25.3,2,17l0,0
	C2,8.7,8.7,2,17,2z"/>
<path id="Rectangle_85" class="st1" d="M17,11.2L17,11.2c3.2,0,5.8,2.6,5.8,5.8l0,0c0,3.2-2.6,5.8-5.8,5.8l0,0
	c-3.2,0-5.8-2.6-5.8-5.8l0,0C11.2,13.8,13.8,11.2,17,11.2z"/>
</svg>
