<svg id="a4fb756f-a8c1-4b1f-891a-d1efdafad0f5" data-name="Layer 1" xmlns="http://www.w3.org/2000/svg" viewBox="0 0 35.5 55.1"><defs><style>.a424b7e6-507f-4014-bf22-3e6c0f385be9{fill:#fff;}.e545b51c-8ba1-45ed-bacc-ed79f54a85e4{fill:#1c3f55;}</style></defs><title>example_icon</title><g id="ba4faac8-5565-4cc6-8ebb-08b31e76b340" data-name="Group 442"><ellipse id="adcd5eb9-f215-4d02-b6de-444c6359f640" data-name="Ellipse 11" class="a424b7e6-507f-4014-bf22-3e6c0f385be9" cx="17.76" cy="47.921" rx="17.8" ry="7.2"/><rect id="bf822cb5-2ed0-4ffa-be38-ec82d2be9957" data-name="Rectangle 56" class="a424b7e6-507f-4014-bf22-3e6c0f385be9" x="-0.04" y="31.821" width="35.5" height="17.1"/><ellipse id="e22458bd-c72d-4b7d-8d9b-79cc85c5b706" data-name="Ellipse 12" class="e545b51c-8ba1-45ed-bacc-ed79f54a85e4" cx="17.76" cy="31.921" rx="17.8" ry="7.2"/><g id="bf3eb789-e4a0-409e-a91a-7425e592fa19" data-name="Group 442-2"><path id="b3319d40-8e9f-4faf-bb5f-ef9da1e1416d" data-name="Rectangle 57" class="a424b7e6-507f-4014-bf22-3e6c0f385be9" d="M17.295,22.964h0a1.89871,1.89871,0,0,1,1.9,1.9v6.3a1.89871,1.89871,0,0,1-1.9,1.9h0a1.89871,1.89871,0,0,1-1.9-1.9v-6.3A1.78436,1.78436,0,0,1,17.295,22.964Z"/></g><circle id="bfd5333e-9a81-4731-a4d7-1cf42ae74c6d" data-name="Ellipse 13" class="a424b7e6-507f-4014-bf22-3e6c0f385be9" cx="17.26" cy="11.921" r="6.9"/><path id="ff4616c1-a537-45c4-80cc-5c93d11b2d72" data-name="Path 492" class="a424b7e6-507f-4014-bf22-3e6c0f385be9" d="M23.26,8.421s-4.3-6.2-4.1-8.4c0,0-8.9,6.5-8.9,11.7"/><path id="f481d301-c9bf-4e62-a173-f40685932412" data-name="Path 493" class="e545b51c-8ba1-45ed-bacc-ed79f54a85e4" d="M17.26,9.621a3.43172,3.43172,0,0,1,3.3,4.2,3.20923,3.20923,0,0,1-2.5,2.5,3.398,3.398,0,1,1-.8-6.7Z"/></g></svg>