<?xml version="1.0" encoding="utf-8"?>
<!-- Generator: Adobe Illustrator 23.0.0, SVG Export Plug-In . SVG Version: 6.00 Build 0)  -->
<svg version="1.1" id="Layer_1" xmlns="http://www.w3.org/2000/svg" xmlns:xlink="http://www.w3.org/1999/xlink" x="0px" y="0px"
	 viewBox="0 0 391.2 110.9" style="enable-background:new 0 0 391.2 110.9;" xml:space="preserve">
<style type="text/css">
	.st0{opacity:0.2;fill:#27C5F2;enable-background:new    ;}
	.st1{fill:#FFFFFF;}
	.st2{enable-background:new    ;}
	.st3{fill:#1C3F55;}
</style>
<g id="exam_btn" transform="translate(474.239)">
	<path id="Rectangle_25" class="st0" d="M-451.2,13h345.2c12.7,0,23,10.3,23,23v51.9c0,12.7-10.3,23-23,23h-345.2
		c-12.7,0-23-10.3-23-23V36C-474.2,23.3-463.9,13-451.2,13z"/>
	<path id="Rectangle_24" class="st1" d="M-451.2,0h345.2c12.7,0,23,10.3,23,23v51.9c0,12.7-10.3,23-23,23h-345.2
		c-12.7,0-23-10.3-23-23V23C-474.2,10.3-463.9,0-451.2,0z"/>
</g>
<g>
	<g class="st2">
		<path class="st3" d="M111.1,70.7c-0.3-0.2-0.4-0.6-0.4-1V35.6c0-0.4,0.1-0.7,0.4-1c0.3-0.2,0.6-0.4,1-0.4h6.3c0.4,0,0.7,0.1,1,0.4
			c0.2,0.2,0.4,0.6,0.4,1v34.2c0,0.4-0.1,0.7-0.4,1c-0.2,0.2-0.6,0.4-1,0.4h-6.3C111.7,71.1,111.4,71,111.1,70.7z"/>
		<path class="st3" d="M126.4,64.2c-0.3-0.2-0.4-0.6-0.4-1V35.6c0-0.4,0.1-0.7,0.4-1c0.3-0.2,0.6-0.4,1-0.4h12.5c5,0,8.7,1,11.1,3.1
			c2.4,2.1,3.6,5.5,3.6,10.2v15.6c0,0.4-0.1,0.7-0.4,0.9c-0.2,0.3-0.6,0.4-1,0.4H147c-0.4,0-0.7-0.1-1-0.4c-0.3-0.2-0.4-0.6-0.4-1
			V47.5c0-4-2-6-6-6H135v21.7c0,0.4-0.1,0.7-0.4,0.9c-0.2,0.3-0.6,0.4-1,0.4h-6.3C127,64.5,126.7,64.4,126.4,64.2z"/>
		<path class="st3" d="M159.9,64.1c-0.3-0.3-0.4-0.6-0.4-0.9v-4.6c0-0.4,0.1-0.7,0.4-1c0.3-0.2,0.6-0.4,0.9-0.4h13.3v-9.8
			c0-4-2-6-6-6h-6.8c-0.4,0-0.7-0.1-1-0.4s-0.4-0.6-0.4-1v-4.6c0-0.4,0.1-0.7,0.4-1c0.3-0.2,0.6-0.4,0.9-0.4h7c4.9,0,8.7,1,11.2,3.1
			c2.5,2.1,3.8,5.5,3.8,10.1v9.8h1.9c0.4,0,0.7,0.1,1,0.4c0.2,0.2,0.4,0.6,0.4,1v4.6c0,0.4-0.1,0.7-0.4,0.9c-0.2,0.3-0.6,0.4-1,0.4
			h-24.4C160.5,64.5,160.2,64.4,159.9,64.1z"/>
		<path class="st3" d="M217.8,37.5c2.3,2.2,3.4,5.4,3.4,9.7v16c0,0.4-0.1,0.7-0.4,0.9c-0.2,0.3-0.6,0.4-1,0.4h-14.5
			c-0.4,0-0.7-0.1-0.9-0.4s-0.4-0.6-0.4-0.9v-4.6c0-0.4,0.1-0.7,0.4-1s0.6-0.4,0.9-0.4h6.8v-9.7c0-1.8-0.4-3.3-1.3-4.3
			c-0.9-1-2-1.5-3.4-1.5h-4.1l-4.5,21.4c0,0.4-0.2,0.7-0.4,1c-0.2,0.3-0.6,0.4-1,0.4h-6.1c-0.4,0-0.7-0.1-1-0.4
			c-0.3-0.3-0.4-0.6-0.3-1l5.2-21.3h-3.5c-0.4,0-0.7-0.1-1-0.4c-0.2-0.3-0.4-0.6-0.4-1v-4.9c0-0.4,0.1-0.7,0.4-1s0.6-0.4,0.9-0.4h17
			C212.6,34.3,215.6,35.4,217.8,37.5z"/>
	</g>
	<g id="Group_296" transform="translate(244.565 23.363)">
		<g id="Path_457">
			<path class="st3" d="M23.3,53.1C23.3,53.1,23.3,53.1,23.3,53.1c-0.3,0-0.6,0-0.9-0.1c0,0,0,0,0,0l-22-4c-2.4-0.4-4.1-2.5-4.1-4.9
				V11.3c0-2.8,2.2-5,5-5c0,0,0,0,0,0c0.3,0,0.6,0,0.9,0.1l22,4c2.4,0.4,4.1,2.5,4.1,4.9v32.9C28.2,50.9,26,53.1,23.3,53.1z
				 M23.1,49.1c0.1,0,0.1,0,0.2,0c0,0,0,0,0,0c0.5,0,1-0.4,1-1V15.3c0-0.5-0.3-0.9-0.8-1l-22-4c-0.1,0-0.1,0-0.2,0l0,0
				c-0.5,0-1,0.4-1,1v32.9c0,0.5,0.3,0.9,0.8,1L23.1,49.1z"/>
		</g>
		<g id="Path_458">
			<path class="st3" d="M33.9,46.1c-1.1,0-2-0.9-2-2V7.6c0-0.5-0.3-0.9-0.8-1L5.5,2C4.4,1.9,3.7,0.8,3.9-0.3
				c0.2-1.1,1.2-1.8,2.3-1.6l25.6,4.6c2.4,0.4,4.1,2.5,4.1,4.9v36.4C35.9,45.2,35,46.1,33.9,46.1z"/>
		</g>
		<g id="Group_295" transform="translate(7.03 15.235)">
			<g id="Group_294">
				<g id="Line_99">
					<path class="st3" d="M12.2,4.7c-0.1,0-0.2,0-0.4,0L-2.1,2c-1.1-0.2-1.8-1.2-1.6-2.3s1.2-1.8,2.3-1.6l14,2.6
						c1.1,0.2,1.8,1.2,1.6,2.3C14,4,13.1,4.7,12.2,4.7z"/>
				</g>
				<g id="Line_100">
					<path class="st3" d="M12.2,13.2c-0.1,0-0.2,0-0.4,0l-14-2.6c-1.1-0.2-1.8-1.2-1.6-2.3c0.2-1.1,1.2-1.8,2.3-1.6l14,2.6
						c1.1,0.2,1.8,1.2,1.6,2.3C14,12.5,13.1,13.2,12.2,13.2z"/>
				</g>
				<g id="Line_101">
					<path class="st3" d="M12.2,21.7c-0.1,0-0.2,0-0.4,0l-14-2.6c-1.1-0.2-1.8-1.2-1.6-2.3c0.2-1.1,1.2-1.8,2.3-1.6l14,2.6
						c1.1,0.2,1.8,1.2,1.6,2.3C14,21,13.1,21.7,12.2,21.7z"/>
				</g>
				<g id="Line_102">
					<path class="st3" d="M12.2,30.3c-0.1,0-0.2,0-0.4,0l-14-2.6c-1.1-0.2-1.8-1.2-1.6-2.3s1.2-1.8,2.3-1.6l14,2.6
						c1.1,0.2,1.8,1.2,1.6,2.3C14,29.6,13.1,30.3,12.2,30.3z"/>
				</g>
			</g>
		</g>
	</g>
</g>
</svg>
