<?xml version="1.0" encoding="utf-8"?>
<!-- Generator: Adobe Illustrator 25.0.1, SVG Export Plug-In . SVG Version: 6.00 Build 0)  -->
<svg version="1.1" id="Layer_1" xmlns="http://www.w3.org/2000/svg" xmlns:xlink="http://www.w3.org/1999/xlink" x="0px" y="0px"
	 viewBox="0 0 271.2 97.9" style="enable-background:new 0 0 271.2 97.9;" xml:space="preserve">
<style type="text/css">
	.st0{fill:#1DE8F7;}
	.st1{enable-background:new    ;}
	.st2{fill:#FFFFFF;}
</style>
<g id="Group_451" transform="translate(-404.239 -1329.677)">
	<path id="Rectangle_19" class="st0" d="M427.2,1329.7h225.2c12.7,0,23,10.3,23,23v51.9c0,12.7-10.3,23-23,23H427.2
		c-12.7,0-23-10.3-23-23v-51.9C404.2,1340,414.5,1329.7,427.2,1329.7z"/>
	<g class="st1">
		<path class="st2" d="M484.3,1383.3c-0.2-0.2-0.3-0.5-0.3-0.8V1370c0-0.3,0.1-0.6,0.3-0.8c0.2-0.2,0.5-0.3,0.8-0.3h5.5
			c0.3,0,0.6,0.1,0.8,0.3c0.2,0.2,0.3,0.5,0.3,0.8v12.5c0,0.3-0.1,0.6-0.3,0.8c-0.2,0.2-0.5,0.3-0.8,0.3h-5.5
			C484.8,1383.6,484.5,1383.5,484.3,1383.3z"/>
		<path class="st2" d="M519.6,1371.5c2,1.7,3.1,4.5,3.1,8.2v13.2c0,0.3-0.1,0.5-0.3,0.8c-0.2,0.2-0.5,0.3-0.8,0.3h-5.2
			c-0.3,0-0.6-0.1-0.8-0.3c-0.2-0.2-0.3-0.5-0.3-0.8v-13c0-3.3-1.7-5-5-5h-2.9c-0.5,2-0.7,4.2-0.7,6.5l0.4,11.6
			c0,0.3-0.1,0.6-0.3,0.8c-0.2,0.2-0.5,0.3-0.8,0.3l-9.3,0c-0.3,0-0.6-0.1-0.8-0.3c-0.2-0.2-0.3-0.5-0.3-0.8v-3.5
			c0-0.3,0.1-0.6,0.3-0.8c0.2-0.2,0.5-0.3,0.8-0.3h3.6v-6.9c-0.1-2.4,0.2-4.6,0.7-6.5h-2.6c-0.3,0-0.6-0.1-0.8-0.3
			c-0.2-0.2-0.3-0.5-0.3-0.8v-3.8c0-0.3,0.1-0.6,0.3-0.8c0.2-0.2,0.5-0.3,0.8-0.3h12.3C514.5,1368.9,517.5,1369.7,519.6,1371.5z"/>
		<path class="st2" d="M542.7,1393.7c-0.2,0.2-0.5,0.3-0.8,0.3h-14.1c-0.3,0-0.6-0.1-0.8-0.3s-0.3-0.5-0.3-0.8v-3.8
			c0-0.3,0.1-0.6,0.3-0.8s0.5-0.3,0.8-0.3h7.3l-0.4-8.7c-0.1-1.7-0.4-2.9-0.9-3.7c-0.5-0.8-1.4-1.1-2.7-1.1h-2.2
			c-0.3,0-0.6-0.1-0.8-0.3c-0.2-0.2-0.3-0.5-0.3-0.8v-3.7c0-0.3,0.1-0.6,0.3-0.8c0.2-0.2,0.5-0.3,0.8-0.3h2.4c3.8,0,6.6,0.9,8.4,2.6
			c1.7,1.7,2.7,4.5,2.8,8.3l0.6,13.4C543,1393.2,542.9,1393.5,542.7,1393.7z"/>
		<path class="st2" d="M546.6,1393.7c-0.2-0.2-0.3-0.5-0.3-0.8v-3.8c0-0.3,0.1-0.6,0.3-0.8c0.2-0.2,0.5-0.3,0.8-0.3h11v-8.1
			c0-3.3-1.7-5-5-5h-5.6c-0.3,0-0.6-0.1-0.8-0.3c-0.2-0.2-0.3-0.5-0.3-0.8v-3.8c0-0.3,0.1-0.6,0.3-0.8c0.2-0.2,0.5-0.3,0.8-0.3h5.9
			c4.1,0,7.2,0.9,9.3,2.6c2.1,1.7,3.1,4.5,3.1,8.4v8.1h1.5c0.3,0,0.6,0.1,0.8,0.3c0.2,0.2,0.3,0.5,0.3,0.8v3.8
			c0,0.3-0.1,0.5-0.3,0.8c-0.2,0.2-0.5,0.3-0.8,0.3h-20.3C547.1,1394,546.8,1393.9,546.6,1393.7z"/>
		<path class="st2" d="M589,1393.7c-0.2-0.2-0.3-0.5-0.3-0.8v-13c0-3.3-1.7-5-5-5h-10c-0.3,0-0.6-0.1-0.8-0.3
			c-0.2-0.2-0.3-0.5-0.3-0.8v-3.8c0-0.3,0.1-0.6,0.3-0.8c0.2-0.2,0.5-0.3,0.8-0.3h10.3c4,0,7.1,0.9,9.1,2.7c2,1.8,3.1,4.6,3.1,8.4
			v13c0,0.3-0.1,0.6-0.3,0.8c-0.2,0.2-0.5,0.3-0.8,0.3h-5.2C589.4,1394,589.2,1393.9,589,1393.7z M572.8,1393.7
			c-0.2-0.2-0.3-0.5-0.3-0.8v-12.8c0-0.3,0.1-0.6,0.3-0.8c0.2-0.2,0.5-0.3,0.8-0.3h5.2c0.3,0,0.6,0.1,0.8,0.3
			c0.2,0.2,0.3,0.5,0.3,0.8v12.8c0,0.3-0.1,0.5-0.3,0.8c-0.2,0.2-0.5,0.3-0.8,0.3h-5.2C573.3,1394,573.1,1393.9,572.8,1393.7z"/>
	</g>
</g>
</svg>
