<svg id="a1f6e295-37c7-46ce-bb58-8c14555ea3a9" data-name="practice btn" xmlns="http://www.w3.org/2000/svg" viewBox="0 0 391.20001 97.9"><defs><style>.a23bac3c-284a-4211-8312-635245464755{fill:#fff;}.ecd900a2-5675-4dcc-a154-c8bd0e89457a{isolation:isolate;}.e865996c-4a35-46e3-9cbf-e3c5a6181aa4{fill:#1c3f55;}</style></defs><title>practice_btn</title><path id="b68ee06c-bb1c-4f55-9013-ad3b10c6e414" data-name="Rectangle 19" class="a23bac3c-284a-4211-8312-635245464755" d="M23,0H368.2a23.00326,23.00326,0,0,1,23,23V74.9a23.00326,23.00326,0,0,1-23,23H23a23.00326,23.00326,0,0,1-23-23V23A23.00326,23.00326,0,0,1,23,0Z"/><g id="b3db9b01-c221-465e-9120-f5014212320f" data-name="Group 293"><g class="ecd900a2-5675-4dcc-a154-c8bd0e89457a"><path class="e865996c-4a35-46e3-9cbf-e3c5a6181aa4" d="M123.969,35c2,2.2,3,5.5,3,10s-1.3,8.2-4,11a20.444,20.444,0,0,1-10,6l-2.2.6a1.02187,1.02187,0,0,1-1-.4,1.60584,1.60584,0,0,1-.5-1.1V55.7a1.28387,1.28387,0,0,1,.4-1,2.55244,2.55244,0,0,1,1-.7l1.7-.7a8.42751,8.42751,0,0,0,3.8-2.8,9.14736,9.14736,0,0,0,1.4-5.4c0-2.2-.4-3.8-1.2-4.7s-2.2-1.3-4.3-1.3h-1.4l-7.1-.1a1.28387,1.28387,0,0,1-1-.4,1.52769,1.52769,0,0,1-.4-1v-12a1.28387,1.28387,0,0,1,.4-1,1.7969,1.7969,0,0,1,.9-.4h5.7a1.28387,1.28387,0,0,1,1,.4,1.52769,1.52769,0,0,1,.4,1v6h3.3C118.669,31.7,121.969,32.8,123.969,35Z"/><path class="e865996c-4a35-46e3-9cbf-e3c5a6181aa4" d="M132.569,61.6a1.15949,1.15949,0,0,1-.4-1V33a1.36709,1.36709,0,0,1,1.4-1.4h6.6a1.28384,1.28384,0,0,1,1,.4,1.52765,1.52765,0,0,1,.4,1V60.6a.97477.97477,0,0,1-.4.9,1.15947,1.15947,0,0,1-1,.4h-6.6A1.32725,1.32725,0,0,1,132.569,61.6Z"/><path class="e865996c-4a35-46e3-9cbf-e3c5a6181aa4" d="M168.569,61.5a1.28387,1.28387,0,0,1-1,.4h-6.6a.97479.97479,0,0,1-.9-.4,1.52769,1.52769,0,0,1-.4-1l-.8-3.9a11.02284,11.02284,0,0,1-3.1,2.6c-1.4.8-2.7,1.5-3.8,2a18.94861,18.94861,0,0,1-3.6,1.1l-.4.1c-.6,0-.9-.3-.9-.8V55.9c0-.6.4-1,1.1-1.3.2-.1,1.1-.4,2.4-.8a19.793,19.793,0,0,0,3.3-1.2,10.87676,10.87676,0,0,0,3.5-2.9l-1-4.9a12.63483,12.63483,0,0,0-1.6-4.5,3.89559,3.89559,0,0,0-3.3-1.3h-1.9a.97479.97479,0,0,1-.9-.4,1.22151,1.22151,0,0,1-.4-.9V32.8a1.28387,1.28387,0,0,1,.4-1,1.15948,1.15948,0,0,1,1-.4h2a16.16226,16.16226,0,0,1,7.2,1.4,9.68709,9.68709,0,0,1,4.3,4.2,24.13475,24.13475,0,0,1,2.5,7.6l3.2,16.2A.58513.58513,0,0,1,168.569,61.5Z"/><path class="e865996c-4a35-46e3-9cbf-e3c5a6181aa4" d="M185.169,61.6a1.15948,1.15948,0,0,1-.4-1V44.9q0-6-6-6h-8.1a.97479.97479,0,0,1-.9-.4,1.2215,1.2215,0,0,1-.4-.9V33a1.28383,1.28383,0,0,1,.4-1,1.22153,1.22153,0,0,1,.9-.4h8.4c4.9,0,8.6,1,11,3s3.6,5.3,3.6,9.9v16a.97479.97479,0,0,1-.4.9,1.15948,1.15948,0,0,1-1,.4h-6.3A.8304.8304,0,0,1,185.169,61.6Z"/><path class="e865996c-4a35-46e3-9cbf-e3c5a6181aa4" d="M227.869,34.8c2.5,2.1,3.7,5.4,3.7,9.8v16a.97482.97482,0,0,1-.4.9,1.1595,1.1595,0,0,1-1,.4h-6.3a1.36707,1.36707,0,0,1-1.4-1.4V44.9q0-6-6-6h-3.4a32.22379,32.22379,0,0,0-.8,7.8l.4,13.9a1.28387,1.28387,0,0,1-.4,1,1.77675,1.77675,0,0,1-1,.4l-11.2-.1a1.28387,1.28387,0,0,1-1-.4,1.15948,1.15948,0,0,1-.4-1V56.3a1.28387,1.28387,0,0,1,.4-1,1.77672,1.77672,0,0,1,1-.4h4.3V46.6a27.12566,27.12566,0,0,1,.8-7.8h-3.1a1.36707,1.36707,0,0,1-1.4-1.4V33a1.36707,1.36707,0,0,1,1.4-1.4h14.8C221.769,31.7,225.369,32.7,227.869,34.8Z"/></g><g id="bac18fbc-0a72-4488-833a-a438873ac989" data-name="Group 285"><path class="e865996c-4a35-46e3-9cbf-e3c5a6181aa4" d="M288.811,24.311a6.5084,6.5084,0,0,0-4.7-2,6.34488,6.34488,0,0,0-4.7,2l-24.9,24.8h0a1.60584,1.60584,0,0,0-.5,1.1l-2,6.1a4.4788,4.4788,0,0,0,0,2.3,3.48625,3.48625,0,0,0,1.9,2.2,3.42453,3.42453,0,0,0,1.8.4,3.59492,3.59492,0,0,0,1.1-.2l6.4-2h0c.1,0,.2-.1.3-.2h.1c.1-.1.2-.1.3-.2h.1l24.8-24.9A6.6391,6.6391,0,0,0,288.811,24.311Zm-2.8,6.6-20.4,20.4a6.33156,6.33156,0,0,0-1.6-2.4,7.44241,7.44241,0,0,0-2.2-1.4l20.4-20.4a2.687,2.687,0,0,1,3.8,3.8Z"/><g id="b2b94073-9476-4c8a-90ab-84de3b8a0d88" data-name="Path 456"><path class="e865996c-4a35-46e3-9cbf-e3c5a6181aa4" d="M269.911,75.611a8.072,8.072,0,0,1-5.6-2.4l-4.5-4a1.98116,1.98116,0,1,1,2.7-2.9l4.5,4a4.123,4.123,0,0,0,3.4,1.3,4.68056,4.68056,0,0,0,3-2.3,8.69348,8.69348,0,0,1,5.7-4.2,8.18,8.18,0,0,1,6.5,2l4.2,3.6a1.98494,1.98494,0,0,1-2.6,3l-4.2-3.6a4.041,4.041,0,0,0-3.3-1.1,4.68056,4.68056,0,0,0-3,2.3,8.04984,8.04984,0,0,1-5.9,4.2C270.611,75.511,270.211,75.611,269.911,75.611Z"/></g></g></g></svg>