<?xml version="1.0" encoding="utf-8"?>
<!-- Generator: Adobe Illustrator 23.0.0, SVG Export Plug-In . SVG Version: 6.00 Build 0)  -->
<svg version="1.1" id="practice_btn" xmlns="http://www.w3.org/2000/svg" xmlns:xlink="http://www.w3.org/1999/xlink" x="0px"
	 y="0px" viewBox="0 0 391.2 110.9" style="enable-background:new 0 0 391.2 110.9;" xml:space="preserve">
<style type="text/css">
	.st0{opacity:0.2;fill:#27C5F2;enable-background:new    ;}
	.st1{fill:#FFFFFF;}
	.st2{enable-background:new    ;}
	.st3{fill:#1C3F55;}
</style>
<g>
	<g>
		<path id="Rectangle_23" class="st0" d="M23,13h345.2c12.7,0,23,10.3,23,23v51.9c0,12.7-10.3,23-23,23H23c-12.7,0-23-10.3-23-23V36
			C0,23.3,10.3,13,23,13z"/>
		<path id="Rectangle_19" class="st1" d="M23,0h345.2c12.7,0,23,10.3,23,23v51.9c0,12.7-10.3,23-23,23H23c-12.7,0-23-10.3-23-23V23
			C0,10.3,10.3,0,23,0z"/>
	</g>
</g>
<g id="Group_293" transform="translate(99.269 17)">
	<g class="st2">
		<path class="st3" d="M24.7,18c2,2.2,3,5.5,3,10c0,4.5-1.3,8.2-4,11c-2.6,2.9-6,4.9-10,6l-2.2,0.6c-0.4,0.1-0.7-0.1-1-0.4
			c-0.3-0.3-0.5-0.7-0.5-1.1v-5.4c0-0.4,0.1-0.7,0.4-1c0.2-0.3,0.6-0.5,1-0.7l1.7-0.7c1.6-0.6,2.9-1.6,3.8-2.8
			c0.9-1.3,1.4-3,1.4-5.4c0-2.2-0.4-3.8-1.2-4.7c-0.8-0.9-2.2-1.3-4.3-1.3h-1.2h-0.2l-7.1-0.1c-0.4,0-0.7-0.1-1-0.4
			c-0.2-0.2-0.4-0.6-0.4-1V8.6c0-0.4,0.1-0.7,0.4-1c0.3-0.2,0.6-0.4,0.9-0.4h5.7c0.4,0,0.7,0.1,1,0.4c0.2,0.2,0.4,0.6,0.4,1v6h3.3
			C19.4,14.7,22.7,15.8,24.7,18z"/>
		<path class="st3" d="M33.3,44.6c-0.3-0.2-0.4-0.6-0.4-1V16c0-0.4,0.1-0.7,0.4-1s0.6-0.4,1-0.4h6.6c0.4,0,0.7,0.1,1,0.4
			c0.2,0.2,0.4,0.6,0.4,1v27.6c0,0.4-0.1,0.7-0.4,0.9c-0.2,0.3-0.6,0.4-1,0.4h-6.6C33.8,44.9,33.5,44.8,33.3,44.6z"/>
		<path class="st3" d="M69.3,44.5c-0.3,0.3-0.6,0.4-1,0.4h-6.6c-0.4,0-0.7-0.1-0.9-0.4c-0.2-0.2-0.4-0.6-0.4-1l-0.8-3.9
			c-0.9,1.1-1.9,1.9-3.1,2.6c-1.4,0.8-2.7,1.5-3.8,2c-1.1,0.5-2.3,0.8-3.6,1.1l-0.4,0.1c-0.6,0-0.9-0.3-0.9-0.8v-5.7
			c0-0.6,0.4-1,1.1-1.3c0.2-0.1,1.1-0.4,2.4-0.8c1.4-0.4,2.5-0.8,3.3-1.2c1.4-0.7,2.5-1.7,3.5-2.9l-1-4.9c-0.4-2.1-1-3.6-1.6-4.5
			c-0.7-0.9-1.8-1.3-3.3-1.3h-1.9c-0.4,0-0.7-0.1-0.9-0.4c-0.3-0.3-0.4-0.6-0.4-0.9v-4.9c0-0.4,0.1-0.7,0.4-1c0.2-0.3,0.6-0.4,1-0.4
			h2c3,0,5.4,0.5,7.2,1.4c1.8,0.9,3.3,2.3,4.3,4.2c1.1,1.9,1.9,4.4,2.5,7.6l3.2,16.2C69.7,44,69.6,44.3,69.3,44.5z"/>
		<path class="st3" d="M85.9,44.6c-0.3-0.2-0.4-0.6-0.4-1V27.9c0-4-2-6-6-6h-8.1c-0.4,0-0.7-0.1-0.9-0.4c-0.3-0.3-0.4-0.6-0.4-0.9
			V16c0-0.4,0.1-0.7,0.4-1s0.6-0.4,0.9-0.4h8.4c4.9,0,8.6,1,11,3c2.4,2,3.6,5.3,3.6,9.9v16c0,0.4-0.1,0.7-0.4,0.9
			c-0.2,0.3-0.6,0.4-1,0.4h-6.3C86.5,44.9,86.1,44.8,85.9,44.6z"/>
		<path class="st3" d="M128.6,17.8c2.5,2.1,3.7,5.4,3.7,9.8v16c0,0.4-0.1,0.7-0.4,0.9c-0.2,0.3-0.6,0.4-1,0.4h-6.3
			c-0.4,0-0.7-0.1-1-0.4s-0.4-0.6-0.4-1V27.9c0-4-2-6-6-6h-3.4c-0.6,2.4-0.8,5-0.8,7.8l0.4,13.9c0,0.4-0.1,0.7-0.4,1
			c-0.3,0.2-0.6,0.4-1,0.4l-11.2-0.1c-0.4,0-0.7-0.1-1-0.4c-0.3-0.2-0.4-0.6-0.4-1v-4.2c0-0.4,0.1-0.7,0.4-1c0.3-0.2,0.6-0.4,1-0.4
			h4.3v-8.3c-0.1-2.9,0.2-5.5,0.8-7.8h-3.1c-0.4,0-0.7-0.1-1-0.4s-0.4-0.6-0.4-1V16c0-0.4,0.1-0.7,0.4-1s0.6-0.4,1-0.4h14.8
			C122.5,14.7,126.1,15.7,128.6,17.8z"/>
	</g>
	<g id="Group_285" transform="translate(156.742 7.111)">
		<path class="st3" d="M32.8,0.2c-1.3-1.3-2.9-2-4.7-2s-3.5,0.7-4.7,2L-1.5,25L-1.5,25c-0.3,0.3-0.5,0.7-0.5,1.1L-4,32.2
			c-0.2,0.7-0.2,1.5,0,2.3c0.3,1,1,1.8,1.9,2.2c0.5,0.3,1.1,0.4,1.8,0.4c0.4,0,0.8-0.1,1.1-0.2l6.4-2c0,0,0,0,0,0
			c0.1,0,0.2-0.1,0.3-0.2c0,0,0.1,0,0.1,0c0.1-0.1,0.2-0.1,0.3-0.2c0,0,0,0,0.1,0l0,0c0,0,0,0,0,0L32.8,9.6
			C35.4,7,35.4,2.8,32.8,0.2z M30,6.8L9.6,27.2c-0.3-0.9-0.9-1.7-1.6-2.4c-0.7-0.6-1.4-1.1-2.2-1.4L26.2,3c1-1,2.8-1,3.8,0
			C31,4,31,5.7,30,6.8z"/>
		<g id="Path_456">
			<path class="st3" d="M13.9,51.5c-2,0-3.9-0.8-5.6-2.4l-4.5-4c-0.8-0.7-0.9-2-0.1-2.8c0.7-0.8,2-0.9,2.8-0.1l4.5,4
				c1.1,1,2.3,1.5,3.4,1.3c1.1-0.2,2.2-1,3-2.3c1.4-2.3,3.5-3.8,5.7-4.2c2.2-0.4,4.5,0.4,6.5,2l4.2,3.6c0.8,0.7,1,2,0.2,2.8
				c-0.7,0.8-2,1-2.8,0.2L27,46c-1.1-0.9-2.2-1.3-3.3-1.1c-1.1,0.2-2.2,1-3,2.3c-1.4,2.4-3.5,3.9-5.9,4.2
				C14.6,51.4,14.2,51.5,13.9,51.5z"/>
		</g>
	</g>
</g>
</svg>
