<svg id="e5916dfc-9147-4c0d-a122-e7f6e6c1da72" data-name="Layer 1" xmlns="http://www.w3.org/2000/svg" viewBox="0 0 271.20001 97.90002"><defs><style>.b2fdac71-dbc3-4095-a36e-41479256e7bf{fill:#1de8f7;}.bc08e3ad-acdb-41f8-938d-3ea2aaa0c506{fill:#fff;}</style></defs><title>toTheExam</title><path id="b4aeedd6-e16b-4dab-81dd-599fa97a29f6" data-name="Rectangle 19" class="b2fdac71-dbc3-4095-a36e-41479256e7bf" d="M23,0H248.2a23.00329,23.00329,0,0,1,23,23V74.9a23.00328,23.00328,0,0,1-23,23H23a23.00328,23.00328,0,0,1-23-23V23A23.00329,23.00329,0,0,1,23,0Z"/><path class="bc08e3ad-acdb-41f8-938d-3ea2aaa0c506" d="M78.66449,66.35278a1.03709,1.03709,0,0,1-.32959-.792V37.17993a1.0371,1.0371,0,0,1,.32959-.792,1.15352,1.15352,0,0,1,.81445-.30761h5.1919a1.05457,1.05457,0,0,1,1.1001,1.09961V65.56079a1.05459,1.05459,0,0,1-1.1001,1.09961h-5.1919A1.15352,1.15352,0,0,1,78.66449,66.35278Z"/><path class="bc08e3ad-acdb-41f8-938d-3ea2aaa0c506" d="M91.33636,60.89672a1.036,1.036,0,0,1-.33007-.792V37.17993a1.03752,1.03752,0,0,1,.33007-.792,1.15439,1.15439,0,0,1,.81446-.30761h10.38379q6.24756,0,9.21777,2.57422,2.9707,2.57373,2.96973,8.46972V60.10473a1.09276,1.09276,0,0,1-.30762.76953,1.036,1.036,0,0,1-.792.33008h-5.19239a1.1477,1.1477,0,0,1-.81347-.30762,1.036,1.036,0,0,1-.33008-.792V47.08032q0-5.01562-4.97168-5.01563H98.44281v18.04a1.09375,1.09375,0,0,1-.30859.76953,1.03456,1.03456,0,0,1-.792.33008h-5.1914A1.15011,1.15011,0,0,1,91.33636,60.89672Z"/><path class="bc08e3ad-acdb-41f8-938d-3ea2aaa0c506" d="M119.18793,60.87426a1.05555,1.05555,0,0,1-.33008-.76953V56.32055a1.036,1.036,0,0,1,.33008-.792,1.09432,1.09432,0,0,1,.77051-.30859h11.04394V47.08032q0-4.97169-4.97266-4.97168h-5.63183a1.03454,1.03454,0,0,1-.792-.33008,1.15007,1.15007,0,0,1-.30762-.81445V37.17993a1.03406,1.03406,0,0,1,.33008-.792,1.097,1.097,0,0,1,.76953-.30761h5.85254q6.15966,0,9.30566,2.5957,3.14575,2.59718,3.146,8.4043V55.22h1.54a1.05682,1.05682,0,0,1,1.10058,1.10058v3.78418a1.09371,1.09371,0,0,1-.30859.76953,1.03456,1.03456,0,0,1-.792.33008H119.95844A1.0561,1.0561,0,0,1,119.18793,60.87426Z"/><path class="bc08e3ad-acdb-41f8-938d-3ea2aaa0c506" d="M167.25873,38.76391q2.814,2.68506,2.81543,8.05274V60.10473a1.09276,1.09276,0,0,1-.30762.76953,1.03747,1.03747,0,0,1-.792.33008h-12.0127a1.12817,1.12817,0,0,1-1.09961-1.09961V56.32055a1.03605,1.03605,0,0,1,.33008-.792,1.09373,1.09373,0,0,1,.76953-.30859h5.67676V47.16821a5.28714,5.28714,0,0,0-1.10059-3.56348,3.59806,3.59806,0,0,0-2.85937-1.27637H155.246L151.5058,60.06079a1.33311,1.33311,0,0,1-.35156.81347,1.036,1.036,0,0,1-.792.33008h-5.05957a1.10681,1.10681,0,0,1-.81445-.33008.86653.86653,0,0,1-.24219-.81347l4.3125-17.68848h-2.90429a1.03456,1.03456,0,0,1-.792-.33008,1.14776,1.14776,0,0,1-.30761-.81348V37.17993a1.03409,1.03409,0,0,1,.33007-.792,1.09535,1.09535,0,0,1,.76954-.30761h14.124A10.40022,10.40022,0,0,1,167.25873,38.76391Z"/><path class="bc08e3ad-acdb-41f8-938d-3ea2aaa0c506" d="M191.28314,38.83032q2.50782,2.751,2.50781,8.29394a12.94252,12.94252,0,0,1-3.2998,9.15235,17.52628,17.52628,0,0,1-8.27246,4.97168l-1.80371.52832a.85169.85169,0,0,1-.81446-.3086,1.2529,1.2529,0,0,1-.374-.87988V56.14477a1.25421,1.25421,0,0,1,.3086-.81445,2.16289,2.16289,0,0,1,.792-.59375l1.4082-.57227a7.102,7.102,0,0,0,3.18945-2.35351,7.363,7.363,0,0,0,1.166-4.4668,5.93042,5.93042,0,0,0-.96777-3.87207q-.96826-1.09863-3.6084-1.09961H180.371l-5.89648-.04395a1.05382,1.05382,0,0,1-1.09961-1.09961V31.06469a1.03456,1.03456,0,0,1,.33008-.792,1.09371,1.09371,0,0,1,.76953-.30859h4.75195a1.05684,1.05684,0,0,1,1.10059,1.10058v5.01563h2.72754Q188.77484,36.08032,191.28314,38.83032Z"/></svg>