<svg xmlns="http://www.w3.org/2000/svg" viewBox="0 0 226 101.7"><defs><style>.cls-1{fill:#fff;stroke:#dadada;stroke-linecap:round;stroke-linejoin:round;stroke-width:6px;}.cls-2{fill:#1c3f55;}</style></defs><g id="Layer_2" data-name="Layer 2"><g id="Layer_1-2" data-name="Layer 1"><g id="a71e8fb0-af52-490d-a0fa-e58658634966"><path id="bd135bf9-7583-46f7-8fcd-0952d51119a3" class="cls-1" d="M26,3H200a23,23,0,0,1,23,23V75.7a23,23,0,0,1-23,23H26a23,23,0,0,1-23-23V26A23,23,0,0,1,26,3Z"/></g><path class="cls-2" d="M47.08,61.33a.91.91,0,0,1-.29-.66V57.41a.88.88,0,0,1,.29-.68.93.93,0,0,1,.66-.27h9.51v-7c0-2.86-1.42-4.29-4.28-4.29H48.12a.87.87,0,0,1-.68-.28,1,1,0,0,1-.27-.7V40.92a.88.88,0,0,1,.29-.68.91.91,0,0,1,.66-.27h5q5.31,0,8,2.24c1.8,1.49,2.71,3.9,2.71,7.24v7h1.32a.91.91,0,0,1,1,.95v3.26a1,1,0,0,1-.26.66.91.91,0,0,1-.69.29H47.74A.91.91,0,0,1,47.08,61.33Z"/><path class="cls-2" d="M69.67,61.35a.89.89,0,0,1-.29-.68V40.92a.88.88,0,0,1,.29-.68,1,1,0,0,1,.7-.27h4.74a.91.91,0,0,1,.68.27.9.9,0,0,1,.27.68V60.67a.93.93,0,0,1-.27.66.89.89,0,0,1-.68.29H70.37A1,1,0,0,1,69.67,61.35Z"/><path class="cls-2" d="M104.94,40.24a.9.9,0,0,1,.27.68v9.93a11.17,11.17,0,0,1-1.52,5.86,10.29,10.29,0,0,1-4.13,3.88,12.09,12.09,0,0,1-5.8,1.33H90.12a11.36,11.36,0,0,1-5.31-1.18,8.44,8.44,0,0,1-3.47-3.18,8.59,8.59,0,0,1-1.19-4.44V40.92a.87.87,0,0,1,.28-.68,1,1,0,0,1,.71-.27h4a.91.91,0,0,1,.94,1l0,9.1A3.47,3.47,0,0,0,89,48.44a7.67,7.67,0,0,0,.84-4V41a1,1,0,0,1,.28-.73,1,1,0,0,1,.7-.29h3.94a.89.89,0,0,1,.67.3,1,1,0,0,1,.28.72v3.57a9.87,9.87,0,0,1-2.23,6.82,9.44,9.44,0,0,1-6.34,2.92A4.9,4.9,0,0,0,89,56.16a5.44,5.44,0,0,0,2.63.64h.88A7.52,7.52,0,0,0,96,56a6.1,6.1,0,0,0,2.43-2.2,5.88,5.88,0,0,0,.87-3.15V40.92a.92.92,0,0,1,1-1h4A.91.91,0,0,1,104.94,40.24Z"/><path class="cls-2" d="M131.25,61.35a.91.91,0,0,1-.27-.68V49.45c0-2.88-1.42-4.32-4.28-4.32h-8.64a1,1,0,0,1-.7-.27.89.89,0,0,1-.29-.68V40.92a.88.88,0,0,1,.29-.68,1,1,0,0,1,.7-.27h8.83q5.24,0,7.87,2.31c1.75,1.54,2.63,3.95,2.63,7.21V60.67a.88.88,0,0,1-.28.68,1,1,0,0,1-.7.27h-4.48A.91.91,0,0,1,131.25,61.35Zm-13.89,0a.89.89,0,0,1-.29-.68V49.6a.88.88,0,0,1,.29-.68,1,1,0,0,1,.7-.27h4.47a.92.92,0,0,1,1,1V60.67a.93.93,0,0,1-.27.66.88.88,0,0,1-.68.29h-4.47A1,1,0,0,1,117.36,61.35Z"/><path class="cls-2" d="M144,59.51a9.29,9.29,0,0,1-2.58-7V40.92a.87.87,0,0,1,.28-.68,1,1,0,0,1,.7-.27h9.67c3.61,0,6.22.77,7.81,2.31s2.46,3.82,2.62,6.83c0,.25,0,.84,0,1.78s0,1.57,0,1.82q-.24,4.55-2.71,6.92T151.72,62C148.28,62,145.71,61.17,144,59.51Zm11.27-3.86a4.34,4.34,0,0,0,1.08-3.13c0-.25,0-.8,0-1.63s0-1.34,0-1.59a4.45,4.45,0,0,0-1.13-3.15,4.68,4.68,0,0,0-3.34-1h-4.58v7.24a4.07,4.07,0,0,0,1.13,3.16,4.64,4.64,0,0,0,3.26,1A5.35,5.35,0,0,0,155.26,55.65Z"/><path class="cls-2" d="M179,61.33a1,1,0,0,1-.7.29H166.09a1,1,0,0,1-.7-.27.89.89,0,0,1-.29-.68V57.41a.88.88,0,0,1,.29-.68,1,1,0,0,1,.7-.27h6.29L172,49a6.7,6.7,0,0,0-.76-3.18,2.59,2.59,0,0,0-2.35-1H167a1,1,0,0,1-.95-.94V40.69a1,1,0,0,1,.26-.7.91.91,0,0,1,.69-.29h2q5,0,7.23,2.24t2.44,7.17l.49,11.56A.77.77,0,0,1,179,61.33Z"/></g></g></svg>