<svg xmlns="http://www.w3.org/2000/svg" width="857.461" height="1107.29" viewBox="0 0 857.461 1107.29">
  <g id="Group_560" data-name="Group 560" transform="translate(2490.614 1165.507)">
    <rect id="Rectangle_52" data-name="Rectangle 52" width="857.461" height="1077.331" rx="37.326" transform="translate(-2490.614 -1135.548)" fill="#27c5f2" opacity="0.2"/>
    <line id="Line_103" data-name="Line 103" x2="8.214" y2="32.815" transform="translate(-2317.035 -1120.707)" fill="none" stroke="#708fa0" stroke-linecap="round" stroke-miterlimit="10" stroke-width="8"/>
    <path id="Path_459" data-name="Path 459" d="M-2318.532-1096.451l1.945,7.769a10.123,10.123,0,0,1-7.361,12.277h0a10.122,10.122,0,0,1-12.277-7.361l-1.944-7.768-9.6-38.343" transform="translate(8.655 4.344)" fill="none" stroke="#708fa0" stroke-linecap="round" stroke-miterlimit="10" stroke-width="8"/>
    <rect id="Rectangle_27" data-name="Rectangle 27" width="815.461" height="1025.331" rx="37.326" transform="translate(-2469.614 -1109.548)" fill="#fff"/>
    <path id="Rectangle_28" data-name="Rectangle 28" d="M37.326,0h7.259a0,0,0,0,1,0,0V1025.331a0,0,0,0,1,0,0H37.326A37.326,37.326,0,0,1,0,988V37.326A37.326,37.326,0,0,1,37.326,0Z" transform="translate(-2469.614 -1109.548)" fill="#1de8f7"/>
    <path id="Path_460" data-name="Path 460" d="M-2328.244-1161.541" transform="translate(27.494)" fill="none" stroke="#b3b3b3" stroke-miterlimit="10" stroke-width="8"/>
    <g id="Group_302" data-name="Group 302" transform="translate(-2359.531 -1161.46)">
      <path id="Path_461" data-name="Path 461" d="M-2354.91-1086.605l-15.326-61.223a18.136,18.136,0,0,1,13.189-22h0a18.136,18.136,0,0,1,22,13.189l6.762,27.016" transform="translate(2370.782 1170.371)" fill="none" stroke="#708fa0" stroke-linecap="round" stroke-miterlimit="10" stroke-width="8"/>
      <path id="Path_462" data-name="Path 462" d="M-2363.374-1117.828l14.4,57.519a25.514,25.514,0,0,0,30.945,18.554h0a25.513,25.513,0,0,0,18.553-30.945l-6.674-25.844" transform="translate(2369.947 1164.445)" fill="none" stroke="#708fa0" stroke-linecap="round" stroke-miterlimit="10" stroke-width="8"/>
    </g>
  </g>
</svg>
