<?xml version="1.0" encoding="utf-8"?>
<!-- Generator: Adobe Illustrator 23.0.0, SVG Export Plug-In . SVG Version: 6.00 Build 0)  -->
<svg version="1.1" id="Layer_1" xmlns="http://www.w3.org/2000/svg" xmlns:xlink="http://www.w3.org/1999/xlink" x="0px" y="0px"
	 viewBox="0 0 377.3 166.7" style="enable-background:new 0 0 377.3 166.7;" xml:space="preserve">
<style type="text/css">
	.st0{fill:none;stroke:#708FA0;stroke-width:7;stroke-linecap:round;stroke-miterlimit:10;}
	.st1{fill:#FFFFFF;}
	.st2{enable-background:new    ;}
	.st3{fill:#1C3F55;}
</style>
<path id="Path_459" class="st0" d="M326.5,52.9l1.4,5.5c1,3.9-1.4,7.8-5.2,8.7l0,0c-3.9,1-7.8-1.4-8.7-5.2c0,0,0,0,0,0l-1.4-5.5
	l-6.8-27.3"/>
<line id="Line_118" class="st0" x1="321.3" y1="32.6" x2="327.2" y2="55.9"/>
<path id="Rectangle_27" class="st1" d="M27,37.3h323.3c14.9,0,27,12.1,27,27v75.5c0,14.9-12.1,27-27,27H27c-14.9,0-27-12.1-27-27
	V64.3C0,49.3,12.1,37.3,27,37.3z"/>
<path id="Path_461" class="st0" d="M302.5,63.2l-10.9-43.6c-1.7-6.9,2.5-13.9,9.4-15.7l0,0c6.9-1.7,13.9,2.5,15.7,9.4c0,0,0,0,0,0
	l4.8,19.2"/>
<path id="Path_462" class="st0" d="M295.8,36.7l10.3,41c2.4,9.7,12.3,15.6,22,13.2l0,0c9.7-2.4,15.6-12.3,13.2-22l-4.8-18.4"/>
<g class="st2">
	<path class="st3" d="M121.6,127.7c-0.3-0.3-0.5-0.7-0.5-1.2V84.6c0-0.5,0.2-0.9,0.5-1.2c0.3-0.3,0.7-0.5,1.2-0.5h7.7
		c0.5,0,0.9,0.2,1.2,0.5c0.3,0.3,0.5,0.7,0.5,1.2v41.9c0,0.5-0.2,0.9-0.5,1.2c-0.3,0.3-0.7,0.5-1.2,0.5h-7.7
		C122.3,128.2,121.9,128,121.6,127.7z"/>
	<path class="st3" d="M140.3,119.6c-0.3-0.3-0.5-0.7-0.5-1.2V84.6c0-0.5,0.2-0.9,0.5-1.2c0.3-0.3,0.7-0.5,1.2-0.5h15.3
		c6.2,0,10.7,1.3,13.6,3.8c2.9,2.5,4.4,6.7,4.4,12.5v19.2c0,0.4-0.2,0.8-0.5,1.1c-0.3,0.3-0.7,0.5-1.2,0.5h-7.7
		c-0.5,0-0.9-0.2-1.2-0.5c-0.3-0.3-0.5-0.7-0.5-1.2V99.2c0-4.9-2.4-7.4-7.3-7.4h-5.7v26.7c0,0.4-0.2,0.8-0.5,1.1
		c-0.3,0.3-0.7,0.5-1.2,0.5h-7.7C141,120.1,140.6,119.9,140.3,119.6z"/>
	<path class="st3" d="M181.4,119.6c-0.3-0.3-0.5-0.7-0.5-1.1v-5.6c0-0.5,0.2-0.9,0.5-1.2c0.3-0.3,0.7-0.5,1.1-0.5h16.3v-12
		c0-4.9-2.4-7.3-7.3-7.3h-8.3c-0.5,0-0.9-0.2-1.2-0.5c-0.3-0.3-0.5-0.7-0.5-1.2v-5.6c0-0.5,0.2-0.9,0.5-1.2c0.3-0.3,0.7-0.5,1.1-0.5
		h8.6c6.1,0,10.6,1.3,13.7,3.8s4.6,6.7,4.6,12.4v12h2.3c0.5,0,0.9,0.2,1.2,0.5c0.3,0.3,0.5,0.7,0.5,1.2v5.6c0,0.4-0.2,0.8-0.5,1.1
		c-0.3,0.3-0.7,0.5-1.2,0.5h-30C182.1,120.1,181.8,119.9,181.4,119.6z"/>
	<path class="st3" d="M252.5,86.9c2.8,2.6,4.2,6.6,4.2,11.9v19.6c0,0.4-0.2,0.8-0.5,1.1c-0.3,0.3-0.7,0.5-1.2,0.5h-17.7
		c-0.4,0-0.8-0.2-1.1-0.5c-0.3-0.3-0.5-0.7-0.5-1.1v-5.6c0-0.5,0.2-0.9,0.5-1.2c0.3-0.3,0.7-0.5,1.1-0.5h8.4V99.4
		c0-2.3-0.5-4-1.6-5.3c-1.1-1.3-2.5-1.9-4.2-1.9h-5.1l-5.5,26.2c0,0.5-0.2,0.9-0.5,1.2c-0.3,0.3-0.7,0.5-1.2,0.5H220
		c-0.5,0-0.9-0.2-1.2-0.5c-0.3-0.3-0.4-0.7-0.4-1.2l6.4-26.1h-4.3c-0.5,0-0.9-0.2-1.2-0.5c-0.3-0.3-0.5-0.7-0.5-1.2v-6
		c0-0.5,0.2-0.9,0.5-1.2c0.3-0.3,0.7-0.5,1.1-0.5h20.9C246,83,249.7,84.3,252.5,86.9z"/>
</g>
</svg>
