<svg preserveAspectRatio="none" xmlns="http://www.w3.org/2000/svg" xmlns:xlink="http://www.w3.org/1999/xlink" viewBox="0 0 464.35809 130.97871"><defs><style>.a,.f{fill:none;}.b{fill:#2be8f7;}.c{clip-path:url(#a);}.d{opacity:0.5;}.e{clip-path:url(#b);}.f{stroke:#fff;stroke-miterlimit:10;stroke-width:4px;}</style><clipPath id="a"><path class="a" d="M65.4893,0H398.86881a65.48928,65.48928,0,0,1,65.48928,65.48928v.00013a65.4893,65.4893,0,0,1-65.4893,65.4893H65.48928A65.48928,65.48928,0,0,1,0,65.48943V65.4893A65.4893,65.4893,0,0,1,65.4893,0Z"/></clipPath><clipPath id="b"><rect class="a" x="-110.37923" y="-102.7823" width="599.19057" height="396.37703"/></clipPath></defs><rect class="b" width="464.35809" height="130.97871"/><g class="c"><g class="d"><g class="e"><path class="f" d="M-11.9067,216.55534c-16.93933-24.10179-8.868-49.5657,1.1174-74.19929,1.46023-3.60228,3.09247-7.33339,8.55791-10.35576s15.91905-5.11987,25.17047-3.92909c11.44619,1.47465,15.06022,6.73985,16.60537,11.21,10.00866,29.09646,5.07595,58.6355-14.53589,87.04708-1.90024,2.74573-5.2435,5.95659-12.72614,6.496-6.0069.43353-11.91559-1.237-14.62522-3.27837s-3.0387-4.387-3.71054-6.65-1.88635-4.63554-5.9026-6.35361"/><path class="f" d="M-8.4863,250.90639c-4.97328-2.90966-27.27984-26.24182-31.33544-40.20194s-2.996-28.05234-1.1984-42.07789c2.445-19.06162,6.40526-38.38416,23.79178-56.33756,4.95384-5.11575,13.88458-10.87374,28.48874-11.06552a47.92156,47.92156,0,0,1,29.326,8.97857C66.34541,129.31134,63.81,151.7822,60.68472,173.129,57.6494,193.86156,54.598,214.648,45.22,235.11594c-2.37289,5.17933-5.55693,10.63693-15.31264,14.436S-3.513,253.816-8.4863,250.90639Z"/><path class="f" d="M-61.30219,178.17036c1.88913-22.55116,5.73946-45.1331,15.67-67.4132,4.27922-9.59977,9.86223-19.3145,22.83969-27.7629,6.83634-4.45038,16.97706-8.77565,30.60367-9.52339s27.09894,2.43278,34.89339,6.662,11.04061,9.36013,14.031,14.36644a158.89331,158.89331,0,0,1,11.2376,21.56147A72.33816,72.33816,0,0,1,71.38194,126.951c.61528,2.67843,3.04364,5.19976,3.17794,7.87035.75568,15.07512-2.37343,29.8542,3.91527,44.86823,4.64041,11.07914,13.25988,22.03381,12.70115,33.24487-.52928,10.63653-9.30912,20.96319-19.06869,30.9624-5.94587,6.09161-12.28619,12.12872-18.626,18.16522-5.01377,4.77408-10.29994,9.70423-20.1772,13.27677S7.588,280.744-4.43459,278.24249C-14.68182,276.11038-18.834,271.807-23.28131,268.0311a143.33579,143.33579,0,0,1-14.49045-14.36516,119.8485,119.8485,0,0,1-20.39745-30.87819c-3.02922-6.85712-6.43188-13.97951-4.58989-20.87585C-60.67695,194.11588-61.95851,186.00851-61.30219,178.17036Z"/><path class="f" d="M31.90246,296.401c35.18691-21.16611,71.11785-43.05479,81.70021-67.62976,8.048-18.6902.86993-37.7706-6.30923-56.50973C94.2089,138.109,81.07831,103.86968,57.68713,70.48812c-6.211-8.86379-16.41392-18.958-39.97821-21.60832C-1.291,46.74288-22.221,50.70727-34.27639,56.57446S-51.36444,69.84691-55.65308,77.05827C-98.87249,149.70676-95.29456,226.18811-44.446,298.14993"/><path class="f" d="M89.594,297.0744c69.81181-37.0654,81.18031-85.48939,66.1356-130.40455S101.965,78.41816,80.18556,33.88746C71.73418,16.60791,65.90431-1.34675,77.40543-18.381c10.2717-15.21386,33.65341-28.66094,51.37-42.895s29.894-30.65378,16.26025-45.49726"/><path class="f" d="M155.101,296.93195c36.42528-29.30774,50.10342-62.07636,47.79432-94.35508s-20.15113-64.17511-44.40948-95.178c-15.752-20.132-34.26645-40.02231-44.916-60.61265s-13.15836-42.196,3.00707-62.28279c14.4566-17.9629,42.99748-33.81489,65.26354-50.63614s38.57514-36.02346,26.13135-54.194"/><path class="f" d="M502.084,227.83476c-17.83142-18.81675-35.8099-37.87837-40.51968-57.75337s5.21512-40.97961,38.30939-56.67634"/><path class="f" d="M492.4675,280.67593c-84.04038-78.29086-81.253-168.935,7.57861-246.48951"/><path class="f" d="M466.578,300.68225c-31.85257-36.465-63.97525-73.459-69.03061-111.75583C392.998,154.46269,410.54312,120.2025,425.271,86.13513c28.12872-65.06652,45.44256-133.43434-14.32785-195.47127"/><path class="f" d="M252.93552-107.30782c-6.8169,36.925-39.328,72.9887-37.78229,109.99649.98086,23.531,15.72319,46.63212,26.37219,69.8301,35.85156,78.10217,25.09,159.11854-31.28552,235.52432"/><path class="f" d="M243.688-105.32922C196.52953-56.54593,148.63367-5.6726,163.50414,45.874c9.0888,31.50557,41.327,61.46527,55.47065,92.71175,25.27754,55.84374-8.1351,112.85907-45.0708,167.79694"/><path class="f" d="M258.67227,296.09564c-3.95022-59.51188,110.36646-115.53338,84.90531-174.30473C325.62683,80.35607,239.65465,44.50005,242.69606,2.54559c2.84563-39.25228,84.1147-73.97841,78.9561-113.19825"/><path class="f" d="M299.27069,180.2373c8.089,1.314,28.6441-41.98623,11.2626-62.28755a14.32687,14.32687,0,0,0-6.22-4.5383,25.95463,25.95463,0,0,0-12.54361-1.1493c-5.21188.95214-6.27652,3.49617-6.63824,5.65251A174.98161,174.98161,0,0,0,283.684,165.6366C284.30429,171.445,291.1839,178.92307,299.27069,180.2373Z"/><path class="f" d="M296.464,295.76016c14.6824-37.42584,41.78186-74.00586,61.67612-111.09683C384.78574,134.98364,398.48,84.35536,399.63962,33.698c1.12851-49.42327-9.66416-98.8649-31.07361-147.6436"/><path class="f" d="M350.916-55.81863c32.42675.14451,10.56292,63.01506,15.84414,94.5225.81278,4.84592,1.54068,9.89166-3.48474,14.3724s-17.66168,8.18023-30.45554,7.227a47.61919,47.61919,0,0,1-24.02313-8.36974c-25.8186-17.35117-35.84411-37.34679-28.57638-56.9949C287.571-24.5385,318.48865-55.96273,350.916-55.81863Z"/><path class="f" d="M317.57767,37.11009c-18.95328-14.80716-25.51059-31.392-18.8212-47.603A17.64742,17.64742,0,0,1,307.265-19.9306c5.08259-2.76122,13.8335-4.80834,22.76255-4.40576,9.83169.44324,17.35544,3.72844,20.12283,7.26691s1.746,7.31357.70017,10.978q-5.3227,18.65843-10.6467,37.31685a8.93831,8.93831,0,0,1-3.13629,5.25963c-2.08216,1.63011-6.03739,3.0455-10.85755,3.24864A14.96267,14.96267,0,0,1,317.57767,37.11009Z"/><path class="f" d="M-121.14133,112.346c11.96051-23.13872,25.00508-47.20335,63.53972-65.90119,20.07231-9.73932,46.202-17.55061,66.736-27.15576S44.68745-2.804,36.787-14.72035C30.44393-24.2883,10.74831-31.68219-7.08371-38.9685-48.74523-55.991-84.22675-75.065-113.51715-95.3457"/><path class="f" d="M281.74332,42.05923C263.75769,24.60262,258.7049,5.66867,267.11307-12.76322c6.35367-13.79413,20.11117-26.94125,33.78772-39.97958Q316.776-67.88008,332.65234-83.01753a18.7288,18.7288,0,0,1,12.249-5.55568c5.53585-.518,11.38571.7498,14.59637,2.50606a11.93714,11.93714,0,0,1,5.38159,5.99748C391.10242-26.86656,392.69153,27.6131,369.578,81.01548c-1.85974,4.285-6.49121,9.53781-18.07889,10.02771a33.25183,33.25183,0,0,1-23.79449-8.13253C312.3425,69.72017,281.74332,42.05923,281.74332,42.05923Z"/><path class="f" d="M126.15739,295.44263c47.574-42.78519,76.73188-89.99411,53.56594-135.48828-12.09757-23.75538-37.97589-46.1932-56.11864-69.40954-20.93242-26.80955-31.5057-54.5911-31.402-82.5092.06712-15.352,3.5136-30.94258,18.05673-45.30941,12.0709-11.92454,31.39152-22.62651,46.01173-34.14974s24.57794-24.61706,16.21976-36.97454"/><path class="f" d="M-123.714,44.301c10.96351-6.477,28.97975-10.83286,47.36325-14.26813s37.81445-6.18636,54.83093-10.48749S10.30992,9.01355,13.75254,1.46669c2.67637-5.866-1.85087-11.96129-9.9754-17.08591s-19.64293-9.38608-31.7527-13.27141c-40.78326-13.0852-90.76294-23.027-119.5646-39.95811"/><path class="f" d="M276.26624,86.76913c-3.7316,3.6013-3.4076,7.61012.89877,11.12146a15.69205,15.69205,0,0,0,8.93237,3.16813,21.70392,21.70392,0,0,0,8.77423-1.2203,7.84883,7.84883,0,0,0,4.1666-3.23418c1.64084-2.91882.12341-5.96068-4.22321-8.466a22.81565,22.81565,0,0,0-10.00979-2.76184c-4.23981-.22255-9.09159.91536-9.13047,2.50936"/><path class="f" d="M25.58436,25.79147c-4.93223,1.66788-8.21116,4.04-8.544,6.5169s2.409,5.02036,7.53648,6.60485C29.42029,40.41,35.9975,41.01029,40.522,42.63958c2.76293.99466,4.87176,2.39127,8.569,2.78353a21.05391,21.05391,0,0,0,8.35541-.8838c4.15657-1.39578,5.33892-3.6954,4.56-5.758s-3.2179-3.97883-5.31339-5.91057-3.90694-3.98853-3.33161-6.06085c.39836-1.434,1.87579-2.9782.01551-4.24269s-6.40913-1.65034-10.22118-1.385c-7.55815.526-13.04573,2.89375-17.89419,5.11451"/></g></g></g></svg>