<?xml version="1.0" encoding="utf-8"?>
<!-- Generator: Adobe Illustrator 23.0.0, SVG Export Plug-In . SVG Version: 6.00 Build 0)  -->
<svg version="1.1" id="Layer_1" xmlns="http://www.w3.org/2000/svg" xmlns:xlink="http://www.w3.org/1999/xlink" x="0px" y="0px"
	 viewBox="0 0 135.6 137.4" style="enable-background:new 0 0 135.6 137.4;" xml:space="preserve">
<style type="text/css">
	.st0{fill:#1C3F55;}
	.st1{fill:#2CBF37;}
	.st2{fill:#FFFFFF;}
</style>
<g>
	<path id="Rectangle_39" class="st0" d="M27,13.8h69.6c14.9,0,27,12.1,27,27v69.6c0,14.9-12.1,27-27,27H27c-14.9,0-27-12.1-27-27
		V40.8C0,25.9,12.1,13.8,27,13.8z"/>
	<g id="Path_534" transform="translate(8 8)">
		<path class="st1" d="M108.1,27c-2.1,0-4.1-0.4-6-1.2c-1.8-0.8-3.5-1.9-4.9-3.3c-1.4-1.4-2.5-3.1-3.3-4.9c-0.8-1.9-1.2-3.9-1.2-6
			s0.4-4.1,1.2-6c0.8-1.8,1.9-3.5,3.3-4.9c1.4-1.4,3.1-2.5,4.9-3.3c1.9-0.8,3.9-1.2,6-1.2s4.1,0.4,6,1.2c1.8,0.8,3.5,1.9,4.9,3.3
			s2.5,3.1,3.3,4.9c0.8,1.9,1.2,3.9,1.2,6s-0.4,4.1-1.2,6c-0.8,1.8-1.9,3.5-3.3,4.9c-1.4,1.4-3.1,2.5-4.9,3.3
			C112.2,26.6,110.2,27,108.1,27z"/>
		<path class="st2" d="M108.1,0c-6.4,0-11.5,5.1-11.5,11.5S101.7,23,108.1,23s11.5-5.1,11.5-11.5S114.4,0,108.1,0 M108.1-8
			c10.8,0,19.5,8.7,19.5,19.5S118.8,31,108.1,31s-19.5-8.7-19.5-19.5S97.3-8,108.1-8z"/>
	</g>
</g>
</svg>
