<svg id="b5b75fd0-2a88-4c36-a697-fbdac7a1ef87" data-name="af24277a-818d-4c8b-9f60-dd58099a2de4" xmlns="http://www.w3.org/2000/svg" viewBox="0 0 295.20001 103.90002"><defs><style>.bb4d9616-d47c-4123-90cd-bd1be3181537{fill:#2be8f7;stroke:#2be8f7;stroke-width:6px;}.ba0d4974-4424-4172-9c96-621c8171b989{fill:#fff;}</style></defs><title>to_hand</title><path id="f04a1980-9f11-4119-b000-1b0fbd9dabca" data-name="Rectangle 86" class="bb4d9616-d47c-4123-90cd-bd1be3181537" d="M26,3H269.2a23.00329,23.00329,0,0,1,23,23V77.9a23.00328,23.00328,0,0,1-23,23H26a23.00328,23.00328,0,0,1-23-23V26A23.00329,23.00329,0,0,1,26,3Z"/><path class="ba0d4974-4424-4172-9c96-621c8171b989" d="M120.468,39.95792a1.02553,1.02553,0,0,1,.29394.75683V51.71866a12.343,12.343,0,0,1-1.67969,6.48828,11.38365,11.38365,0,0,1-4.57812,4.30566,13.33713,13.33713,0,0,1-6.42578,1.46973h-4.03223a12.63573,12.63573,0,0,1-5.87988-1.30176A9.31347,9.31347,0,0,1,94.323,59.15225a9.43877,9.43877,0,0,1-1.32276-4.91406V40.71475a.98918.98918,0,0,1,.315-.75683,1.09811,1.09811,0,0,1,.77685-.294h4.41016a1.00693,1.00693,0,0,1,1.0498,1.05078l.042,10.08008a3.8728,3.8728,0,0,0,3.19239-1.74316,8.57854,8.57854,0,0,0,.92382-4.38965V40.79874a1.10886,1.10886,0,0,1,.31495-.81934,1.05571,1.05571,0,0,1,.77685-.31543h4.36817a.98007.98007,0,0,1,.73486.33594,1.12925,1.12925,0,0,1,.31494.79883V44.746a10.93465,10.93465,0,0,1-2.478,7.56055,10.41611,10.41611,0,0,1-7.01367,3.2334,5.43045,5.43045,0,0,0,2.12109,2.05859,6.03848,6.03848,0,0,0,2.919.71387h.96582a8.3529,8.3529,0,0,0,3.86377-.88184,6.67186,6.67186,0,0,0,2.68848-2.43652,6.46761,6.46761,0,0,0,.96582-3.48535V40.71475A1.00693,1.00693,0,0,1,115.302,39.664h4.41016A1.02672,1.02672,0,0,1,120.468,39.95792Z"/><path class="ba0d4974-4424-4172-9c96-621c8171b989" d="M125.23508,53.39835a.98567.98567,0,0,1-.31494-.75586V40.71475a.98921.98921,0,0,1,.31494-.75683,1.09811,1.09811,0,0,1,.77685-.294h5.25a1.007,1.007,0,0,1,1.0503,1.05078V52.64249a1.04654,1.04654,0,0,1-.29395.73535.98849.98849,0,0,1-.75635.31445h-5.25A1.09389,1.09389,0,0,1,125.23508,53.39835Z"/><path class="ba0d4974-4424-4172-9c96-621c8171b989" d="M153.64767,63.331a1.12822,1.12822,0,0,1-.79785.31543h-5.25a.96907.96907,0,0,1-.71386-.29394,1.17455,1.17455,0,0,1-.33594-.75586l-.63037-3.1084a9.00265,9.00265,0,0,1-2.436,2.05859,23.7266,23.7266,0,0,1-3.04492,1.57422,15.113,15.113,0,0,1-2.835.86133l-.294.042q-.71484,0-.71386-.67187V58.81631q0-.71337.88183-1.0498.2937-.126,1.91114-.60937a16.61874,16.61874,0,0,0,2.625-.98633,8.388,8.388,0,0,0,2.772-2.26856L143.988,49.996a9.10818,9.10818,0,0,0-1.30225-3.56933,3.06286,3.06286,0,0,0-2.604-1.04981H138.612a1.07721,1.07721,0,0,1-1.05029-1.05078V40.4628a1.09425,1.09425,0,0,1,.29394-.77734A.98779.98779,0,0,1,138.612,39.37h1.5957a13.00833,13.00833,0,0,1,5.73291,1.07128,7.93014,7.93014,0,0,1,3.42334,3.29688,20.58523,20.58523,0,0,1,2.01563,6.04785l2.52,12.81055A.75149.75149,0,0,1,153.64767,63.331Z"/><path class="ba0d4974-4424-4172-9c96-621c8171b989" d="M173.21945,63.35245a1.01984,1.01984,0,0,1-.29394-.75586V50.164q0-4.78711-4.7461-4.78711h-9.57617a1.09466,1.09466,0,0,1-.77685-.29492.98563.98563,0,0,1-.315-.75586V40.71475a.98918.98918,0,0,1,.315-.75683,1.09811,1.09811,0,0,1,.77685-.294h9.78613q5.79639,0,8.71485,2.5625,2.9187,2.562,2.91943,7.97949V62.59659a.986.986,0,0,1-.31543.75586,1.09471,1.09471,0,0,1-.77685.29394h-4.95606A1.02061,1.02061,0,0,1,173.21945,63.35245Zm-15.39306,0a.98563.98563,0,0,1-.315-.75586V50.33194a.98853.98853,0,0,1,.315-.75586,1.09814,1.09814,0,0,1,.77685-.29394h4.95606a1.00689,1.00689,0,0,1,1.05029,1.0498V62.59659a1.04419,1.04419,0,0,1-.29395.73437.98927.98927,0,0,1-.75634.31543h-4.95606A1.09389,1.09389,0,0,1,157.82639,63.35245Z"/><path class="ba0d4974-4424-4172-9c96-621c8171b989" d="M200.2673,42.289q2.39428,2.62647,2.394,7.917a12.3492,12.3492,0,0,1-3.14991,8.73633,16.7223,16.7223,0,0,1-7.896,4.7461l-1.72217.5039a.81347.81347,0,0,1-.77686-.29394,1.1937,1.1937,0,0,1-.35693-.83985V58.81631a1.1984,1.1984,0,0,1,.29395-.77734,2.07262,2.07262,0,0,1,.75586-.56641l1.34423-.54589a6.77489,6.77489,0,0,0,3.04493-2.24707,7.0342,7.0342,0,0,0,1.11279-4.26368,5.6569,5.6569,0,0,0-.92383-3.69531q-.92432-1.05028-3.44385-1.0498h-1.09228l-5.62793-.042a1.00693,1.00693,0,0,1-1.04981-1.05078V34.87686a.98919.98919,0,0,1,.31494-.75683,1.04537,1.04537,0,0,1,.73487-.294h4.53613a1.00694,1.00694,0,0,1,1.04981,1.05078V39.664h2.604Q197.87278,39.664,200.2673,42.289Z"/></svg>