<?xml version="1.0" encoding="utf-8"?>
<!-- Generator: Adobe Illustrator 23.0.0, SVG Export Plug-In . SVG Version: 6.00 Build 0)  -->
<svg version="1.1" id="Layer_1" xmlns="http://www.w3.org/2000/svg" xmlns:xlink="http://www.w3.org/1999/xlink" x="0px" y="0px"
	 viewBox="0 0 767.3 1343.4" style="enable-background:new 0 0 767.3 1343.4;" xml:space="preserve">
<style type="text/css">
	.st0{fill:none;stroke:#708FA0;stroke-width:8;stroke-linecap:round;stroke-miterlimit:10;}
	.st1{fill:#FFFFFF;}
</style>
<g id="Group_303" transform="translate(0 3.969)">
	<line id="Line_103" class="st0" x1="143.6" y1="39" x2="151.3" y2="69.9"/>
	<path id="Path_459" class="st0" d="M150.3,65.9l1.8,7.3c1.3,5.1-1.8,10.3-6.9,11.6c0,0,0,0,0,0l0,0c-5.1,1.3-10.3-1.8-11.6-6.9
		l-1.8-7.3l-9-36.1"/>
	<path id="Rectangle_27" class="st1" d="M37.3,49.5h692.6c20.6,0,37.3,16.7,37.3,37.3v1215.2c0,20.6-16.7,37.3-37.3,37.3H37.3
		c-20.6,0-37.3-16.7-37.3-37.3V86.9C0,66.2,16.7,49.5,37.3,49.5z"/>
	<g id="Group_302" transform="translate(103.578 0.076)">
		<path id="Path_461" class="st0" d="M14.9,79.4L0.5,21.8C-1.8,12.7,3.8,3.4,12.9,1.1c0,0,0,0,0,0l0,0c9.1-2.3,18.4,3.3,20.7,12.4
			c0,0,0,0,0,0L40,38.9"/>
		<path id="Path_462" class="st0" d="M6.2,44.5l13.5,54.1C23,111.4,36,119.3,48.8,116l0,0c12.9-3.2,20.7-16.3,17.5-29.1L60,62.6"/>
	</g>
</g>
</svg>
