<?xml version="1.0" encoding="utf-8"?>
<!-- Generator: Adobe Illustrator 25.0.1, SVG Export Plug-In . SVG Version: 6.00 Build 0)  -->
<svg version="1.1" id="Layer_1" xmlns="http://www.w3.org/2000/svg" xmlns:xlink="http://www.w3.org/1999/xlink" x="0px" y="0px"
	 viewBox="0 0 295.2 103.9" style="enable-background:new 0 0 295.2 103.9;" xml:space="preserve">
<style type="text/css">
	.st0{fill:#2BE8F7;stroke:#2BE8F7;stroke-width:6;}
	.st1{enable-background:new    ;}
	.st2{fill:#FFFFFF;}
</style>
<g id="Group_451" transform="translate(-682.239 -1326.677)">
	<path id="Rectangle_86" class="st0" d="M708.2,1329.7h243.2c12.7,0,23,10.3,23,23v51.9c0,12.7-10.3,23-23,23H708.2
		c-12.7,0-23-10.3-23-23v-51.9C685.2,1340,695.5,1329.7,708.2,1329.7z"/>
	<g class="st1">
		<path class="st2" d="M750.1,1371.5c2,1.7,3.1,4.5,3.1,8.2v13.2c0,0.3-0.1,0.5-0.3,0.8c-0.2,0.2-0.5,0.3-0.8,0.3h-5.2
			c-0.3,0-0.6-0.1-0.8-0.3c-0.2-0.2-0.3-0.5-0.3-0.8v-13c0-3.3-1.7-5-5-5h-2.9c-0.5,2-0.7,4.2-0.7,6.5l0.4,11.6
			c0,0.3-0.1,0.6-0.3,0.8c-0.2,0.2-0.5,0.3-0.8,0.3l-9.3,0c-0.3,0-0.6-0.1-0.8-0.3c-0.2-0.2-0.3-0.5-0.3-0.8v-3.5
			c0-0.3,0.1-0.6,0.3-0.8c0.2-0.2,0.5-0.3,0.8-0.3h3.6v-6.9c-0.1-2.4,0.2-4.6,0.7-6.5h-2.6c-0.3,0-0.6-0.1-0.8-0.3
			c-0.2-0.2-0.3-0.5-0.3-0.8v-3.8c0-0.3,0.1-0.6,0.3-0.8c0.2-0.2,0.5-0.3,0.8-0.3H741C745.1,1368.9,748.1,1369.7,750.1,1371.5z"/>
		<path class="st2" d="M758.3,1383.3c-0.2-0.2-0.3-0.5-0.3-0.8V1370c0-0.3,0.1-0.6,0.3-0.8c0.2-0.2,0.5-0.3,0.8-0.3h5.5
			c0.3,0,0.6,0.1,0.8,0.3c0.2,0.2,0.3,0.5,0.3,0.8v12.5c0,0.3-0.1,0.6-0.3,0.8c-0.2,0.2-0.5,0.3-0.8,0.3h-5.5
			C758.8,1383.6,758.5,1383.5,758.3,1383.3z"/>
		<path class="st2" d="M770.2,1393.7c-0.2-0.2-0.3-0.5-0.3-0.8v-3.8c0-0.3,0.1-0.6,0.3-0.8c0.2-0.2,0.5-0.3,0.8-0.3h11v-8.1
			c0-3.3-1.7-5-5-5h-5.6c-0.3,0-0.6-0.1-0.8-0.3c-0.2-0.2-0.3-0.5-0.3-0.8v-3.8c0-0.3,0.1-0.6,0.3-0.8c0.2-0.2,0.5-0.3,0.8-0.3h5.9
			c4.1,0,7.2,0.9,9.3,2.6c2.1,1.7,3.1,4.5,3.1,8.4v8.1h1.5c0.3,0,0.6,0.1,0.8,0.3c0.2,0.2,0.3,0.5,0.3,0.8v3.8
			c0,0.3-0.1,0.5-0.3,0.8c-0.2,0.2-0.5,0.3-0.8,0.3H771C770.7,1394,770.4,1393.9,770.2,1393.7z"/>
		<path class="st2" d="M812.6,1393.7c-0.2-0.2-0.3-0.5-0.3-0.8v-13c0-3.3-1.7-5-5-5h-10c-0.3,0-0.6-0.1-0.8-0.3
			c-0.2-0.2-0.3-0.5-0.3-0.8v-3.8c0-0.3,0.1-0.6,0.3-0.8c0.2-0.2,0.5-0.3,0.8-0.3h10.3c4,0,7.1,0.9,9.1,2.7c2,1.8,3.1,4.6,3.1,8.4
			v13c0,0.3-0.1,0.6-0.3,0.8c-0.2,0.2-0.5,0.3-0.8,0.3h-5.2C813,1394,812.8,1393.9,812.6,1393.7z M796.4,1393.7
			c-0.2-0.2-0.3-0.5-0.3-0.8v-12.8c0-0.3,0.1-0.6,0.3-0.8c0.2-0.2,0.5-0.3,0.8-0.3h5.2c0.3,0,0.6,0.1,0.8,0.3
			c0.2,0.2,0.3,0.5,0.3,0.8v12.8c0,0.3-0.1,0.5-0.3,0.8c-0.2,0.2-0.5,0.3-0.8,0.3h-5.2C796.9,1394,796.7,1393.9,796.4,1393.7z"/>
		<path class="st2" d="M839.9,1374.9h-7c-0.3,0-0.5-0.1-0.8-0.3c-0.2-0.2-0.3-0.5-0.3-0.8v-3.8c0-0.3,0.1-0.6,0.3-0.8
			c0.2-0.2,0.5-0.3,0.8-0.3h7.3c4.1,0,7.2,0.8,9.2,2.5c2,1.7,3,4.4,3,8.3v18.7c0,0.3-0.1,0.6-0.3,0.8c-0.2,0.2-0.5,0.3-0.8,0.3H846
			c-0.3,0-0.6-0.1-0.8-0.3c-0.2-0.2-0.3-0.5-0.3-0.8v-18.5C844.9,1376.5,843.2,1374.9,839.9,1374.9z"/>
		<path class="st2" d="M860,1391.6c-2-1.9-3-4.6-3-8.2V1370c0-0.3,0.1-0.6,0.3-0.8c0.2-0.2,0.5-0.3,0.8-0.3h11.2
			c4.2,0,7.2,0.9,9.1,2.7c1.8,1.8,2.9,4.4,3,7.9c0,0.3,0,1,0,2.1c0,1.1,0,1.8,0,2.1c-0.2,3.5-1.2,6.2-3.1,8c-1.9,1.8-5,2.8-9.4,2.8
			C865,1394.4,862,1393.5,860,1391.6z M873.1,1387.1c0.8-0.7,1.2-1.9,1.3-3.6c0-0.3,0-0.9,0-1.9c0-0.9,0-1.6,0-1.8
			c-0.1-1.6-0.5-2.9-1.3-3.7c-0.8-0.8-2.1-1.2-3.9-1.2h-5.3v8.4c0,1.6,0.4,2.9,1.3,3.7c0.9,0.8,2.1,1.2,3.8,1.2
			C870.9,1388.1,872.3,1387.8,873.1,1387.1z"/>
		<path class="st2" d="M907.7,1371.6c1.9,1.8,2.8,4.5,2.8,8.1v13.3c0,0.3-0.1,0.5-0.3,0.8c-0.2,0.2-0.5,0.3-0.8,0.3h-12
			c-0.3,0-0.6-0.1-0.8-0.3s-0.3-0.5-0.3-0.8v-3.8c0-0.3,0.1-0.6,0.3-0.8s0.5-0.3,0.8-0.3h5.7v-8.1c0-1.5-0.4-2.7-1.1-3.6
			s-1.7-1.3-2.9-1.3h-3.4l-3.7,17.7c0,0.3-0.1,0.6-0.4,0.8s-0.5,0.3-0.8,0.3h-5.1c-0.3,0-0.6-0.1-0.8-0.3c-0.2-0.2-0.3-0.5-0.2-0.8
			l4.3-17.7h-2.9c-0.3,0-0.6-0.1-0.8-0.3s-0.3-0.5-0.3-0.8v-4c0-0.3,0.1-0.6,0.3-0.8c0.2-0.2,0.5-0.3,0.8-0.3h14.1
			C903.3,1368.9,905.8,1369.8,907.7,1371.6z"/>
		<path class="st2" d="M931.7,1371.6c1.7,1.8,2.5,4.6,2.5,8.3c0,3.7-1.1,6.8-3.3,9.2c-2.2,2.4-5,4-8.3,5l-1.8,0.5
			c-0.3,0.1-0.6,0-0.8-0.3c-0.2-0.3-0.4-0.6-0.4-0.9v-4.4c0-0.3,0.1-0.6,0.3-0.8c0.2-0.2,0.5-0.4,0.8-0.6l1.4-0.6
			c1.3-0.5,2.4-1.3,3.2-2.4c0.8-1,1.2-2.5,1.2-4.5c0-1.8-0.3-3.1-1-3.9c-0.6-0.7-1.8-1.1-3.6-1.1h-1h-0.1l-5.9,0
			c-0.3,0-0.6-0.1-0.8-0.3s-0.3-0.5-0.3-0.8v-10.2c0-0.3,0.1-0.6,0.3-0.8c0.2-0.2,0.5-0.3,0.8-0.3h4.8c0.3,0,0.6,0.1,0.8,0.3
			s0.3,0.5,0.3,0.8v5h2.7C927.3,1368.9,930,1369.8,931.7,1371.6z"/>
	</g>
</g>
</svg>
