<?xml version="1.0" encoding="utf-8"?>
<!-- Generator: Adobe Illustrator 25.0.1, SVG Export Plug-In . SVG Version: 6.00 Build 0)  -->
<svg version="1.1" id="Layer_1" xmlns="http://www.w3.org/2000/svg" xmlns:xlink="http://www.w3.org/1999/xlink" x="0px" y="0px"
	 viewBox="0 0 295.2 103.9" style="enable-background:new 0 0 295.2 103.9;" xml:space="preserve">
<style type="text/css">
	.st0{fill:#2BE8F7;stroke:#2BE8F7;stroke-width:6;}
	.st1{enable-background:new    ;}
	.st2{fill:#FFFFFF;}
</style>
<g id="Group_531" transform="translate(-392.239 -1326.677)">
	<path id="Rectangle_19" class="st0" d="M418.2,1329.7h243.2c12.7,0,23,10.3,23,23v51.9c0,12.7-10.3,23-23,23H418.2
		c-12.7,0-23-10.3-23-23v-51.9C395.2,1340,405.5,1329.7,418.2,1329.7z"/>
	<g class="st1">
		<path class="st2" d="M444.3,1399.1c-0.2-0.2-0.3-0.5-0.3-0.8V1370c0-0.3,0.1-0.6,0.3-0.8c0.2-0.2,0.5-0.3,0.8-0.3h5.2
			c0.3,0,0.6,0.1,0.8,0.3c0.2,0.2,0.3,0.5,0.3,0.8v28.4c0,0.3-0.1,0.6-0.3,0.8c-0.2,0.2-0.5,0.3-0.8,0.3h-5.2
			C444.8,1399.5,444.6,1399.4,444.3,1399.1z"/>
		<path class="st2" d="M457,1393.7c-0.2-0.2-0.3-0.5-0.3-0.8V1370c0-0.3,0.1-0.6,0.3-0.8c0.2-0.2,0.5-0.3,0.8-0.3h10.4
			c4.2,0,7.2,0.9,9.2,2.6s3,4.5,3,8.5v13c0,0.3-0.1,0.5-0.3,0.8c-0.2,0.2-0.5,0.3-0.8,0.3h-5.2c-0.3,0-0.6-0.1-0.8-0.3
			c-0.2-0.2-0.3-0.5-0.3-0.8v-13c0-3.3-1.7-5-5-5h-3.9v18c0,0.3-0.1,0.5-0.3,0.8c-0.2,0.2-0.5,0.3-0.8,0.3h-5.2
			C457.5,1394,457.2,1393.9,457,1393.7z"/>
		<path class="st2" d="M484.9,1393.7c-0.2-0.2-0.3-0.5-0.3-0.8v-3.8c0-0.3,0.1-0.6,0.3-0.8c0.2-0.2,0.5-0.3,0.8-0.3h11v-8.1
			c0-3.3-1.7-5-5-5h-5.6c-0.3,0-0.6-0.1-0.8-0.3c-0.2-0.2-0.3-0.5-0.3-0.8v-3.8c0-0.3,0.1-0.6,0.3-0.8c0.2-0.2,0.5-0.3,0.8-0.3h5.9
			c4.1,0,7.2,0.9,9.3,2.6c2.1,1.7,3.1,4.5,3.1,8.4v8.1h1.5c0.3,0,0.6,0.1,0.8,0.3c0.2,0.2,0.3,0.5,0.3,0.8v3.8
			c0,0.3-0.1,0.5-0.3,0.8c-0.2,0.2-0.5,0.3-0.8,0.3h-20.3C485.3,1394,485.1,1393.9,484.9,1393.7z"/>
		<path class="st2" d="M532.9,1371.6c1.9,1.8,2.8,4.5,2.8,8.1v13.3c0,0.3-0.1,0.5-0.3,0.8c-0.2,0.2-0.5,0.3-0.8,0.3h-12
			c-0.3,0-0.6-0.1-0.8-0.3c-0.2-0.2-0.3-0.5-0.3-0.8v-3.8c0-0.3,0.1-0.6,0.3-0.8c0.2-0.2,0.5-0.3,0.8-0.3h5.7v-8.1
			c0-1.5-0.4-2.7-1.1-3.6c-0.7-0.9-1.7-1.3-2.9-1.3h-3.4l-3.7,17.7c0,0.3-0.1,0.6-0.4,0.8c-0.2,0.2-0.5,0.3-0.8,0.3H511
			c-0.3,0-0.6-0.1-0.8-0.3c-0.2-0.2-0.3-0.5-0.2-0.8l4.3-17.7h-2.9c-0.3,0-0.6-0.1-0.8-0.3c-0.2-0.2-0.3-0.5-0.3-0.8v-4
			c0-0.3,0.1-0.6,0.3-0.8c0.2-0.2,0.5-0.3,0.8-0.3h14.1C528.6,1368.9,531.1,1369.8,532.9,1371.6z"/>
		<path class="st2" d="M540.2,1393.7c-0.2-0.2-0.3-0.5-0.3-0.8v-3.8c0-0.3,0.1-0.6,0.3-0.8c0.2-0.2,0.5-0.3,0.8-0.3h11v-8.1
			c0-3.3-1.7-5-5-5h-5.6c-0.3,0-0.6-0.1-0.8-0.3c-0.2-0.2-0.3-0.5-0.3-0.8v-3.8c0-0.3,0.1-0.6,0.3-0.8c0.2-0.2,0.5-0.3,0.8-0.3h5.9
			c4.1,0,7.2,0.9,9.3,2.6c2.1,1.7,3.1,4.5,3.1,8.4v8.1h1.5c0.3,0,0.6,0.1,0.8,0.3c0.2,0.2,0.3,0.5,0.3,0.8v3.8
			c0,0.3-0.1,0.5-0.3,0.8c-0.2,0.2-0.5,0.3-0.8,0.3h-20.3C540.7,1394,540.4,1393.9,540.2,1393.7z"/>
		<path class="st2" d="M575.4,1399.1c-0.2-0.2-0.3-0.5-0.3-0.8V1370c0-0.3,0.1-0.6,0.3-0.8c0.2-0.2,0.5-0.3,0.8-0.3h5.2
			c0.3,0,0.6,0.1,0.8,0.3c0.2,0.2,0.3,0.5,0.3,0.8v28.4c0,0.3-0.1,0.6-0.3,0.8c-0.2,0.2-0.5,0.3-0.8,0.3h-5.2
			C575.9,1399.5,575.6,1399.4,575.4,1399.1z"/>
		<path class="st2" d="M588,1393.7c-0.2-0.2-0.3-0.5-0.3-0.8V1370c0-0.3,0.1-0.6,0.3-0.8c0.2-0.2,0.5-0.3,0.8-0.3h5.5
			c0.3,0,0.6,0.1,0.8,0.3c0.2,0.2,0.3,0.5,0.3,0.8v22.9c0,0.3-0.1,0.5-0.3,0.8s-0.5,0.3-0.8,0.3h-5.5
			C588.5,1394,588.3,1393.9,588,1393.7z"/>
		<path class="st2" d="M600.8,1383.3c-0.2-0.2-0.3-0.5-0.3-0.8V1370c0-0.3,0.1-0.6,0.3-0.8c0.2-0.2,0.5-0.3,0.8-0.3h5.5
			c0.3,0,0.6,0.1,0.8,0.3c0.2,0.2,0.3,0.5,0.3,0.8v12.5c0,0.3-0.1,0.6-0.3,0.8c-0.2,0.2-0.5,0.3-0.8,0.3h-5.5
			C601.3,1383.6,601,1383.5,600.8,1383.3z"/>
		<path class="st2" d="M635.9,1369.2c0.2,0.2,0.3,0.5,0.3,0.8v13c0,2.9-1,5.3-3,7.2s-4.9,3.2-8.5,3.8l-11.3,2.4
			c-0.3,0.1-0.6,0-0.9-0.2c-0.2-0.2-0.4-0.5-0.4-0.8v-3.8c0-0.3,0.1-0.5,0.3-0.8c0.2-0.2,0.4-0.4,0.7-0.4l4.9-1.2l-5.2-18.6
			c-0.1-0.5-0.2-0.8-0.2-0.9c0-0.2,0.1-0.4,0.3-0.6c0.2-0.2,0.4-0.3,0.6-0.3h5.7c0.3,0,0.5,0.1,0.7,0.2s0.3,0.3,0.4,0.5l4.4,18
			c1.6-0.6,2.7-1.4,3.3-2.5c0.6-1,0.9-2.5,0.9-4.2V1370c0-0.3,0.1-0.6,0.3-0.8c0.2-0.2,0.5-0.3,0.8-0.3h5.2
			C635.5,1368.9,635.7,1369,635.9,1369.2z"/>
	</g>
</g>
</svg>
