<svg id="f03e336e-b2ee-4126-8c63-bd5db0b9033d" data-name="f2a354d4-fbfd-453a-a045-7b52f55d16c6" xmlns="http://www.w3.org/2000/svg" viewBox="0 0 226 101.7"><defs><style>.bbd87138-8f74-424d-bab7-9fcabde29dc7{fill:#2be8f7;stroke:#2be8f7;stroke-linecap:round;stroke-linejoin:round;stroke-width:6px;}.e973e546-ac20-4f83-8d74-9a2312aafa4e{fill:#fff;}</style></defs><title>back</title><g id="b098714f-ee51-46ce-b64b-e3dfb18832c6" data-name="a6194066-d97d-48ad-b4e5-bc9a1de83822"><path id="a243c903-2505-4bf8-8604-c0f00c976880" data-name="a0ad91f5-f37c-4dfc-84f1-616cfb4038ef" class="bbd87138-8f74-424d-bab7-9fcabde29dc7" d="M26,3H200a23.00326,23.00326,0,0,1,23,23V75.7a23.00328,23.00328,0,0,1-23,23H26a23.00328,23.00328,0,0,1-23-23V26A23.00326,23.00326,0,0,1,26,3Z"/></g><path class="e973e546-ac20-4f83-8d74-9a2312aafa4e" d="M46.02494,43.19408q2.57081,2.20166,2.57129,6.86328V61.19505a.922.922,0,0,1-.25879.64746.87237.87237,0,0,1-.666.27735H43.30521a.9644.9644,0,0,1-.68457-.25879.86992.86992,0,0,1-.27734-.666V50.2429q0-4.21875-4.18115-4.21875H35.75736a22.44511,22.44511,0,0,0-.55518,5.43946l.2959,9.73144a.86992.86992,0,0,1-.27734.666.9644.9644,0,0,1-.68457.25879l-7.84375-.03711a.96358.96358,0,0,1-.68457-.25879.86992.86992,0,0,1-.27734-.666V58.23509a.86991.86991,0,0,1,.27734-.666.96431.96431,0,0,1,.68457-.25977h2.99707V51.50072a19.99183,19.99183,0,0,1,.55469-5.47657H28.06107a.96318.96318,0,0,1-.68408-.25879.86739.86739,0,0,1-.27783-.666V41.91771a.87031.87031,0,0,1,.27783-.666.96748.96748,0,0,1,.68408-.25879H38.38431Q43.45268,40.9929,46.02494,43.19408Z"/><path class="e973e546-ac20-4f83-8d74-9a2312aafa4e" d="M52.90629,53.09154a.8685.8685,0,0,1-.27735-.666V41.91771a.86993.86993,0,0,1,.27735-.666.9678.9678,0,0,1,.68457-.25879h4.62451a.888.888,0,0,1,.92578.92481V52.42552a.92174.92174,0,0,1-.25977.64746.86677.86677,0,0,1-.666.27735H53.59086A.96355.96355,0,0,1,52.90629,53.09154Z"/><path class="e973e546-ac20-4f83-8d74-9a2312aafa4e" d="M62.93314,61.84251a.88684.88684,0,0,1-.27734-.64746V58.01243a.86966.86966,0,0,1,.27734-.666.92078.92078,0,0,1,.64746-.25879h9.28711V50.2429q0-4.18066-4.18164-4.18164H63.95072a.86535.86535,0,0,1-.666-.27734.9627.9627,0,0,1-.25976-.68457V41.91771a.869.869,0,0,1,.27832-.666.92082.92082,0,0,1,.64746-.25879h4.9209q5.17968,0,7.82519,2.18262,2.64552,2.18409,2.64551,7.06738v6.84473h1.29492a.88652.88652,0,0,1,.92481.9248v3.18262a.92417.92417,0,0,1-.25879.64746.87164.87164,0,0,1-.666.27735H63.5806A.88749.88749,0,0,1,62.93314,61.84251Z"/><path class="e973e546-ac20-4f83-8d74-9a2312aafa4e" d="M98.54642,61.86107a.89765.89765,0,0,1-.25976-.666V50.2429q0-4.21875-4.18067-4.21875H85.66947a.96117.96117,0,0,1-.68359-.25879.86609.86609,0,0,1-.27832-.666V41.91771a.869.869,0,0,1,.27832-.666.96546.96546,0,0,1,.68359-.25879h8.62109q5.10645,0,7.67774,2.25684,2.57081,2.25732,2.57129,7.03027v10.915a.86822.86822,0,0,1-.27735.666.96356.96356,0,0,1-.68457.25879H99.21146A.897.897,0,0,1,98.54642,61.86107Zm-13.56054,0a.869.869,0,0,1-.27832-.666V50.39036a.87045.87045,0,0,1,.27832-.666.96542.96542,0,0,1,.68359-.25879h4.36621a.88652.88652,0,0,1,.92481.9248V61.19505a.91991.91991,0,0,1-.25879.64746.87166.87166,0,0,1-.666.27735H85.66947A.96122.96122,0,0,1,84.98588,61.86107Z"/><path class="e973e546-ac20-4f83-8d74-9a2312aafa4e" d="M121.12748,46.02415h-5.88281a.94781.94781,0,0,1-.92579-.9248V41.91771a.87164.87164,0,0,1,.27735-.666.92478.92478,0,0,1,.64844-.25879h6.10449q5.17968,0,7.69629,2.08985,2.51512,2.0918,2.51562,6.9375V65.78294a.88652.88652,0,0,1-.9248.92481h-4.36621a.96946.96946,0,0,1-.68457-.25879.87311.87311,0,0,1-.27735-.666v-15.54Q125.30814,46.02415,121.12748,46.02415Z"/><path class="e973e546-ac20-4f83-8d74-9a2312aafa4e" d="M138.03568,60.06615a9.08191,9.08191,0,0,1-2.51562-6.86329V41.91771a.87163.87163,0,0,1,.27734-.666.96949.96949,0,0,1,.68457-.25879h9.43555q5.28954,0,7.62207,2.25684,2.33057,2.25732,2.55273,6.66016.03663.36914.03711,1.73828,0,1.4077-.03711,1.77636a9.60788,9.60788,0,0,1-2.64551,6.75293q-2.42432,2.31153-7.8623,2.3125Q140.55131,62.49,138.03568,60.06615Zm11.00781-3.77442A4.22125,4.22125,0,0,0,150.09818,53.24q.03661-.3706.03711-1.59179,0-1.18361-.03711-1.55371a4.32094,4.32094,0,0,0-1.11035-3.07129,4.55176,4.55176,0,0,0-3.25586-.999h-4.47656v7.06739a3.993,3.993,0,0,0,1.10937,3.08984A4.54451,4.54451,0,0,0,145.5474,57.199,5.169,5.169,0,0,0,149.04349,56.29173Z"/><path class="e973e546-ac20-4f83-8d74-9a2312aafa4e" d="M178.107,43.24974q2.36718,2.25732,2.36816,6.77051v11.1748a.92413.92413,0,0,1-.25879.64746.87309.87309,0,0,1-.666.27735H169.44877a.94787.94787,0,0,1-.92481-.92481V58.01243a.8731.8731,0,0,1,.27735-.666.92245.92245,0,0,1,.64746-.25879h4.77343V50.31615a4.44586,4.44586,0,0,0-.9248-2.9961,3.02605,3.02605,0,0,0-2.40527-1.07324h-2.88575l-3.1455,14.91113a1.12546,1.12546,0,0,1-.2959.68457.87164.87164,0,0,1-.666.27735h-4.25488a.93083.93083,0,0,1-.68457-.27735.72639.72639,0,0,1-.20313-.68457l3.626-14.874H159.94a.87019.87019,0,0,1-.666-.27734.96523.96523,0,0,1-.25879-.68458V41.91771a.86822.86822,0,0,1,.27735-.666.92082.92082,0,0,1,.64746-.25879h11.877A8.73876,8.73876,0,0,1,178.107,43.24974Z"/><path class="e973e546-ac20-4f83-8d74-9a2312aafa4e" d="M198.31009,43.3054q2.10792,2.313,2.1084,6.97461a10.87982,10.87982,0,0,1-2.77441,7.69532A14.73936,14.73936,0,0,1,190.688,62.157l-1.51757.44336a.71632.71632,0,0,1-.68457-.25879,1.05073,1.05073,0,0,1-.31446-.74024V57.865a1.05456,1.05456,0,0,1,.25977-.68457,1.8181,1.8181,0,0,1,.665-.5l1.18457-.48047a5.97576,5.97576,0,0,0,2.68262-1.97949,6.19525,6.19525,0,0,0,.98046-3.75586,4.97946,4.97946,0,0,0-.81445-3.25586,3.94647,3.94647,0,0,0-3.03418-.9248h-.96191l-4.958-.03711a.88652.88652,0,0,1-.92481-.92481V36.77415a.8731.8731,0,0,1,.27735-.666.92416.92416,0,0,1,.64746-.25879h3.99609a.88652.88652,0,0,1,.92481.9248V40.9929h2.29492Q196.20023,40.9929,198.31009,43.3054Z"/></svg>