<svg id="bbe78e51-4fb8-451f-9bcf-8f850b0e7349" data-name="Layer 1" xmlns="http://www.w3.org/2000/svg" viewBox="0 0 226 101.7"><defs><style>.bf707c07-8d44-4e15-8352-642e657f7490{fill:#fff;stroke:#dbdbdb;stroke-linecap:round;stroke-linejoin:round;stroke-width:6px;}.b5e9fafd-ceef-4f38-bc35-bdd5a306c76b{fill:#1c3f55;}</style></defs><title>exit</title><g id="a71e8fb0-af52-490d-a0fa-e58658634966" data-name="Group 503"><path id="bd135bf9-7583-46f7-8fcd-0952d51119a3" data-name="Rectangle 48" class="bf707c07-8d44-4e15-8352-642e657f7490" d="M26,3H200a23.00326,23.00326,0,0,1,23,23V75.7a23.00327,23.00327,0,0,1-23,23H26a23.00327,23.00327,0,0,1-23-23V26A23.00326,23.00326,0,0,1,26,3Z"/></g><path class="b5e9fafd-ceef-4f38-bc35-bdd5a306c76b" d="M77.499,61.86035a.87016.87016,0,0,1-.27734-.666V50.24268q0-4.218-4.18066-4.21827H67.417a.94783.94783,0,0,1-.9248-.9248V41.91748a.869.869,0,0,1,.27734-.666.92081.92081,0,0,1,.64746-.25878H73.2627q5.14307,0,7.67773,2.10888,2.53417,2.10938,2.53418,6.919V61.19434a.92078.92078,0,0,1-.25879.64746.86825.86825,0,0,1-.666.27734H78.18359A.96522.96522,0,0,1,77.499,61.86035Z"/><path class="b5e9fafd-ceef-4f38-bc35-bdd5a306c76b" d="M107.41406,61.34277a.77022.77022,0,0,1-.22265.53614.72.72,0,0,1-.55469.24023h-4.55078a1.23918,1.23918,0,0,1-.999-.35156c-.19824-.2334-.30859-.36328-.333-.38867l-6.47559-9.36036a4.15454,4.15454,0,0,0-1.25781,2.03516,9.7402,9.7402,0,0,0-.2959,2.44141v4.625a.97749.97749,0,0,1-.27734.72168.92864.92864,0,0,1-.68457.27734h-3.626a.857.857,0,0,1-.64746-.2959.98875.98875,0,0,1-.27735-.70312V56.53223a12.96154,12.96154,0,0,1,.85059-5.10547,9.42615,9.42615,0,0,1,3.21875-3.7002l-3.77344-5.439a.78082.78082,0,0,1-.18554-.51807.82666.82666,0,0,1,.77734-.77685h4.36621a1.24294,1.24294,0,0,1,.79492.22216,2.82915,2.82915,0,0,1,.53711.5918l5.957,8.436a3.26914,3.26914,0,0,0,1.31348-1.62793,7.1234,7.1234,0,0,0,.27734-2.10889V41.9917a1.01476,1.01476,0,0,1,.25879-.72168.86992.86992,0,0,1,.666-.27734h3.88476a.9005.9005,0,0,1,.68457.29589.99207.99207,0,0,1,.27735.70313v4.66211a9.73762,9.73762,0,0,1-.94336,4.31055,8.85442,8.85442,0,0,1-3.42188,3.4956l4.51368,6.36426A.91544.91544,0,0,1,107.41406,61.34277Z"/><path class="b5e9fafd-ceef-4f38-bc35-bdd5a306c76b" d="M135.126,41.25146a.90152.90152,0,0,1,.25879.666v9.69434a10.87775,10.87775,0,0,1-1.4795,5.71631,10.034,10.034,0,0,1-4.0332,3.792,11.736,11.736,0,0,1-5.66113,1.29492h-3.55176a11.13167,11.13167,0,0,1-5.17969-1.14649,8.20271,8.20271,0,0,1-3.38574-3.10839,8.309,8.309,0,0,1-1.165-4.32911V41.91748a.869.869,0,0,1,.27734-.666.9662.9662,0,0,1,.68458-.25878h3.88476a.8865.8865,0,0,1,.92481.9248l.0371,8.88037a3.40736,3.40736,0,0,0,2.81153-1.53564,7.54613,7.54613,0,0,0,.81445-3.8667V41.9917a.97823.97823,0,0,1,.27735-.72168.93046.93046,0,0,1,.68457-.27734h3.84765a.86041.86041,0,0,1,.64746.29589.993.993,0,0,1,.27832.70313v3.478a9.62893,9.62893,0,0,1-2.18359,6.65918,9.17241,9.17241,0,0,1-6.17871,2.84961,4.78285,4.78285,0,0,0,1.86816,1.8125,5.31994,5.31994,0,0,0,2.57129.6289h.85156a7.36547,7.36547,0,0,0,3.4043-.77637,5.87742,5.87742,0,0,0,2.36719-2.14648,5.69436,5.69436,0,0,0,.85156-3.07031V41.91748a.8865.8865,0,0,1,.92481-.9248H134.46A.90457.90457,0,0,1,135.126,41.25146Z"/><path class="b5e9fafd-ceef-4f38-bc35-bdd5a306c76b" d="M153.03418,61.86035a.89612.89612,0,0,1-.25977-.666V50.24268q0-4.218-4.18066-4.21827h-8.43652a.96122.96122,0,0,1-.6836-.25878.86761.86761,0,0,1-.27832-.666V41.91748a.86978.86978,0,0,1,.27832-.666.96546.96546,0,0,1,.6836-.25878h8.62109q5.10645,0,7.67773,2.25683,2.5708,2.25732,2.57129,7.03028V61.19434a.86676.86676,0,0,1-.27734.666.96358.96358,0,0,1-.68457.25879h-4.36621A.89694.89694,0,0,1,153.03418,61.86035Zm-13.56055,0a.86757.86757,0,0,1-.27832-.666V50.39063a.86976.86976,0,0,1,.27832-.666.96334.96334,0,0,1,.6836-.25879h4.36621a.88652.88652,0,0,1,.9248.92481V61.19434a.9166.9166,0,0,1-.25879.64746.86824.86824,0,0,1-.666.27734h-4.36621A.96123.96123,0,0,1,139.47363,61.86035Z"/></svg>