<svg xmlns="http://www.w3.org/2000/svg" width="767.274" height="643.013" viewBox="0 0 767.274 643.013">
  <defs>
    <style>
      .cls-1, .cls-3 {
        fill: none;
        stroke-miterlimit: 10;
        stroke-width: 8px;
      }

      .cls-1 {
        stroke: #708fa0;
        stroke-linecap: round;
      }

      .cls-2 {
        fill: #fff;
      }

      .cls-3 {
        stroke: #b3b3b3;
      }
    </style>
  </defs>
  <g preserveAspectRatio="none" id="Group_303" data-name="Group 303" transform="translate(0 3.969)">
    <line id="Line_103" data-name="Line 103" class="cls-1" x2="7.729" y2="30.876" transform="translate(143.563 38.421)"/>
    <path id="Path_459" data-name="Path 459" class="cls-1" d="M-2320.259-1098.426l1.83,7.309a9.524,9.524,0,0,1-6.926,11.552h0a9.524,9.524,0,0,1-11.551-6.926l-1.83-7.309-9.031-36.077" transform="translate(2470.558 1163.757)"/>
    <rect id="Rectangle_27" data-name="Rectangle 27" class="cls-2" width="767.274" height="590.123" rx="37.326" transform="translate(0 48.921)"/>
    <path id="Path_460" data-name="Path 460" class="cls-3" d="M-2328.244-1161.541" transform="translate(2487.13 1161.541)"/>
    <g id="Group_302" data-name="Group 302" transform="translate(103.578 0.076)">
      <path id="Path_461" data-name="Path 461" class="cls-1" d="M-2355.848-1091.555l-14.42-57.605a17.065,17.065,0,0,1,12.41-20.7h0a17.065,17.065,0,0,1,20.7,12.41l6.363,25.42" transform="translate(2370.783 1170.371)"/>
      <path id="Path_462" data-name="Path 462" class="cls-1" d="M-2363.374-1117.828l13.548,54.12a24.006,24.006,0,0,0,29.116,17.458h0a24.006,24.006,0,0,0,17.457-29.116l-6.28-24.317" transform="translate(2369.559 1161.69)"/>
    </g>
  </g>
</svg>
