<?xml version="1.0" encoding="utf-8"?>
<!-- Generator: Adobe Illustrator 25.0.1, SVG Export Plug-In . SVG Version: 6.00 Build 0)  -->
<svg version="1.1" id="Layer_1" xmlns="http://www.w3.org/2000/svg" xmlns:xlink="http://www.w3.org/1999/xlink" x="0px" y="0px"
	 viewBox="0 0 251.2 97.9" style="enable-background:new 0 0 251.2 97.9;" xml:space="preserve">
<style type="text/css">
	.st0{fill:#1DE8F7;}
	.st1{enable-background:new    ;}
	.st2{fill:#FFFFFF;}
</style>
<g id="Group_451" transform="translate(-414.239 -1329.677)">
	<path id="Rectangle_19" class="st0" d="M437.2,1329.7h205.2c12.7,0,23,10.3,23,23v51.9c0,12.7-10.3,23-23,23H437.2
		c-12.7,0-23-10.3-23-23v-51.9C414.2,1340,424.5,1329.7,437.2,1329.7z"/>
	<g class="st1">
		<path class="st2" d="M504.3,1371.6c1.7,1.8,2.5,4.6,2.5,8.3c0,3.7-1.1,6.8-3.3,9.2c-2.2,2.4-5,4-8.3,5l-1.8,0.5
			c-0.3,0.1-0.6,0-0.8-0.3c-0.2-0.3-0.4-0.6-0.4-0.9v-4.4c0-0.3,0.1-0.6,0.3-0.8c0.2-0.2,0.5-0.4,0.8-0.6l1.4-0.6
			c1.3-0.5,2.4-1.3,3.2-2.4c0.8-1,1.2-2.5,1.2-4.5c0-1.8-0.3-3.1-1-3.9c-0.6-0.7-1.8-1.1-3.6-1.1h-1h-0.1l-5.9,0
			c-0.3,0-0.6-0.1-0.8-0.3c-0.2-0.2-0.3-0.5-0.3-0.8v-10.2c0-0.3,0.1-0.6,0.3-0.8c0.2-0.2,0.5-0.3,0.8-0.3h4.8
			c0.3,0,0.6,0.1,0.8,0.3c0.2,0.2,0.3,0.5,0.3,0.8v5h2.7C499.9,1368.9,502.6,1369.8,504.3,1371.6z"/>
		<path class="st2" d="M511.4,1393.7c-0.2-0.2-0.3-0.5-0.3-0.8V1370c0-0.3,0.1-0.6,0.3-0.8c0.2-0.2,0.5-0.3,0.8-0.3h5.5
			c0.3,0,0.6,0.1,0.8,0.3c0.2,0.2,0.3,0.5,0.3,0.8v22.9c0,0.3-0.1,0.5-0.3,0.8c-0.2,0.2-0.5,0.3-0.8,0.3h-5.5
			C511.9,1394,511.6,1393.9,511.4,1393.7z"/>
		<path class="st2" d="M541.4,1393.7c-0.2,0.2-0.5,0.3-0.8,0.3H535c-0.3,0-0.5-0.1-0.7-0.3c-0.2-0.2-0.3-0.5-0.4-0.8l-0.7-3.3
			c-0.7,0.9-1.6,1.6-2.6,2.2c-1.2,0.7-2.2,1.3-3.2,1.7c-1,0.4-1.9,0.7-3,0.9l-0.3,0c-0.5,0-0.7-0.2-0.7-0.7v-4.8
			c0-0.5,0.3-0.9,0.9-1.1c0.2-0.1,0.9-0.3,2-0.6c1.1-0.3,2-0.7,2.8-1c1.1-0.6,2.1-1.4,2.9-2.4l-0.8-4.1c-0.4-1.8-0.8-3-1.4-3.7
			c-0.6-0.7-1.5-1.1-2.7-1.1h-1.5c-0.3,0-0.6-0.1-0.8-0.3c-0.2-0.2-0.3-0.5-0.3-0.8v-4c0-0.3,0.1-0.6,0.3-0.8
			c0.2-0.2,0.5-0.3,0.8-0.3h1.7c2.5,0,4.5,0.4,6,1.1c1.5,0.7,2.7,1.9,3.6,3.5c0.9,1.6,1.6,3.7,2.1,6.3l2.6,13.4
			C541.7,1393.2,541.6,1393.5,541.4,1393.7z"/>
		<path class="st2" d="M555.1,1393.7c-0.2-0.2-0.3-0.5-0.3-0.8v-13c0-3.3-1.7-5-5-5h-6.7c-0.3,0-0.5-0.1-0.8-0.3
			c-0.2-0.2-0.3-0.5-0.3-0.8v-3.8c0-0.3,0.1-0.6,0.3-0.8c0.2-0.2,0.5-0.3,0.8-0.3h7c4.1,0,7.1,0.8,9.1,2.5s3,4.4,3,8.2v13.3
			c0,0.3-0.1,0.5-0.3,0.8s-0.5,0.3-0.8,0.3h-5.2C555.6,1394,555.3,1393.9,555.1,1393.7z"/>
		<path class="st2" d="M590.6,1371.5c2,1.7,3.1,4.5,3.1,8.2v13.2c0,0.3-0.1,0.5-0.3,0.8s-0.5,0.3-0.8,0.3h-5.2
			c-0.3,0-0.6-0.1-0.8-0.3s-0.3-0.5-0.3-0.8v-13c0-3.3-1.7-5-5-5h-2.9c-0.5,2-0.7,4.2-0.7,6.5l0.4,11.6c0,0.3-0.1,0.6-0.3,0.8
			s-0.5,0.3-0.8,0.3l-9.3,0c-0.3,0-0.6-0.1-0.8-0.3s-0.3-0.5-0.3-0.8v-3.5c0-0.3,0.1-0.6,0.3-0.8c0.2-0.2,0.5-0.3,0.8-0.3h3.6v-6.9
			c-0.1-2.4,0.2-4.6,0.7-6.5h-2.6c-0.3,0-0.6-0.1-0.8-0.3c-0.2-0.2-0.3-0.5-0.3-0.8v-3.8c0-0.3,0.1-0.6,0.3-0.8
			c0.2-0.2,0.5-0.3,0.8-0.3h12.3C585.5,1368.9,588.5,1369.7,590.6,1371.5z"/>
	</g>
</g>
</svg>
