<?xml version="1.0" encoding="utf-8"?>
<!-- Generator: Adobe Illustrator 25.0.1, SVG Export Plug-In . SVG Version: 6.00 Build 0)  -->
<svg version="1.1" id="Layer_1" xmlns="http://www.w3.org/2000/svg" xmlns:xlink="http://www.w3.org/1999/xlink" x="0px" y="0px"
	 viewBox="0 0 270 101.7" style="enable-background:new 0 0 270 101.7;" xml:space="preserve">
<style type="text/css">
	.st0{fill:#FFFFFF;stroke:#DBDBDB;stroke-width:6;stroke-linecap:round;stroke-linejoin:round;}
	.st1{enable-background:new    ;}
	.st2{fill:#1C3F55;}
</style>
<g id="Group_503" transform="translate(25 3)">
	<path id="Rectangle_48" class="st0" d="M1,0h218c12.7,0,23,10.3,23,23v49.7c0,12.7-10.3,23-23,23H1c-12.7,0-23-10.3-23-23V23
		C-22,10.3-11.7,0,1,0z"/>
	<g class="st1">
		<path class="st2" d="M28.5,60.5c-0.2-0.2-0.3-0.4-0.3-0.7v-11c0-2.8-1.4-4.2-4.2-4.2h-8.4c-0.3,0-0.5-0.1-0.7-0.3
			s-0.3-0.4-0.3-0.7v-3.2c0-0.3,0.1-0.5,0.3-0.7c0.2-0.2,0.4-0.3,0.7-0.3h8.6c3.4,0,6,0.8,7.7,2.3c1.7,1.5,2.6,3.8,2.6,7v10.9
			c0,0.3-0.1,0.5-0.3,0.7c-0.2,0.2-0.4,0.3-0.7,0.3h-4.4C28.9,60.7,28.6,60.6,28.5,60.5z M14.9,60.5c-0.2-0.2-0.3-0.4-0.3-0.7V49
			c0-0.3,0.1-0.5,0.3-0.7s0.4-0.3,0.7-0.3H20c0.3,0,0.5,0.1,0.7,0.3c0.2,0.2,0.3,0.4,0.3,0.7v10.8c0,0.2-0.1,0.5-0.3,0.6
			c-0.2,0.2-0.4,0.3-0.7,0.3h-4.4C15.3,60.7,15.1,60.6,14.9,60.5z"/>
		<path class="st2" d="M58.4,60c0,0.2-0.1,0.4-0.2,0.5c-0.1,0.2-0.3,0.2-0.6,0.2H53c-0.5,0-0.8-0.1-1-0.4S51.7,60,51.7,60l-6.5-9.4
			c-0.6,0.6-1.1,1.3-1.3,2c-0.2,0.8-0.3,1.6-0.3,2.4v4.6c0,0.3-0.1,0.5-0.3,0.7c-0.2,0.2-0.4,0.3-0.7,0.3h-3.6
			c-0.2,0-0.5-0.1-0.6-0.3s-0.3-0.4-0.3-0.7v-4.6c0-2.1,0.3-3.8,0.9-5.1c0.6-1.3,1.6-2.5,3.2-3.7l-3.8-5.4c-0.1-0.1-0.2-0.3-0.2-0.5
			s0.1-0.4,0.2-0.5c0.2-0.2,0.3-0.2,0.5-0.2h4.4c0.3,0,0.6,0.1,0.8,0.2c0.2,0.1,0.4,0.3,0.5,0.6l6,8.4c0.7-0.5,1.1-1,1.3-1.6
			c0.2-0.6,0.3-1.3,0.3-2.1v-4.5c0-0.3,0.1-0.5,0.3-0.7c0.2-0.2,0.4-0.3,0.7-0.3h3.9c0.3,0,0.5,0.1,0.7,0.3c0.2,0.2,0.3,0.4,0.3,0.7
			v4.7c0,1.6-0.3,3-0.9,4.3c-0.6,1.3-1.8,2.5-3.4,3.5l4.5,6.4C58.3,59.6,58.4,59.8,58.4,60z"/>
		<path class="st2" d="M61.8,60.5c-0.2-0.2-0.3-0.4-0.3-0.6v-3.2c0-0.3,0.1-0.5,0.3-0.7c0.2-0.2,0.4-0.3,0.6-0.3h9.3v-6.8
			c0-2.8-1.4-4.2-4.2-4.2h-4.7c-0.3,0-0.5-0.1-0.7-0.3c-0.2-0.2-0.3-0.4-0.3-0.7v-3.2c0-0.3,0.1-0.5,0.3-0.7
			c0.2-0.2,0.4-0.3,0.6-0.3h4.9c3.5,0,6.1,0.7,7.8,2.2c1.8,1.5,2.6,3.8,2.6,7.1v6.8h1.3c0.3,0,0.5,0.1,0.7,0.3
			c0.2,0.2,0.3,0.4,0.3,0.7v3.2c0,0.2-0.1,0.5-0.3,0.6c-0.2,0.2-0.4,0.3-0.7,0.3H62.5C62.2,60.7,62,60.6,61.8,60.5z"/>
		<path class="st2" d="M97.4,60.5c-0.2-0.2-0.3-0.4-0.3-0.7v-11c0-2.8-1.4-4.2-4.2-4.2h-8.4c-0.3,0-0.5-0.1-0.7-0.3
			s-0.3-0.4-0.3-0.7v-3.2c0-0.3,0.1-0.5,0.3-0.7c0.2-0.2,0.4-0.3,0.7-0.3h8.6c3.4,0,6,0.8,7.7,2.3c1.7,1.5,2.6,3.8,2.6,7v10.9
			c0,0.3-0.1,0.5-0.3,0.7c-0.2,0.2-0.4,0.3-0.7,0.3h-4.4C97.8,60.7,97.6,60.6,97.4,60.5z M83.9,60.5c-0.2-0.2-0.3-0.4-0.3-0.7V49
			c0-0.3,0.1-0.5,0.3-0.7s0.4-0.3,0.7-0.3h4.4c0.3,0,0.5,0.1,0.7,0.3c0.2,0.2,0.3,0.4,0.3,0.7v10.8c0,0.2-0.1,0.5-0.3,0.6
			c-0.2,0.2-0.4,0.3-0.7,0.3h-4.4C84.3,60.7,84.1,60.6,83.9,60.5z"/>
		<path class="st2" d="M129.2,60.5c-0.2-0.2-0.3-0.4-0.3-0.7v-11c0-2.8-1.4-4.2-4.2-4.2h-8.4c-0.3,0-0.5-0.1-0.7-0.3
			c-0.2-0.2-0.3-0.4-0.3-0.7v-3.2c0-0.3,0.1-0.5,0.3-0.7c0.2-0.2,0.4-0.3,0.7-0.3h8.6c3.4,0,6,0.8,7.7,2.3c1.7,1.5,2.6,3.8,2.6,7
			v10.9c0,0.3-0.1,0.5-0.3,0.7s-0.4,0.3-0.7,0.3h-4.4C129.6,60.7,129.3,60.6,129.2,60.5z M115.6,60.5c-0.2-0.2-0.3-0.4-0.3-0.7V49
			c0-0.3,0.1-0.5,0.3-0.7c0.2-0.2,0.4-0.3,0.7-0.3h4.4c0.3,0,0.5,0.1,0.7,0.3c0.2,0.2,0.3,0.4,0.3,0.7v10.8c0,0.2-0.1,0.5-0.3,0.6
			c-0.2,0.2-0.4,0.3-0.7,0.3h-4.4C116,60.7,115.8,60.6,115.6,60.5z"/>
		<path class="st2" d="M153,41.9c1.4,1.5,2.1,3.9,2.1,7c0,3.1-0.9,5.7-2.8,7.7c-1.9,2-4.2,3.4-7,4.2l-1.5,0.4c-0.2,0-0.5,0-0.7-0.3
			c-0.2-0.2-0.3-0.5-0.3-0.7v-3.7c0-0.2,0.1-0.5,0.3-0.7c0.2-0.2,0.4-0.4,0.7-0.5l1.2-0.5c1.1-0.4,2-1.1,2.7-2c0.7-0.9,1-2.1,1-3.8
			c0-1.6-0.3-2.6-0.8-3.3c-0.5-0.6-1.6-0.9-3-0.9h-0.9h-0.1l-5,0c-0.3,0-0.5-0.1-0.7-0.3c-0.2-0.2-0.3-0.4-0.3-0.7v-8.5
			c0-0.3,0.1-0.5,0.3-0.7c0.2-0.2,0.4-0.3,0.6-0.3h4c0.3,0,0.5,0.1,0.7,0.3c0.2,0.2,0.3,0.4,0.3,0.7v4.2h2.3
			C149.3,39.6,151.6,40.4,153,41.9z"/>
		<path class="st2" d="M178.5,60c0,0.2-0.1,0.4-0.2,0.5c-0.1,0.2-0.3,0.2-0.6,0.2h-4.6c-0.5,0-0.8-0.1-1-0.4s-0.3-0.4-0.3-0.4
			l-6.5-9.4c-0.6,0.6-1.1,1.3-1.3,2c-0.2,0.8-0.3,1.6-0.3,2.4v4.6c0,0.3-0.1,0.5-0.3,0.7c-0.2,0.2-0.4,0.3-0.7,0.3h-3.6
			c-0.2,0-0.5-0.1-0.6-0.3c-0.2-0.2-0.3-0.4-0.3-0.7v-4.6c0-2.1,0.3-3.8,0.9-5.1c0.6-1.3,1.6-2.5,3.2-3.7l-3.8-5.4
			c-0.1-0.1-0.2-0.3-0.2-0.5s0.1-0.4,0.2-0.5c0.2-0.2,0.3-0.2,0.5-0.2h4.4c0.3,0,0.6,0.1,0.8,0.2c0.2,0.1,0.4,0.3,0.5,0.6l6,8.4
			c0.7-0.5,1.1-1,1.3-1.6s0.3-1.3,0.3-2.1v-4.5c0-0.3,0.1-0.5,0.3-0.7c0.2-0.2,0.4-0.3,0.7-0.3h3.9c0.3,0,0.5,0.1,0.7,0.3
			c0.2,0.2,0.3,0.4,0.3,0.7v4.7c0,1.6-0.3,3-0.9,4.3c-0.6,1.3-1.8,2.5-3.4,3.5l4.5,6.4C178.4,59.6,178.5,59.8,178.5,60z"/>
		<path class="st2" d="M206.2,39.9c0.2,0.2,0.3,0.4,0.3,0.7v9.7c0,2.2-0.5,4.1-1.5,5.7c-1,1.6-2.3,2.9-4,3.8s-3.6,1.3-5.7,1.3h-3.6
			c-2,0-3.7-0.4-5.2-1.1c-1.5-0.8-2.6-1.8-3.4-3.1c-0.8-1.3-1.2-2.8-1.2-4.3V40.5c0-0.3,0.1-0.5,0.3-0.7c0.2-0.2,0.4-0.3,0.7-0.3
			h3.9c0.3,0,0.5,0.1,0.7,0.3c0.2,0.2,0.3,0.4,0.3,0.7l0,8.9c1.3-0.1,2.3-0.6,2.8-1.5c0.5-0.9,0.8-2.2,0.8-3.9v-3.4
			c0-0.3,0.1-0.5,0.3-0.7c0.2-0.2,0.4-0.3,0.7-0.3h3.8c0.2,0,0.5,0.1,0.6,0.3c0.2,0.2,0.3,0.4,0.3,0.7v3.5c0,2.8-0.7,5-2.2,6.7
			c-1.5,1.6-3.5,2.6-6.2,2.8c0.5,0.8,1.1,1.4,1.9,1.8c0.8,0.4,1.6,0.6,2.6,0.6h0.9c1.3,0,2.4-0.3,3.4-0.8c1-0.5,1.8-1.2,2.4-2.1
			c0.6-0.9,0.9-1.9,0.9-3.1v-9.5c0-0.3,0.1-0.5,0.3-0.7c0.2-0.2,0.4-0.3,0.7-0.3h3.9C205.8,39.6,206,39.7,206.2,39.9z"/>
	</g>
</g>
</svg>
