<?xml version="1.0" encoding="utf-8"?>
<!-- Generator: Adobe Illustrator 25.0.1, SVG Export Plug-In . SVG Version: 6.00 Build 0)  -->
<svg version="1.1" id="Layer_1" xmlns="http://www.w3.org/2000/svg" xmlns:xlink="http://www.w3.org/1999/xlink" x="0px" y="0px"
	 viewBox="0 0 305.4 173.9" style="enable-background:new 0 0 305.4 173.9;" xml:space="preserve">
<style type="text/css">
	.st0{fill:none;stroke:#708FA0;stroke-width:7;stroke-miterlimit:10;}
	.st1{fill:none;stroke:#708FA0;stroke-width:7;stroke-linecap:round;stroke-linejoin:round;}
	.st2{fill:#FFFFFF;}
	.st3{enable-background:new    ;}
	.st4{fill:#1C3F55;}
</style>
<g id="Group_47" transform="translate(-385.167 -75.4)">
	<g id="Group_33" transform="translate(-9.095 46.473)">
		<line id="Line_76" class="st0" x1="444.7" y1="60.5" x2="450.4" y2="83"/>
		<path id="Path_78" class="st1" d="M450.3,82.6l1.3,5.3c0.9,3.7-1.3,7.5-5.1,8.4c0,0,0,0,0,0l0,0c-3.7,0.9-7.5-1.3-8.4-5.1
			l-1.3-5.3l-6.6-26.3"/>
		<path id="Rectangle_7" class="st2" d="M419.3,78.1h255.4c13.8,0,25,11.2,25,25v74.8c0,13.8-11.2,25-25,25H419.3
			c-13.8,0-25-11.2-25-25v-74.8C394.3,89.2,405.5,78.1,419.3,78.1z"/>
		<g class="st3">
			<path class="st4" d="M503.6,129.8c3.1,2.6,4.6,6.7,4.6,12.2v19.9c0,0.4-0.2,0.8-0.5,1.2c-0.3,0.3-0.7,0.5-1.2,0.5h-7.8
				c-0.5,0-0.9-0.2-1.2-0.5c-0.3-0.3-0.5-0.7-0.5-1.2v-19.5c0-5-2.5-7.5-7.5-7.5h-4.3c-0.7,3-1,6.2-1,9.7l0.5,17.4
				c0,0.5-0.2,0.9-0.5,1.2c-0.3,0.3-0.7,0.5-1.2,0.5l-14-0.1c-0.5,0-0.9-0.2-1.2-0.5c-0.3-0.3-0.5-0.7-0.5-1.2v-5.2
				c0-0.5,0.2-0.9,0.5-1.2c0.3-0.3,0.7-0.5,1.2-0.5h5.3v-10.4c-0.1-3.6,0.2-6.9,1-9.8h-3.9c-0.5,0-0.9-0.2-1.2-0.5
				c-0.3-0.3-0.5-0.7-0.5-1.2v-5.7c0-0.5,0.2-0.9,0.5-1.2s0.7-0.5,1.2-0.5H490C496,125.8,500.5,127.2,503.6,129.8z"/>
			<path class="st4" d="M516.1,163.1c-0.3-0.3-0.5-0.7-0.5-1.2v-34.4c0-0.5,0.2-0.9,0.5-1.2s0.7-0.5,1.2-0.5h8.2
				c0.5,0,0.9,0.2,1.2,0.5c0.3,0.3,0.5,0.7,0.5,1.2v34.4c0,0.4-0.2,0.8-0.5,1.2c-0.3,0.3-0.7,0.5-1.2,0.5h-8.2
				C516.9,163.5,516.5,163.4,516.1,163.1z"/>
			<path class="st4" d="M565.4,126.3c0.3,0.3,0.5,0.7,0.5,1.2v5.7c0,0.4-0.2,0.8-0.5,1.2s-0.7,0.5-1.2,0.5h-3
				c-0.5,0.8-0.9,2-1.2,3.4c-0.3,1.4-0.4,3-0.4,4.7v19.2c0,0.4-0.2,0.7-0.6,1s-0.8,0.4-1.3,0.4h-7.7c-0.4,0-0.8-0.1-1.1-0.4
				c-0.3-0.3-0.4-0.6-0.4-1.1v-19.9c0-3.6,0.4-6,1.3-7.3h-15c-0.4,0-0.8-0.2-1.2-0.5s-0.5-0.7-0.5-1.2v-5.7c0-0.5,0.2-0.9,0.5-1.2
				s0.7-0.5,1.2-0.5h29.5C564.7,125.8,565.1,126,565.4,126.3z"/>
			<path class="st4" d="M572.4,163.1c-0.3-0.3-0.5-0.7-0.5-1.2v-34.4c0-0.5,0.2-0.9,0.5-1.2s0.7-0.5,1.2-0.5h8.2
				c0.5,0,0.9,0.2,1.2,0.5c0.3,0.3,0.5,0.7,0.5,1.2v34.4c0,0.4-0.2,0.8-0.5,1.2c-0.3,0.3-0.7,0.5-1.2,0.5h-8.2
				C573.1,163.5,572.7,163.4,572.4,163.1z"/>
			<path class="st4" d="M626.5,162.1c0,0.4-0.1,0.7-0.4,1c-0.3,0.3-0.6,0.4-1,0.4H617c-0.8,0-1.4-0.2-1.8-0.6
				c-0.4-0.4-0.6-0.6-0.6-0.7l-11.5-16.7c-1.1,1.1-1.9,2.3-2.2,3.6c-0.4,1.4-0.5,2.8-0.5,4.4v8.2c0,0.5-0.2,1-0.5,1.3
				s-0.7,0.5-1.2,0.5h-6.5c-0.4,0-0.8-0.2-1.2-0.5c-0.3-0.4-0.5-0.8-0.5-1.3v-8.2c0-3.7,0.5-6.8,1.5-9.1c1-2.3,2.9-4.5,5.7-6.6
				l-6.7-9.7c-0.2-0.3-0.3-0.6-0.3-0.9c0-0.4,0.1-0.7,0.4-1s0.6-0.4,1-0.4h7.8c0.6,0,1.1,0.1,1.4,0.4s0.6,0.6,1,1.1l10.6,15
				c1.2-0.9,2-1.8,2.3-2.9c0.3-1.1,0.5-2.3,0.5-3.8v-8.1c0-0.5,0.2-1,0.5-1.3s0.7-0.5,1.2-0.5h6.9c0.5,0,0.9,0.2,1.2,0.5
				c0.3,0.4,0.5,0.8,0.5,1.3v8.3c0,2.8-0.6,5.4-1.7,7.7c-1.1,2.3-3.2,4.4-6.1,6.2l8.1,11.4C626.4,161.5,626.5,161.8,626.5,162.1z"/>
		</g>
		<g id="Group_32" transform="translate(415.549 32.462)">
			<path id="Path_79" class="st1" d="M10.9,57.5L0.4,15.5C-1.3,8.8,2.8,2,9.4,0.4l0,0c6.7-1.7,13.4,2.4,15.1,9.1c0,0,0,0,0,0
				L29.2,28"/>
			<path id="Path_80" class="st1" d="M4.5,32l9.9,39.5c2.4,9.4,11.9,15.1,21.3,12.7l0,0c9.4-2.4,15.1-11.9,12.7-21.3l-4.1-16.4"/>
		</g>
	</g>
</g>
</svg>
