<?xml version="1.0" encoding="utf-8"?>
<!-- Generator: Adobe Illustrator 23.0.0, SVG Export Plug-In . SVG Version: 6.00 Build 0)  -->
<svg preserveAspectRatio="none" version="1.1" id="Layer_1" xmlns="http://www.w3.org/2000/svg" xmlns:xlink="http://www.w3.org/1999/xlink" x="0px" y="0px"
	 viewBox="0 0 815.5 1384.3" style="enable-background:new 0 0 815.5 1384.3;" xml:space="preserve">
<style type="text/css">
	.st0{fill:none;stroke:#708FA0;stroke-width:8;stroke-linecap:round;stroke-miterlimit:10;}
	.st1{fill:#FFFFFF;}
	.st2{opacity:5.000000e-02;}
	.st3{fill:#282828;}
	.st4{opacity:0.1;fill:none;stroke:#EF4230;stroke-width:7;stroke-miterlimit:10;enable-background:new    ;}
	.st5{opacity:0.1;fill:none;stroke:#26A6E0;stroke-width:7;stroke-miterlimit:10;enable-background:new    ;}
	.st6{fill:#1DE8F7;}
</style>
<g id="Group_543" transform="translate(-111 -266.16)">
	<g id="Group_542">
		<g id="Group_303" transform="translate(2601.614 1431.667)">
			<line id="Line_103" class="st0" x1="-2338" y1="-1120.7" x2="-2329.8" y2="-1087.9"/>
			<path id="Path_459" class="st0" d="M-2330.9-1092.1l1.9,7.8c1.4,5.4-1.9,10.9-7.4,12.3l0,0c-5.4,1.4-10.9-1.9-12.3-7.4l0,0
				l-1.9-7.8l-9.6-38.3"/>
			<path id="Rectangle_27" class="st1" d="M-2453.3-1109.5h740.8c20.6,0,37.3,16.7,37.3,37.3V181.5c0,20.6-16.7,37.3-37.3,37.3
				h-740.8c-20.6,0-37.3-16.7-37.3-37.3v-1253.7C-2490.6-1092.8-2473.9-1109.5-2453.3-1109.5z"/>
			<g>
				<g>
					<g>
						<g>
							<g id="Mask_Group_1" transform="translate(0 -40)">
								<g id="Group_3" transform="translate(-3070.983 659.545)" class="st2">
									<path class="st3" d="M1331.1-1362.2c-19.1,6.1-38.3,12.3-58.9,18.9l18.1,6c-1.9,2.3-3.1,3.8-4.4,5.2
										c-24,25.4-48,50.8-72.2,76.1c-29.3,30.8-58.6,61.6-88.3,92.1c-33.1,34.1-66.8,67.7-100,101.7c-22.2,22.6-46,43.1-73.5,59.3
										c-25.3,14.9-51.4,28-79.3,37.7c-0.3-0.6-0.6-1.3-0.8-2c-7.3-32.7-22-61.3-48.8-82.3c-30.3-23.7-64.8-34.3-103-28.2
										c-54.4,8.6-95.5,49.1-106.4,102.8c-0.8,3.9-1.7,7.6-2.7,11.7c-1.6-0.5-3.2-1.1-4.8-1.7c1,38.2,2.9,76.4,4.5,114.6
										c0.3,6.1,0.5,12.2,0.6,18.3c11-19.6,19.1-41.1,24.4-64.4c0.6-2.5,1-5.1,1.3-7.6s0.4-5,0.7-8.1
										c69.7,17,138.7,16.7,208.2-1.2c1.4,7.1,2.6,14.2,4.1,21.2c7,34,22.6,65.6,45.2,91.9c33.2,39.1,75.3,63.7,125.1,75.1
										c10.8,2.5,22,3.3,33,5c1.8,0.2,3.6,0.8,5.5,1.2h22c5.9-0.8,11.7-1.8,17.6-2.5c39.3-4.7,74.9-19.2,106.7-42.4
										c38.8-28.3,65.7-65.5,79.7-111.6c8.9-29.6,11-59.7,7.6-90.5c-4.7-42.9-21.6-80.4-49.6-112.7
										c-20.3-23.4-44.8-41.8-72.2-56.5c-2.1-1.1-4.1-2.1-6-3.1l158-169.6l7,16.2c1.3-5.8,2.3-10.1,3.3-14.5
										c4.2-19,8.3-38,12.4-57c0.2-1,0.2-2.1,0.2-3.2C1340.6-1364.9,1335.8-1363.7,1331.1-1362.2z M832.3-953.4
										c-22.3,3.7-44.7,7.1-67.1,10.2c-8.5,1.2-17.2,1.2-25.8,1.8c-30.7-0.6-61.2-4.2-91.4-10.9c-3.9-0.9-5.2-2.8-4.6-6.7
										c6.9-45.6,34.6-76.4,79.4-85.8c28.4-5.9,54.4,2.1,77.4,19.1c20.9,15.5,32.6,37.1,38.7,62
										C840.7-956.3,840-954.7,832.3-953.4z M1244.9-1015.5c8.3,17.3,12.9,35.6,15,54.8c3.2,29.5,0.5,58.3-10,86.1
										c-18.2,48.1-51.7,82.1-98,104.1c-30.9,14.8-65.3,20.9-99.4,17.7c-41.3-3.7-78.1-19.4-110.1-46.2
										c-25.6-21.5-44.4-47.7-54.9-79.4c-4.7-14.3-7.2-29.3-10.6-43.7l43.3-17.5c3.2,15.3,4.6,31.4,9.7,46.1
										c18.1,52.1,55.1,84.6,108.6,96.6c53.3,11.9,100.5-2.4,139.6-40.3c24-23.2,37.7-52.3,41.3-85.8c5.2-49-11.5-89.8-47-123.1
										c-17.1-16-37.6-26.7-60.2-33.1c-1.6-0.5-3.2-1-6.1-1.9c8.3-8.1,15.9-15.6,23.5-23.1c9.6-9.6,9.7-9.8,21.6-3.6
										C1192-1086.7,1224.9-1057.5,1244.9-1015.5z"/>
									<path class="st3" d="M619.7-1396.7c1.4,13.6,2.4,27.3,3.1,41c38.4-9.4,78.6-14.1,120.7-14c135.7,0,251.9,49.7,348.4,142.5
										l28.4-28.4C982.2-1393.8,791.1-1436.9,619.7-1396.7z"/>
									<path class="st3" d="M623.6-1292.5c-0.2,9.9-0.5,19.8-1,29.6c-0.2,4.3-0.4,8.7-0.7,13c38.1-12.2,78.5-18.4,121.3-18.4
										c107.9,0,201,39.3,277.8,113.8l29-28.7C933.4-1298.9,768.8-1333.6,623.6-1292.5z"/>
									<path class="st3" d="M614.7-1172.3c-1.7,14-3.5,27.9-4.8,42c-0.2,2.1-0.4,4.2-0.5,6.3c106.7-57,244.2-41.3,334.4,49.3
										l28.8-28.8C875.4-1202.1,730.9-1222,614.7-1172.3z"/>
									<path id="Path_10" class="st3" d="M744.9-719.1l-60.6-105c41.1,4.4,81,5.6,122.4-2L744.9-719.1z"/>
								</g>
							</g>
						</g>
					</g>
				</g>
			</g>
			<g id="Group_301" transform="translate(-2425.028 -1021.965)">
				<line id="Line_104" class="st4" x1="-21" y1="0" x2="749.9" y2="0"/>
				<line id="Line_105" class="st5" x1="-21" y1="79.1" x2="749.9" y2="79.1"/>
				<line id="Line_106" class="st5" x1="-21" y1="158.1" x2="749.9" y2="158.1"/>
				<line id="Line_107" class="st5" x1="-21" y1="237.2" x2="749.9" y2="237.2"/>
				<line id="Line_108" class="st5" x1="-21" y1="316.3" x2="749.9" y2="316.3"/>
				<line id="Line_109" class="st5" x1="-21" y1="395.3" x2="749.9" y2="395.3"/>
				<line id="Line_110" class="st5" x1="-21" y1="474.4" x2="749.9" y2="474.4"/>
				<line id="Line_111" class="st5" x1="-21" y1="553.5" x2="749.9" y2="553.5"/>
				<line id="Line_112" class="st5" x1="-21" y1="632.5" x2="749.9" y2="632.5"/>
				<line id="Line_113" class="st5" x1="-21" y1="711.6" x2="749.9" y2="711.6"/>
				<line id="Line_114" class="st5" x1="-21" y1="790.7" x2="749.9" y2="790.7"/>
				<line id="Line_124" class="st5" x1="-21" y1="1027.7" x2="749.9" y2="1027.7"/>
				<line id="Line_115" class="st5" x1="-21" y1="869.7" x2="749.9" y2="869.7"/>
				<line id="Line_123" class="st5" x1="-21" y1="1106.7" x2="749.9" y2="1106.7"/>
				<line id="Line_121" class="st5" x1="-21" y1="948.7" x2="749.9" y2="948.7"/>
				<line id="Line_122" class="st5" x1="-21" y1="1185.7" x2="749.9" y2="1185.7"/>
			</g>
			<g id="Group_302" transform="translate(-2359.531 -1161.46)">
				<path id="Path_461" class="st0" d="M-5.1,83.8l-15.4-61.3C-22.9,12.8-17,3-7.3,0.5l0,0l0,0c9.7-2.4,19.6,3.5,22,13.2l0,0l6.8,27
					"/>
				<path id="Path_462" class="st0" d="M-14.4,46.6L0,104.1c3.4,13.7,17.3,22,30.9,18.6l0,0c13.7-3.4,22-17.3,18.6-30.9L42.8,66"/>
			</g>
			<path id="Rectangle_28" class="st6" d="M-2453.3-1109.5h7.3l0,0V218.8l0,0h-7.3c-20.6,0-37.3-16.7-37.3-37.3l0,0v-1253.7
				C-2490.6-1092.8-2473.9-1109.5-2453.3-1109.5z"/>
		</g>
	</g>
</g>
</svg>
