<?xml version="1.0" encoding="utf-8"?>
<!-- Generator: Adobe Illustrator 23.0.0, SVG Export Plug-In . SVG Version: 6.00 Build 0)  -->
<svg version="1.1" id="Layer_1" xmlns="http://www.w3.org/2000/svg" xmlns:xlink="http://www.w3.org/1999/xlink" x="0px" y="0px"
	 viewBox="0 0 857.5 1403.9" style="enable-background:new 0 0 857.5 1403.9;" xml:space="preserve">
<style type="text/css">
	.st0{opacity:0.2;fill:#27C5F2;enable-background:new    ;}
	.st1{fill:none;stroke:#708FA0;stroke-width:8;stroke-linecap:round;stroke-miterlimit:10;}
	.st2{fill:#FFFFFF;}
	.st3{fill:#1DE8F7;}
	.st4{opacity:0.1;fill:none;stroke:#EF4230;stroke-width:7;stroke-miterlimit:10;enable-background:new    ;}
	.st5{opacity:0.1;fill:none;stroke:#26A6E0;stroke-width:7;stroke-miterlimit:10;enable-background:new    ;}
	.st6{opacity:5.000000e-02;}
	.st7{fill:#282828;}
</style>
<g id="Group_543" transform="translate(-111 -266.16)">
	<g id="Group_542">
		<g id="Group_303" transform="translate(2601.614 1431.667)">
			<path id="Rectangle_52" class="st0" d="M-2453.3-1135.5h782.8c20.6,0,37.3,21.3,37.3,47.6V190.8c0,26.3-16.7,47.6-37.3,47.6
				h-782.8c-20.6,0-37.3-21.3-37.3-47.6v-1278.7C-2490.6-1114.2-2473.9-1135.5-2453.3-1135.5z"/>
			<line id="Line_103" class="st1" x1="-2317" y1="-1120.7" x2="-2308.8" y2="-1087.9"/>
			<path id="Path_459" class="st1" d="M-2309.9-1092.1l1.9,7.8c1.4,5.4-1.9,10.9-7.4,12.3l0,0c-5.4,1.4-10.9-1.9-12.3-7.4l0,0
				l-1.9-7.8l-9.6-38.3"/>
			<path id="Rectangle_27" class="st2" d="M-2432.3-1109.5h740.8c20.6,0,37.3,16.7,37.3,37.3V181.5c0,20.6-16.7,37.3-37.3,37.3
				h-740.8c-20.6,0-37.3-16.7-37.3-37.3v-1253.7C-2469.6-1092.8-2452.9-1109.5-2432.3-1109.5z"/>
			<path id="Rectangle_28" class="st3" d="M-2432.3-1109.5h7.3l0,0V218.8l0,0h-7.3c-20.6,0-37.3-16.7-37.3-37.3l0,0v-1253.7
				C-2469.6-1092.8-2452.9-1109.5-2432.3-1109.5z"/>
			<g id="Group_301" transform="translate(-2425.028 -1021.965)">
				<line id="Line_104" class="st4" x1="0" y1="0" x2="770.9" y2="0"/>
				<line id="Line_105" class="st5" x1="0" y1="79.1" x2="770.9" y2="79.1"/>
				<line id="Line_106" class="st5" x1="0" y1="158.1" x2="770.9" y2="158.1"/>
				<line id="Line_107" class="st5" x1="0" y1="237.2" x2="770.9" y2="237.2"/>
				<line id="Line_108" class="st5" x1="0" y1="316.3" x2="770.9" y2="316.3"/>
				<line id="Line_109" class="st5" x1="0" y1="395.3" x2="770.9" y2="395.3"/>
				<line id="Line_110" class="st5" x1="0" y1="474.4" x2="770.9" y2="474.4"/>
				<line id="Line_111" class="st5" x1="0" y1="553.5" x2="770.9" y2="553.5"/>
				<line id="Line_112" class="st5" x1="0" y1="632.5" x2="770.9" y2="632.5"/>
				<line id="Line_113" class="st5" x1="0" y1="711.6" x2="770.9" y2="711.6"/>
				<line id="Line_114" class="st5" x1="0" y1="790.7" x2="770.9" y2="790.7"/>
				<line id="Line_124" class="st5" x1="0" y1="1027.7" x2="770.9" y2="1027.7"/>
				<line id="Line_115" class="st5" x1="0" y1="869.7" x2="770.9" y2="869.7"/>
				<line id="Line_123" class="st5" x1="0" y1="1106.7" x2="770.9" y2="1106.7"/>
				<line id="Line_121" class="st5" x1="0" y1="948.7" x2="770.9" y2="948.7"/>
				<line id="Line_122" class="st5" x1="0" y1="1185.7" x2="770.9" y2="1185.7"/>
			</g>
			<g id="Group_302" transform="translate(-2359.531 -1161.46)">
				<path id="Path_461" class="st1" d="M15.9,83.8L0.5,22.5C-1.9,12.8,4,3,13.7,0.5l0,0l0,0c9.7-2.4,19.6,3.5,22,13.2l0,0l6.8,27"/>
				<path id="Path_462" class="st1" d="M6.6,46.6L21,104.1c3.4,13.7,17.3,22,30.9,18.6l0,0c13.7-3.4,22-17.3,18.6-30.9L63.8,66"/>
			</g>
		</g>
	</g>
	<g>
		<g>
			<g>
				<g>
					<g id="Mask_Group_1" transform="translate(0 -40)">
						<g id="Group_3" transform="translate(-3070.983 659.545)" class="st6">
							<path id="Path_6" class="st7" d="M2812,472.9c2.6-12.7,4.8-25.6,7.9-38.2c7.2-29.5,21.2-55.5,40.8-78.5
								c31.4-37,70.6-62.1,116.7-77c4.4-1.4,7-0.7,10.1,2.6c23.3,24.3,46.5,48.8,70.4,72.5c26.7,26.6,54.5,51.9,86.8,71.9
								c27.8,17.2,56.8,31.6,88.8,42.3c1-4.1,1.9-7.8,2.7-11.7c10.9-53.7,52-94.2,106.4-102.8c38.2-6.1,72.7,4.5,103,28.2
								c26.8,21,41.5,49.6,48.8,82.3c0.2,0.7,0.5,1.4,0.8,2c27.9-9.7,54-22.8,79.3-37.7c27.5-16.2,51.3-36.7,73.5-59.3
								c33.2-34,66.9-67.6,100-101.7c29.7-30.5,59-61.3,88.3-92.1c24.2-25.3,48.2-50.7,72.2-76.1c1.3-1.4,2.5-2.9,4.4-5.2l-18.1-6
								c20.6-6.6,39.8-12.8,58.9-18.9c4.7-1.5,9.5-2.7,14.2-4c0,1.1,0,2.2-0.2,3.2c-4.1,19-8.2,38-12.4,57c-1,4.4-2,8.7-3.3,14.5
								l-7-16.2l-158,169.6c1.9,1,3.9,2,6,3.1c27.4,14.7,51.9,33.1,72.2,56.5c28,32.3,44.9,69.8,49.6,112.7
								c3.4,30.8,1.3,60.9-7.6,90.5c-14,46.1-40.9,83.3-79.7,111.6c-31.8,23.2-67.4,37.7-106.7,42.4c-5.9,0.7-11.7,1.7-17.6,2.5h-22
								c-1.9-0.4-3.7-1-5.5-1.2c-11-1.7-22.2-2.5-33-5c-49.8-11.4-91.9-36-125.1-75.1c-22.6-26.3-38.2-57.9-45.2-91.9
								c-1.5-7-2.7-14.1-4.1-21.2c-69.5,17.9-138.5,18.2-208.2,1.2c-0.3,3.1-0.4,5.6-0.7,8.1s-0.7,5.1-1.3,7.6
								c-12.4,54.4-39.7,99.2-85.1,132.3c-31.9,23.3-67.3,37.9-106.7,42.7c-5.7,0.7-11.3,1.7-16.9,2.5h-23.3
								c-1.6-0.5-3.2-0.9-4.9-1.2c-10.6-1.4-21.4-1.9-31.8-4.4c-67.7-16.3-119.9-53.6-153.1-115.5c-11.1-20.6-19.2-42.5-20.6-66.4
								c-0.5-8.9-2.4-17.7-3.7-26.6L2812,472.9z M3000.8,351.4c-10.6-11.2-20.5-21.8-30.6-32c-1-1-4.3-0.7-6.1,0.1
								c-35.1,15.5-65,37.7-87.2,69.3c-29.2,41.4-37.3,87.6-28.8,137c8.1,47.4,32.6,85.2,70.6,113.6c47.2,35.4,100.4,48,158.6,35.9
								c48.4-10.1,87.5-35.2,117-75c19.1-25.7,29.4-54.9,33.8-86.3c0.2-1.3-0.7-3.8-1.7-4.2c-13.1-5.1-26.2-9.9-39.8-15
								c-0.8,6.9-1.2,13.5-2.2,20c-5.7,36.8-23.3,66.9-52.3,90.1c-37.7,30.1-80.5,39.9-127.5,29.9c-36.2-7.7-65.7-26.6-87.9-56.5
								c-23.7-31.9-32.1-67.6-26.8-106.8c3.6-26.9,14.7-50.6,32-71.1C2942.5,375.9,2968.5,359.5,3000.8,351.4L3000.8,351.4z
								 M3499.5,509.6c3.4,14.4,5.9,29.4,10.6,43.7c10.5,31.7,29.3,57.9,54.9,79.4c32,26.8,68.8,42.5,110.1,46.2
								c34.1,3.2,68.5-2.9,99.4-17.7c46.3-22,79.8-56,98-104.1c10.5-27.8,13.2-56.6,10-86.1c-2.1-19.2-6.7-37.5-15-54.8
								c-20-42-52.9-71.2-93.7-92.3c-11.9-6.2-12-6-21.6,3.6c-7.6,7.5-15.2,15-23.5,23.1c2.9,0.9,4.5,1.4,6.1,1.9
								c22.6,6.4,43.1,17.1,60.2,33.1c35.5,33.3,52.2,74.1,47,123.1c-3.6,33.5-17.3,62.6-41.3,85.8c-39.1,37.9-86.3,52.2-139.6,40.3
								c-53.5-12-90.5-44.5-108.6-96.6c-5.1-14.7-6.5-30.8-9.7-46.1L3499.5,509.6z M3362,490.3c8.6-0.6,17.3-0.6,25.8-1.8
								c22.4-3.1,44.8-6.5,67.1-10.2c7.7-1.3,8.4-2.9,6.6-10.3c-6.1-24.9-17.8-46.5-38.7-62c-23-17-49-25-77.4-19.1
								c-44.8,9.4-72.5,40.2-79.4,85.8c-0.6,3.9,0.7,5.8,4.6,6.7C3300.8,486.1,3331.3,489.7,3362,490.3L3362,490.3z"/>
							<path id="Path_7" class="st7" d="M3016.2,205.3l-28.5-28.5C3185.4-24,3528.3-38.7,3742.9,176l-28.4,28.4
								c-96.5-92.8-212.7-142.5-348.4-142.5C3230.4,61.7,3114.2,111.2,3016.2,205.3z"/>
							<path id="Path_8" class="st7" d="M3087.8,277.7l-28.7-28.7c164.5-165.7,441.4-171.4,613.5-0.5l-29,28.7
								c-76.8-74.5-169.9-113.8-277.8-113.8C3258,163.4,3165.2,202.7,3087.8,277.7z"/>
							<path id="Path_9" class="st7" d="M3165.6,357c-9.8-9.7-19.3-19.2-28.8-28.7c119.2-123.4,330.1-130.3,458.3-0.2l-28.8,28.8
								C3455.9,246,3274.4,247.3,3165.6,357z"/>
							<path id="Path_10" class="st7" d="M3367.5,712.6l-60.6-105c41.1,4.4,81,5.6,122.4-2L3367.5,712.6z"/>
						</g>
					</g>
				</g>
			</g>
		</g>
	</g>
</g>
</svg>
