<?xml version="1.0" encoding="utf-8"?>
<!-- Generator: Adobe Illustrator 25.0.1, SVG Export Plug-In . SVG Version: 6.00 Build 0)  -->
<svg version="1.1" id="Layer_1" xmlns="http://www.w3.org/2000/svg" xmlns:xlink="http://www.w3.org/1999/xlink" x="0px" y="0px"
	 viewBox="0 0 75.4 124.8" style="enable-background:new 0 0 75.4 124.8;" xml:space="preserve">
<style type="text/css">
	.st0{fill:#FFFFFF;}
	.st1{enable-background:new    ;}
	.st2{fill:#1C3F55;}
</style>
<g id="Group_509" transform="translate(-509.167 -124.528)">
	<g id="Group_33" transform="translate(-9.095 46.473)">
		<path id="Rectangle_7" class="st0" d="M518.3,78.1h50.4c13.8,0,25,11.2,25,25v74.8c0,13.8-11.2,25-25,25h-50.4V78.1z"/>
		<g class="st1">
			<path class="st2" d="M541.7,124c-0.3-0.3-0.5-0.7-0.5-1.2v-6.1c0-0.5,0.2-0.9,0.5-1.2c0.3-0.3,0.7-0.5,1.2-0.5h8.2
				c0.5,0,0.9,0.2,1.2,0.5s0.5,0.7,0.5,1.2v6.1c0,0.5-0.2,0.9-0.5,1.2c-0.3,0.3-0.7,0.5-1.2,0.5h-8.2
				C542.5,124.5,542.1,124.3,541.7,124z M541.8,163c-0.3-0.3-0.5-0.7-0.5-1.2v-31c0-0.5,0.2-0.9,0.5-1.2s0.7-0.5,1.2-0.5h8.2
				c0.5,0,0.9,0.2,1.2,0.5s0.5,0.7,0.5,1.2v31c0,0.5-0.2,0.9-0.5,1.2s-0.7,0.5-1.2,0.5H543C542.5,163.5,542.1,163.4,541.8,163z"/>
		</g>
	</g>
</g>
</svg>
