<?xml version="1.0" encoding="utf-8"?>
<!-- Generator: Adobe Illustrator 23.0.0, SVG Export Plug-In . SVG Version: 6.00 Build 0)  -->
<svg version="1.1" id="Layer_1" xmlns="http://www.w3.org/2000/svg" xmlns:xlink="http://www.w3.org/1999/xlink" x="0px" y="0px"
	 viewBox="0 0 767.2 1212.2" style="enable-background:new 0 0 767.2 1212.2;" xml:space="preserve">
<style type="text/css">
	.st0{fill:none;stroke:#708FA0;stroke-width:8;stroke-linecap:round;stroke-miterlimit:10;}
	.st1{fill:#FFFFFF;}
</style>
<g id="Group_545" transform="translate(-156.707 -205.798)">
	<g id="Group_303" transform="translate(156.707 209.766)">
		<line id="Line_103" class="st0" x1="143.6" y1="38.4" x2="151.3" y2="69.3"/>
		<path id="Path_459" class="st0" d="M150.3,65.3l1.8,7.3c1.3,5.1-1.8,10.3-6.9,11.6l0,0l0,0c-5.1,1.3-10.3-1.8-11.6-6.9l-1.8-7.3
			l-9-36.1"/>
		<path id="Rectangle_27" class="st1" d="M37.3,48.9h692.6c20.6,0,37.3,19,37.3,42.4v1074.6c0,23.4-16.7,42.4-37.3,42.4H37.3
			c-20.6,0-37.3-19-37.3-42.4V91.3C0,67.9,16.7,48.9,37.3,48.9z"/>
		<g id="Group_302" transform="translate(103.578 0.076)">
			<path id="Path_461" class="st0" d="M14.9,78.8L0.5,21.2C-1.8,12.1,3.8,2.8,12.9,0.5l0,0l0,0C22-1.8,31.3,3.8,33.6,12.9l0,0
				L40,38.3"/>
			<path id="Path_462" class="st0" d="M6.2,43.9L19.7,98c3.2,12.9,16.3,20.7,29.1,17.5l0,0c12.9-3.2,20.7-16.3,17.5-29.1L60,62"/>
		</g>
	</g>
</g>
</svg>
