<?xml version="1.0" encoding="utf-8"?>
<!-- Generator: Adobe Illustrator 23.0.0, SVG Export Plug-In . SVG Version: 6.00 Build 0)  -->
<svg version="1.1" id="Layer_1" xmlns="http://www.w3.org/2000/svg" xmlns:xlink="http://www.w3.org/1999/xlink" x="0px" y="0px"
	 viewBox="0 0 767.2 1317" style="enable-background:new 0 0 767.2 1317;" xml:space="preserve" preserveAspectRatio="none">
<style type="text/css">
	.st0{fill:none;stroke:#708FA0;stroke-width:8;stroke-linecap:round;stroke-miterlimit:10;}
	.st1{fill:#FFFFFF;}
	.st2{fill:none;stroke:#B3B3B3;stroke-width:8;stroke-miterlimit:10;}
</style>
<g id="Group_487" transform="translate(-156.707 -205.798)">
	<g id="Group_303" transform="translate(156.707 209.766)">
		<line id="Line_103" class="st0" x1="143.6" y1="37.9" x2="151.3" y2="68.4"/>
		<path id="Path_459" class="st0" d="M150.3,64.5l1.8,7.2c1.3,5-1.8,10.2-6.9,11.5l0,0l0,0c-5.1,1.3-10.3-1.8-11.6-6.8l-1.8-7.2
			l-9-35.6"/>
		<path id="Rectangle_27" class="st1" d="M37.3,48.3h692.6c20.6,0,37.3,15.5,37.3,34.6v1195.5c0,19.1-16.7,34.6-37.3,34.6H37.3
			c-20.6,0-37.3-15.5-37.3-34.6V82.9C0,63.8,16.7,48.3,37.3,48.3z"/>
		<path id="Path_460" class="st2" d="M158.9,0"/>
		<g id="Group_302" transform="translate(103.578 0.076)">
			<path id="Path_461" class="st0" d="M14.9,77.8L0.5,20.9c-2.3-9,3.3-18.2,12.4-20.4l0,0l0,0C22-1.8,31.3,3.7,33.6,12.7l0,0
				L40,37.8"/>
			<path id="Path_462" class="st0" d="M6.2,43.3l13.5,53.4c3.2,12.7,16.3,20.4,29.1,17.3l0,0c12.9-3.2,20.7-16.1,17.5-28.7L60,61.2"
				/>
		</g>
	</g>
</g>
</svg>
