<svg xmlns="http://www.w3.org/2000/svg" width="54.866" height="73.616" viewBox="0 0 54.866 73.616">
  <defs>
    <style>
      .cls-1 {
        fill: #2be8f7;
      }

      .cls-2 {
        fill: none;
        stroke: #2be8f7;
        stroke-linecap: round;
        stroke-linejoin: round;
        stroke-width: 6px;
      }
    </style>
  </defs>
  <g id="Group_552" data-name="Group 552" transform="translate(3.04 3)">
    <g id="Group_292" data-name="Group 292">
      <g id="Group_290" data-name="Group 290" transform="translate(0 34.323)">
        <path id="Path_453" data-name="Path 453" class="cls-1" d="M841.365,442.384a6.426,6.426,0,0,1,0,9.084l-8.8,2.775a2.456,2.456,0,0,1-3.079-3.079l2.775-8.781A6.426,6.426,0,0,1,841.365,442.384Z" transform="translate(-829.375 -440.496)"/>
      </g>
      <g id="Group_291" data-name="Group 291">
        <path id="Path_454" data-name="Path 454" class="cls-2" d="M831.231,454.053l.076-.076,34.032-34.047a6.434,6.434,0,0,1,9.1,9.1l-34.032,34.032-.091.091" transform="translate(-828.416 -418.053)"/>
        <path id="Path_455" data-name="Path 455" class="cls-2" d="M832.266,442.384a6.429,6.429,0,1,1,9.1,9.084l-8.8,2.775a2.456,2.456,0,0,1-3.079-3.079Z" transform="translate(-829.375 -406.461)"/>
      </g>
    </g>
    <path id="Path_456" data-name="Path 456" class="cls-2" d="M835.573,455.743l-5.795-4.876c-4.4-3.7-9.589-2.76-12.68,2.311h0c-3.174,5.208-8.546,6.048-13,2.034l-6.139-5.535" transform="translate(-787.974 -390.133)"/>
  </g>
</svg>
