<svg xmlns="http://www.w3.org/2000/svg" width="767.274" height="894.939" viewBox="0 0 767.274 894.939">
  <defs>
    <style>
      .cls-1, .cls-3, .cls-5, .cls-6 {
        fill: none;
      }

      .cls-1 {
        stroke: #708fa0;
      }

      .cls-1, .cls-5, .cls-6 {
        stroke-linecap: round;
      }

      .cls-1, .cls-3 {
        stroke-miterlimit: 10;
        stroke-width: 8px;
      }

      .cls-2 {
        fill: #fff;
      }

      .cls-3 {
        stroke: #b3b3b3;
      }

      .cls-4 {
        fill: #1de8f7;
      }

      .cls-5 {
        stroke: #fff;
        stroke-linejoin: round;
        stroke-width: 5px;
      }

      .cls-6 {
        stroke: #dbdbdb;
        stroke-width: 2px;
        opacity: 0.5;
      }
    </style>
  </defs>
  <g id="Group_545" data-name="Group 545" transform="translate(-156.707 -373.988)">
    <g id="Group_303" data-name="Group 303" transform="translate(156.707 377.956)">
      <line id="Line_103" data-name="Line 103" class="cls-1" x2="7.729" y2="30.876" transform="translate(143.563 38.421)"/>
      <path id="Path_459" data-name="Path 459" class="cls-1" d="M-2320.259-1098.426l1.83,7.309a9.524,9.524,0,0,1-6.926,11.552h0a9.524,9.524,0,0,1-11.551-6.926l-1.83-7.309-9.031-36.077" transform="translate(2470.558 1163.757)"/>
      <rect id="Rectangle_27" data-name="Rectangle 27" class="cls-2" width="767.274" height="842.049" rx="37.326" transform="translate(0 48.921)"/>
      <path id="Path_460" data-name="Path 460" class="cls-3" d="M-2328.244-1161.541" transform="translate(2487.13 1161.541)"/>
      <g id="Group_302" data-name="Group 302" transform="translate(103.578 0.076)">
        <path id="Path_461" data-name="Path 461" class="cls-1" d="M-2355.848-1091.555l-14.42-57.605a17.065,17.065,0,0,1,12.41-20.7h0a17.065,17.065,0,0,1,20.7,12.41l6.363,25.42" transform="translate(2370.783 1170.371)"/>
        <path id="Path_462" data-name="Path 462" class="cls-1" d="M-2363.374-1117.828l13.548,54.12a24.006,24.006,0,0,0,29.116,17.458h0a24.006,24.006,0,0,0,17.457-29.116l-6.28-24.317" transform="translate(2369.559 1161.69)"/>
      </g>
    </g>
    <g id="Group_314" data-name="Group 314" transform="translate(55.17 16)">
      <g id="Group_324" data-name="Group 324" transform="translate(198 686)">
        <circle id="Ellipse_8" data-name="Ellipse 8" class="cls-4" cx="40" cy="40" r="40" transform="translate(-0.17 0)"/>
        <g id="Group_324-2" data-name="Group 324" transform="translate(23.251 20.119)">
          <rect id="Rectangle_38" data-name="Rectangle 38" class="cls-5" width="21.613" height="29.925" rx="2" transform="translate(0 0)"/>
          <path id="Path_463" data-name="Path 463" class="cls-5" d="M471.272,183.468v26.74a3.185,3.185,0,0,1-3.185,3.185H449.66" transform="translate(-438.628 -172.437)"/>
        </g>
      </g>
    </g>
    <g id="Group_421" data-name="Group 421" transform="translate(-25 132)">
      <g id="Group_504" data-name="Group 504" transform="translate(278.31 738.625)">
        <ellipse id="Ellipse_8-2" data-name="Ellipse 8" class="cls-4" cx="40" cy="39.5" rx="40" ry="39.5" transform="translate(-0.31 0.375)"/>
        <path id="Path_464" data-name="Path 464" class="cls-5" d="M654.866,250.658l-23.2-15.7v31.4Z" transform="translate(-599.031 -210.652)"/>
      </g>
    </g>
    <path id="Path_517" data-name="Path 517" class="cls-6" d="M836.239,761.856v590.08" transform="translate(1601.242 -11.335) rotate(90)"/>
    <path id="Path_517-2" data-name="Path 517" class="cls-6" d="M836.239,761.856v590.08" transform="translate(1601.242 160.665) rotate(90)"/>
  </g>
</svg>
