<svg xmlns="http://www.w3.org/2000/svg" width="86.152" height="92.16" viewBox="0 0 86.152 92.16">
  <defs>
    <style>
      .cls-1, .cls-3 {
        fill: none;
        stroke: #2be8f7;
        stroke-width: 6px;
      }

      .cls-1 {
        stroke-linecap: round;
        stroke-linejoin: round;
      }

      .cls-2 {
        fill: #fff;
      }

      .cls-3 {
        stroke-miterlimit: 10;
      }
    </style>
  </defs>
  <g id="Group_549" data-name="Group 549" transform="translate(-426.08 -727.887)">
    <g id="Group_31" data-name="Group 31" transform="translate(461.94 771.776)">
      <g id="Group_30" data-name="Group 30">
        <g id="Group_29" data-name="Group 29">
          <line id="Line_74" data-name="Line 74" class="cls-1" y2="5.296" transform="translate(22.052 19.471)"/>
          <path id="Path_74" data-name="Path 74" class="cls-1" d="M517.7,1778.984v-25.892a4.171,4.171,0,0,1,4.214-4.123,4.278,4.278,0,0,1,2.973,1.206,4.069,4.069,0,0,1,1.23,2.917v10.451" transform="translate(-504.06 -1748.969)"/>
          <line id="Line_75" data-name="Line 75" class="cls-1" y2="5.354" transform="translate(38.875 22.377)"/>
          <path id="Path_75" data-name="Path 75" class="cls-1" d="M520.347,1775.844l-6.46-6.431a4.249,4.249,0,0,0-5.946,0,4.074,4.074,0,0,0,0,5.834l10.6,10.4,6.018,5.448H554v-23.6a4.174,4.174,0,0,0-4.214-4.135,4.228,4.228,0,0,0-2.973,1.206,4.126,4.126,0,0,0-1.23,2.929" transform="translate(-506.711 -1745.829)"/>
          <path id="Path_76" data-name="Path 76" class="cls-1" d="M532.894,1765.409v-3.737a4.174,4.174,0,0,0-4.215-4.124,4.28,4.28,0,0,0-2.973,1.207,4.073,4.073,0,0,0-1.229,2.917v4.9" transform="translate(-502.424 -1747.098)"/>
          <path id="Path_77" data-name="Path 77" class="cls-1" d="M531.258,1773.129v-8.389a4.161,4.161,0,0,1,4.2-4.123,4.229,4.229,0,0,1,2.973,1.206,4.121,4.121,0,0,1,1.23,2.917v4.065" transform="translate(-500.788 -1746.43)"/>
        </g>
      </g>
    </g>
    <g id="Group_401" data-name="Group 401" transform="translate(429.08 746.252)">
      <g id="Group_402" data-name="Group 402" transform="translate(0 0)">
        <path id="Path_479" data-name="Path 479" class="cls-2" d="M23,53H5.493A3.493,3.493,0,0,1,2,49.51V19.085a3.493,3.493,0,0,1,3.493-3.493H23a3.493,3.493,0,0,1,3.493,3.493V49.51A3.493,3.493,0,0,1,23,53" transform="translate(-2 -15.592)"/>
        <rect id="Rectangle_51" data-name="Rectangle 51" class="cls-3" width="24.494" height="37.412" rx="4.041" transform="translate(0)"/>
      </g>
    </g>
    <g id="Group_493" data-name="Group 493" transform="matrix(0.899, 0.438, -0.438, 0.899, 454.837, 731.898)">
      <g id="Group_402-2" data-name="Group 402" transform="translate(0 0)">
        <path id="Path_479-2" data-name="Path 479" class="cls-2" d="M21,37.412H3.493A3.493,3.493,0,0,1,0,33.918V3.493A3.493,3.493,0,0,1,3.493,0H21a3.493,3.493,0,0,1,3.493,3.493V33.918A3.493,3.493,0,0,1,21,37.412" transform="translate(0 0)"/>
        <rect id="Rectangle_51-2" data-name="Rectangle 51" class="cls-3" width="24.494" height="37.412" rx="4.041" transform="translate(0 0)"/>
      </g>
    </g>
  </g>
</svg>
