<svg id="a84d188d-31b8-4a50-9fae-1e0e820e5f5e" data-name="af24277a-818d-4c8b-9f60-dd58099a2de4" xmlns="http://www.w3.org/2000/svg" viewBox="0 0 295.20001 103.90002"><defs><style>.f2e9f103-5da6-4a5c-a16d-a4e3ecb69962{fill:#fff;stroke:#dbdbdb;stroke-width:6px;}.e07a8c6f-5f42-4b7c-91ed-6163fd55f65d{fill:#1c3f55;}</style></defs><title>to_exam</title><g id="b441d599-1720-4dc2-b26b-8c5228231b90" data-name="Group 451"><path id="ed5cfdf3-dd1e-4465-839c-aabb7c92350f" data-name="Rectangle 86" class="f2e9f103-5da6-4a5c-a16d-a4e3ecb69962" d="M26,3H269.2a23.00329,23.00329,0,0,1,23,23V77.9a23.00328,23.00328,0,0,1-23,23H26a23.00328,23.00328,0,0,1-23-23V26A23.00329,23.00329,0,0,1,26,3Z"/></g><path class="e07a8c6f-5f42-4b7c-91ed-6163fd55f65d" d="M41.73948,68.56136a.989.989,0,0,1-.31543-.75586V40.71516a.989.989,0,0,1,.31543-.75586,1.0964,1.0964,0,0,1,.77735-.29394h4.95605a1.00686,1.00686,0,0,1,1.04981,1.0498V67.8055a1.00686,1.00686,0,0,1-1.04981,1.0498H42.51683A1.09853,1.09853,0,0,1,41.73948,68.56136Z"/><path class="e07a8c6f-5f42-4b7c-91ed-6163fd55f65d" d="M53.83519,63.35335a.9875.9875,0,0,1-.31543-.75586V40.71516a.989.989,0,0,1,.31543-.75586,1.09637,1.09637,0,0,1,.77734-.29394h9.91211q5.96338,0,8.79883,2.457,2.83448,2.45655,2.835,8.085V62.59749a1.04619,1.04619,0,0,1-.29395.73486.98854.98854,0,0,1-.75586.31494H70.15257a1.09425,1.09425,0,0,1-.77734-.29394.9875.9875,0,0,1-.31543-.75586V50.16536q0-4.78785-4.74512-4.78809H60.61839V62.59749a1.04622,1.04622,0,0,1-.29394.73486.98857.98857,0,0,1-.75586.31494H54.61253A1.09425,1.09425,0,0,1,53.83519,63.35335Z"/><path class="e07a8c6f-5f42-4b7c-91ed-6163fd55f65d" d="M80.42112,63.33235a1.00792,1.00792,0,0,1-.31542-.73486V58.98518a.989.989,0,0,1,.31542-.75586,1.04443,1.04443,0,0,1,.73536-.29394h10.542v-7.77q0-4.74609-4.7461-4.74609h-5.376a.98919.98919,0,0,1-.75684-.31495,1.09814,1.09814,0,0,1-.29394-.77685V40.71516a.989.989,0,0,1,.31543-.75586,1.04439,1.04439,0,0,1,.73535-.29394h5.58594q5.87988,0,8.88281,2.478,3.00145,2.47851,3.00293,8.022v7.77h1.46972a1.00686,1.00686,0,0,1,1.04981,1.0498v3.61231a1.042,1.042,0,0,1-.29395.73486.98855.98855,0,0,1-.75586.31494H81.15648A1.00773,1.00773,0,0,1,80.42112,63.33235Z"/><path class="e07a8c6f-5f42-4b7c-91ed-6163fd55f65d" d="M126.30589,42.22737q2.68653,2.562,2.6875,7.686V62.59749a1.04622,1.04622,0,0,1-.29394.73486.98857.98857,0,0,1-.75586.31494H116.47777a1.07723,1.07723,0,0,1-1.05079-1.0498V58.98518a.989.989,0,0,1,.31543-.75586,1.04441,1.04441,0,0,1,.73536-.29394h5.418v-7.686a5.04651,5.04651,0,0,0-1.05078-3.40185,3.43508,3.43508,0,0,0-2.72949-1.21826h-3.27637L111.26976,62.5555a1.27773,1.27773,0,0,1-.33594.77685.98921.98921,0,0,1-.75684.31494h-4.8291a1.05562,1.05562,0,0,1-.77734-.31494.82786.82786,0,0,1-.23145-.77685l4.11621-16.88428h-2.77148a.98923.98923,0,0,1-.75684-.31494,1.09815,1.09815,0,0,1-.29394-.77686V40.71516a.989.989,0,0,1,.31543-.75586,1.04441,1.04441,0,0,1,.73535-.29394h13.48145A9.92469,9.92469,0,0,1,126.30589,42.22737Z"/><path class="e07a8c6f-5f42-4b7c-91ed-6163fd55f65d" d="M149.23851,42.29036q2.39355,2.625,2.39355,7.917a12.34774,12.34774,0,0,1-3.15039,8.73584,16.72385,16.72385,0,0,1-7.89551,4.7461l-1.72168.5039a.81427.81427,0,0,1-.77734-.29394,1.19512,1.19512,0,0,1-.35742-.83985V58.81721a1.19714,1.19714,0,0,1,.29394-.77685,2.07485,2.07485,0,0,1,.75684-.5669l1.34375-.54638a6.77664,6.77664,0,0,0,3.04492-2.24658,7.03253,7.03253,0,0,0,1.11328-4.26319,5.65122,5.65122,0,0,0-.9248-3.6958q-.92432-1.04957-3.44336-1.05029h-1.0918l-5.6289-.042a1.00688,1.00688,0,0,1-1.04981-1.04981V34.87727a.989.989,0,0,1,.31543-.75586,1.0438,1.0438,0,0,1,.73438-.29394h4.53613a1.00836,1.00836,0,0,1,1.05078,1.0498v4.78809H141.384Q146.84348,39.66536,149.23851,42.29036Z"/><path class="e07a8c6f-5f42-4b7c-91ed-6163fd55f65d" d="M180.23265,63.35335a1.02521,1.02521,0,0,1-.29395-.75586V50.16536q0-4.78785-4.74511-4.78809h-9.57618a1.09425,1.09425,0,0,1-.77734-.29394.9875.9875,0,0,1-.31543-.75586V40.71516a.989.989,0,0,1,.31543-.75586,1.09637,1.09637,0,0,1,.77734-.29394h9.78614q5.79492,0,8.71484,2.562,2.918,2.562,2.91895,7.98V62.59749a.9875.9875,0,0,1-.31543.75586,1.09353,1.09353,0,0,1-.77637.29394h-4.95606A1.02362,1.02362,0,0,1,180.23265,63.35335Zm-15.39258,0a.9875.9875,0,0,1-.31543-.75586V50.33333a.98821.98821,0,0,1,.31543-.75586,1.09638,1.09638,0,0,1,.77734-.29395h4.95606a1.00686,1.00686,0,0,1,1.0498,1.04981V62.59749a1.04622,1.04622,0,0,1-.29394.73486.98855.98855,0,0,1-.75586.31494h-4.95606A1.09425,1.09425,0,0,1,164.84007,63.35335Z"/><path class="e07a8c6f-5f42-4b7c-91ed-6163fd55f65d" d="M202.84984,63.35335a.98669.98669,0,0,1-.31446-.75586V50.16536q0-4.78785-4.74609-4.78809H191.4055a1.07723,1.07723,0,0,1-1.05078-1.0498V40.71516a.989.989,0,0,1,.31543-.75586,1.04441,1.04441,0,0,1,.73535-.29394h6.63574q5.8374,0,8.71485,2.394,2.87694,2.39357,2.87695,7.854V62.59749a1.04619,1.04619,0,0,1-.29395.73486.98855.98855,0,0,1-.75586.31494h-4.956A1.09425,1.09425,0,0,1,202.84984,63.35335Z"/><path class="e07a8c6f-5f42-4b7c-91ed-6163fd55f65d" d="M227.04222,39.9593a.98555.98555,0,0,1,.31543.75586v3.61231a1.04133,1.04133,0,0,1-1.0918,1.0498h-1.93262a6.42567,6.42567,0,0,0-.77636,2.14209,14.97552,14.97552,0,0,0-.27344,2.98194V62.72346a.79044.79044,0,0,1-.37793.65088,1.33787,1.33787,0,0,1-.79785.273h-4.91406a.867.867,0,0,1-.92383-.92383V50.03938q0-3.40209.83984-4.66211h-3.15039a1.07728,1.07728,0,0,1-1.0498-1.0498V40.71516a.98893.98893,0,0,1,.31543-.75586,1.04377,1.04377,0,0,1,.73437-.29394h12.30664A1.09566,1.09566,0,0,1,227.04222,39.9593Z"/><path class="e07a8c6f-5f42-4b7c-91ed-6163fd55f65d" d="M231.66234,63.35335a.98746.98746,0,0,1-.31543-.75586V40.71516a.98893.98893,0,0,1,.31543-.75586,1.09637,1.09637,0,0,1,.77734-.29394h9.91211q5.96337,0,8.79883,2.457,2.83447,2.45655,2.835,8.085V62.59749a1.04619,1.04619,0,0,1-.29395.73486.98855.98855,0,0,1-.75586.31494h-4.95605a1.09428,1.09428,0,0,1-.77735-.29394.98749.98749,0,0,1-.31542-.75586V50.16536q0-4.78785-4.74512-4.78809h-3.69629V62.59749a1.04619,1.04619,0,0,1-.29395.73486.98855.98855,0,0,1-.75586.31494h-4.956A1.09425,1.09425,0,0,1,231.66234,63.35335Z"/></svg>