<?xml version="1.0" encoding="utf-8"?>
<!-- Generator: Adobe Illustrator 23.0.0, SVG Export Plug-In . SVG Version: 6.00 Build 0)  -->
<svg version="1.1" id="Layer_1" xmlns="http://www.w3.org/2000/svg" xmlns:xlink="http://www.w3.org/1999/xlink" x="0px" y="0px"
	 viewBox="0 0 169.9 88.5" style="enable-background:new 0 0 169.9 88.5;" xml:space="preserve">
<style type="text/css">
	.st0{fill:#FFFFFF;stroke:#DBDBDB;stroke-width:6;stroke-linecap:round;stroke-linejoin:round;}
	.st1{enable-background:new    ;}
	.st2{fill:#1C3F55;}
</style>
<g id="Group_361" transform="translate(-332.686 -1002.877)">
	<path id="Rectangle_47" class="st0" d="M362.7,1005.9h109.9c14.9,0,27,12.1,27,27v28.5c0,14.9-12.1,27-27,27H362.7
		c-14.9,0-27-12.1-27-27v-28.5C335.7,1018,347.8,1005.9,362.7,1005.9z"/>
	<g class="st1">
		<path class="st2" d="M408.8,1036.6c0.2,0.2,0.3,0.4,0.3,0.7v9.7c0,2.2-0.5,4.1-1.5,5.7c-1,1.6-2.3,2.9-4,3.8
			c-1.7,0.9-3.6,1.3-5.7,1.3h-3.6c-2,0-3.7-0.4-5.2-1.1c-1.5-0.8-2.6-1.8-3.4-3.1s-1.2-2.8-1.2-4.3v-11.9c0-0.3,0.1-0.5,0.3-0.7
			c0.2-0.2,0.4-0.3,0.7-0.3h3.9c0.3,0,0.5,0.1,0.7,0.3c0.2,0.2,0.3,0.4,0.3,0.7l0,8.9c1.3-0.1,2.3-0.6,2.8-1.5
			c0.5-0.9,0.8-2.2,0.8-3.9v-3.4c0-0.3,0.1-0.5,0.3-0.7c0.2-0.2,0.4-0.3,0.7-0.3h3.8c0.2,0,0.5,0.1,0.6,0.3c0.2,0.2,0.3,0.4,0.3,0.7
			v3.5c0,2.8-0.7,5-2.2,6.7s-3.5,2.6-6.2,2.8c0.5,0.8,1.1,1.4,1.9,1.8c0.8,0.4,1.6,0.6,2.6,0.6h0.9c1.3,0,2.4-0.3,3.4-0.8
			c1-0.5,1.8-1.2,2.4-2.1c0.6-0.9,0.9-1.9,0.9-3.1v-9.5c0-0.3,0.1-0.5,0.3-0.7c0.2-0.2,0.4-0.3,0.7-0.3h3.9
			C408.4,1036.3,408.6,1036.4,408.8,1036.6z"/>
		<path class="st2" d="M427.3,1057.2c-0.2,0.2-0.4,0.3-0.7,0.3H422c-0.2,0-0.5-0.1-0.6-0.3c-0.2-0.2-0.3-0.4-0.3-0.7l-0.6-2.7
			c-0.6,0.7-1.3,1.3-2.1,1.8c-1,0.6-1.9,1.1-2.7,1.4c-0.8,0.3-1.6,0.6-2.5,0.8l-0.3,0c-0.4,0-0.6-0.2-0.6-0.6v-4
			c0-0.4,0.3-0.7,0.8-0.9c0.2-0.1,0.7-0.3,1.7-0.5c0.9-0.3,1.7-0.6,2.3-0.9c1-0.5,1.8-1.2,2.4-2l-0.7-3.4c-0.3-1.5-0.7-2.5-1.1-3.1
			c-0.5-0.6-1.2-0.9-2.3-0.9h-1.3c-0.2,0-0.5-0.1-0.6-0.3c-0.2-0.2-0.3-0.4-0.3-0.6v-3.4c0-0.3,0.1-0.5,0.3-0.7
			c0.2-0.2,0.4-0.3,0.7-0.3h1.4c2.1,0,3.8,0.3,5.1,0.9c1.3,0.6,2.3,1.6,3,2.9c0.7,1.3,1.3,3.1,1.8,5.3l2.2,11.3
			C427.6,1056.8,427.5,1057,427.3,1057.2z"/>
		<path class="st2" d="M444.5,1057.2c-0.2-0.2-0.3-0.4-0.3-0.7v-11c0-2.8-1.4-4.2-4.2-4.2h-8.4c-0.3,0-0.5-0.1-0.7-0.3
			c-0.2-0.2-0.3-0.4-0.3-0.7v-3.2c0-0.3,0.1-0.5,0.3-0.7c0.2-0.2,0.4-0.3,0.7-0.3h8.6c3.4,0,6,0.8,7.7,2.3c1.7,1.5,2.6,3.8,2.6,7
			v10.9c0,0.3-0.1,0.5-0.3,0.7c-0.2,0.2-0.4,0.3-0.7,0.3h-4.4C444.9,1057.5,444.7,1057.4,444.5,1057.2z M431,1057.2
			c-0.2-0.2-0.3-0.4-0.3-0.7v-10.8c0-0.3,0.1-0.5,0.3-0.7c0.2-0.2,0.4-0.3,0.7-0.3h4.4c0.3,0,0.5,0.1,0.7,0.3s0.3,0.4,0.3,0.7v10.8
			c0,0.2-0.1,0.5-0.3,0.6c-0.2,0.2-0.4,0.3-0.7,0.3h-4.4C431.4,1057.5,431.2,1057.4,431,1057.2z"/>
	</g>
</g>
</svg>
