<?xml version="1.0" encoding="utf-8"?>
<!-- Generator: Adobe Illustrator 25.0.1, SVG Export Plug-In . SVG Version: 6.00 Build 0)  -->
<svg version="1.1" id="Layer_1" xmlns="http://www.w3.org/2000/svg" xmlns:xlink="http://www.w3.org/1999/xlink" x="0px" y="0px"
	 viewBox="0 0 237.9 69.5" style="enable-background:new 0 0 237.9 69.5;" xml:space="preserve">
<style type="text/css">
	.st0{fill:#1C3F55;}
	.st1{opacity:0.3;enable-background:new    ;}
	.st2{fill:#FFFFFF;}
</style>
<g id="Group_546" transform="translate(-379.686 -1015.878)">
	<g id="Group_539" transform="translate(379.686 1015.878)">
		<path id="Rectangle_42" class="st0" d="M19,0h199.9c10.5,0,19,8.5,19,19v31.5c0,10.5-8.5,19-19,19H19c-10.5,0-19-8.5-19-19V19
			C0,8.5,8.5,0,19,0z"/>
		<g class="st1">
			<path class="st2" d="M33.8,53.4c-0.3-0.2-0.4-0.5-0.3-0.9l1-6.5h-5.1c-0.4,0-0.7-0.1-1-0.4c-0.3-0.3-0.4-0.6-0.4-1v-3.5
				c0-0.4,0.1-0.7,0.4-1s0.6-0.4,1-0.4h6l1.3-9h-5.8c-0.4,0-0.7-0.1-1-0.4s-0.4-0.6-0.4-1V26c0-0.4,0.1-0.7,0.4-1s0.6-0.4,1-0.4h6.7
				l1-6.5c0.1-0.4,0.2-0.7,0.5-0.9c0.2-0.2,0.5-0.4,0.9-0.4h3.5c0.4,0,0.7,0.1,0.9,0.4c0.2,0.2,0.4,0.5,0.4,0.9l-1,6.5h7.4l1-6.5
				c0.1-0.4,0.2-0.7,0.5-0.9c0.2-0.2,0.5-0.4,0.9-0.4h3.5c0.4,0,0.7,0.1,0.9,0.4c0.2,0.2,0.4,0.5,0.4,0.9l-1,6.5h5
				c0.4,0,0.7,0.1,1,0.4s0.4,0.6,0.4,1v3.5c0,0.4-0.1,0.7-0.4,1c-0.3,0.3-0.6,0.4-1,0.4h-5.9l-1.4,9h5.7c0.4,0,0.7,0.1,1,0.4
				c0.3,0.3,0.4,0.6,0.4,1v3.5c0,0.4-0.1,0.7-0.4,1c-0.3,0.3-0.6,0.4-1,0.4h-6.6l-1,6.5c-0.1,0.4-0.2,0.7-0.5,0.9
				c-0.2,0.2-0.6,0.4-1,0.4h-3.5c-0.4,0-0.7-0.1-0.9-0.4c-0.3-0.2-0.4-0.5-0.3-0.9l1-6.5h-7.4l-1,6.5c-0.1,0.4-0.2,0.7-0.5,0.9
				c-0.2,0.2-0.6,0.4-1,0.4h-3.5C34.3,53.8,34,53.7,33.8,53.4z M41.5,39.8H49l1.3-9h-7.4L41.5,39.8z"/>
		</g>
	</g>
</g>
</svg>
