<?xml version="1.0" encoding="utf-8"?>
<!-- Generator: Adobe Illustrator 25.0.1, SVG Export Plug-In . SVG Version: 6.00 Build 0)  -->
<svg version="1.1" id="Layer_1" xmlns="http://www.w3.org/2000/svg" xmlns:xlink="http://www.w3.org/1999/xlink" x="0px" y="0px"
	 viewBox="0 0 237.9 69.5" style="enable-background:new 0 0 237.9 69.5;" xml:space="preserve">
<style type="text/css">
	.st0{fill:#1C3F55;}
	.st1{opacity:0.306;}
	.st2{fill:none;stroke:#FFFFFF;stroke-width:4;stroke-linecap:round;stroke-linejoin:round;}
	.st3{fill:none;stroke:#FFFFFF;}
</style>
<g id="Group_359" transform="translate(-379.686 -1015.878)">
	<g id="Group_539" transform="translate(379.686 1015.878)">
		<path id="Rectangle_42" class="st0" d="M19,0h199.9c10.5,0,19,8.5,19,19v31.5c0,10.5-8.5,19-19,19H19c-10.5,0-19-8.5-19-19V19
			C0,8.5,8.5,0,19,0z"/>
		<g id="Group_545" transform="translate(30.105 12.642)" class="st1">
			<g id="Group_357">
				<path id="Path_470" class="st2" d="M36.8,26.3c0,10.2-8.2,18.4-18.4,18.4S0,36.4,0,26.3C0,16.1,8.2,7.9,18.4,7.9
					C28.5,7.9,36.8,16.1,36.8,26.3z"/>
				<path id="Path_471" class="st2" d="M18.4,16.9v9.3l4.9,4.2"/>
				<rect id="Rectangle_43" x="17.8" y="3" class="st3" width="1.2" height="3.9"/>
				<rect id="Rectangle_44" x="17.8" y="3" class="st2" width="1.2" height="3.9"/>
				<rect id="Rectangle_45" x="15.4" y="0" class="st3" width="6" height="2"/>
				<rect id="Rectangle_46" x="15.4" y="0" class="st2" width="6" height="2"/>
			</g>
		</g>
	</g>
</g>
</svg>
