<?xml version="1.0" encoding="utf-8"?>
<!-- Generator: Adobe Illustrator 23.0.0, SVG Export Plug-In . SVG Version: 6.00 Build 0)  -->
<svg version="1.1" id="Layer_1" xmlns="http://www.w3.org/2000/svg" xmlns:xlink="http://www.w3.org/1999/xlink" x="0px" y="0px"
	 viewBox="0 0 278.2 40.8" style="enable-background:new 0 0 278.2 40.8;" xml:space="preserve">
<style type="text/css">
	.st0{fill:none;stroke:#FFFFFF;stroke-width:8;stroke-linecap:round;stroke-linejoin:round;}
	.st1{fill:none;stroke:#FFFFFF;stroke-width:8;stroke-linecap:round;}
	.st2{enable-background:new    ;}
	.st3{fill:#FFFFFF;}
</style>
<g id="Group_440_1_" transform="translate(117.368 1024.631)">
	<g id="Group_372_1_" transform="translate(861.705 -960.276)">
		<path id="Path_489_1_" class="st0" d="M-721.3-60.4l16.4,16.4l-16.4,16.4"/>
		<path id="Path_490_1_" class="st1" d="M-705-44h-41.1"/>
	</g>
</g>
<g class="st2">
	<path class="st3" d="M24,12.4c2,1.7,3.1,4.5,3.1,8.2v13.2c0,0.3-0.1,0.5-0.3,0.8c-0.2,0.2-0.5,0.3-0.8,0.3h-5.2
		c-0.3,0-0.6-0.1-0.8-0.3s-0.3-0.5-0.3-0.8v-13c0-3.3-1.7-5-5-5h-2.9c-0.5,2-0.7,4.2-0.7,6.5l0.4,11.6c0,0.3-0.1,0.6-0.3,0.8
		S10.7,35,10.4,35H1.1c-0.3,0-0.6-0.1-0.8-0.3C0.1,34.5,0,34.2,0,33.9v-3.5c0-0.3,0.1-0.6,0.3-0.8c0.2-0.2,0.5-0.3,0.8-0.3h3.6v-6.9
		c-0.1-2.4,0.2-4.6,0.7-6.5H2.8c-0.3,0-0.6-0.1-0.8-0.3c-0.2-0.2-0.3-0.5-0.3-0.8V11c0-0.3,0.1-0.6,0.3-0.8C2.2,10,2.5,9.9,2.8,9.9
		h12.1C19,9.8,22,10.7,24,12.4z"/>
	<path class="st3" d="M32.2,24.2c-0.2-0.2-0.3-0.5-0.3-0.8V10.9c0-0.3,0.1-0.6,0.3-0.8c0.2-0.2,0.5-0.3,0.8-0.3h5.5
		c0.3,0,0.6,0.1,0.8,0.3c0.2,0.2,0.3,0.5,0.3,0.8v12.5c0,0.3-0.1,0.6-0.3,0.8s-0.5,0.3-0.8,0.3H33C32.7,24.5,32.4,24.4,32.2,24.2z"
		/>
	<path class="st3" d="M44.1,34.6c-0.2-0.2-0.3-0.5-0.3-0.8V30c0-0.3,0.1-0.6,0.3-0.8s0.5-0.3,0.8-0.3h11v-8.1c0-3.3-1.7-5-5-5h-5.6
		c-0.3,0-0.6-0.1-0.8-0.3c-0.2-0.2-0.3-0.5-0.3-0.8v-3.8c0-0.3,0.1-0.6,0.3-0.8c0.2-0.2,0.5-0.3,0.8-0.3h5.9c4.1,0,7.2,0.9,9.3,2.6
		c2.1,1.7,3.1,4.5,3.1,8.4v8.1h1.5c0.3,0,0.6,0.1,0.8,0.3c0.2,0.2,0.3,0.5,0.3,0.8v3.8c0,0.3-0.1,0.5-0.3,0.8
		c-0.2,0.2-0.5,0.3-0.8,0.3H44.9C44.6,34.9,44.3,34.8,44.1,34.6z"/>
	<path class="st3" d="M86.5,34.6c-0.2-0.2-0.3-0.5-0.3-0.8v-13c0-3.3-1.7-5-5-5h-10c-0.3,0-0.6-0.1-0.8-0.3
		c-0.2-0.2-0.3-0.5-0.3-0.8v-3.8c0-0.3,0.1-0.6,0.3-0.8c0.2-0.2,0.5-0.3,0.8-0.3h10.3c4,0,7.1,0.9,9.1,2.7c2,1.8,3.1,4.6,3.1,8.4v13
		c0,0.3-0.1,0.6-0.3,0.8S92.9,35,92.6,35h-5.2C86.9,34.9,86.7,34.8,86.5,34.6z M70.3,34.6c-0.2-0.2-0.3-0.5-0.3-0.8V21
		c0-0.3,0.1-0.6,0.3-0.8c0.2-0.2,0.5-0.3,0.8-0.3h5.2c0.3,0,0.6,0.1,0.8,0.3c0.2,0.2,0.3,0.5,0.3,0.8v12.8c0,0.3-0.1,0.5-0.3,0.8
		c-0.2,0.2-0.5,0.3-0.8,0.3h-5.2C70.8,34.9,70.6,34.8,70.3,34.6z"/>
	<path class="st3" d="M113.8,15.8h-7c-0.3,0-0.5-0.1-0.8-0.3c-0.2-0.2-0.3-0.5-0.3-0.8v-3.8c0-0.3,0.1-0.6,0.3-0.8
		c0.2-0.2,0.5-0.3,0.8-0.3h7.3c4.1,0,7.2,0.8,9.2,2.5s3,4.4,3,8.2v18.7c0,0.3-0.1,0.6-0.3,0.8c-0.2,0.2-0.5,0.3-0.8,0.3h-5.3
		c-0.3,0-0.6-0.1-0.8-0.3c-0.2-0.2-0.3-0.5-0.3-0.8V20.8C118.8,17.5,117.1,15.8,113.8,15.8z"/>
	<path class="st3" d="M133.9,32.5c-2-1.9-3-4.6-3-8.2V10.9c0-0.3,0.1-0.6,0.3-0.8c0.2-0.2,0.5-0.3,0.8-0.3h11.2
		c4.2,0,7.2,0.9,9.1,2.7c1.8,1.8,2.9,4.4,3,7.9c0,0.3,0,1,0,2.1s0,1.8,0,2.1c-0.2,3.5-1.2,6.2-3.1,8c-1.9,1.8-5,2.8-9.3,2.8
		C138.9,35.4,135.9,34.4,133.9,32.5z M147,28c0.8-0.7,1.2-1.9,1.3-3.6c0-0.3,0-0.9,0-1.9c0-0.9,0-1.6,0-1.8
		c-0.1-1.6-0.5-2.9-1.3-3.7s-2.1-1.2-3.9-1.2h-5.3v8.4c0,1.6,0.4,2.9,1.3,3.7c0.9,0.8,2.1,1.2,3.8,1.2C144.8,29.1,146.2,28.7,147,28
		z"/>
	<path class="st3" d="M181.6,12.5c1.9,1.8,2.8,4.5,2.8,8.1v13.3c0,0.3-0.1,0.5-0.3,0.8c-0.2,0.3-0.5,0.3-0.8,0.3h-12
		c-0.3,0-0.5-0.1-0.8-0.3c-0.2-0.2-0.3-0.5-0.3-0.8v-3.8c0-0.3,0.1-0.6,0.3-0.8s0.5-0.3,0.8-0.3h5.7v-8.1c0-1.5-0.4-2.7-1.1-3.6
		S174.2,16,173,16h-3.4l-3.7,17.7c0,0.3-0.1,0.6-0.4,0.8c-0.2,0.2-0.5,0.3-0.8,0.3h-5.1c-0.3,0-0.6-0.1-0.8-0.3
		c-0.2-0.2-0.3-0.5-0.2-0.8l4.3-17.7H160c-0.3,0-0.6-0.1-0.8-0.3c-0.2-0.2-0.3-0.5-0.3-0.8v-4c0-0.3,0.1-0.6,0.3-0.8
		c0.2-0.2,0.5-0.3,0.8-0.3h14.1C177.2,9.8,179.7,10.7,181.6,12.5z"/>
	<path class="st3" d="M205.6,12.6c1.7,1.8,2.5,4.6,2.5,8.3s-1.1,6.8-3.3,9.2s-5,4-8.3,5l-1.8,0.5c-0.3,0.1-0.6,0-0.8-0.3
		c-0.2-0.3-0.4-0.6-0.4-0.9V30c0-0.3,0.1-0.6,0.3-0.8s0.5-0.4,0.8-0.6L196,28c1.3-0.5,2.4-1.3,3.2-2.4c0.8-1.1,1.2-2.5,1.2-4.5
		c0-1.8-0.3-3.1-1-3.9c-0.6-0.7-1.8-1.1-3.6-1.1h-1h-0.1h-5.9c-0.3,0-0.6-0.1-0.8-0.3c-0.2-0.2-0.3-0.5-0.3-0.8V4.8
		c0-0.3,0.1-0.6,0.3-0.8c0.2-0.2,0.5-0.3,0.8-0.3h4.8c0.3,0,0.6,0.1,0.8,0.3c0.2,0.2,0.3,0.5,0.3,0.8v5h2.7
		C201.2,9.8,203.9,10.7,205.6,12.6z"/>
</g>
</svg>
